M48
; DRILL file {KiCad (5.1.10)-1} date 07/17/21 19:43:52
; FORMAT={-:-/ absolute / inch / decimal}
; #@! TF.CreationDate,2021-07-17T19:43:52-06:00
; #@! TF.GenerationSoftware,Kicad,Pcbnew,(5.1.10)-1
FMAT,2
INCH
T1C0.0157
T2C0.0512
T3C0.0787
%
G90
G05
T1
X3.55Y-2.85
X3.8268Y-2.9449
X4.2835Y-3.2047
X4.3386Y-3.0394
X4.378Y-3.1496
X4.4882Y-3.6693
X4.4921Y-3.5197
X4.5039Y-3.1614
X4.7539Y-3.4055
X4.8622Y-3.4055
X4.9Y-3.1
X4.9Y-3.5
X4.95Y-3.45
X5.0197Y-2.7657
X5.063Y-3.8976
X5.2Y-2.9
X5.2Y-3.2
X5.4134Y-3.4882
T2
X3.3Y-3.65
X3.3Y-3.85
T3
X3.2004Y-3.1039
T0
M30
