G04 #@! TF.GenerationSoftware,KiCad,Pcbnew,(5.1.10)-1*
G04 #@! TF.CreationDate,2021-07-17T19:43:19-06:00*
G04 #@! TF.ProjectId,FreezerDoorAlarm,46726565-7a65-4724-946f-6f72416c6172,rev?*
G04 #@! TF.SameCoordinates,Original*
G04 #@! TF.FileFunction,Legend,Top*
G04 #@! TF.FilePolarity,Positive*
%FSLAX46Y46*%
G04 Gerber Fmt 4.6, Leading zero omitted, Abs format (unit mm)*
G04 Created by KiCad (PCBNEW (5.1.10)-1) date 2021-07-17 19:43:19*
%MOMM*%
%LPD*%
G01*
G04 APERTURE LIST*
%ADD10C,0.120000*%
%ADD11C,0.150000*%
G04 APERTURE END LIST*
D10*
X111857776Y-81277500D02*
X112367224Y-81277500D01*
X111857776Y-82322500D02*
X112367224Y-82322500D01*
X123815000Y-86295000D02*
X123815000Y-84345000D01*
X123815000Y-86295000D02*
X123815000Y-88245000D01*
X114945000Y-86295000D02*
X114945000Y-84345000D01*
X114945000Y-86295000D02*
X114945000Y-89745000D01*
X100730000Y-86390000D02*
X101990000Y-86390000D01*
X107550000Y-86390000D02*
X106290000Y-86390000D01*
X100730000Y-82630000D02*
X100730000Y-86390000D01*
X107550000Y-80380000D02*
X107550000Y-86390000D01*
X126477500Y-80622224D02*
X126477500Y-80112776D01*
X127522500Y-80622224D02*
X127522500Y-80112776D01*
X121657776Y-72177500D02*
X122167224Y-72177500D01*
X121657776Y-73222500D02*
X122167224Y-73222500D01*
X113522500Y-77632776D02*
X113522500Y-78142224D01*
X112477500Y-77632776D02*
X112477500Y-78142224D01*
X137022500Y-85557776D02*
X137022500Y-86067224D01*
X135977500Y-85557776D02*
X135977500Y-86067224D01*
X135122500Y-88532776D02*
X135122500Y-89042224D01*
X134077500Y-88532776D02*
X134077500Y-89042224D01*
X133842224Y-85622500D02*
X133332776Y-85622500D01*
X133842224Y-84577500D02*
X133332776Y-84577500D01*
X132522500Y-91832776D02*
X132522500Y-92342224D01*
X131477500Y-91832776D02*
X131477500Y-92342224D01*
X126477500Y-84167224D02*
X126477500Y-83657776D01*
X127522500Y-84167224D02*
X127522500Y-83657776D01*
X125267224Y-93222500D02*
X124757776Y-93222500D01*
X125267224Y-92177500D02*
X124757776Y-92177500D01*
X120942224Y-92322500D02*
X120432776Y-92322500D01*
X120942224Y-91277500D02*
X120432776Y-91277500D01*
X118677500Y-95742224D02*
X118677500Y-95232776D01*
X119722500Y-95742224D02*
X119722500Y-95232776D01*
X107667224Y-91422500D02*
X107157776Y-91422500D01*
X107667224Y-90377500D02*
X107157776Y-90377500D01*
X111012500Y-92097776D02*
X111012500Y-92607224D01*
X109967500Y-92097776D02*
X109967500Y-92607224D01*
X131300000Y-73970000D02*
X131300000Y-73040000D01*
X131300000Y-70810000D02*
X131300000Y-71740000D01*
X131300000Y-70810000D02*
X129140000Y-70810000D01*
X131300000Y-73970000D02*
X129840000Y-73970000D01*
X124700000Y-71130000D02*
X124700000Y-72060000D01*
X124700000Y-74290000D02*
X124700000Y-73360000D01*
X124700000Y-74290000D02*
X126860000Y-74290000D01*
X124700000Y-71130000D02*
X126160000Y-71130000D01*
X117870000Y-80320000D02*
X117870000Y-79390000D01*
X117870000Y-77160000D02*
X117870000Y-78090000D01*
X117870000Y-77160000D02*
X115710000Y-77160000D01*
X117870000Y-80320000D02*
X116410000Y-80320000D01*
X131840000Y-81590000D02*
X131840000Y-80660000D01*
X131840000Y-78430000D02*
X131840000Y-79360000D01*
X131840000Y-78430000D02*
X129680000Y-78430000D01*
X131840000Y-81590000D02*
X130380000Y-81590000D01*
X134840000Y-90870000D02*
X134840000Y-91800000D01*
X134840000Y-94030000D02*
X134840000Y-93100000D01*
X134840000Y-94030000D02*
X137000000Y-94030000D01*
X134840000Y-90870000D02*
X136300000Y-90870000D01*
X133840000Y-99690000D02*
X133840000Y-98760000D01*
X133840000Y-96530000D02*
X133840000Y-97460000D01*
X133840000Y-96530000D02*
X131680000Y-96530000D01*
X133840000Y-99690000D02*
X132380000Y-99690000D01*
X123830000Y-97340000D02*
X122900000Y-97340000D01*
X120670000Y-97340000D02*
X121600000Y-97340000D01*
X120670000Y-97340000D02*
X120670000Y-99500000D01*
X123830000Y-97340000D02*
X123830000Y-98800000D01*
X117960000Y-101130000D02*
X117960000Y-100200000D01*
X117960000Y-97970000D02*
X117960000Y-98900000D01*
X117960000Y-97970000D02*
X115800000Y-97970000D01*
X117960000Y-101130000D02*
X116500000Y-101130000D01*
X93130000Y-93420000D02*
X93130000Y-93245000D01*
X93130000Y-93245000D02*
X100090000Y-93245000D01*
X107050000Y-93420000D02*
X107050000Y-93245000D01*
X107050000Y-93245000D02*
X100090000Y-93245000D01*
X107050000Y-99620000D02*
X107050000Y-99795000D01*
X107050000Y-99795000D02*
X100090000Y-99795000D01*
X93130000Y-99620000D02*
X93130000Y-99795000D01*
X93130000Y-99795000D02*
X100090000Y-99795000D01*
X138090000Y-70190000D02*
X138090000Y-74590000D01*
X138090000Y-74590000D02*
X133690000Y-74590000D01*
X133690000Y-74590000D02*
X133690000Y-70190000D01*
X133690000Y-70190000D02*
X138090000Y-70190000D01*
X138090000Y-77810000D02*
X138090000Y-82210000D01*
X138090000Y-82210000D02*
X133690000Y-82210000D01*
X133690000Y-82210000D02*
X133690000Y-77810000D01*
X133690000Y-77810000D02*
X138090000Y-77810000D01*
X85500000Y-97790000D02*
G75*
G03*
X85500000Y-97790000I-1680000J0D01*
G01*
X79720000Y-90110000D02*
X79720000Y-100390000D01*
X81220000Y-90110000D02*
X81220000Y-100390000D01*
X86121000Y-90110000D02*
X86121000Y-100390000D01*
X89081000Y-90110000D02*
X89081000Y-100390000D01*
X79160000Y-90110000D02*
X79160000Y-100390000D01*
X89081000Y-90110000D02*
X79160000Y-90110000D01*
X89081000Y-100390000D02*
X79160000Y-100390000D01*
X84889000Y-99065000D02*
X84843000Y-99018000D01*
X82581000Y-96756000D02*
X82546000Y-96721000D01*
X85095000Y-98860000D02*
X85059000Y-98825000D01*
X82797000Y-96563000D02*
X82751000Y-96516000D01*
X79660000Y-89870000D02*
X78920000Y-89870000D01*
X78920000Y-89870000D02*
X78920000Y-90370000D01*
X82139747Y-92738805D02*
G75*
G02*
X82285000Y-92026000I1680253J28805D01*
G01*
X83136958Y-91174574D02*
G75*
G02*
X84504000Y-91175000I683042J-1535426D01*
G01*
X85355426Y-92026958D02*
G75*
G02*
X85355000Y-93394000I-1535426J-683042D01*
G01*
X84503042Y-94245426D02*
G75*
G02*
X83136000Y-94245000I-683042J1535426D01*
G01*
X82285244Y-93393318D02*
G75*
G02*
X82140000Y-92710000I1534756J683318D01*
G01*
X81740000Y-83440000D02*
X78190000Y-83440000D01*
X78190000Y-83440000D02*
X78190000Y-74240000D01*
X78190000Y-74240000D02*
X81740000Y-74240000D01*
X88440000Y-74240000D02*
X90890000Y-74240000D01*
X90890000Y-74240000D02*
X90890000Y-74640000D01*
X90890000Y-74640000D02*
X92890000Y-74640000D01*
X92890000Y-74640000D02*
X92890000Y-77640000D01*
X92890000Y-81440000D02*
X92890000Y-83040000D01*
X92890000Y-83040000D02*
X90890000Y-83040000D01*
X90890000Y-83040000D02*
X90890000Y-83440000D01*
X90890000Y-83440000D02*
X88440000Y-83440000D01*
X94790000Y-77650000D02*
X96530000Y-77650000D01*
X96530000Y-77650000D02*
X96530000Y-79390000D01*
X123430000Y-79575000D02*
X123430000Y-75190000D01*
X123430000Y-75190000D02*
X120410000Y-75190000D01*
X120410000Y-75190000D02*
X120410000Y-79575000D01*
X127435000Y-89140000D02*
X131820000Y-89140000D01*
X131820000Y-89140000D02*
X131820000Y-86120000D01*
X131820000Y-86120000D02*
X127435000Y-86120000D01*
X127410000Y-99185000D02*
X127410000Y-94800000D01*
X127410000Y-94800000D02*
X124390000Y-94800000D01*
X124390000Y-94800000D02*
X124390000Y-99185000D01*
X116080000Y-92156233D02*
X116080000Y-92448767D01*
X115060000Y-92156233D02*
X115060000Y-92448767D01*
X113110000Y-88391233D02*
X113110000Y-88683767D01*
X112090000Y-88391233D02*
X112090000Y-88683767D01*
X108175000Y-75690000D02*
X103790000Y-75690000D01*
X103790000Y-75690000D02*
X103790000Y-78710000D01*
X103790000Y-78710000D02*
X108175000Y-78710000D01*
X98890000Y-74675000D02*
X98890000Y-79060000D01*
X98890000Y-79060000D02*
X101910000Y-79060000D01*
X101910000Y-79060000D02*
X101910000Y-74675000D01*
D11*
X111469642Y-80822380D02*
X111136309Y-80346190D01*
X110898214Y-80822380D02*
X110898214Y-79822380D01*
X111279166Y-79822380D01*
X111374404Y-79870000D01*
X111422023Y-79917619D01*
X111469642Y-80012857D01*
X111469642Y-80155714D01*
X111422023Y-80250952D01*
X111374404Y-80298571D01*
X111279166Y-80346190D01*
X110898214Y-80346190D01*
X112422023Y-80822380D02*
X111850595Y-80822380D01*
X112136309Y-80822380D02*
X112136309Y-79822380D01*
X112041071Y-79965238D01*
X111945833Y-80060476D01*
X111850595Y-80108095D01*
X112802976Y-79917619D02*
X112850595Y-79870000D01*
X112945833Y-79822380D01*
X113183928Y-79822380D01*
X113279166Y-79870000D01*
X113326785Y-79917619D01*
X113374404Y-80012857D01*
X113374404Y-80108095D01*
X113326785Y-80250952D01*
X112755357Y-80822380D01*
X113374404Y-80822380D01*
X113552380Y-87056904D02*
X114361904Y-87056904D01*
X114457142Y-87009285D01*
X114504761Y-86961666D01*
X114552380Y-86866428D01*
X114552380Y-86675952D01*
X114504761Y-86580714D01*
X114457142Y-86533095D01*
X114361904Y-86485476D01*
X113552380Y-86485476D01*
X113647619Y-86056904D02*
X113600000Y-86009285D01*
X113552380Y-85914047D01*
X113552380Y-85675952D01*
X113600000Y-85580714D01*
X113647619Y-85533095D01*
X113742857Y-85485476D01*
X113838095Y-85485476D01*
X113980952Y-85533095D01*
X114552380Y-86104523D01*
X114552380Y-85485476D01*
X108092380Y-85241904D02*
X108901904Y-85241904D01*
X108997142Y-85194285D01*
X109044761Y-85146666D01*
X109092380Y-85051428D01*
X109092380Y-84860952D01*
X109044761Y-84765714D01*
X108997142Y-84718095D01*
X108901904Y-84670476D01*
X108092380Y-84670476D01*
X109092380Y-83670476D02*
X109092380Y-84241904D01*
X109092380Y-83956190D02*
X108092380Y-83956190D01*
X108235238Y-84051428D01*
X108330476Y-84146666D01*
X108378095Y-84241904D01*
X126022380Y-81010357D02*
X125546190Y-81343690D01*
X126022380Y-81581785D02*
X125022380Y-81581785D01*
X125022380Y-81200833D01*
X125070000Y-81105595D01*
X125117619Y-81057976D01*
X125212857Y-81010357D01*
X125355714Y-81010357D01*
X125450952Y-81057976D01*
X125498571Y-81105595D01*
X125546190Y-81200833D01*
X125546190Y-81581785D01*
X126022380Y-80057976D02*
X126022380Y-80629404D01*
X126022380Y-80343690D02*
X125022380Y-80343690D01*
X125165238Y-80438928D01*
X125260476Y-80534166D01*
X125308095Y-80629404D01*
X125355714Y-79200833D02*
X126022380Y-79200833D01*
X124974761Y-79438928D02*
X125689047Y-79677023D01*
X125689047Y-79057976D01*
X121269642Y-71722380D02*
X120936309Y-71246190D01*
X120698214Y-71722380D02*
X120698214Y-70722380D01*
X121079166Y-70722380D01*
X121174404Y-70770000D01*
X121222023Y-70817619D01*
X121269642Y-70912857D01*
X121269642Y-71055714D01*
X121222023Y-71150952D01*
X121174404Y-71198571D01*
X121079166Y-71246190D01*
X120698214Y-71246190D01*
X122222023Y-71722380D02*
X121650595Y-71722380D01*
X121936309Y-71722380D02*
X121936309Y-70722380D01*
X121841071Y-70865238D01*
X121745833Y-70960476D01*
X121650595Y-71008095D01*
X122555357Y-70722380D02*
X123174404Y-70722380D01*
X122841071Y-71103333D01*
X122983928Y-71103333D01*
X123079166Y-71150952D01*
X123126785Y-71198571D01*
X123174404Y-71293809D01*
X123174404Y-71531904D01*
X123126785Y-71627142D01*
X123079166Y-71674761D01*
X122983928Y-71722380D01*
X122698214Y-71722380D01*
X122602976Y-71674761D01*
X122555357Y-71627142D01*
X114882380Y-78530357D02*
X114406190Y-78863690D01*
X114882380Y-79101785D02*
X113882380Y-79101785D01*
X113882380Y-78720833D01*
X113930000Y-78625595D01*
X113977619Y-78577976D01*
X114072857Y-78530357D01*
X114215714Y-78530357D01*
X114310952Y-78577976D01*
X114358571Y-78625595D01*
X114406190Y-78720833D01*
X114406190Y-79101785D01*
X114882380Y-77577976D02*
X114882380Y-78149404D01*
X114882380Y-77863690D02*
X113882380Y-77863690D01*
X114025238Y-77958928D01*
X114120476Y-78054166D01*
X114168095Y-78149404D01*
X114882380Y-76625595D02*
X114882380Y-77197023D01*
X114882380Y-76911309D02*
X113882380Y-76911309D01*
X114025238Y-77006547D01*
X114120476Y-77101785D01*
X114168095Y-77197023D01*
X138382380Y-86455357D02*
X137906190Y-86788690D01*
X138382380Y-87026785D02*
X137382380Y-87026785D01*
X137382380Y-86645833D01*
X137430000Y-86550595D01*
X137477619Y-86502976D01*
X137572857Y-86455357D01*
X137715714Y-86455357D01*
X137810952Y-86502976D01*
X137858571Y-86550595D01*
X137906190Y-86645833D01*
X137906190Y-87026785D01*
X138382380Y-85502976D02*
X138382380Y-86074404D01*
X138382380Y-85788690D02*
X137382380Y-85788690D01*
X137525238Y-85883928D01*
X137620476Y-85979166D01*
X137668095Y-86074404D01*
X137382380Y-84883928D02*
X137382380Y-84788690D01*
X137430000Y-84693452D01*
X137477619Y-84645833D01*
X137572857Y-84598214D01*
X137763333Y-84550595D01*
X138001428Y-84550595D01*
X138191904Y-84598214D01*
X138287142Y-84645833D01*
X138334761Y-84693452D01*
X138382380Y-84788690D01*
X138382380Y-84883928D01*
X138334761Y-84979166D01*
X138287142Y-85026785D01*
X138191904Y-85074404D01*
X138001428Y-85122023D01*
X137763333Y-85122023D01*
X137572857Y-85074404D01*
X137477619Y-85026785D01*
X137430000Y-84979166D01*
X137382380Y-84883928D01*
X136482380Y-88954166D02*
X136006190Y-89287500D01*
X136482380Y-89525595D02*
X135482380Y-89525595D01*
X135482380Y-89144642D01*
X135530000Y-89049404D01*
X135577619Y-89001785D01*
X135672857Y-88954166D01*
X135815714Y-88954166D01*
X135910952Y-89001785D01*
X135958571Y-89049404D01*
X136006190Y-89144642D01*
X136006190Y-89525595D01*
X136482380Y-88477976D02*
X136482380Y-88287500D01*
X136434761Y-88192261D01*
X136387142Y-88144642D01*
X136244285Y-88049404D01*
X136053809Y-88001785D01*
X135672857Y-88001785D01*
X135577619Y-88049404D01*
X135530000Y-88097023D01*
X135482380Y-88192261D01*
X135482380Y-88382738D01*
X135530000Y-88477976D01*
X135577619Y-88525595D01*
X135672857Y-88573214D01*
X135910952Y-88573214D01*
X136006190Y-88525595D01*
X136053809Y-88477976D01*
X136101428Y-88382738D01*
X136101428Y-88192261D01*
X136053809Y-88097023D01*
X136006190Y-88049404D01*
X135910952Y-88001785D01*
X133420833Y-86982380D02*
X133087500Y-86506190D01*
X132849404Y-86982380D02*
X132849404Y-85982380D01*
X133230357Y-85982380D01*
X133325595Y-86030000D01*
X133373214Y-86077619D01*
X133420833Y-86172857D01*
X133420833Y-86315714D01*
X133373214Y-86410952D01*
X133325595Y-86458571D01*
X133230357Y-86506190D01*
X132849404Y-86506190D01*
X133992261Y-86410952D02*
X133897023Y-86363333D01*
X133849404Y-86315714D01*
X133801785Y-86220476D01*
X133801785Y-86172857D01*
X133849404Y-86077619D01*
X133897023Y-86030000D01*
X133992261Y-85982380D01*
X134182738Y-85982380D01*
X134277976Y-86030000D01*
X134325595Y-86077619D01*
X134373214Y-86172857D01*
X134373214Y-86220476D01*
X134325595Y-86315714D01*
X134277976Y-86363333D01*
X134182738Y-86410952D01*
X133992261Y-86410952D01*
X133897023Y-86458571D01*
X133849404Y-86506190D01*
X133801785Y-86601428D01*
X133801785Y-86791904D01*
X133849404Y-86887142D01*
X133897023Y-86934761D01*
X133992261Y-86982380D01*
X134182738Y-86982380D01*
X134277976Y-86934761D01*
X134325595Y-86887142D01*
X134373214Y-86791904D01*
X134373214Y-86601428D01*
X134325595Y-86506190D01*
X134277976Y-86458571D01*
X134182738Y-86410952D01*
X133882380Y-92254166D02*
X133406190Y-92587500D01*
X133882380Y-92825595D02*
X132882380Y-92825595D01*
X132882380Y-92444642D01*
X132930000Y-92349404D01*
X132977619Y-92301785D01*
X133072857Y-92254166D01*
X133215714Y-92254166D01*
X133310952Y-92301785D01*
X133358571Y-92349404D01*
X133406190Y-92444642D01*
X133406190Y-92825595D01*
X132882380Y-91920833D02*
X132882380Y-91254166D01*
X133882380Y-91682738D01*
X126022380Y-84079166D02*
X125546190Y-84412500D01*
X126022380Y-84650595D02*
X125022380Y-84650595D01*
X125022380Y-84269642D01*
X125070000Y-84174404D01*
X125117619Y-84126785D01*
X125212857Y-84079166D01*
X125355714Y-84079166D01*
X125450952Y-84126785D01*
X125498571Y-84174404D01*
X125546190Y-84269642D01*
X125546190Y-84650595D01*
X125022380Y-83222023D02*
X125022380Y-83412500D01*
X125070000Y-83507738D01*
X125117619Y-83555357D01*
X125260476Y-83650595D01*
X125450952Y-83698214D01*
X125831904Y-83698214D01*
X125927142Y-83650595D01*
X125974761Y-83602976D01*
X126022380Y-83507738D01*
X126022380Y-83317261D01*
X125974761Y-83222023D01*
X125927142Y-83174404D01*
X125831904Y-83126785D01*
X125593809Y-83126785D01*
X125498571Y-83174404D01*
X125450952Y-83222023D01*
X125403333Y-83317261D01*
X125403333Y-83507738D01*
X125450952Y-83602976D01*
X125498571Y-83650595D01*
X125593809Y-83698214D01*
X124845833Y-94582380D02*
X124512500Y-94106190D01*
X124274404Y-94582380D02*
X124274404Y-93582380D01*
X124655357Y-93582380D01*
X124750595Y-93630000D01*
X124798214Y-93677619D01*
X124845833Y-93772857D01*
X124845833Y-93915714D01*
X124798214Y-94010952D01*
X124750595Y-94058571D01*
X124655357Y-94106190D01*
X124274404Y-94106190D01*
X125750595Y-93582380D02*
X125274404Y-93582380D01*
X125226785Y-94058571D01*
X125274404Y-94010952D01*
X125369642Y-93963333D01*
X125607738Y-93963333D01*
X125702976Y-94010952D01*
X125750595Y-94058571D01*
X125798214Y-94153809D01*
X125798214Y-94391904D01*
X125750595Y-94487142D01*
X125702976Y-94534761D01*
X125607738Y-94582380D01*
X125369642Y-94582380D01*
X125274404Y-94534761D01*
X125226785Y-94487142D01*
X120520833Y-93682380D02*
X120187500Y-93206190D01*
X119949404Y-93682380D02*
X119949404Y-92682380D01*
X120330357Y-92682380D01*
X120425595Y-92730000D01*
X120473214Y-92777619D01*
X120520833Y-92872857D01*
X120520833Y-93015714D01*
X120473214Y-93110952D01*
X120425595Y-93158571D01*
X120330357Y-93206190D01*
X119949404Y-93206190D01*
X121377976Y-93015714D02*
X121377976Y-93682380D01*
X121139880Y-92634761D02*
X120901785Y-93349047D01*
X121520833Y-93349047D01*
X118222380Y-95654166D02*
X117746190Y-95987500D01*
X118222380Y-96225595D02*
X117222380Y-96225595D01*
X117222380Y-95844642D01*
X117270000Y-95749404D01*
X117317619Y-95701785D01*
X117412857Y-95654166D01*
X117555714Y-95654166D01*
X117650952Y-95701785D01*
X117698571Y-95749404D01*
X117746190Y-95844642D01*
X117746190Y-96225595D01*
X117222380Y-95320833D02*
X117222380Y-94701785D01*
X117603333Y-95035119D01*
X117603333Y-94892261D01*
X117650952Y-94797023D01*
X117698571Y-94749404D01*
X117793809Y-94701785D01*
X118031904Y-94701785D01*
X118127142Y-94749404D01*
X118174761Y-94797023D01*
X118222380Y-94892261D01*
X118222380Y-95177976D01*
X118174761Y-95273214D01*
X118127142Y-95320833D01*
X107245833Y-92782380D02*
X106912500Y-92306190D01*
X106674404Y-92782380D02*
X106674404Y-91782380D01*
X107055357Y-91782380D01*
X107150595Y-91830000D01*
X107198214Y-91877619D01*
X107245833Y-91972857D01*
X107245833Y-92115714D01*
X107198214Y-92210952D01*
X107150595Y-92258571D01*
X107055357Y-92306190D01*
X106674404Y-92306190D01*
X107626785Y-91877619D02*
X107674404Y-91830000D01*
X107769642Y-91782380D01*
X108007738Y-91782380D01*
X108102976Y-91830000D01*
X108150595Y-91877619D01*
X108198214Y-91972857D01*
X108198214Y-92068095D01*
X108150595Y-92210952D01*
X107579166Y-92782380D01*
X108198214Y-92782380D01*
X112372380Y-92519166D02*
X111896190Y-92852500D01*
X112372380Y-93090595D02*
X111372380Y-93090595D01*
X111372380Y-92709642D01*
X111420000Y-92614404D01*
X111467619Y-92566785D01*
X111562857Y-92519166D01*
X111705714Y-92519166D01*
X111800952Y-92566785D01*
X111848571Y-92614404D01*
X111896190Y-92709642D01*
X111896190Y-93090595D01*
X112372380Y-91566785D02*
X112372380Y-92138214D01*
X112372380Y-91852500D02*
X111372380Y-91852500D01*
X111515238Y-91947738D01*
X111610476Y-92042976D01*
X111658095Y-92138214D01*
X130444761Y-70437619D02*
X130349523Y-70390000D01*
X130254285Y-70294761D01*
X130111428Y-70151904D01*
X130016190Y-70104285D01*
X129920952Y-70104285D01*
X129968571Y-70342380D02*
X129873333Y-70294761D01*
X129778095Y-70199523D01*
X129730476Y-70009047D01*
X129730476Y-69675714D01*
X129778095Y-69485238D01*
X129873333Y-69390000D01*
X129968571Y-69342380D01*
X130159047Y-69342380D01*
X130254285Y-69390000D01*
X130349523Y-69485238D01*
X130397142Y-69675714D01*
X130397142Y-70009047D01*
X130349523Y-70199523D01*
X130254285Y-70294761D01*
X130159047Y-70342380D01*
X129968571Y-70342380D01*
X130968571Y-69770952D02*
X130873333Y-69723333D01*
X130825714Y-69675714D01*
X130778095Y-69580476D01*
X130778095Y-69532857D01*
X130825714Y-69437619D01*
X130873333Y-69390000D01*
X130968571Y-69342380D01*
X131159047Y-69342380D01*
X131254285Y-69390000D01*
X131301904Y-69437619D01*
X131349523Y-69532857D01*
X131349523Y-69580476D01*
X131301904Y-69675714D01*
X131254285Y-69723333D01*
X131159047Y-69770952D01*
X130968571Y-69770952D01*
X130873333Y-69818571D01*
X130825714Y-69866190D01*
X130778095Y-69961428D01*
X130778095Y-70151904D01*
X130825714Y-70247142D01*
X130873333Y-70294761D01*
X130968571Y-70342380D01*
X131159047Y-70342380D01*
X131254285Y-70294761D01*
X131301904Y-70247142D01*
X131349523Y-70151904D01*
X131349523Y-69961428D01*
X131301904Y-69866190D01*
X131254285Y-69818571D01*
X131159047Y-69770952D01*
X125364761Y-75757619D02*
X125269523Y-75710000D01*
X125174285Y-75614761D01*
X125031428Y-75471904D01*
X124936190Y-75424285D01*
X124840952Y-75424285D01*
X124888571Y-75662380D02*
X124793333Y-75614761D01*
X124698095Y-75519523D01*
X124650476Y-75329047D01*
X124650476Y-74995714D01*
X124698095Y-74805238D01*
X124793333Y-74710000D01*
X124888571Y-74662380D01*
X125079047Y-74662380D01*
X125174285Y-74710000D01*
X125269523Y-74805238D01*
X125317142Y-74995714D01*
X125317142Y-75329047D01*
X125269523Y-75519523D01*
X125174285Y-75614761D01*
X125079047Y-75662380D01*
X124888571Y-75662380D01*
X125650476Y-74662380D02*
X126317142Y-74662380D01*
X125888571Y-75662380D01*
X117014761Y-76787619D02*
X116919523Y-76740000D01*
X116824285Y-76644761D01*
X116681428Y-76501904D01*
X116586190Y-76454285D01*
X116490952Y-76454285D01*
X116538571Y-76692380D02*
X116443333Y-76644761D01*
X116348095Y-76549523D01*
X116300476Y-76359047D01*
X116300476Y-76025714D01*
X116348095Y-75835238D01*
X116443333Y-75740000D01*
X116538571Y-75692380D01*
X116729047Y-75692380D01*
X116824285Y-75740000D01*
X116919523Y-75835238D01*
X116967142Y-76025714D01*
X116967142Y-76359047D01*
X116919523Y-76549523D01*
X116824285Y-76644761D01*
X116729047Y-76692380D01*
X116538571Y-76692380D01*
X117824285Y-75692380D02*
X117633809Y-75692380D01*
X117538571Y-75740000D01*
X117490952Y-75787619D01*
X117395714Y-75930476D01*
X117348095Y-76120952D01*
X117348095Y-76501904D01*
X117395714Y-76597142D01*
X117443333Y-76644761D01*
X117538571Y-76692380D01*
X117729047Y-76692380D01*
X117824285Y-76644761D01*
X117871904Y-76597142D01*
X117919523Y-76501904D01*
X117919523Y-76263809D01*
X117871904Y-76168571D01*
X117824285Y-76120952D01*
X117729047Y-76073333D01*
X117538571Y-76073333D01*
X117443333Y-76120952D01*
X117395714Y-76168571D01*
X117348095Y-76263809D01*
X130984761Y-78057619D02*
X130889523Y-78010000D01*
X130794285Y-77914761D01*
X130651428Y-77771904D01*
X130556190Y-77724285D01*
X130460952Y-77724285D01*
X130508571Y-77962380D02*
X130413333Y-77914761D01*
X130318095Y-77819523D01*
X130270476Y-77629047D01*
X130270476Y-77295714D01*
X130318095Y-77105238D01*
X130413333Y-77010000D01*
X130508571Y-76962380D01*
X130699047Y-76962380D01*
X130794285Y-77010000D01*
X130889523Y-77105238D01*
X130937142Y-77295714D01*
X130937142Y-77629047D01*
X130889523Y-77819523D01*
X130794285Y-77914761D01*
X130699047Y-77962380D01*
X130508571Y-77962380D01*
X131841904Y-76962380D02*
X131365714Y-76962380D01*
X131318095Y-77438571D01*
X131365714Y-77390952D01*
X131460952Y-77343333D01*
X131699047Y-77343333D01*
X131794285Y-77390952D01*
X131841904Y-77438571D01*
X131889523Y-77533809D01*
X131889523Y-77771904D01*
X131841904Y-77867142D01*
X131794285Y-77914761D01*
X131699047Y-77962380D01*
X131460952Y-77962380D01*
X131365714Y-77914761D01*
X131318095Y-77867142D01*
X135504761Y-95497619D02*
X135409523Y-95450000D01*
X135314285Y-95354761D01*
X135171428Y-95211904D01*
X135076190Y-95164285D01*
X134980952Y-95164285D01*
X135028571Y-95402380D02*
X134933333Y-95354761D01*
X134838095Y-95259523D01*
X134790476Y-95069047D01*
X134790476Y-94735714D01*
X134838095Y-94545238D01*
X134933333Y-94450000D01*
X135028571Y-94402380D01*
X135219047Y-94402380D01*
X135314285Y-94450000D01*
X135409523Y-94545238D01*
X135457142Y-94735714D01*
X135457142Y-95069047D01*
X135409523Y-95259523D01*
X135314285Y-95354761D01*
X135219047Y-95402380D01*
X135028571Y-95402380D01*
X136314285Y-94735714D02*
X136314285Y-95402380D01*
X136076190Y-94354761D02*
X135838095Y-95069047D01*
X136457142Y-95069047D01*
X132984761Y-96157619D02*
X132889523Y-96110000D01*
X132794285Y-96014761D01*
X132651428Y-95871904D01*
X132556190Y-95824285D01*
X132460952Y-95824285D01*
X132508571Y-96062380D02*
X132413333Y-96014761D01*
X132318095Y-95919523D01*
X132270476Y-95729047D01*
X132270476Y-95395714D01*
X132318095Y-95205238D01*
X132413333Y-95110000D01*
X132508571Y-95062380D01*
X132699047Y-95062380D01*
X132794285Y-95110000D01*
X132889523Y-95205238D01*
X132937142Y-95395714D01*
X132937142Y-95729047D01*
X132889523Y-95919523D01*
X132794285Y-96014761D01*
X132699047Y-96062380D01*
X132508571Y-96062380D01*
X133270476Y-95062380D02*
X133889523Y-95062380D01*
X133556190Y-95443333D01*
X133699047Y-95443333D01*
X133794285Y-95490952D01*
X133841904Y-95538571D01*
X133889523Y-95633809D01*
X133889523Y-95871904D01*
X133841904Y-95967142D01*
X133794285Y-96014761D01*
X133699047Y-96062380D01*
X133413333Y-96062380D01*
X133318095Y-96014761D01*
X133270476Y-95967142D01*
X120297619Y-98195238D02*
X120250000Y-98290476D01*
X120154761Y-98385714D01*
X120011904Y-98528571D01*
X119964285Y-98623809D01*
X119964285Y-98719047D01*
X120202380Y-98671428D02*
X120154761Y-98766666D01*
X120059523Y-98861904D01*
X119869047Y-98909523D01*
X119535714Y-98909523D01*
X119345238Y-98861904D01*
X119250000Y-98766666D01*
X119202380Y-98671428D01*
X119202380Y-98480952D01*
X119250000Y-98385714D01*
X119345238Y-98290476D01*
X119535714Y-98242857D01*
X119869047Y-98242857D01*
X120059523Y-98290476D01*
X120154761Y-98385714D01*
X120202380Y-98480952D01*
X120202380Y-98671428D01*
X119297619Y-97861904D02*
X119250000Y-97814285D01*
X119202380Y-97719047D01*
X119202380Y-97480952D01*
X119250000Y-97385714D01*
X119297619Y-97338095D01*
X119392857Y-97290476D01*
X119488095Y-97290476D01*
X119630952Y-97338095D01*
X120202380Y-97909523D01*
X120202380Y-97290476D01*
X117104761Y-97597619D02*
X117009523Y-97550000D01*
X116914285Y-97454761D01*
X116771428Y-97311904D01*
X116676190Y-97264285D01*
X116580952Y-97264285D01*
X116628571Y-97502380D02*
X116533333Y-97454761D01*
X116438095Y-97359523D01*
X116390476Y-97169047D01*
X116390476Y-96835714D01*
X116438095Y-96645238D01*
X116533333Y-96550000D01*
X116628571Y-96502380D01*
X116819047Y-96502380D01*
X116914285Y-96550000D01*
X117009523Y-96645238D01*
X117057142Y-96835714D01*
X117057142Y-97169047D01*
X117009523Y-97359523D01*
X116914285Y-97454761D01*
X116819047Y-97502380D01*
X116628571Y-97502380D01*
X118009523Y-97502380D02*
X117438095Y-97502380D01*
X117723809Y-97502380D02*
X117723809Y-96502380D01*
X117628571Y-96645238D01*
X117533333Y-96740476D01*
X117438095Y-96788095D01*
X99923333Y-92797380D02*
X99447142Y-92797380D01*
X99447142Y-91797380D01*
X100780476Y-92797380D02*
X100209047Y-92797380D01*
X100494761Y-92797380D02*
X100494761Y-91797380D01*
X100399523Y-91940238D01*
X100304285Y-92035476D01*
X100209047Y-92083095D01*
X138240380Y-72723333D02*
X138954666Y-72723333D01*
X139097523Y-72770952D01*
X139192761Y-72866190D01*
X139240380Y-73009047D01*
X139240380Y-73104285D01*
X138573714Y-71818571D02*
X139240380Y-71818571D01*
X138192761Y-72056666D02*
X138907047Y-72294761D01*
X138907047Y-71675714D01*
X138240380Y-80343333D02*
X138954666Y-80343333D01*
X139097523Y-80390952D01*
X139192761Y-80486190D01*
X139240380Y-80629047D01*
X139240380Y-80724285D01*
X138240380Y-79962380D02*
X138240380Y-79343333D01*
X138621333Y-79676666D01*
X138621333Y-79533809D01*
X138668952Y-79438571D01*
X138716571Y-79390952D01*
X138811809Y-79343333D01*
X139049904Y-79343333D01*
X139145142Y-79390952D01*
X139192761Y-79438571D01*
X139240380Y-79533809D01*
X139240380Y-79819523D01*
X139192761Y-79914761D01*
X139145142Y-79962380D01*
X89532380Y-95583333D02*
X90246666Y-95583333D01*
X90389523Y-95630952D01*
X90484761Y-95726190D01*
X90532380Y-95869047D01*
X90532380Y-95964285D01*
X89627619Y-95154761D02*
X89580000Y-95107142D01*
X89532380Y-95011904D01*
X89532380Y-94773809D01*
X89580000Y-94678571D01*
X89627619Y-94630952D01*
X89722857Y-94583333D01*
X89818095Y-94583333D01*
X89960952Y-94630952D01*
X90532380Y-95202380D01*
X90532380Y-94583333D01*
X93492380Y-74673333D02*
X94206666Y-74673333D01*
X94349523Y-74720952D01*
X94444761Y-74816190D01*
X94492380Y-74959047D01*
X94492380Y-75054285D01*
X94492380Y-73673333D02*
X94492380Y-74244761D01*
X94492380Y-73959047D02*
X93492380Y-73959047D01*
X93635238Y-74054285D01*
X93730476Y-74149523D01*
X93778095Y-74244761D01*
X124627142Y-77991666D02*
X124674761Y-78039285D01*
X124722380Y-78182142D01*
X124722380Y-78277380D01*
X124674761Y-78420238D01*
X124579523Y-78515476D01*
X124484285Y-78563095D01*
X124293809Y-78610714D01*
X124150952Y-78610714D01*
X123960476Y-78563095D01*
X123865238Y-78515476D01*
X123770000Y-78420238D01*
X123722380Y-78277380D01*
X123722380Y-78182142D01*
X123770000Y-78039285D01*
X123817619Y-77991666D01*
X123722380Y-77658333D02*
X123722380Y-76991666D01*
X124722380Y-77420238D01*
X129018333Y-90337142D02*
X128970714Y-90384761D01*
X128827857Y-90432380D01*
X128732619Y-90432380D01*
X128589761Y-90384761D01*
X128494523Y-90289523D01*
X128446904Y-90194285D01*
X128399285Y-90003809D01*
X128399285Y-89860952D01*
X128446904Y-89670476D01*
X128494523Y-89575238D01*
X128589761Y-89480000D01*
X128732619Y-89432380D01*
X128827857Y-89432380D01*
X128970714Y-89480000D01*
X129018333Y-89527619D01*
X129875476Y-89432380D02*
X129685000Y-89432380D01*
X129589761Y-89480000D01*
X129542142Y-89527619D01*
X129446904Y-89670476D01*
X129399285Y-89860952D01*
X129399285Y-90241904D01*
X129446904Y-90337142D01*
X129494523Y-90384761D01*
X129589761Y-90432380D01*
X129780238Y-90432380D01*
X129875476Y-90384761D01*
X129923095Y-90337142D01*
X129970714Y-90241904D01*
X129970714Y-90003809D01*
X129923095Y-89908571D01*
X129875476Y-89860952D01*
X129780238Y-89813333D01*
X129589761Y-89813333D01*
X129494523Y-89860952D01*
X129446904Y-89908571D01*
X129399285Y-90003809D01*
X128607142Y-97601666D02*
X128654761Y-97649285D01*
X128702380Y-97792142D01*
X128702380Y-97887380D01*
X128654761Y-98030238D01*
X128559523Y-98125476D01*
X128464285Y-98173095D01*
X128273809Y-98220714D01*
X128130952Y-98220714D01*
X127940476Y-98173095D01*
X127845238Y-98125476D01*
X127750000Y-98030238D01*
X127702380Y-97887380D01*
X127702380Y-97792142D01*
X127750000Y-97649285D01*
X127797619Y-97601666D01*
X127702380Y-96696904D02*
X127702380Y-97173095D01*
X128178571Y-97220714D01*
X128130952Y-97173095D01*
X128083333Y-97077857D01*
X128083333Y-96839761D01*
X128130952Y-96744523D01*
X128178571Y-96696904D01*
X128273809Y-96649285D01*
X128511904Y-96649285D01*
X128607142Y-96696904D01*
X128654761Y-96744523D01*
X128702380Y-96839761D01*
X128702380Y-97077857D01*
X128654761Y-97173095D01*
X128607142Y-97220714D01*
X117357142Y-92469166D02*
X117404761Y-92516785D01*
X117452380Y-92659642D01*
X117452380Y-92754880D01*
X117404761Y-92897738D01*
X117309523Y-92992976D01*
X117214285Y-93040595D01*
X117023809Y-93088214D01*
X116880952Y-93088214D01*
X116690476Y-93040595D01*
X116595238Y-92992976D01*
X116500000Y-92897738D01*
X116452380Y-92754880D01*
X116452380Y-92659642D01*
X116500000Y-92516785D01*
X116547619Y-92469166D01*
X116785714Y-91612023D02*
X117452380Y-91612023D01*
X116404761Y-91850119D02*
X117119047Y-92088214D01*
X117119047Y-91469166D01*
X114387142Y-88704166D02*
X114434761Y-88751785D01*
X114482380Y-88894642D01*
X114482380Y-88989880D01*
X114434761Y-89132738D01*
X114339523Y-89227976D01*
X114244285Y-89275595D01*
X114053809Y-89323214D01*
X113910952Y-89323214D01*
X113720476Y-89275595D01*
X113625238Y-89227976D01*
X113530000Y-89132738D01*
X113482380Y-88989880D01*
X113482380Y-88894642D01*
X113530000Y-88751785D01*
X113577619Y-88704166D01*
X113482380Y-88370833D02*
X113482380Y-87751785D01*
X113863333Y-88085119D01*
X113863333Y-87942261D01*
X113910952Y-87847023D01*
X113958571Y-87799404D01*
X114053809Y-87751785D01*
X114291904Y-87751785D01*
X114387142Y-87799404D01*
X114434761Y-87847023D01*
X114482380Y-87942261D01*
X114482380Y-88227976D01*
X114434761Y-88323214D01*
X114387142Y-88370833D01*
X106258333Y-75207142D02*
X106210714Y-75254761D01*
X106067857Y-75302380D01*
X105972619Y-75302380D01*
X105829761Y-75254761D01*
X105734523Y-75159523D01*
X105686904Y-75064285D01*
X105639285Y-74873809D01*
X105639285Y-74730952D01*
X105686904Y-74540476D01*
X105734523Y-74445238D01*
X105829761Y-74350000D01*
X105972619Y-74302380D01*
X106067857Y-74302380D01*
X106210714Y-74350000D01*
X106258333Y-74397619D01*
X106639285Y-74397619D02*
X106686904Y-74350000D01*
X106782142Y-74302380D01*
X107020238Y-74302380D01*
X107115476Y-74350000D01*
X107163095Y-74397619D01*
X107210714Y-74492857D01*
X107210714Y-74588095D01*
X107163095Y-74730952D01*
X106591666Y-75302380D01*
X107210714Y-75302380D01*
X98407142Y-76591666D02*
X98454761Y-76639285D01*
X98502380Y-76782142D01*
X98502380Y-76877380D01*
X98454761Y-77020238D01*
X98359523Y-77115476D01*
X98264285Y-77163095D01*
X98073809Y-77210714D01*
X97930952Y-77210714D01*
X97740476Y-77163095D01*
X97645238Y-77115476D01*
X97550000Y-77020238D01*
X97502380Y-76877380D01*
X97502380Y-76782142D01*
X97550000Y-76639285D01*
X97597619Y-76591666D01*
X98502380Y-75639285D02*
X98502380Y-76210714D01*
X98502380Y-75925000D02*
X97502380Y-75925000D01*
X97645238Y-76020238D01*
X97740476Y-76115476D01*
X97788095Y-76210714D01*
M02*
