G04 #@! TF.GenerationSoftware,KiCad,Pcbnew,(5.1.10)-1*
G04 #@! TF.CreationDate,2021-07-15T22:45:27-06:00*
G04 #@! TF.ProjectId,FreezerDoorAlarm,46726565-7a65-4724-946f-6f72416c6172,rev?*
G04 #@! TF.SameCoordinates,Original*
G04 #@! TF.FileFunction,Copper,L1,Top*
G04 #@! TF.FilePolarity,Positive*
%FSLAX46Y46*%
G04 Gerber Fmt 4.6, Leading zero omitted, Abs format (unit mm)*
G04 Created by KiCad (PCBNEW (5.1.10)-1) date 2021-07-15 22:45:27*
%MOMM*%
%LPD*%
G01*
G04 APERTURE LIST*
G04 #@! TA.AperFunction,SMDPad,CuDef*
%ADD10R,1.500000X2.000000*%
G04 #@! TD*
G04 #@! TA.AperFunction,SMDPad,CuDef*
%ADD11R,3.800000X2.000000*%
G04 #@! TD*
G04 #@! TA.AperFunction,SMDPad,CuDef*
%ADD12R,0.900000X0.800000*%
G04 #@! TD*
G04 #@! TA.AperFunction,SMDPad,CuDef*
%ADD13R,0.800000X0.900000*%
G04 #@! TD*
G04 #@! TA.AperFunction,SMDPad,CuDef*
%ADD14R,4.600000X5.600000*%
G04 #@! TD*
G04 #@! TA.AperFunction,SMDPad,CuDef*
%ADD15R,4.000000X4.000000*%
G04 #@! TD*
G04 #@! TA.AperFunction,ComponentPad*
%ADD16C,2.600000*%
G04 #@! TD*
G04 #@! TA.AperFunction,ComponentPad*
%ADD17R,2.600000X2.600000*%
G04 #@! TD*
G04 #@! TA.AperFunction,SMDPad,CuDef*
%ADD18R,6.200000X3.900000*%
G04 #@! TD*
G04 #@! TA.AperFunction,SMDPad,CuDef*
%ADD19R,4.400000X3.300000*%
G04 #@! TD*
G04 #@! TA.AperFunction,ViaPad*
%ADD20C,0.800000*%
G04 #@! TD*
G04 #@! TA.AperFunction,Conductor*
%ADD21C,0.250000*%
G04 #@! TD*
G04 #@! TA.AperFunction,Conductor*
%ADD22C,0.254000*%
G04 #@! TD*
G04 #@! TA.AperFunction,Conductor*
%ADD23C,0.100000*%
G04 #@! TD*
G04 APERTURE END LIST*
G04 #@! TA.AperFunction,SMDPad,CuDef*
G36*
G01*
X115720000Y-84795000D02*
X115420000Y-84795000D01*
G75*
G02*
X115270000Y-84645000I0J150000D01*
G01*
X115270000Y-82995000D01*
G75*
G02*
X115420000Y-82845000I150000J0D01*
G01*
X115720000Y-82845000D01*
G75*
G02*
X115870000Y-82995000I0J-150000D01*
G01*
X115870000Y-84645000D01*
G75*
G02*
X115720000Y-84795000I-150000J0D01*
G01*
G37*
G04 #@! TD.AperFunction*
G04 #@! TA.AperFunction,SMDPad,CuDef*
G36*
G01*
X116990000Y-84795000D02*
X116690000Y-84795000D01*
G75*
G02*
X116540000Y-84645000I0J150000D01*
G01*
X116540000Y-82995000D01*
G75*
G02*
X116690000Y-82845000I150000J0D01*
G01*
X116990000Y-82845000D01*
G75*
G02*
X117140000Y-82995000I0J-150000D01*
G01*
X117140000Y-84645000D01*
G75*
G02*
X116990000Y-84795000I-150000J0D01*
G01*
G37*
G04 #@! TD.AperFunction*
G04 #@! TA.AperFunction,SMDPad,CuDef*
G36*
G01*
X118260000Y-84795000D02*
X117960000Y-84795000D01*
G75*
G02*
X117810000Y-84645000I0J150000D01*
G01*
X117810000Y-82995000D01*
G75*
G02*
X117960000Y-82845000I150000J0D01*
G01*
X118260000Y-82845000D01*
G75*
G02*
X118410000Y-82995000I0J-150000D01*
G01*
X118410000Y-84645000D01*
G75*
G02*
X118260000Y-84795000I-150000J0D01*
G01*
G37*
G04 #@! TD.AperFunction*
G04 #@! TA.AperFunction,SMDPad,CuDef*
G36*
G01*
X119530000Y-84795000D02*
X119230000Y-84795000D01*
G75*
G02*
X119080000Y-84645000I0J150000D01*
G01*
X119080000Y-82995000D01*
G75*
G02*
X119230000Y-82845000I150000J0D01*
G01*
X119530000Y-82845000D01*
G75*
G02*
X119680000Y-82995000I0J-150000D01*
G01*
X119680000Y-84645000D01*
G75*
G02*
X119530000Y-84795000I-150000J0D01*
G01*
G37*
G04 #@! TD.AperFunction*
G04 #@! TA.AperFunction,SMDPad,CuDef*
G36*
G01*
X120800000Y-84795000D02*
X120500000Y-84795000D01*
G75*
G02*
X120350000Y-84645000I0J150000D01*
G01*
X120350000Y-82995000D01*
G75*
G02*
X120500000Y-82845000I150000J0D01*
G01*
X120800000Y-82845000D01*
G75*
G02*
X120950000Y-82995000I0J-150000D01*
G01*
X120950000Y-84645000D01*
G75*
G02*
X120800000Y-84795000I-150000J0D01*
G01*
G37*
G04 #@! TD.AperFunction*
G04 #@! TA.AperFunction,SMDPad,CuDef*
G36*
G01*
X122070000Y-84795000D02*
X121770000Y-84795000D01*
G75*
G02*
X121620000Y-84645000I0J150000D01*
G01*
X121620000Y-82995000D01*
G75*
G02*
X121770000Y-82845000I150000J0D01*
G01*
X122070000Y-82845000D01*
G75*
G02*
X122220000Y-82995000I0J-150000D01*
G01*
X122220000Y-84645000D01*
G75*
G02*
X122070000Y-84795000I-150000J0D01*
G01*
G37*
G04 #@! TD.AperFunction*
G04 #@! TA.AperFunction,SMDPad,CuDef*
G36*
G01*
X123340000Y-84795000D02*
X123040000Y-84795000D01*
G75*
G02*
X122890000Y-84645000I0J150000D01*
G01*
X122890000Y-82995000D01*
G75*
G02*
X123040000Y-82845000I150000J0D01*
G01*
X123340000Y-82845000D01*
G75*
G02*
X123490000Y-82995000I0J-150000D01*
G01*
X123490000Y-84645000D01*
G75*
G02*
X123340000Y-84795000I-150000J0D01*
G01*
G37*
G04 #@! TD.AperFunction*
G04 #@! TA.AperFunction,SMDPad,CuDef*
G36*
G01*
X123340000Y-89745000D02*
X123040000Y-89745000D01*
G75*
G02*
X122890000Y-89595000I0J150000D01*
G01*
X122890000Y-87945000D01*
G75*
G02*
X123040000Y-87795000I150000J0D01*
G01*
X123340000Y-87795000D01*
G75*
G02*
X123490000Y-87945000I0J-150000D01*
G01*
X123490000Y-89595000D01*
G75*
G02*
X123340000Y-89745000I-150000J0D01*
G01*
G37*
G04 #@! TD.AperFunction*
G04 #@! TA.AperFunction,SMDPad,CuDef*
G36*
G01*
X122070000Y-89745000D02*
X121770000Y-89745000D01*
G75*
G02*
X121620000Y-89595000I0J150000D01*
G01*
X121620000Y-87945000D01*
G75*
G02*
X121770000Y-87795000I150000J0D01*
G01*
X122070000Y-87795000D01*
G75*
G02*
X122220000Y-87945000I0J-150000D01*
G01*
X122220000Y-89595000D01*
G75*
G02*
X122070000Y-89745000I-150000J0D01*
G01*
G37*
G04 #@! TD.AperFunction*
G04 #@! TA.AperFunction,SMDPad,CuDef*
G36*
G01*
X120800000Y-89745000D02*
X120500000Y-89745000D01*
G75*
G02*
X120350000Y-89595000I0J150000D01*
G01*
X120350000Y-87945000D01*
G75*
G02*
X120500000Y-87795000I150000J0D01*
G01*
X120800000Y-87795000D01*
G75*
G02*
X120950000Y-87945000I0J-150000D01*
G01*
X120950000Y-89595000D01*
G75*
G02*
X120800000Y-89745000I-150000J0D01*
G01*
G37*
G04 #@! TD.AperFunction*
G04 #@! TA.AperFunction,SMDPad,CuDef*
G36*
G01*
X119530000Y-89745000D02*
X119230000Y-89745000D01*
G75*
G02*
X119080000Y-89595000I0J150000D01*
G01*
X119080000Y-87945000D01*
G75*
G02*
X119230000Y-87795000I150000J0D01*
G01*
X119530000Y-87795000D01*
G75*
G02*
X119680000Y-87945000I0J-150000D01*
G01*
X119680000Y-89595000D01*
G75*
G02*
X119530000Y-89745000I-150000J0D01*
G01*
G37*
G04 #@! TD.AperFunction*
G04 #@! TA.AperFunction,SMDPad,CuDef*
G36*
G01*
X118260000Y-89745000D02*
X117960000Y-89745000D01*
G75*
G02*
X117810000Y-89595000I0J150000D01*
G01*
X117810000Y-87945000D01*
G75*
G02*
X117960000Y-87795000I150000J0D01*
G01*
X118260000Y-87795000D01*
G75*
G02*
X118410000Y-87945000I0J-150000D01*
G01*
X118410000Y-89595000D01*
G75*
G02*
X118260000Y-89745000I-150000J0D01*
G01*
G37*
G04 #@! TD.AperFunction*
G04 #@! TA.AperFunction,SMDPad,CuDef*
G36*
G01*
X116990000Y-89745000D02*
X116690000Y-89745000D01*
G75*
G02*
X116540000Y-89595000I0J150000D01*
G01*
X116540000Y-87945000D01*
G75*
G02*
X116690000Y-87795000I150000J0D01*
G01*
X116990000Y-87795000D01*
G75*
G02*
X117140000Y-87945000I0J-150000D01*
G01*
X117140000Y-89595000D01*
G75*
G02*
X116990000Y-89745000I-150000J0D01*
G01*
G37*
G04 #@! TD.AperFunction*
G04 #@! TA.AperFunction,SMDPad,CuDef*
G36*
G01*
X115720000Y-89745000D02*
X115420000Y-89745000D01*
G75*
G02*
X115270000Y-89595000I0J150000D01*
G01*
X115270000Y-87945000D01*
G75*
G02*
X115420000Y-87795000I150000J0D01*
G01*
X115720000Y-87795000D01*
G75*
G02*
X115870000Y-87945000I0J-150000D01*
G01*
X115870000Y-89595000D01*
G75*
G02*
X115720000Y-89745000I-150000J0D01*
G01*
G37*
G04 #@! TD.AperFunction*
D10*
X106440000Y-81330000D03*
X101840000Y-81330000D03*
X104140000Y-81330000D03*
D11*
X104140000Y-87630000D03*
G04 #@! TA.AperFunction,SMDPad,CuDef*
G36*
G01*
X127237500Y-79942500D02*
X126762500Y-79942500D01*
G75*
G02*
X126525000Y-79705000I0J237500D01*
G01*
X126525000Y-79205000D01*
G75*
G02*
X126762500Y-78967500I237500J0D01*
G01*
X127237500Y-78967500D01*
G75*
G02*
X127475000Y-79205000I0J-237500D01*
G01*
X127475000Y-79705000D01*
G75*
G02*
X127237500Y-79942500I-237500J0D01*
G01*
G37*
G04 #@! TD.AperFunction*
G04 #@! TA.AperFunction,SMDPad,CuDef*
G36*
G01*
X127237500Y-81767500D02*
X126762500Y-81767500D01*
G75*
G02*
X126525000Y-81530000I0J237500D01*
G01*
X126525000Y-81030000D01*
G75*
G02*
X126762500Y-80792500I237500J0D01*
G01*
X127237500Y-80792500D01*
G75*
G02*
X127475000Y-81030000I0J-237500D01*
G01*
X127475000Y-81530000D01*
G75*
G02*
X127237500Y-81767500I-237500J0D01*
G01*
G37*
G04 #@! TD.AperFunction*
G04 #@! TA.AperFunction,SMDPad,CuDef*
G36*
G01*
X118177500Y-73897500D02*
X118177500Y-73422500D01*
G75*
G02*
X118415000Y-73185000I237500J0D01*
G01*
X118915000Y-73185000D01*
G75*
G02*
X119152500Y-73422500I0J-237500D01*
G01*
X119152500Y-73897500D01*
G75*
G02*
X118915000Y-74135000I-237500J0D01*
G01*
X118415000Y-74135000D01*
G75*
G02*
X118177500Y-73897500I0J237500D01*
G01*
G37*
G04 #@! TD.AperFunction*
G04 #@! TA.AperFunction,SMDPad,CuDef*
G36*
G01*
X116352500Y-73897500D02*
X116352500Y-73422500D01*
G75*
G02*
X116590000Y-73185000I237500J0D01*
G01*
X117090000Y-73185000D01*
G75*
G02*
X117327500Y-73422500I0J-237500D01*
G01*
X117327500Y-73897500D01*
G75*
G02*
X117090000Y-74135000I-237500J0D01*
G01*
X116590000Y-74135000D01*
G75*
G02*
X116352500Y-73897500I0J237500D01*
G01*
G37*
G04 #@! TD.AperFunction*
G04 #@! TA.AperFunction,SMDPad,CuDef*
G36*
G01*
X111272500Y-80247500D02*
X111272500Y-79772500D01*
G75*
G02*
X111510000Y-79535000I237500J0D01*
G01*
X112010000Y-79535000D01*
G75*
G02*
X112247500Y-79772500I0J-237500D01*
G01*
X112247500Y-80247500D01*
G75*
G02*
X112010000Y-80485000I-237500J0D01*
G01*
X111510000Y-80485000D01*
G75*
G02*
X111272500Y-80247500I0J237500D01*
G01*
G37*
G04 #@! TD.AperFunction*
G04 #@! TA.AperFunction,SMDPad,CuDef*
G36*
G01*
X109447500Y-80247500D02*
X109447500Y-79772500D01*
G75*
G02*
X109685000Y-79535000I237500J0D01*
G01*
X110185000Y-79535000D01*
G75*
G02*
X110422500Y-79772500I0J-237500D01*
G01*
X110422500Y-80247500D01*
G75*
G02*
X110185000Y-80485000I-237500J0D01*
G01*
X109685000Y-80485000D01*
G75*
G02*
X109447500Y-80247500I0J237500D01*
G01*
G37*
G04 #@! TD.AperFunction*
G04 #@! TA.AperFunction,SMDPad,CuDef*
G36*
G01*
X112962500Y-74692500D02*
X112962500Y-75167500D01*
G75*
G02*
X112725000Y-75405000I-237500J0D01*
G01*
X112225000Y-75405000D01*
G75*
G02*
X111987500Y-75167500I0J237500D01*
G01*
X111987500Y-74692500D01*
G75*
G02*
X112225000Y-74455000I237500J0D01*
G01*
X112725000Y-74455000D01*
G75*
G02*
X112962500Y-74692500I0J-237500D01*
G01*
G37*
G04 #@! TD.AperFunction*
G04 #@! TA.AperFunction,SMDPad,CuDef*
G36*
G01*
X114787500Y-74692500D02*
X114787500Y-75167500D01*
G75*
G02*
X114550000Y-75405000I-237500J0D01*
G01*
X114050000Y-75405000D01*
G75*
G02*
X113812500Y-75167500I0J237500D01*
G01*
X113812500Y-74692500D01*
G75*
G02*
X114050000Y-74455000I237500J0D01*
G01*
X114550000Y-74455000D01*
G75*
G02*
X114787500Y-74692500I0J-237500D01*
G01*
G37*
G04 #@! TD.AperFunction*
G04 #@! TA.AperFunction,SMDPad,CuDef*
G36*
G01*
X135957500Y-94217500D02*
X135957500Y-93742500D01*
G75*
G02*
X136195000Y-93505000I237500J0D01*
G01*
X136695000Y-93505000D01*
G75*
G02*
X136932500Y-93742500I0J-237500D01*
G01*
X136932500Y-94217500D01*
G75*
G02*
X136695000Y-94455000I-237500J0D01*
G01*
X136195000Y-94455000D01*
G75*
G02*
X135957500Y-94217500I0J237500D01*
G01*
G37*
G04 #@! TD.AperFunction*
G04 #@! TA.AperFunction,SMDPad,CuDef*
G36*
G01*
X134132500Y-94217500D02*
X134132500Y-93742500D01*
G75*
G02*
X134370000Y-93505000I237500J0D01*
G01*
X134870000Y-93505000D01*
G75*
G02*
X135107500Y-93742500I0J-237500D01*
G01*
X135107500Y-94217500D01*
G75*
G02*
X134870000Y-94455000I-237500J0D01*
G01*
X134370000Y-94455000D01*
G75*
G02*
X134132500Y-94217500I0J237500D01*
G01*
G37*
G04 #@! TD.AperFunction*
G04 #@! TA.AperFunction,SMDPad,CuDef*
G36*
G01*
X136922500Y-85157500D02*
X137397500Y-85157500D01*
G75*
G02*
X137635000Y-85395000I0J-237500D01*
G01*
X137635000Y-85895000D01*
G75*
G02*
X137397500Y-86132500I-237500J0D01*
G01*
X136922500Y-86132500D01*
G75*
G02*
X136685000Y-85895000I0J237500D01*
G01*
X136685000Y-85395000D01*
G75*
G02*
X136922500Y-85157500I237500J0D01*
G01*
G37*
G04 #@! TD.AperFunction*
G04 #@! TA.AperFunction,SMDPad,CuDef*
G36*
G01*
X136922500Y-83332500D02*
X137397500Y-83332500D01*
G75*
G02*
X137635000Y-83570000I0J-237500D01*
G01*
X137635000Y-84070000D01*
G75*
G02*
X137397500Y-84307500I-237500J0D01*
G01*
X136922500Y-84307500D01*
G75*
G02*
X136685000Y-84070000I0J237500D01*
G01*
X136685000Y-83570000D01*
G75*
G02*
X136922500Y-83332500I237500J0D01*
G01*
G37*
G04 #@! TD.AperFunction*
G04 #@! TA.AperFunction,SMDPad,CuDef*
G36*
G01*
X133162500Y-84762500D02*
X133162500Y-85237500D01*
G75*
G02*
X132925000Y-85475000I-237500J0D01*
G01*
X132425000Y-85475000D01*
G75*
G02*
X132187500Y-85237500I0J237500D01*
G01*
X132187500Y-84762500D01*
G75*
G02*
X132425000Y-84525000I237500J0D01*
G01*
X132925000Y-84525000D01*
G75*
G02*
X133162500Y-84762500I0J-237500D01*
G01*
G37*
G04 #@! TD.AperFunction*
G04 #@! TA.AperFunction,SMDPad,CuDef*
G36*
G01*
X134987500Y-84762500D02*
X134987500Y-85237500D01*
G75*
G02*
X134750000Y-85475000I-237500J0D01*
G01*
X134250000Y-85475000D01*
G75*
G02*
X134012500Y-85237500I0J237500D01*
G01*
X134012500Y-84762500D01*
G75*
G02*
X134250000Y-84525000I237500J0D01*
G01*
X134750000Y-84525000D01*
G75*
G02*
X134987500Y-84762500I0J-237500D01*
G01*
G37*
G04 #@! TD.AperFunction*
G04 #@! TA.AperFunction,SMDPad,CuDef*
G36*
G01*
X131762500Y-92512500D02*
X132237500Y-92512500D01*
G75*
G02*
X132475000Y-92750000I0J-237500D01*
G01*
X132475000Y-93250000D01*
G75*
G02*
X132237500Y-93487500I-237500J0D01*
G01*
X131762500Y-93487500D01*
G75*
G02*
X131525000Y-93250000I0J237500D01*
G01*
X131525000Y-92750000D01*
G75*
G02*
X131762500Y-92512500I237500J0D01*
G01*
G37*
G04 #@! TD.AperFunction*
G04 #@! TA.AperFunction,SMDPad,CuDef*
G36*
G01*
X131762500Y-90687500D02*
X132237500Y-90687500D01*
G75*
G02*
X132475000Y-90925000I0J-237500D01*
G01*
X132475000Y-91425000D01*
G75*
G02*
X132237500Y-91662500I-237500J0D01*
G01*
X131762500Y-91662500D01*
G75*
G02*
X131525000Y-91425000I0J237500D01*
G01*
X131525000Y-90925000D01*
G75*
G02*
X131762500Y-90687500I237500J0D01*
G01*
G37*
G04 #@! TD.AperFunction*
G04 #@! TA.AperFunction,SMDPad,CuDef*
G36*
G01*
X127237500Y-83487500D02*
X126762500Y-83487500D01*
G75*
G02*
X126525000Y-83250000I0J237500D01*
G01*
X126525000Y-82750000D01*
G75*
G02*
X126762500Y-82512500I237500J0D01*
G01*
X127237500Y-82512500D01*
G75*
G02*
X127475000Y-82750000I0J-237500D01*
G01*
X127475000Y-83250000D01*
G75*
G02*
X127237500Y-83487500I-237500J0D01*
G01*
G37*
G04 #@! TD.AperFunction*
G04 #@! TA.AperFunction,SMDPad,CuDef*
G36*
G01*
X127237500Y-85312500D02*
X126762500Y-85312500D01*
G75*
G02*
X126525000Y-85075000I0J237500D01*
G01*
X126525000Y-84575000D01*
G75*
G02*
X126762500Y-84337500I237500J0D01*
G01*
X127237500Y-84337500D01*
G75*
G02*
X127475000Y-84575000I0J-237500D01*
G01*
X127475000Y-85075000D01*
G75*
G02*
X127237500Y-85312500I-237500J0D01*
G01*
G37*
G04 #@! TD.AperFunction*
G04 #@! TA.AperFunction,SMDPad,CuDef*
G36*
G01*
X125662500Y-92472500D02*
X125662500Y-92947500D01*
G75*
G02*
X125425000Y-93185000I-237500J0D01*
G01*
X124925000Y-93185000D01*
G75*
G02*
X124687500Y-92947500I0J237500D01*
G01*
X124687500Y-92472500D01*
G75*
G02*
X124925000Y-92235000I237500J0D01*
G01*
X125425000Y-92235000D01*
G75*
G02*
X125662500Y-92472500I0J-237500D01*
G01*
G37*
G04 #@! TD.AperFunction*
G04 #@! TA.AperFunction,SMDPad,CuDef*
G36*
G01*
X127487500Y-92472500D02*
X127487500Y-92947500D01*
G75*
G02*
X127250000Y-93185000I-237500J0D01*
G01*
X126750000Y-93185000D01*
G75*
G02*
X126512500Y-92947500I0J237500D01*
G01*
X126512500Y-92472500D01*
G75*
G02*
X126750000Y-92235000I237500J0D01*
G01*
X127250000Y-92235000D01*
G75*
G02*
X127487500Y-92472500I0J-237500D01*
G01*
G37*
G04 #@! TD.AperFunction*
G04 #@! TA.AperFunction,SMDPad,CuDef*
G36*
G01*
X120582500Y-92472500D02*
X120582500Y-92947500D01*
G75*
G02*
X120345000Y-93185000I-237500J0D01*
G01*
X119845000Y-93185000D01*
G75*
G02*
X119607500Y-92947500I0J237500D01*
G01*
X119607500Y-92472500D01*
G75*
G02*
X119845000Y-92235000I237500J0D01*
G01*
X120345000Y-92235000D01*
G75*
G02*
X120582500Y-92472500I0J-237500D01*
G01*
G37*
G04 #@! TD.AperFunction*
G04 #@! TA.AperFunction,SMDPad,CuDef*
G36*
G01*
X122407500Y-92472500D02*
X122407500Y-92947500D01*
G75*
G02*
X122170000Y-93185000I-237500J0D01*
G01*
X121670000Y-93185000D01*
G75*
G02*
X121432500Y-92947500I0J237500D01*
G01*
X121432500Y-92472500D01*
G75*
G02*
X121670000Y-92235000I237500J0D01*
G01*
X122170000Y-92235000D01*
G75*
G02*
X122407500Y-92472500I0J-237500D01*
G01*
G37*
G04 #@! TD.AperFunction*
G04 #@! TA.AperFunction,SMDPad,CuDef*
G36*
G01*
X116512500Y-96737500D02*
X116512500Y-96262500D01*
G75*
G02*
X116750000Y-96025000I237500J0D01*
G01*
X117250000Y-96025000D01*
G75*
G02*
X117487500Y-96262500I0J-237500D01*
G01*
X117487500Y-96737500D01*
G75*
G02*
X117250000Y-96975000I-237500J0D01*
G01*
X116750000Y-96975000D01*
G75*
G02*
X116512500Y-96737500I0J237500D01*
G01*
G37*
G04 #@! TD.AperFunction*
G04 #@! TA.AperFunction,SMDPad,CuDef*
G36*
G01*
X114687500Y-96737500D02*
X114687500Y-96262500D01*
G75*
G02*
X114925000Y-96025000I237500J0D01*
G01*
X115425000Y-96025000D01*
G75*
G02*
X115662500Y-96262500I0J-237500D01*
G01*
X115662500Y-96737500D01*
G75*
G02*
X115425000Y-96975000I-237500J0D01*
G01*
X114925000Y-96975000D01*
G75*
G02*
X114687500Y-96737500I0J237500D01*
G01*
G37*
G04 #@! TD.AperFunction*
G04 #@! TA.AperFunction,SMDPad,CuDef*
G36*
G01*
X110727500Y-88117500D02*
X110252500Y-88117500D01*
G75*
G02*
X110015000Y-87880000I0J237500D01*
G01*
X110015000Y-87380000D01*
G75*
G02*
X110252500Y-87142500I237500J0D01*
G01*
X110727500Y-87142500D01*
G75*
G02*
X110965000Y-87380000I0J-237500D01*
G01*
X110965000Y-87880000D01*
G75*
G02*
X110727500Y-88117500I-237500J0D01*
G01*
G37*
G04 #@! TD.AperFunction*
G04 #@! TA.AperFunction,SMDPad,CuDef*
G36*
G01*
X110727500Y-89942500D02*
X110252500Y-89942500D01*
G75*
G02*
X110015000Y-89705000I0J237500D01*
G01*
X110015000Y-89205000D01*
G75*
G02*
X110252500Y-88967500I237500J0D01*
G01*
X110727500Y-88967500D01*
G75*
G02*
X110965000Y-89205000I0J-237500D01*
G01*
X110965000Y-89705000D01*
G75*
G02*
X110727500Y-89942500I-237500J0D01*
G01*
G37*
G04 #@! TD.AperFunction*
G04 #@! TA.AperFunction,SMDPad,CuDef*
G36*
G01*
X110252500Y-92777500D02*
X110727500Y-92777500D01*
G75*
G02*
X110965000Y-93015000I0J-237500D01*
G01*
X110965000Y-93515000D01*
G75*
G02*
X110727500Y-93752500I-237500J0D01*
G01*
X110252500Y-93752500D01*
G75*
G02*
X110015000Y-93515000I0J237500D01*
G01*
X110015000Y-93015000D01*
G75*
G02*
X110252500Y-92777500I237500J0D01*
G01*
G37*
G04 #@! TD.AperFunction*
G04 #@! TA.AperFunction,SMDPad,CuDef*
G36*
G01*
X110252500Y-90952500D02*
X110727500Y-90952500D01*
G75*
G02*
X110965000Y-91190000I0J-237500D01*
G01*
X110965000Y-91690000D01*
G75*
G02*
X110727500Y-91927500I-237500J0D01*
G01*
X110252500Y-91927500D01*
G75*
G02*
X110015000Y-91690000I0J237500D01*
G01*
X110015000Y-91190000D01*
G75*
G02*
X110252500Y-90952500I237500J0D01*
G01*
G37*
G04 #@! TD.AperFunction*
D12*
X131540000Y-72390000D03*
X129540000Y-73340000D03*
X129540000Y-71440000D03*
X124460000Y-72710000D03*
X126460000Y-71760000D03*
X126460000Y-73660000D03*
X118110000Y-78740000D03*
X116110000Y-79690000D03*
X116110000Y-77790000D03*
X132080000Y-80010000D03*
X130080000Y-80960000D03*
X130080000Y-79060000D03*
D13*
X135570000Y-88170000D03*
X136520000Y-90170000D03*
X134620000Y-90170000D03*
D12*
X134080000Y-98110000D03*
X132080000Y-99060000D03*
X132080000Y-97160000D03*
D13*
X120970000Y-95790000D03*
X121920000Y-97790000D03*
X120020000Y-97790000D03*
D12*
X113000000Y-96950000D03*
X111000000Y-97900000D03*
X111000000Y-96000000D03*
D14*
X106200000Y-96520000D03*
X93980000Y-96520000D03*
D15*
X135890000Y-72390000D03*
X135890000Y-80010000D03*
D16*
X83820000Y-97790000D03*
D17*
X83820000Y-92710000D03*
D18*
X85090000Y-85290000D03*
X85090000Y-72390000D03*
D19*
X94090000Y-79540000D03*
G04 #@! TA.AperFunction,SMDPad,CuDef*
G36*
G01*
X120995000Y-78700000D02*
X122845000Y-78700000D01*
G75*
G02*
X123095000Y-78950000I0J-250000D01*
G01*
X123095000Y-79950000D01*
G75*
G02*
X122845000Y-80200000I-250000J0D01*
G01*
X120995000Y-80200000D01*
G75*
G02*
X120745000Y-79950000I0J250000D01*
G01*
X120745000Y-78950000D01*
G75*
G02*
X120995000Y-78700000I250000J0D01*
G01*
G37*
G04 #@! TD.AperFunction*
G04 #@! TA.AperFunction,SMDPad,CuDef*
G36*
G01*
X120995000Y-75450000D02*
X122845000Y-75450000D01*
G75*
G02*
X123095000Y-75700000I0J-250000D01*
G01*
X123095000Y-76700000D01*
G75*
G02*
X122845000Y-76950000I-250000J0D01*
G01*
X120995000Y-76950000D01*
G75*
G02*
X120745000Y-76700000I0J250000D01*
G01*
X120745000Y-75700000D01*
G75*
G02*
X120995000Y-75450000I250000J0D01*
G01*
G37*
G04 #@! TD.AperFunction*
G04 #@! TA.AperFunction,SMDPad,CuDef*
G36*
G01*
X128310000Y-86705000D02*
X128310000Y-88555000D01*
G75*
G02*
X128060000Y-88805000I-250000J0D01*
G01*
X127060000Y-88805000D01*
G75*
G02*
X126810000Y-88555000I0J250000D01*
G01*
X126810000Y-86705000D01*
G75*
G02*
X127060000Y-86455000I250000J0D01*
G01*
X128060000Y-86455000D01*
G75*
G02*
X128310000Y-86705000I0J-250000D01*
G01*
G37*
G04 #@! TD.AperFunction*
G04 #@! TA.AperFunction,SMDPad,CuDef*
G36*
G01*
X131560000Y-86705000D02*
X131560000Y-88555000D01*
G75*
G02*
X131310000Y-88805000I-250000J0D01*
G01*
X130310000Y-88805000D01*
G75*
G02*
X130060000Y-88555000I0J250000D01*
G01*
X130060000Y-86705000D01*
G75*
G02*
X130310000Y-86455000I250000J0D01*
G01*
X131310000Y-86455000D01*
G75*
G02*
X131560000Y-86705000I0J-250000D01*
G01*
G37*
G04 #@! TD.AperFunction*
G04 #@! TA.AperFunction,SMDPad,CuDef*
G36*
G01*
X126575000Y-98310000D02*
X128425000Y-98310000D01*
G75*
G02*
X128675000Y-98560000I0J-250000D01*
G01*
X128675000Y-99560000D01*
G75*
G02*
X128425000Y-99810000I-250000J0D01*
G01*
X126575000Y-99810000D01*
G75*
G02*
X126325000Y-99560000I0J250000D01*
G01*
X126325000Y-98560000D01*
G75*
G02*
X126575000Y-98310000I250000J0D01*
G01*
G37*
G04 #@! TD.AperFunction*
G04 #@! TA.AperFunction,SMDPad,CuDef*
G36*
G01*
X126575000Y-95060000D02*
X128425000Y-95060000D01*
G75*
G02*
X128675000Y-95310000I0J-250000D01*
G01*
X128675000Y-96310000D01*
G75*
G02*
X128425000Y-96560000I-250000J0D01*
G01*
X126575000Y-96560000D01*
G75*
G02*
X126325000Y-96310000I0J250000D01*
G01*
X126325000Y-95310000D01*
G75*
G02*
X126575000Y-95060000I250000J0D01*
G01*
G37*
G04 #@! TD.AperFunction*
G04 #@! TA.AperFunction,SMDPad,CuDef*
G36*
G01*
X115332500Y-92627500D02*
X115807500Y-92627500D01*
G75*
G02*
X116045000Y-92865000I0J-237500D01*
G01*
X116045000Y-93465000D01*
G75*
G02*
X115807500Y-93702500I-237500J0D01*
G01*
X115332500Y-93702500D01*
G75*
G02*
X115095000Y-93465000I0J237500D01*
G01*
X115095000Y-92865000D01*
G75*
G02*
X115332500Y-92627500I237500J0D01*
G01*
G37*
G04 #@! TD.AperFunction*
G04 #@! TA.AperFunction,SMDPad,CuDef*
G36*
G01*
X115332500Y-90902500D02*
X115807500Y-90902500D01*
G75*
G02*
X116045000Y-91140000I0J-237500D01*
G01*
X116045000Y-91740000D01*
G75*
G02*
X115807500Y-91977500I-237500J0D01*
G01*
X115332500Y-91977500D01*
G75*
G02*
X115095000Y-91740000I0J237500D01*
G01*
X115095000Y-91140000D01*
G75*
G02*
X115332500Y-90902500I237500J0D01*
G01*
G37*
G04 #@! TD.AperFunction*
G04 #@! TA.AperFunction,SMDPad,CuDef*
G36*
G01*
X111522500Y-84552500D02*
X111997500Y-84552500D01*
G75*
G02*
X112235000Y-84790000I0J-237500D01*
G01*
X112235000Y-85390000D01*
G75*
G02*
X111997500Y-85627500I-237500J0D01*
G01*
X111522500Y-85627500D01*
G75*
G02*
X111285000Y-85390000I0J237500D01*
G01*
X111285000Y-84790000D01*
G75*
G02*
X111522500Y-84552500I237500J0D01*
G01*
G37*
G04 #@! TD.AperFunction*
G04 #@! TA.AperFunction,SMDPad,CuDef*
G36*
G01*
X111522500Y-82827500D02*
X111997500Y-82827500D01*
G75*
G02*
X112235000Y-83065000I0J-237500D01*
G01*
X112235000Y-83665000D01*
G75*
G02*
X111997500Y-83902500I-237500J0D01*
G01*
X111522500Y-83902500D01*
G75*
G02*
X111285000Y-83665000I0J237500D01*
G01*
X111285000Y-83065000D01*
G75*
G02*
X111522500Y-82827500I237500J0D01*
G01*
G37*
G04 #@! TD.AperFunction*
G04 #@! TA.AperFunction,SMDPad,CuDef*
G36*
G01*
X108470000Y-75855000D02*
X108470000Y-74005000D01*
G75*
G02*
X108720000Y-73755000I250000J0D01*
G01*
X109720000Y-73755000D01*
G75*
G02*
X109970000Y-74005000I0J-250000D01*
G01*
X109970000Y-75855000D01*
G75*
G02*
X109720000Y-76105000I-250000J0D01*
G01*
X108720000Y-76105000D01*
G75*
G02*
X108470000Y-75855000I0J250000D01*
G01*
G37*
G04 #@! TD.AperFunction*
G04 #@! TA.AperFunction,SMDPad,CuDef*
G36*
G01*
X105220000Y-75855000D02*
X105220000Y-74005000D01*
G75*
G02*
X105470000Y-73755000I250000J0D01*
G01*
X106470000Y-73755000D01*
G75*
G02*
X106720000Y-74005000I0J-250000D01*
G01*
X106720000Y-75855000D01*
G75*
G02*
X106470000Y-76105000I-250000J0D01*
G01*
X105470000Y-76105000D01*
G75*
G02*
X105220000Y-75855000I0J250000D01*
G01*
G37*
G04 #@! TD.AperFunction*
G04 #@! TA.AperFunction,SMDPad,CuDef*
G36*
G01*
X99000000Y-74005000D02*
X99000000Y-75855000D01*
G75*
G02*
X98750000Y-76105000I-250000J0D01*
G01*
X97750000Y-76105000D01*
G75*
G02*
X97500000Y-75855000I0J250000D01*
G01*
X97500000Y-74005000D01*
G75*
G02*
X97750000Y-73755000I250000J0D01*
G01*
X98750000Y-73755000D01*
G75*
G02*
X99000000Y-74005000I0J-250000D01*
G01*
G37*
G04 #@! TD.AperFunction*
G04 #@! TA.AperFunction,SMDPad,CuDef*
G36*
G01*
X102250000Y-74005000D02*
X102250000Y-75855000D01*
G75*
G02*
X102000000Y-76105000I-250000J0D01*
G01*
X101000000Y-76105000D01*
G75*
G02*
X100750000Y-75855000I0J250000D01*
G01*
X100750000Y-74005000D01*
G75*
G02*
X101000000Y-73755000I250000J0D01*
G01*
X102000000Y-73755000D01*
G75*
G02*
X102250000Y-74005000I0J-250000D01*
G01*
G37*
G04 #@! TD.AperFunction*
D20*
X90170000Y-72390000D03*
X95250000Y-74930000D03*
X109220000Y-72390000D03*
X106440000Y-83580000D03*
X107950000Y-78740000D03*
X110490000Y-85090000D03*
X124460000Y-88900000D03*
X125730000Y-87630000D03*
X124460000Y-78740000D03*
X132080000Y-81280000D03*
X132080000Y-73660000D03*
X127000000Y-71120000D03*
X137160000Y-88900000D03*
X114300000Y-93980000D03*
X121920000Y-100330000D03*
X110000000Y-77750000D03*
X113250000Y-77750000D03*
X123500000Y-86500000D03*
X120750000Y-86500000D03*
D21*
X85090000Y-72390000D02*
X90170000Y-72390000D01*
X98250000Y-74930000D02*
X95250000Y-74930000D01*
X109220000Y-74930000D02*
X109220000Y-72390000D01*
X106440000Y-81330000D02*
X106440000Y-83580000D01*
X109220000Y-80010000D02*
X107950000Y-78740000D01*
X109935000Y-80010000D02*
X109220000Y-80010000D01*
X111760000Y-85090000D02*
X110490000Y-85090000D01*
X123190000Y-88770000D02*
X124330000Y-88770000D01*
X124330000Y-88770000D02*
X124460000Y-88900000D01*
X127560000Y-87630000D02*
X125730000Y-87630000D01*
X123750000Y-79450000D02*
X124460000Y-78740000D01*
X121920000Y-79450000D02*
X123750000Y-79450000D01*
X131760000Y-80960000D02*
X132080000Y-81280000D01*
X130080000Y-80960000D02*
X131760000Y-80960000D01*
X131760000Y-73340000D02*
X132080000Y-73660000D01*
X129540000Y-73340000D02*
X131760000Y-73340000D01*
X126460000Y-71760000D02*
X126460000Y-71660000D01*
X126460000Y-71660000D02*
X127000000Y-71120000D01*
X136520000Y-89540000D02*
X137160000Y-88900000D01*
X136520000Y-90170000D02*
X136520000Y-89540000D01*
X115115000Y-93165000D02*
X114300000Y-93980000D01*
X115570000Y-93165000D02*
X115115000Y-93165000D01*
X123190000Y-99060000D02*
X121920000Y-97790000D01*
X127500000Y-99060000D02*
X123190000Y-99060000D01*
X123190000Y-99060000D02*
X121920000Y-100330000D01*
X110490000Y-89455000D02*
X110490000Y-91440000D01*
X115570000Y-91440000D02*
X110490000Y-91440000D01*
X115570000Y-91440000D02*
X115570000Y-88770000D01*
X116840000Y-88770000D02*
X115570000Y-88770000D01*
X120650000Y-90710000D02*
X120650000Y-88770000D01*
X120970000Y-91030000D02*
X120650000Y-90710000D01*
X128270000Y-93980000D02*
X127000000Y-92710000D01*
X128270000Y-95810000D02*
X128270000Y-93980000D01*
X120970000Y-94030000D02*
X120970000Y-91030000D01*
X120970000Y-95790000D02*
X120970000Y-94030000D01*
X127480000Y-95790000D02*
X127500000Y-95810000D01*
X120970000Y-95790000D02*
X127480000Y-95790000D01*
X130810000Y-89985000D02*
X132000000Y-91175000D01*
X130810000Y-87630000D02*
X130810000Y-89985000D01*
X132675000Y-85000000D02*
X132000000Y-85000000D01*
X130810000Y-86190000D02*
X130810000Y-87630000D01*
X132000000Y-85000000D02*
X130810000Y-86190000D01*
X130810000Y-86190000D02*
X130810000Y-84810000D01*
X130000000Y-84000000D02*
X126000000Y-84000000D01*
X130810000Y-84810000D02*
X130000000Y-84000000D01*
X126000000Y-84000000D02*
X125000000Y-85000000D01*
X125000000Y-85000000D02*
X123500000Y-86500000D01*
X120750000Y-83920000D02*
X120650000Y-83820000D01*
X120750000Y-86500000D02*
X120750000Y-83920000D01*
X118110000Y-78740000D02*
X118110000Y-80890000D01*
X116840000Y-82160000D02*
X116840000Y-83820000D01*
X118110000Y-80890000D02*
X116840000Y-82160000D01*
X119380000Y-73660000D02*
X118665000Y-73660000D01*
X121920000Y-76200000D02*
X119380000Y-73660000D01*
X119800000Y-76200000D02*
X121920000Y-76200000D01*
X119500000Y-76500000D02*
X119800000Y-76200000D01*
X119500000Y-78000000D02*
X119500000Y-76500000D01*
X118760000Y-78740000D02*
X119500000Y-78000000D01*
X118110000Y-78740000D02*
X118760000Y-78740000D01*
X85090000Y-96520000D02*
X83820000Y-97790000D01*
X93980000Y-96520000D02*
X85090000Y-96520000D01*
X132080000Y-80010000D02*
X135890000Y-80010000D01*
X131540000Y-72390000D02*
X135890000Y-72390000D01*
X107235000Y-96520000D02*
X110490000Y-93265000D01*
X106200000Y-96520000D02*
X107235000Y-96520000D01*
X113840000Y-97790000D02*
X113000000Y-96950000D01*
X120020000Y-97790000D02*
X113840000Y-97790000D01*
X114675000Y-96000000D02*
X115175000Y-96500000D01*
X111000000Y-96000000D02*
X114675000Y-96000000D01*
X134080000Y-98110000D02*
X134080000Y-96080000D01*
X132000000Y-94000000D02*
X132000000Y-93000000D01*
X134080000Y-96080000D02*
X132000000Y-94000000D01*
X132020000Y-99000000D02*
X132080000Y-99060000D01*
X131000000Y-95500000D02*
X131000000Y-99000000D01*
X129000000Y-92500000D02*
X129000000Y-93500000D01*
X129000000Y-93500000D02*
X131000000Y-95500000D01*
X127500000Y-91000000D02*
X129000000Y-92500000D01*
X131000000Y-99000000D02*
X132020000Y-99000000D01*
X122000000Y-91000000D02*
X127500000Y-91000000D01*
X121920000Y-90920000D02*
X122000000Y-91000000D01*
X121920000Y-88770000D02*
X121920000Y-90920000D01*
X121920000Y-88770000D02*
X121920000Y-83820000D01*
X132080000Y-95080000D02*
X132080000Y-97160000D01*
X130500000Y-93500000D02*
X132080000Y-95080000D01*
X129450009Y-85450009D02*
X129450009Y-91450009D01*
X128825000Y-84825000D02*
X129450009Y-85450009D01*
X130500000Y-92500000D02*
X130500000Y-93500000D01*
X129450009Y-91450009D02*
X130500000Y-92500000D01*
X127000000Y-84825000D02*
X128825000Y-84825000D01*
X135570000Y-87235000D02*
X137160000Y-85645000D01*
X135570000Y-88170000D02*
X135570000Y-87235000D01*
X136445000Y-91995000D02*
X134620000Y-90170000D01*
X136445000Y-93980000D02*
X136445000Y-91995000D01*
X113500000Y-81750000D02*
X111760000Y-80010000D01*
X113500000Y-84000000D02*
X113500000Y-81750000D01*
X115000000Y-85500000D02*
X113500000Y-84000000D01*
X118000000Y-85500000D02*
X115000000Y-85500000D01*
X118110000Y-85390000D02*
X118000000Y-85500000D01*
X118110000Y-83820000D02*
X118110000Y-85390000D01*
X111760000Y-75645000D02*
X112475000Y-74930000D01*
X111760000Y-80010000D02*
X111760000Y-75645000D01*
X133500000Y-83500000D02*
X132500000Y-82500000D01*
X133500000Y-91500000D02*
X133500000Y-83500000D01*
X134620000Y-92620000D02*
X133500000Y-91500000D01*
X134620000Y-93980000D02*
X134620000Y-92620000D01*
X128500000Y-80640000D02*
X130080000Y-79060000D01*
X128500000Y-82500000D02*
X128500000Y-80640000D01*
X132500000Y-82500000D02*
X128500000Y-82500000D01*
X123190000Y-83820000D02*
X125180000Y-83820000D01*
X126000000Y-83000000D02*
X127000000Y-83000000D01*
X125180000Y-83820000D02*
X126000000Y-83000000D01*
X127000000Y-83000000D02*
X128000000Y-83000000D01*
X128000000Y-83000000D02*
X128500000Y-82500000D01*
X123190000Y-82845000D02*
X123190000Y-83820000D01*
X122545000Y-82200000D02*
X123190000Y-82845000D01*
X120010020Y-82200000D02*
X122545000Y-82200000D01*
X120005010Y-82205010D02*
X120010020Y-82200000D01*
X120005010Y-84841758D02*
X120005010Y-82205010D01*
X120000000Y-84846768D02*
X120005010Y-84841758D01*
X120000000Y-85500000D02*
X120000000Y-84846768D01*
X118000000Y-85500000D02*
X120000000Y-85500000D01*
X116110000Y-76740000D02*
X114300000Y-74930000D01*
X116110000Y-77790000D02*
X116110000Y-76740000D01*
X117790000Y-72710000D02*
X116840000Y-73660000D01*
X124460000Y-72710000D02*
X117790000Y-72710000D01*
X127000000Y-74200000D02*
X126460000Y-73660000D01*
X127000000Y-79455000D02*
X127000000Y-74200000D01*
X119380000Y-83820000D02*
X119380000Y-81620000D01*
X119380000Y-81620000D02*
X119500000Y-81500000D01*
X124955000Y-81500000D02*
X127000000Y-79455000D01*
X119500000Y-81500000D02*
X124955000Y-81500000D01*
X127000000Y-81280000D02*
X127000000Y-81000000D01*
X127000000Y-81000000D02*
X128500000Y-79500000D01*
X128500000Y-72480000D02*
X129540000Y-71440000D01*
X128500000Y-79500000D02*
X128500000Y-72480000D01*
X118110000Y-88770000D02*
X119380000Y-88770000D01*
X119380000Y-91995000D02*
X120095000Y-92710000D01*
X119380000Y-88770000D02*
X119380000Y-91995000D01*
X117000000Y-95805000D02*
X120095000Y-92710000D01*
X117000000Y-96500000D02*
X117000000Y-95805000D01*
X121920000Y-92710000D02*
X125175000Y-92710000D01*
X135680000Y-83820000D02*
X134500000Y-85000000D01*
X137160000Y-83820000D02*
X135680000Y-83820000D01*
D22*
X139123000Y-102123000D02*
X76877000Y-102123000D01*
X76877000Y-97599419D01*
X81885000Y-97599419D01*
X81885000Y-97980581D01*
X81959361Y-98354419D01*
X82105225Y-98706566D01*
X82316987Y-99023491D01*
X82586509Y-99293013D01*
X82903434Y-99504775D01*
X83255581Y-99650639D01*
X83629419Y-99725000D01*
X84010581Y-99725000D01*
X84384419Y-99650639D01*
X84736566Y-99504775D01*
X85053491Y-99293013D01*
X85323013Y-99023491D01*
X85534775Y-98706566D01*
X85680639Y-98354419D01*
X85755000Y-97980581D01*
X85755000Y-97599419D01*
X85691464Y-97280000D01*
X91041928Y-97280000D01*
X91041928Y-99320000D01*
X91054188Y-99444482D01*
X91090498Y-99564180D01*
X91149463Y-99674494D01*
X91228815Y-99771185D01*
X91325506Y-99850537D01*
X91435820Y-99909502D01*
X91555518Y-99945812D01*
X91680000Y-99958072D01*
X96280000Y-99958072D01*
X96404482Y-99945812D01*
X96524180Y-99909502D01*
X96634494Y-99850537D01*
X96731185Y-99771185D01*
X96810537Y-99674494D01*
X96869502Y-99564180D01*
X96905812Y-99444482D01*
X96918072Y-99320000D01*
X96918072Y-93720000D01*
X103261928Y-93720000D01*
X103261928Y-99320000D01*
X103274188Y-99444482D01*
X103310498Y-99564180D01*
X103369463Y-99674494D01*
X103448815Y-99771185D01*
X103545506Y-99850537D01*
X103655820Y-99909502D01*
X103775518Y-99945812D01*
X103900000Y-99958072D01*
X108500000Y-99958072D01*
X108624482Y-99945812D01*
X108744180Y-99909502D01*
X108854494Y-99850537D01*
X108951185Y-99771185D01*
X109030537Y-99674494D01*
X109089502Y-99564180D01*
X109125812Y-99444482D01*
X109138072Y-99320000D01*
X109138072Y-98300000D01*
X109911928Y-98300000D01*
X109924188Y-98424482D01*
X109960498Y-98544180D01*
X110019463Y-98654494D01*
X110098815Y-98751185D01*
X110195506Y-98830537D01*
X110305820Y-98889502D01*
X110425518Y-98925812D01*
X110550000Y-98938072D01*
X110714250Y-98935000D01*
X110873000Y-98776250D01*
X110873000Y-98027000D01*
X111127000Y-98027000D01*
X111127000Y-98776250D01*
X111285750Y-98935000D01*
X111450000Y-98938072D01*
X111574482Y-98925812D01*
X111694180Y-98889502D01*
X111804494Y-98830537D01*
X111901185Y-98751185D01*
X111980537Y-98654494D01*
X112039502Y-98544180D01*
X112075812Y-98424482D01*
X112088072Y-98300000D01*
X112085000Y-98185750D01*
X111926250Y-98027000D01*
X111127000Y-98027000D01*
X110873000Y-98027000D01*
X110073750Y-98027000D01*
X109915000Y-98185750D01*
X109911928Y-98300000D01*
X109138072Y-98300000D01*
X109138072Y-95691729D01*
X110439230Y-94390572D01*
X110727500Y-94390572D01*
X110898316Y-94373748D01*
X111062567Y-94323923D01*
X111213942Y-94243012D01*
X111346623Y-94134123D01*
X111455512Y-94001442D01*
X111536423Y-93850067D01*
X111586248Y-93685816D01*
X111603072Y-93515000D01*
X111603072Y-93015000D01*
X111586248Y-92844184D01*
X111536423Y-92679933D01*
X111455512Y-92528558D01*
X111346623Y-92395877D01*
X111293768Y-92352500D01*
X111346623Y-92309123D01*
X111436178Y-92200000D01*
X114590355Y-92200000D01*
X114604488Y-92226442D01*
X114666907Y-92302500D01*
X114604488Y-92378558D01*
X114523577Y-92529933D01*
X114473752Y-92694184D01*
X114469681Y-92735517D01*
X114260198Y-92945000D01*
X114198061Y-92945000D01*
X113998102Y-92984774D01*
X113809744Y-93062795D01*
X113640226Y-93176063D01*
X113496063Y-93320226D01*
X113382795Y-93489744D01*
X113304774Y-93678102D01*
X113265000Y-93878061D01*
X113265000Y-94081939D01*
X113304774Y-94281898D01*
X113382795Y-94470256D01*
X113496063Y-94639774D01*
X113640226Y-94783937D01*
X113809744Y-94897205D01*
X113998102Y-94975226D01*
X114198061Y-95015000D01*
X114401939Y-95015000D01*
X114601898Y-94975226D01*
X114790256Y-94897205D01*
X114959774Y-94783937D01*
X115103937Y-94639774D01*
X115217205Y-94470256D01*
X115273336Y-94334745D01*
X115332500Y-94340572D01*
X115807500Y-94340572D01*
X115978316Y-94323748D01*
X116142567Y-94273923D01*
X116293942Y-94193012D01*
X116426623Y-94084123D01*
X116535512Y-93951442D01*
X116616423Y-93800067D01*
X116666248Y-93635816D01*
X116683072Y-93465000D01*
X116683072Y-92865000D01*
X116666248Y-92694184D01*
X116616423Y-92529933D01*
X116535512Y-92378558D01*
X116473093Y-92302500D01*
X116535512Y-92226442D01*
X116616423Y-92075067D01*
X116666248Y-91910816D01*
X116683072Y-91740000D01*
X116683072Y-91140000D01*
X116666248Y-90969184D01*
X116616423Y-90804933D01*
X116535512Y-90653558D01*
X116426623Y-90520877D01*
X116330000Y-90441580D01*
X116330000Y-90291859D01*
X116388418Y-90323084D01*
X116536255Y-90367929D01*
X116690000Y-90383072D01*
X116990000Y-90383072D01*
X117143745Y-90367929D01*
X117291582Y-90323084D01*
X117427829Y-90250258D01*
X117475000Y-90211546D01*
X117522171Y-90250258D01*
X117658418Y-90323084D01*
X117806255Y-90367929D01*
X117960000Y-90383072D01*
X118260000Y-90383072D01*
X118413745Y-90367929D01*
X118561582Y-90323084D01*
X118620000Y-90291858D01*
X118620001Y-91957667D01*
X118616324Y-91995000D01*
X118620001Y-92032333D01*
X118630998Y-92143986D01*
X118634719Y-92156252D01*
X118674454Y-92287246D01*
X118745026Y-92419276D01*
X118811275Y-92500000D01*
X118840000Y-92535001D01*
X118868998Y-92558799D01*
X118969428Y-92659229D01*
X118969428Y-92760770D01*
X116488998Y-95241201D01*
X116460000Y-95264999D01*
X116436202Y-95293997D01*
X116436201Y-95293998D01*
X116365026Y-95380724D01*
X116294454Y-95512754D01*
X116292564Y-95518984D01*
X116263558Y-95534488D01*
X116130877Y-95643377D01*
X116087500Y-95696232D01*
X116044123Y-95643377D01*
X115911442Y-95534488D01*
X115760067Y-95453577D01*
X115595816Y-95403752D01*
X115425000Y-95386928D01*
X115125964Y-95386928D01*
X115099276Y-95365026D01*
X114967247Y-95294454D01*
X114823986Y-95250997D01*
X114712333Y-95240000D01*
X114712322Y-95240000D01*
X114675000Y-95236324D01*
X114637678Y-95240000D01*
X111976018Y-95240000D01*
X111901185Y-95148815D01*
X111804494Y-95069463D01*
X111694180Y-95010498D01*
X111574482Y-94974188D01*
X111450000Y-94961928D01*
X110550000Y-94961928D01*
X110425518Y-94974188D01*
X110305820Y-95010498D01*
X110195506Y-95069463D01*
X110098815Y-95148815D01*
X110019463Y-95245506D01*
X109960498Y-95355820D01*
X109924188Y-95475518D01*
X109911928Y-95600000D01*
X109911928Y-96400000D01*
X109924188Y-96524482D01*
X109960498Y-96644180D01*
X110019463Y-96754494D01*
X110098815Y-96851185D01*
X110195506Y-96930537D01*
X110231918Y-96950000D01*
X110195506Y-96969463D01*
X110098815Y-97048815D01*
X110019463Y-97145506D01*
X109960498Y-97255820D01*
X109924188Y-97375518D01*
X109911928Y-97500000D01*
X109915000Y-97614250D01*
X110073750Y-97773000D01*
X110873000Y-97773000D01*
X110873000Y-97753000D01*
X111127000Y-97753000D01*
X111127000Y-97773000D01*
X111926250Y-97773000D01*
X112010857Y-97688393D01*
X112019463Y-97704494D01*
X112098815Y-97801185D01*
X112195506Y-97880537D01*
X112305820Y-97939502D01*
X112425518Y-97975812D01*
X112550000Y-97988072D01*
X112963270Y-97988072D01*
X113276205Y-98301008D01*
X113299999Y-98330001D01*
X113328992Y-98353795D01*
X113328996Y-98353799D01*
X113369143Y-98386746D01*
X113415724Y-98424974D01*
X113547753Y-98495546D01*
X113691014Y-98539003D01*
X113802667Y-98550000D01*
X113802676Y-98550000D01*
X113839999Y-98553676D01*
X113877322Y-98550000D01*
X119065680Y-98550000D01*
X119089463Y-98594494D01*
X119168815Y-98691185D01*
X119265506Y-98770537D01*
X119375820Y-98829502D01*
X119495518Y-98865812D01*
X119620000Y-98878072D01*
X120420000Y-98878072D01*
X120544482Y-98865812D01*
X120664180Y-98829502D01*
X120774494Y-98770537D01*
X120871185Y-98691185D01*
X120950537Y-98594494D01*
X120970000Y-98558082D01*
X120989463Y-98594494D01*
X121068815Y-98691185D01*
X121165506Y-98770537D01*
X121275820Y-98829502D01*
X121395518Y-98865812D01*
X121520000Y-98878072D01*
X121933271Y-98878072D01*
X122115198Y-99060000D01*
X121880199Y-99295000D01*
X121818061Y-99295000D01*
X121618102Y-99334774D01*
X121429744Y-99412795D01*
X121260226Y-99526063D01*
X121116063Y-99670226D01*
X121002795Y-99839744D01*
X120924774Y-100028102D01*
X120885000Y-100228061D01*
X120885000Y-100431939D01*
X120924774Y-100631898D01*
X121002795Y-100820256D01*
X121116063Y-100989774D01*
X121260226Y-101133937D01*
X121429744Y-101247205D01*
X121618102Y-101325226D01*
X121818061Y-101365000D01*
X122021939Y-101365000D01*
X122221898Y-101325226D01*
X122410256Y-101247205D01*
X122579774Y-101133937D01*
X122723937Y-100989774D01*
X122837205Y-100820256D01*
X122915226Y-100631898D01*
X122955000Y-100431939D01*
X122955000Y-100369801D01*
X123504802Y-99820000D01*
X125730306Y-99820000D01*
X125754528Y-99899850D01*
X125836595Y-100053386D01*
X125947038Y-100187962D01*
X126081614Y-100298405D01*
X126235150Y-100380472D01*
X126401746Y-100431008D01*
X126575000Y-100448072D01*
X128425000Y-100448072D01*
X128598254Y-100431008D01*
X128764850Y-100380472D01*
X128918386Y-100298405D01*
X129052962Y-100187962D01*
X129163405Y-100053386D01*
X129245472Y-99899850D01*
X129296008Y-99733254D01*
X129313072Y-99560000D01*
X129313072Y-98560000D01*
X129296008Y-98386746D01*
X129245472Y-98220150D01*
X129163405Y-98066614D01*
X129052962Y-97932038D01*
X128918386Y-97821595D01*
X128764850Y-97739528D01*
X128598254Y-97688992D01*
X128425000Y-97671928D01*
X126575000Y-97671928D01*
X126401746Y-97688992D01*
X126235150Y-97739528D01*
X126081614Y-97821595D01*
X125947038Y-97932038D01*
X125836595Y-98066614D01*
X125754528Y-98220150D01*
X125730306Y-98300000D01*
X123504802Y-98300000D01*
X122958072Y-97753271D01*
X122958072Y-97340000D01*
X122945812Y-97215518D01*
X122909502Y-97095820D01*
X122850537Y-96985506D01*
X122771185Y-96888815D01*
X122674494Y-96809463D01*
X122564180Y-96750498D01*
X122444482Y-96714188D01*
X122320000Y-96701928D01*
X121808095Y-96701928D01*
X121821185Y-96691185D01*
X121900537Y-96594494D01*
X121924320Y-96550000D01*
X125724239Y-96550000D01*
X125754528Y-96649850D01*
X125836595Y-96803386D01*
X125947038Y-96937962D01*
X126081614Y-97048405D01*
X126235150Y-97130472D01*
X126401746Y-97181008D01*
X126575000Y-97198072D01*
X128425000Y-97198072D01*
X128598254Y-97181008D01*
X128764850Y-97130472D01*
X128918386Y-97048405D01*
X129052962Y-96937962D01*
X129163405Y-96803386D01*
X129245472Y-96649850D01*
X129296008Y-96483254D01*
X129313072Y-96310000D01*
X129313072Y-95310000D01*
X129296008Y-95136746D01*
X129245472Y-94970150D01*
X129163405Y-94816614D01*
X129052962Y-94682038D01*
X129030000Y-94663194D01*
X129030000Y-94604801D01*
X130240000Y-95814802D01*
X130240001Y-98962657D01*
X130236323Y-99000000D01*
X130250997Y-99148986D01*
X130294454Y-99292247D01*
X130365026Y-99424276D01*
X130459999Y-99540001D01*
X130575724Y-99634974D01*
X130707753Y-99705546D01*
X130851014Y-99749003D01*
X130962667Y-99760000D01*
X131000000Y-99763677D01*
X131037333Y-99760000D01*
X131070335Y-99760000D01*
X131099463Y-99814494D01*
X131178815Y-99911185D01*
X131275506Y-99990537D01*
X131385820Y-100049502D01*
X131505518Y-100085812D01*
X131630000Y-100098072D01*
X132530000Y-100098072D01*
X132654482Y-100085812D01*
X132774180Y-100049502D01*
X132884494Y-99990537D01*
X132981185Y-99911185D01*
X133060537Y-99814494D01*
X133119502Y-99704180D01*
X133155812Y-99584482D01*
X133168072Y-99460000D01*
X133168072Y-98948095D01*
X133178815Y-98961185D01*
X133275506Y-99040537D01*
X133385820Y-99099502D01*
X133505518Y-99135812D01*
X133630000Y-99148072D01*
X134530000Y-99148072D01*
X134654482Y-99135812D01*
X134774180Y-99099502D01*
X134884494Y-99040537D01*
X134981185Y-98961185D01*
X135060537Y-98864494D01*
X135119502Y-98754180D01*
X135155812Y-98634482D01*
X135168072Y-98510000D01*
X135168072Y-97710000D01*
X135155812Y-97585518D01*
X135119502Y-97465820D01*
X135060537Y-97355506D01*
X134981185Y-97258815D01*
X134884494Y-97179463D01*
X134840000Y-97155680D01*
X134840000Y-96117322D01*
X134843676Y-96079999D01*
X134840000Y-96042676D01*
X134840000Y-96042667D01*
X134829003Y-95931014D01*
X134785546Y-95787753D01*
X134714974Y-95655724D01*
X134620001Y-95539999D01*
X134591003Y-95516201D01*
X134130090Y-95055289D01*
X134199184Y-95076248D01*
X134370000Y-95093072D01*
X134870000Y-95093072D01*
X135040816Y-95076248D01*
X135205067Y-95026423D01*
X135356442Y-94945512D01*
X135489123Y-94836623D01*
X135532500Y-94783768D01*
X135575877Y-94836623D01*
X135708558Y-94945512D01*
X135859933Y-95026423D01*
X136024184Y-95076248D01*
X136195000Y-95093072D01*
X136695000Y-95093072D01*
X136865816Y-95076248D01*
X137030067Y-95026423D01*
X137181442Y-94945512D01*
X137314123Y-94836623D01*
X137423012Y-94703942D01*
X137503923Y-94552567D01*
X137553748Y-94388316D01*
X137570572Y-94217500D01*
X137570572Y-93742500D01*
X137553748Y-93571684D01*
X137503923Y-93407433D01*
X137423012Y-93256058D01*
X137314123Y-93123377D01*
X137205000Y-93033822D01*
X137205000Y-92032325D01*
X137208676Y-91995000D01*
X137205000Y-91957675D01*
X137205000Y-91957667D01*
X137194003Y-91846014D01*
X137150546Y-91702753D01*
X137079974Y-91570724D01*
X136985001Y-91454999D01*
X136956003Y-91431201D01*
X136782874Y-91258072D01*
X136920000Y-91258072D01*
X137044482Y-91245812D01*
X137164180Y-91209502D01*
X137274494Y-91150537D01*
X137371185Y-91071185D01*
X137450537Y-90974494D01*
X137509502Y-90864180D01*
X137545812Y-90744482D01*
X137558072Y-90620000D01*
X137558072Y-89855389D01*
X137650256Y-89817205D01*
X137819774Y-89703937D01*
X137963937Y-89559774D01*
X138077205Y-89390256D01*
X138155226Y-89201898D01*
X138195000Y-89001939D01*
X138195000Y-88798061D01*
X138155226Y-88598102D01*
X138077205Y-88409744D01*
X137963937Y-88240226D01*
X137819774Y-88096063D01*
X137650256Y-87982795D01*
X137461898Y-87904774D01*
X137261939Y-87865000D01*
X137058061Y-87865000D01*
X136858102Y-87904774D01*
X136669744Y-87982795D01*
X136608072Y-88024003D01*
X136608072Y-87720000D01*
X136595812Y-87595518D01*
X136559502Y-87475820D01*
X136505329Y-87374472D01*
X137109230Y-86770572D01*
X137397500Y-86770572D01*
X137568316Y-86753748D01*
X137732567Y-86703923D01*
X137883942Y-86623012D01*
X138016623Y-86514123D01*
X138125512Y-86381442D01*
X138206423Y-86230067D01*
X138256248Y-86065816D01*
X138273072Y-85895000D01*
X138273072Y-85395000D01*
X138256248Y-85224184D01*
X138206423Y-85059933D01*
X138125512Y-84908558D01*
X138016623Y-84775877D01*
X137963768Y-84732500D01*
X138016623Y-84689123D01*
X138125512Y-84556442D01*
X138206423Y-84405067D01*
X138256248Y-84240816D01*
X138273072Y-84070000D01*
X138273072Y-83570000D01*
X138256248Y-83399184D01*
X138206423Y-83234933D01*
X138125512Y-83083558D01*
X138016623Y-82950877D01*
X137883942Y-82841988D01*
X137732567Y-82761077D01*
X137568316Y-82711252D01*
X137397500Y-82694428D01*
X136922500Y-82694428D01*
X136751684Y-82711252D01*
X136587433Y-82761077D01*
X136436058Y-82841988D01*
X136303377Y-82950877D01*
X136213822Y-83060000D01*
X135717322Y-83060000D01*
X135679999Y-83056324D01*
X135642677Y-83060000D01*
X135642667Y-83060000D01*
X135531014Y-83070997D01*
X135387753Y-83114454D01*
X135255723Y-83185026D01*
X135218569Y-83215518D01*
X135139999Y-83279999D01*
X135116201Y-83308997D01*
X134538271Y-83886928D01*
X134260000Y-83886928D01*
X134260000Y-83537333D01*
X134263677Y-83500000D01*
X134249003Y-83351014D01*
X134205546Y-83207753D01*
X134134974Y-83075724D01*
X134063799Y-82988997D01*
X134040001Y-82959999D01*
X134011003Y-82936201D01*
X133686706Y-82611905D01*
X133765518Y-82635812D01*
X133890000Y-82648072D01*
X137890000Y-82648072D01*
X138014482Y-82635812D01*
X138134180Y-82599502D01*
X138244494Y-82540537D01*
X138341185Y-82461185D01*
X138420537Y-82364494D01*
X138479502Y-82254180D01*
X138515812Y-82134482D01*
X138528072Y-82010000D01*
X138528072Y-78010000D01*
X138515812Y-77885518D01*
X138479502Y-77765820D01*
X138420537Y-77655506D01*
X138341185Y-77558815D01*
X138244494Y-77479463D01*
X138134180Y-77420498D01*
X138014482Y-77384188D01*
X137890000Y-77371928D01*
X133890000Y-77371928D01*
X133765518Y-77384188D01*
X133645820Y-77420498D01*
X133535506Y-77479463D01*
X133438815Y-77558815D01*
X133359463Y-77655506D01*
X133300498Y-77765820D01*
X133264188Y-77885518D01*
X133251928Y-78010000D01*
X133251928Y-79250000D01*
X133056018Y-79250000D01*
X132981185Y-79158815D01*
X132884494Y-79079463D01*
X132774180Y-79020498D01*
X132654482Y-78984188D01*
X132530000Y-78971928D01*
X131630000Y-78971928D01*
X131505518Y-78984188D01*
X131385820Y-79020498D01*
X131275506Y-79079463D01*
X131178815Y-79158815D01*
X131168072Y-79171905D01*
X131168072Y-78660000D01*
X131155812Y-78535518D01*
X131119502Y-78415820D01*
X131060537Y-78305506D01*
X130981185Y-78208815D01*
X130884494Y-78129463D01*
X130774180Y-78070498D01*
X130654482Y-78034188D01*
X130530000Y-78021928D01*
X129630000Y-78021928D01*
X129505518Y-78034188D01*
X129385820Y-78070498D01*
X129275506Y-78129463D01*
X129260000Y-78142188D01*
X129260000Y-74378072D01*
X129990000Y-74378072D01*
X130114482Y-74365812D01*
X130234180Y-74329502D01*
X130344494Y-74270537D01*
X130441185Y-74191185D01*
X130516018Y-74100000D01*
X131141978Y-74100000D01*
X131162795Y-74150256D01*
X131276063Y-74319774D01*
X131420226Y-74463937D01*
X131589744Y-74577205D01*
X131778102Y-74655226D01*
X131978061Y-74695000D01*
X132181939Y-74695000D01*
X132381898Y-74655226D01*
X132570256Y-74577205D01*
X132739774Y-74463937D01*
X132883937Y-74319774D01*
X132997205Y-74150256D01*
X133075226Y-73961898D01*
X133115000Y-73761939D01*
X133115000Y-73558061D01*
X133075226Y-73358102D01*
X132997205Y-73169744D01*
X132984013Y-73150000D01*
X133251928Y-73150000D01*
X133251928Y-74390000D01*
X133264188Y-74514482D01*
X133300498Y-74634180D01*
X133359463Y-74744494D01*
X133438815Y-74841185D01*
X133535506Y-74920537D01*
X133645820Y-74979502D01*
X133765518Y-75015812D01*
X133890000Y-75028072D01*
X137890000Y-75028072D01*
X138014482Y-75015812D01*
X138134180Y-74979502D01*
X138244494Y-74920537D01*
X138341185Y-74841185D01*
X138420537Y-74744494D01*
X138479502Y-74634180D01*
X138515812Y-74514482D01*
X138528072Y-74390000D01*
X138528072Y-70390000D01*
X138515812Y-70265518D01*
X138479502Y-70145820D01*
X138420537Y-70035506D01*
X138341185Y-69938815D01*
X138244494Y-69859463D01*
X138134180Y-69800498D01*
X138014482Y-69764188D01*
X137890000Y-69751928D01*
X133890000Y-69751928D01*
X133765518Y-69764188D01*
X133645820Y-69800498D01*
X133535506Y-69859463D01*
X133438815Y-69938815D01*
X133359463Y-70035506D01*
X133300498Y-70145820D01*
X133264188Y-70265518D01*
X133251928Y-70390000D01*
X133251928Y-71630000D01*
X132516018Y-71630000D01*
X132441185Y-71538815D01*
X132344494Y-71459463D01*
X132234180Y-71400498D01*
X132114482Y-71364188D01*
X131990000Y-71351928D01*
X131090000Y-71351928D01*
X130965518Y-71364188D01*
X130845820Y-71400498D01*
X130735506Y-71459463D01*
X130638815Y-71538815D01*
X130628072Y-71551905D01*
X130628072Y-71040000D01*
X130615812Y-70915518D01*
X130579502Y-70795820D01*
X130520537Y-70685506D01*
X130441185Y-70588815D01*
X130344494Y-70509463D01*
X130234180Y-70450498D01*
X130114482Y-70414188D01*
X129990000Y-70401928D01*
X129090000Y-70401928D01*
X128965518Y-70414188D01*
X128845820Y-70450498D01*
X128735506Y-70509463D01*
X128638815Y-70588815D01*
X128559463Y-70685506D01*
X128500498Y-70795820D01*
X128464188Y-70915518D01*
X128451928Y-71040000D01*
X128451928Y-71453271D01*
X127988998Y-71916201D01*
X127960000Y-71939999D01*
X127936202Y-71968997D01*
X127936201Y-71968998D01*
X127865026Y-72055724D01*
X127794454Y-72187754D01*
X127765113Y-72284482D01*
X127750998Y-72331014D01*
X127741298Y-72429502D01*
X127736324Y-72480000D01*
X127740001Y-72517332D01*
X127740001Y-74021337D01*
X127705546Y-73907753D01*
X127634974Y-73775724D01*
X127548072Y-73669834D01*
X127548072Y-73260000D01*
X127535812Y-73135518D01*
X127499502Y-73015820D01*
X127440537Y-72905506D01*
X127361185Y-72808815D01*
X127264494Y-72729463D01*
X127228082Y-72710000D01*
X127264494Y-72690537D01*
X127361185Y-72611185D01*
X127440537Y-72514494D01*
X127499502Y-72404180D01*
X127535812Y-72284482D01*
X127548072Y-72160000D01*
X127548072Y-71998574D01*
X127659774Y-71923937D01*
X127803937Y-71779774D01*
X127917205Y-71610256D01*
X127995226Y-71421898D01*
X128035000Y-71221939D01*
X128035000Y-71018061D01*
X127995226Y-70818102D01*
X127917205Y-70629744D01*
X127803937Y-70460226D01*
X127659774Y-70316063D01*
X127490256Y-70202795D01*
X127301898Y-70124774D01*
X127101939Y-70085000D01*
X126898061Y-70085000D01*
X126698102Y-70124774D01*
X126509744Y-70202795D01*
X126340226Y-70316063D01*
X126196063Y-70460226D01*
X126082795Y-70629744D01*
X126044611Y-70721928D01*
X126010000Y-70721928D01*
X125885518Y-70734188D01*
X125765820Y-70770498D01*
X125655506Y-70829463D01*
X125558815Y-70908815D01*
X125479463Y-71005506D01*
X125420498Y-71115820D01*
X125384188Y-71235518D01*
X125371928Y-71360000D01*
X125371928Y-71871905D01*
X125361185Y-71858815D01*
X125264494Y-71779463D01*
X125154180Y-71720498D01*
X125034482Y-71684188D01*
X124910000Y-71671928D01*
X124010000Y-71671928D01*
X123885518Y-71684188D01*
X123765820Y-71720498D01*
X123655506Y-71779463D01*
X123558815Y-71858815D01*
X123483982Y-71950000D01*
X117827323Y-71950000D01*
X117790000Y-71946324D01*
X117752677Y-71950000D01*
X117752667Y-71950000D01*
X117641014Y-71960997D01*
X117497753Y-72004454D01*
X117365723Y-72075026D01*
X117316740Y-72115226D01*
X117249999Y-72169999D01*
X117226201Y-72198997D01*
X116878270Y-72546928D01*
X116590000Y-72546928D01*
X116419184Y-72563752D01*
X116254933Y-72613577D01*
X116103558Y-72694488D01*
X115970877Y-72803377D01*
X115861988Y-72936058D01*
X115781077Y-73087433D01*
X115731252Y-73251684D01*
X115714428Y-73422500D01*
X115714428Y-73897500D01*
X115731252Y-74068316D01*
X115781077Y-74232567D01*
X115861988Y-74383942D01*
X115970877Y-74516623D01*
X116103558Y-74625512D01*
X116254933Y-74706423D01*
X116419184Y-74756248D01*
X116590000Y-74773072D01*
X117090000Y-74773072D01*
X117260816Y-74756248D01*
X117425067Y-74706423D01*
X117576442Y-74625512D01*
X117709123Y-74516623D01*
X117752500Y-74463768D01*
X117795877Y-74516623D01*
X117928558Y-74625512D01*
X118079933Y-74706423D01*
X118244184Y-74756248D01*
X118415000Y-74773072D01*
X118915000Y-74773072D01*
X119085816Y-74756248D01*
X119250067Y-74706423D01*
X119316248Y-74671049D01*
X120085198Y-75440000D01*
X119837322Y-75440000D01*
X119799999Y-75436324D01*
X119762676Y-75440000D01*
X119762667Y-75440000D01*
X119651014Y-75450997D01*
X119507753Y-75494454D01*
X119375724Y-75565026D01*
X119259999Y-75659999D01*
X119236196Y-75689003D01*
X118988998Y-75936201D01*
X118960000Y-75959999D01*
X118936202Y-75988997D01*
X118936201Y-75988998D01*
X118865026Y-76075724D01*
X118794454Y-76207754D01*
X118772547Y-76279974D01*
X118751555Y-76349180D01*
X118750998Y-76351015D01*
X118736324Y-76500000D01*
X118740001Y-76537332D01*
X118740000Y-77685198D01*
X118704836Y-77720362D01*
X118684482Y-77714188D01*
X118560000Y-77701928D01*
X117660000Y-77701928D01*
X117535518Y-77714188D01*
X117415820Y-77750498D01*
X117305506Y-77809463D01*
X117208815Y-77888815D01*
X117198072Y-77901905D01*
X117198072Y-77390000D01*
X117185812Y-77265518D01*
X117149502Y-77145820D01*
X117090537Y-77035506D01*
X117011185Y-76938815D01*
X116914494Y-76859463D01*
X116870000Y-76835680D01*
X116870000Y-76777333D01*
X116873677Y-76740000D01*
X116859003Y-76591014D01*
X116815546Y-76447753D01*
X116744974Y-76315724D01*
X116673799Y-76228997D01*
X116650001Y-76199999D01*
X116621003Y-76176201D01*
X115425572Y-74980771D01*
X115425572Y-74692500D01*
X115408748Y-74521684D01*
X115358923Y-74357433D01*
X115278012Y-74206058D01*
X115169123Y-74073377D01*
X115036442Y-73964488D01*
X114885067Y-73883577D01*
X114720816Y-73833752D01*
X114550000Y-73816928D01*
X114050000Y-73816928D01*
X113879184Y-73833752D01*
X113714933Y-73883577D01*
X113563558Y-73964488D01*
X113430877Y-74073377D01*
X113387500Y-74126232D01*
X113344123Y-74073377D01*
X113211442Y-73964488D01*
X113060067Y-73883577D01*
X112895816Y-73833752D01*
X112725000Y-73816928D01*
X112225000Y-73816928D01*
X112054184Y-73833752D01*
X111889933Y-73883577D01*
X111738558Y-73964488D01*
X111605877Y-74073377D01*
X111496988Y-74206058D01*
X111416077Y-74357433D01*
X111366252Y-74521684D01*
X111349428Y-74692500D01*
X111349428Y-74980771D01*
X111248998Y-75081201D01*
X111220000Y-75104999D01*
X111196202Y-75133997D01*
X111196201Y-75133998D01*
X111125026Y-75220724D01*
X111054454Y-75352754D01*
X111029104Y-75436324D01*
X111011472Y-75494454D01*
X111010998Y-75496015D01*
X110996324Y-75645000D01*
X111000001Y-75682332D01*
X111000000Y-79063821D01*
X110890877Y-79153377D01*
X110847500Y-79206232D01*
X110804123Y-79153377D01*
X110671442Y-79044488D01*
X110520067Y-78963577D01*
X110355816Y-78913752D01*
X110185000Y-78896928D01*
X109685000Y-78896928D01*
X109514184Y-78913752D01*
X109349933Y-78963577D01*
X109283753Y-78998951D01*
X108985000Y-78700199D01*
X108985000Y-78638061D01*
X108945226Y-78438102D01*
X108867205Y-78249744D01*
X108753937Y-78080226D01*
X108609774Y-77936063D01*
X108440256Y-77822795D01*
X108251898Y-77744774D01*
X108051939Y-77705000D01*
X107848061Y-77705000D01*
X107648102Y-77744774D01*
X107459744Y-77822795D01*
X107290226Y-77936063D01*
X107146063Y-78080226D01*
X107032795Y-78249744D01*
X106954774Y-78438102D01*
X106915000Y-78638061D01*
X106915000Y-78841939D01*
X106954774Y-79041898D01*
X107032795Y-79230256D01*
X107146063Y-79399774D01*
X107290226Y-79543937D01*
X107459744Y-79657205D01*
X107648102Y-79735226D01*
X107848061Y-79775000D01*
X107910199Y-79775000D01*
X108656200Y-80521002D01*
X108679999Y-80550001D01*
X108795724Y-80644974D01*
X108927753Y-80715546D01*
X108950910Y-80722570D01*
X108956988Y-80733942D01*
X109065877Y-80866623D01*
X109198558Y-80975512D01*
X109349933Y-81056423D01*
X109514184Y-81106248D01*
X109685000Y-81123072D01*
X110185000Y-81123072D01*
X110355816Y-81106248D01*
X110520067Y-81056423D01*
X110671442Y-80975512D01*
X110804123Y-80866623D01*
X110847500Y-80813768D01*
X110890877Y-80866623D01*
X111023558Y-80975512D01*
X111174933Y-81056423D01*
X111339184Y-81106248D01*
X111510000Y-81123072D01*
X111798271Y-81123072D01*
X112740001Y-82064803D01*
X112740001Y-82441890D01*
X112686185Y-82376315D01*
X112589494Y-82296963D01*
X112479180Y-82237998D01*
X112359482Y-82201688D01*
X112235000Y-82189428D01*
X112045750Y-82192500D01*
X111887000Y-82351250D01*
X111887000Y-83238000D01*
X111907000Y-83238000D01*
X111907000Y-83492000D01*
X111887000Y-83492000D01*
X111887000Y-83512000D01*
X111633000Y-83512000D01*
X111633000Y-83492000D01*
X110808750Y-83492000D01*
X110650000Y-83650750D01*
X110646928Y-83902500D01*
X110659188Y-84026982D01*
X110672551Y-84071035D01*
X110591939Y-84055000D01*
X110388061Y-84055000D01*
X110188102Y-84094774D01*
X109999744Y-84172795D01*
X109830226Y-84286063D01*
X109686063Y-84430226D01*
X109572795Y-84599744D01*
X109494774Y-84788102D01*
X109455000Y-84988061D01*
X109455000Y-85191939D01*
X109494774Y-85391898D01*
X109572795Y-85580256D01*
X109686063Y-85749774D01*
X109830226Y-85893937D01*
X109999744Y-86007205D01*
X110188102Y-86085226D01*
X110388061Y-86125000D01*
X110591939Y-86125000D01*
X110791898Y-86085226D01*
X110927611Y-86029011D01*
X111036058Y-86118012D01*
X111187433Y-86198923D01*
X111351684Y-86248748D01*
X111522500Y-86265572D01*
X111997500Y-86265572D01*
X112168316Y-86248748D01*
X112332567Y-86198923D01*
X112483942Y-86118012D01*
X112616623Y-86009123D01*
X112725512Y-85876442D01*
X112806423Y-85725067D01*
X112856248Y-85560816D01*
X112873072Y-85390000D01*
X112873072Y-84790000D01*
X112856248Y-84619184D01*
X112806423Y-84454933D01*
X112726226Y-84304894D01*
X112765537Y-84256994D01*
X112777163Y-84235244D01*
X112781942Y-84250998D01*
X112794454Y-84292246D01*
X112865026Y-84424276D01*
X112894344Y-84460000D01*
X112959999Y-84540001D01*
X112989003Y-84563804D01*
X114436201Y-86011003D01*
X114459999Y-86040001D01*
X114575724Y-86134974D01*
X114707753Y-86205546D01*
X114851014Y-86249003D01*
X114962667Y-86260000D01*
X114962676Y-86260000D01*
X114999999Y-86263676D01*
X115037322Y-86260000D01*
X117962678Y-86260000D01*
X118000000Y-86263676D01*
X118037322Y-86260000D01*
X119742462Y-86260000D01*
X119715000Y-86398061D01*
X119715000Y-86601939D01*
X119754774Y-86801898D01*
X119832795Y-86990256D01*
X119946063Y-87159774D01*
X120071203Y-87284914D01*
X120062171Y-87289742D01*
X120015000Y-87328454D01*
X119967829Y-87289742D01*
X119831582Y-87216916D01*
X119683745Y-87172071D01*
X119530000Y-87156928D01*
X119230000Y-87156928D01*
X119076255Y-87172071D01*
X118928418Y-87216916D01*
X118792171Y-87289742D01*
X118745000Y-87328454D01*
X118697829Y-87289742D01*
X118561582Y-87216916D01*
X118413745Y-87172071D01*
X118260000Y-87156928D01*
X117960000Y-87156928D01*
X117806255Y-87172071D01*
X117658418Y-87216916D01*
X117522171Y-87289742D01*
X117475000Y-87328454D01*
X117427829Y-87289742D01*
X117291582Y-87216916D01*
X117143745Y-87172071D01*
X116990000Y-87156928D01*
X116690000Y-87156928D01*
X116536255Y-87172071D01*
X116388418Y-87216916D01*
X116252171Y-87289742D01*
X116205000Y-87328454D01*
X116157829Y-87289742D01*
X116021582Y-87216916D01*
X115873745Y-87172071D01*
X115720000Y-87156928D01*
X115420000Y-87156928D01*
X115266255Y-87172071D01*
X115118418Y-87216916D01*
X114982171Y-87289742D01*
X114862749Y-87387749D01*
X114764742Y-87507171D01*
X114691916Y-87643418D01*
X114647071Y-87791255D01*
X114631928Y-87945000D01*
X114631928Y-89595000D01*
X114647071Y-89748745D01*
X114691916Y-89896582D01*
X114764742Y-90032829D01*
X114810001Y-90087977D01*
X114810000Y-90441580D01*
X114713377Y-90520877D01*
X114604488Y-90653558D01*
X114590355Y-90680000D01*
X111436178Y-90680000D01*
X111346623Y-90570877D01*
X111250000Y-90491580D01*
X111250000Y-90403420D01*
X111346623Y-90324123D01*
X111455512Y-90191442D01*
X111536423Y-90040067D01*
X111586248Y-89875816D01*
X111603072Y-89705000D01*
X111603072Y-89205000D01*
X111586248Y-89034184D01*
X111536423Y-88869933D01*
X111455512Y-88718558D01*
X111366188Y-88609717D01*
X111416185Y-88568685D01*
X111495537Y-88471994D01*
X111554502Y-88361680D01*
X111590812Y-88241982D01*
X111603072Y-88117500D01*
X111600000Y-87915750D01*
X111441250Y-87757000D01*
X110617000Y-87757000D01*
X110617000Y-87777000D01*
X110363000Y-87777000D01*
X110363000Y-87757000D01*
X109538750Y-87757000D01*
X109380000Y-87915750D01*
X109376928Y-88117500D01*
X109389188Y-88241982D01*
X109425498Y-88361680D01*
X109484463Y-88471994D01*
X109563815Y-88568685D01*
X109613812Y-88609717D01*
X109524488Y-88718558D01*
X109443577Y-88869933D01*
X109393752Y-89034184D01*
X109376928Y-89205000D01*
X109376928Y-89705000D01*
X109393752Y-89875816D01*
X109443577Y-90040067D01*
X109524488Y-90191442D01*
X109633377Y-90324123D01*
X109730000Y-90403420D01*
X109730001Y-90491580D01*
X109633377Y-90570877D01*
X109524488Y-90703558D01*
X109443577Y-90854933D01*
X109393752Y-91019184D01*
X109376928Y-91190000D01*
X109376928Y-91690000D01*
X109393752Y-91860816D01*
X109443577Y-92025067D01*
X109524488Y-92176442D01*
X109633377Y-92309123D01*
X109686232Y-92352500D01*
X109633377Y-92395877D01*
X109524488Y-92528558D01*
X109443577Y-92679933D01*
X109393752Y-92844184D01*
X109376928Y-93015000D01*
X109376928Y-93303270D01*
X109116239Y-93563959D01*
X109089502Y-93475820D01*
X109030537Y-93365506D01*
X108951185Y-93268815D01*
X108854494Y-93189463D01*
X108744180Y-93130498D01*
X108624482Y-93094188D01*
X108500000Y-93081928D01*
X103900000Y-93081928D01*
X103775518Y-93094188D01*
X103655820Y-93130498D01*
X103545506Y-93189463D01*
X103448815Y-93268815D01*
X103369463Y-93365506D01*
X103310498Y-93475820D01*
X103274188Y-93595518D01*
X103261928Y-93720000D01*
X96918072Y-93720000D01*
X96905812Y-93595518D01*
X96869502Y-93475820D01*
X96810537Y-93365506D01*
X96731185Y-93268815D01*
X96634494Y-93189463D01*
X96524180Y-93130498D01*
X96404482Y-93094188D01*
X96280000Y-93081928D01*
X91680000Y-93081928D01*
X91555518Y-93094188D01*
X91435820Y-93130498D01*
X91325506Y-93189463D01*
X91228815Y-93268815D01*
X91149463Y-93365506D01*
X91090498Y-93475820D01*
X91054188Y-93595518D01*
X91041928Y-93720000D01*
X91041928Y-95760000D01*
X85127322Y-95760000D01*
X85089999Y-95756324D01*
X85052676Y-95760000D01*
X85052667Y-95760000D01*
X84941014Y-95770997D01*
X84797753Y-95814454D01*
X84665724Y-95885026D01*
X84549999Y-95979999D01*
X84539007Y-95993393D01*
X84384419Y-95929361D01*
X84010581Y-95855000D01*
X83629419Y-95855000D01*
X83255581Y-95929361D01*
X82903434Y-96075225D01*
X82586509Y-96286987D01*
X82316987Y-96556509D01*
X82105225Y-96873434D01*
X81959361Y-97225581D01*
X81885000Y-97599419D01*
X76877000Y-97599419D01*
X76877000Y-91410000D01*
X81881928Y-91410000D01*
X81881928Y-94010000D01*
X81894188Y-94134482D01*
X81930498Y-94254180D01*
X81989463Y-94364494D01*
X82068815Y-94461185D01*
X82165506Y-94540537D01*
X82275820Y-94599502D01*
X82395518Y-94635812D01*
X82520000Y-94648072D01*
X85120000Y-94648072D01*
X85244482Y-94635812D01*
X85364180Y-94599502D01*
X85474494Y-94540537D01*
X85571185Y-94461185D01*
X85650537Y-94364494D01*
X85709502Y-94254180D01*
X85745812Y-94134482D01*
X85758072Y-94010000D01*
X85758072Y-91410000D01*
X85745812Y-91285518D01*
X85709502Y-91165820D01*
X85650537Y-91055506D01*
X85571185Y-90958815D01*
X85474494Y-90879463D01*
X85364180Y-90820498D01*
X85244482Y-90784188D01*
X85120000Y-90771928D01*
X82520000Y-90771928D01*
X82395518Y-90784188D01*
X82275820Y-90820498D01*
X82165506Y-90879463D01*
X82068815Y-90958815D01*
X81989463Y-91055506D01*
X81930498Y-91165820D01*
X81894188Y-91285518D01*
X81881928Y-91410000D01*
X76877000Y-91410000D01*
X76877000Y-88377000D01*
X101603016Y-88377000D01*
X101601928Y-88630000D01*
X101614188Y-88754482D01*
X101650498Y-88874180D01*
X101709463Y-88984494D01*
X101788815Y-89081185D01*
X101885506Y-89160537D01*
X101995820Y-89219502D01*
X102115518Y-89255812D01*
X102240000Y-89268072D01*
X103854250Y-89265000D01*
X104013000Y-89106250D01*
X104013000Y-87757000D01*
X104267000Y-87757000D01*
X104267000Y-89106250D01*
X104425750Y-89265000D01*
X106040000Y-89268072D01*
X106164482Y-89255812D01*
X106284180Y-89219502D01*
X106394494Y-89160537D01*
X106491185Y-89081185D01*
X106570537Y-88984494D01*
X106629502Y-88874180D01*
X106665812Y-88754482D01*
X106678072Y-88630000D01*
X106675000Y-87915750D01*
X106516250Y-87757000D01*
X104267000Y-87757000D01*
X104013000Y-87757000D01*
X103993000Y-87757000D01*
X103993000Y-87503000D01*
X104013000Y-87503000D01*
X104013000Y-86153750D01*
X104267000Y-86153750D01*
X104267000Y-87503000D01*
X106516250Y-87503000D01*
X106675000Y-87344250D01*
X106675867Y-87142500D01*
X109376928Y-87142500D01*
X109380000Y-87344250D01*
X109538750Y-87503000D01*
X110363000Y-87503000D01*
X110363000Y-86666250D01*
X110617000Y-86666250D01*
X110617000Y-87503000D01*
X111441250Y-87503000D01*
X111600000Y-87344250D01*
X111603072Y-87142500D01*
X111590812Y-87018018D01*
X111554502Y-86898320D01*
X111495537Y-86788006D01*
X111416185Y-86691315D01*
X111319494Y-86611963D01*
X111209180Y-86552998D01*
X111089482Y-86516688D01*
X110965000Y-86504428D01*
X110775750Y-86507500D01*
X110617000Y-86666250D01*
X110363000Y-86666250D01*
X110204250Y-86507500D01*
X110015000Y-86504428D01*
X109890518Y-86516688D01*
X109770820Y-86552998D01*
X109660506Y-86611963D01*
X109563815Y-86691315D01*
X109484463Y-86788006D01*
X109425498Y-86898320D01*
X109389188Y-87018018D01*
X109376928Y-87142500D01*
X106675867Y-87142500D01*
X106678072Y-86630000D01*
X106665812Y-86505518D01*
X106629502Y-86385820D01*
X106570537Y-86275506D01*
X106491185Y-86178815D01*
X106394494Y-86099463D01*
X106284180Y-86040498D01*
X106164482Y-86004188D01*
X106040000Y-85991928D01*
X104425750Y-85995000D01*
X104267000Y-86153750D01*
X104013000Y-86153750D01*
X103854250Y-85995000D01*
X103377000Y-85994092D01*
X103377000Y-82966792D01*
X103390000Y-82968072D01*
X103854250Y-82965000D01*
X104013000Y-82806250D01*
X104013000Y-81457000D01*
X103993000Y-81457000D01*
X103993000Y-81203000D01*
X104013000Y-81203000D01*
X104013000Y-79853750D01*
X104267000Y-79853750D01*
X104267000Y-81203000D01*
X104287000Y-81203000D01*
X104287000Y-81457000D01*
X104267000Y-81457000D01*
X104267000Y-82806250D01*
X104425750Y-82965000D01*
X104890000Y-82968072D01*
X105014482Y-82955812D01*
X105134180Y-82919502D01*
X105244494Y-82860537D01*
X105290000Y-82823191D01*
X105335506Y-82860537D01*
X105445820Y-82919502D01*
X105565518Y-82955812D01*
X105609398Y-82960134D01*
X105522795Y-83089744D01*
X105444774Y-83278102D01*
X105405000Y-83478061D01*
X105405000Y-83681939D01*
X105444774Y-83881898D01*
X105522795Y-84070256D01*
X105636063Y-84239774D01*
X105780226Y-84383937D01*
X105949744Y-84497205D01*
X106138102Y-84575226D01*
X106338061Y-84615000D01*
X106541939Y-84615000D01*
X106741898Y-84575226D01*
X106930256Y-84497205D01*
X107099774Y-84383937D01*
X107243937Y-84239774D01*
X107357205Y-84070256D01*
X107435226Y-83881898D01*
X107475000Y-83681939D01*
X107475000Y-83478061D01*
X107435226Y-83278102D01*
X107357205Y-83089744D01*
X107270602Y-82960134D01*
X107314482Y-82955812D01*
X107434180Y-82919502D01*
X107544494Y-82860537D01*
X107584749Y-82827500D01*
X110646928Y-82827500D01*
X110650000Y-83079250D01*
X110808750Y-83238000D01*
X111633000Y-83238000D01*
X111633000Y-82351250D01*
X111474250Y-82192500D01*
X111285000Y-82189428D01*
X111160518Y-82201688D01*
X111040820Y-82237998D01*
X110930506Y-82296963D01*
X110833815Y-82376315D01*
X110754463Y-82473006D01*
X110695498Y-82583320D01*
X110659188Y-82703018D01*
X110646928Y-82827500D01*
X107584749Y-82827500D01*
X107641185Y-82781185D01*
X107720537Y-82684494D01*
X107779502Y-82574180D01*
X107815812Y-82454482D01*
X107828072Y-82330000D01*
X107828072Y-80330000D01*
X107815812Y-80205518D01*
X107779502Y-80085820D01*
X107720537Y-79975506D01*
X107641185Y-79878815D01*
X107544494Y-79799463D01*
X107434180Y-79740498D01*
X107314482Y-79704188D01*
X107190000Y-79691928D01*
X105690000Y-79691928D01*
X105565518Y-79704188D01*
X105445820Y-79740498D01*
X105335506Y-79799463D01*
X105290000Y-79836809D01*
X105244494Y-79799463D01*
X105134180Y-79740498D01*
X105014482Y-79704188D01*
X104890000Y-79691928D01*
X104425750Y-79695000D01*
X104267000Y-79853750D01*
X104013000Y-79853750D01*
X103854250Y-79695000D01*
X103390000Y-79691928D01*
X103377000Y-79693208D01*
X103377000Y-76105000D01*
X104581928Y-76105000D01*
X104594188Y-76229482D01*
X104630498Y-76349180D01*
X104689463Y-76459494D01*
X104768815Y-76556185D01*
X104865506Y-76635537D01*
X104975820Y-76694502D01*
X105095518Y-76730812D01*
X105220000Y-76743072D01*
X105684250Y-76740000D01*
X105843000Y-76581250D01*
X105843000Y-75057000D01*
X106097000Y-75057000D01*
X106097000Y-76581250D01*
X106255750Y-76740000D01*
X106720000Y-76743072D01*
X106844482Y-76730812D01*
X106964180Y-76694502D01*
X107074494Y-76635537D01*
X107171185Y-76556185D01*
X107250537Y-76459494D01*
X107309502Y-76349180D01*
X107345812Y-76229482D01*
X107358072Y-76105000D01*
X107355000Y-75215750D01*
X107196250Y-75057000D01*
X106097000Y-75057000D01*
X105843000Y-75057000D01*
X104743750Y-75057000D01*
X104585000Y-75215750D01*
X104581928Y-76105000D01*
X103377000Y-76105000D01*
X103377000Y-73755000D01*
X104581928Y-73755000D01*
X104585000Y-74644250D01*
X104743750Y-74803000D01*
X105843000Y-74803000D01*
X105843000Y-73278750D01*
X106097000Y-73278750D01*
X106097000Y-74803000D01*
X107196250Y-74803000D01*
X107355000Y-74644250D01*
X107357208Y-74005000D01*
X107831928Y-74005000D01*
X107831928Y-75855000D01*
X107848992Y-76028254D01*
X107899528Y-76194850D01*
X107981595Y-76348386D01*
X108092038Y-76482962D01*
X108226614Y-76593405D01*
X108380150Y-76675472D01*
X108546746Y-76726008D01*
X108720000Y-76743072D01*
X109720000Y-76743072D01*
X109893254Y-76726008D01*
X110059850Y-76675472D01*
X110213386Y-76593405D01*
X110347962Y-76482962D01*
X110458405Y-76348386D01*
X110540472Y-76194850D01*
X110591008Y-76028254D01*
X110608072Y-75855000D01*
X110608072Y-74005000D01*
X110591008Y-73831746D01*
X110540472Y-73665150D01*
X110458405Y-73511614D01*
X110347962Y-73377038D01*
X110213386Y-73266595D01*
X110059850Y-73184528D01*
X109980000Y-73160306D01*
X109980000Y-73093711D01*
X110023937Y-73049774D01*
X110137205Y-72880256D01*
X110215226Y-72691898D01*
X110255000Y-72491939D01*
X110255000Y-72288061D01*
X110215226Y-72088102D01*
X110137205Y-71899744D01*
X110023937Y-71730226D01*
X109879774Y-71586063D01*
X109710256Y-71472795D01*
X109521898Y-71394774D01*
X109321939Y-71355000D01*
X109118061Y-71355000D01*
X108918102Y-71394774D01*
X108729744Y-71472795D01*
X108560226Y-71586063D01*
X108416063Y-71730226D01*
X108302795Y-71899744D01*
X108224774Y-72088102D01*
X108185000Y-72288061D01*
X108185000Y-72491939D01*
X108224774Y-72691898D01*
X108302795Y-72880256D01*
X108416063Y-73049774D01*
X108460001Y-73093712D01*
X108460001Y-73160306D01*
X108380150Y-73184528D01*
X108226614Y-73266595D01*
X108092038Y-73377038D01*
X107981595Y-73511614D01*
X107899528Y-73665150D01*
X107848992Y-73831746D01*
X107831928Y-74005000D01*
X107357208Y-74005000D01*
X107358072Y-73755000D01*
X107345812Y-73630518D01*
X107309502Y-73510820D01*
X107250537Y-73400506D01*
X107171185Y-73303815D01*
X107074494Y-73224463D01*
X106964180Y-73165498D01*
X106844482Y-73129188D01*
X106720000Y-73116928D01*
X106255750Y-73120000D01*
X106097000Y-73278750D01*
X105843000Y-73278750D01*
X105684250Y-73120000D01*
X105220000Y-73116928D01*
X105095518Y-73129188D01*
X104975820Y-73165498D01*
X104865506Y-73224463D01*
X104768815Y-73303815D01*
X104689463Y-73400506D01*
X104630498Y-73510820D01*
X104594188Y-73630518D01*
X104581928Y-73755000D01*
X103377000Y-73755000D01*
X103377000Y-68877000D01*
X139123000Y-68877000D01*
X139123000Y-102123000D01*
G04 #@! TA.AperFunction,Conductor*
D23*
G36*
X139123000Y-102123000D02*
G01*
X76877000Y-102123000D01*
X76877000Y-97599419D01*
X81885000Y-97599419D01*
X81885000Y-97980581D01*
X81959361Y-98354419D01*
X82105225Y-98706566D01*
X82316987Y-99023491D01*
X82586509Y-99293013D01*
X82903434Y-99504775D01*
X83255581Y-99650639D01*
X83629419Y-99725000D01*
X84010581Y-99725000D01*
X84384419Y-99650639D01*
X84736566Y-99504775D01*
X85053491Y-99293013D01*
X85323013Y-99023491D01*
X85534775Y-98706566D01*
X85680639Y-98354419D01*
X85755000Y-97980581D01*
X85755000Y-97599419D01*
X85691464Y-97280000D01*
X91041928Y-97280000D01*
X91041928Y-99320000D01*
X91054188Y-99444482D01*
X91090498Y-99564180D01*
X91149463Y-99674494D01*
X91228815Y-99771185D01*
X91325506Y-99850537D01*
X91435820Y-99909502D01*
X91555518Y-99945812D01*
X91680000Y-99958072D01*
X96280000Y-99958072D01*
X96404482Y-99945812D01*
X96524180Y-99909502D01*
X96634494Y-99850537D01*
X96731185Y-99771185D01*
X96810537Y-99674494D01*
X96869502Y-99564180D01*
X96905812Y-99444482D01*
X96918072Y-99320000D01*
X96918072Y-93720000D01*
X103261928Y-93720000D01*
X103261928Y-99320000D01*
X103274188Y-99444482D01*
X103310498Y-99564180D01*
X103369463Y-99674494D01*
X103448815Y-99771185D01*
X103545506Y-99850537D01*
X103655820Y-99909502D01*
X103775518Y-99945812D01*
X103900000Y-99958072D01*
X108500000Y-99958072D01*
X108624482Y-99945812D01*
X108744180Y-99909502D01*
X108854494Y-99850537D01*
X108951185Y-99771185D01*
X109030537Y-99674494D01*
X109089502Y-99564180D01*
X109125812Y-99444482D01*
X109138072Y-99320000D01*
X109138072Y-98300000D01*
X109911928Y-98300000D01*
X109924188Y-98424482D01*
X109960498Y-98544180D01*
X110019463Y-98654494D01*
X110098815Y-98751185D01*
X110195506Y-98830537D01*
X110305820Y-98889502D01*
X110425518Y-98925812D01*
X110550000Y-98938072D01*
X110714250Y-98935000D01*
X110873000Y-98776250D01*
X110873000Y-98027000D01*
X111127000Y-98027000D01*
X111127000Y-98776250D01*
X111285750Y-98935000D01*
X111450000Y-98938072D01*
X111574482Y-98925812D01*
X111694180Y-98889502D01*
X111804494Y-98830537D01*
X111901185Y-98751185D01*
X111980537Y-98654494D01*
X112039502Y-98544180D01*
X112075812Y-98424482D01*
X112088072Y-98300000D01*
X112085000Y-98185750D01*
X111926250Y-98027000D01*
X111127000Y-98027000D01*
X110873000Y-98027000D01*
X110073750Y-98027000D01*
X109915000Y-98185750D01*
X109911928Y-98300000D01*
X109138072Y-98300000D01*
X109138072Y-95691729D01*
X110439230Y-94390572D01*
X110727500Y-94390572D01*
X110898316Y-94373748D01*
X111062567Y-94323923D01*
X111213942Y-94243012D01*
X111346623Y-94134123D01*
X111455512Y-94001442D01*
X111536423Y-93850067D01*
X111586248Y-93685816D01*
X111603072Y-93515000D01*
X111603072Y-93015000D01*
X111586248Y-92844184D01*
X111536423Y-92679933D01*
X111455512Y-92528558D01*
X111346623Y-92395877D01*
X111293768Y-92352500D01*
X111346623Y-92309123D01*
X111436178Y-92200000D01*
X114590355Y-92200000D01*
X114604488Y-92226442D01*
X114666907Y-92302500D01*
X114604488Y-92378558D01*
X114523577Y-92529933D01*
X114473752Y-92694184D01*
X114469681Y-92735517D01*
X114260198Y-92945000D01*
X114198061Y-92945000D01*
X113998102Y-92984774D01*
X113809744Y-93062795D01*
X113640226Y-93176063D01*
X113496063Y-93320226D01*
X113382795Y-93489744D01*
X113304774Y-93678102D01*
X113265000Y-93878061D01*
X113265000Y-94081939D01*
X113304774Y-94281898D01*
X113382795Y-94470256D01*
X113496063Y-94639774D01*
X113640226Y-94783937D01*
X113809744Y-94897205D01*
X113998102Y-94975226D01*
X114198061Y-95015000D01*
X114401939Y-95015000D01*
X114601898Y-94975226D01*
X114790256Y-94897205D01*
X114959774Y-94783937D01*
X115103937Y-94639774D01*
X115217205Y-94470256D01*
X115273336Y-94334745D01*
X115332500Y-94340572D01*
X115807500Y-94340572D01*
X115978316Y-94323748D01*
X116142567Y-94273923D01*
X116293942Y-94193012D01*
X116426623Y-94084123D01*
X116535512Y-93951442D01*
X116616423Y-93800067D01*
X116666248Y-93635816D01*
X116683072Y-93465000D01*
X116683072Y-92865000D01*
X116666248Y-92694184D01*
X116616423Y-92529933D01*
X116535512Y-92378558D01*
X116473093Y-92302500D01*
X116535512Y-92226442D01*
X116616423Y-92075067D01*
X116666248Y-91910816D01*
X116683072Y-91740000D01*
X116683072Y-91140000D01*
X116666248Y-90969184D01*
X116616423Y-90804933D01*
X116535512Y-90653558D01*
X116426623Y-90520877D01*
X116330000Y-90441580D01*
X116330000Y-90291859D01*
X116388418Y-90323084D01*
X116536255Y-90367929D01*
X116690000Y-90383072D01*
X116990000Y-90383072D01*
X117143745Y-90367929D01*
X117291582Y-90323084D01*
X117427829Y-90250258D01*
X117475000Y-90211546D01*
X117522171Y-90250258D01*
X117658418Y-90323084D01*
X117806255Y-90367929D01*
X117960000Y-90383072D01*
X118260000Y-90383072D01*
X118413745Y-90367929D01*
X118561582Y-90323084D01*
X118620000Y-90291858D01*
X118620001Y-91957667D01*
X118616324Y-91995000D01*
X118620001Y-92032333D01*
X118630998Y-92143986D01*
X118634719Y-92156252D01*
X118674454Y-92287246D01*
X118745026Y-92419276D01*
X118811275Y-92500000D01*
X118840000Y-92535001D01*
X118868998Y-92558799D01*
X118969428Y-92659229D01*
X118969428Y-92760770D01*
X116488998Y-95241201D01*
X116460000Y-95264999D01*
X116436202Y-95293997D01*
X116436201Y-95293998D01*
X116365026Y-95380724D01*
X116294454Y-95512754D01*
X116292564Y-95518984D01*
X116263558Y-95534488D01*
X116130877Y-95643377D01*
X116087500Y-95696232D01*
X116044123Y-95643377D01*
X115911442Y-95534488D01*
X115760067Y-95453577D01*
X115595816Y-95403752D01*
X115425000Y-95386928D01*
X115125964Y-95386928D01*
X115099276Y-95365026D01*
X114967247Y-95294454D01*
X114823986Y-95250997D01*
X114712333Y-95240000D01*
X114712322Y-95240000D01*
X114675000Y-95236324D01*
X114637678Y-95240000D01*
X111976018Y-95240000D01*
X111901185Y-95148815D01*
X111804494Y-95069463D01*
X111694180Y-95010498D01*
X111574482Y-94974188D01*
X111450000Y-94961928D01*
X110550000Y-94961928D01*
X110425518Y-94974188D01*
X110305820Y-95010498D01*
X110195506Y-95069463D01*
X110098815Y-95148815D01*
X110019463Y-95245506D01*
X109960498Y-95355820D01*
X109924188Y-95475518D01*
X109911928Y-95600000D01*
X109911928Y-96400000D01*
X109924188Y-96524482D01*
X109960498Y-96644180D01*
X110019463Y-96754494D01*
X110098815Y-96851185D01*
X110195506Y-96930537D01*
X110231918Y-96950000D01*
X110195506Y-96969463D01*
X110098815Y-97048815D01*
X110019463Y-97145506D01*
X109960498Y-97255820D01*
X109924188Y-97375518D01*
X109911928Y-97500000D01*
X109915000Y-97614250D01*
X110073750Y-97773000D01*
X110873000Y-97773000D01*
X110873000Y-97753000D01*
X111127000Y-97753000D01*
X111127000Y-97773000D01*
X111926250Y-97773000D01*
X112010857Y-97688393D01*
X112019463Y-97704494D01*
X112098815Y-97801185D01*
X112195506Y-97880537D01*
X112305820Y-97939502D01*
X112425518Y-97975812D01*
X112550000Y-97988072D01*
X112963270Y-97988072D01*
X113276205Y-98301008D01*
X113299999Y-98330001D01*
X113328992Y-98353795D01*
X113328996Y-98353799D01*
X113369143Y-98386746D01*
X113415724Y-98424974D01*
X113547753Y-98495546D01*
X113691014Y-98539003D01*
X113802667Y-98550000D01*
X113802676Y-98550000D01*
X113839999Y-98553676D01*
X113877322Y-98550000D01*
X119065680Y-98550000D01*
X119089463Y-98594494D01*
X119168815Y-98691185D01*
X119265506Y-98770537D01*
X119375820Y-98829502D01*
X119495518Y-98865812D01*
X119620000Y-98878072D01*
X120420000Y-98878072D01*
X120544482Y-98865812D01*
X120664180Y-98829502D01*
X120774494Y-98770537D01*
X120871185Y-98691185D01*
X120950537Y-98594494D01*
X120970000Y-98558082D01*
X120989463Y-98594494D01*
X121068815Y-98691185D01*
X121165506Y-98770537D01*
X121275820Y-98829502D01*
X121395518Y-98865812D01*
X121520000Y-98878072D01*
X121933271Y-98878072D01*
X122115198Y-99060000D01*
X121880199Y-99295000D01*
X121818061Y-99295000D01*
X121618102Y-99334774D01*
X121429744Y-99412795D01*
X121260226Y-99526063D01*
X121116063Y-99670226D01*
X121002795Y-99839744D01*
X120924774Y-100028102D01*
X120885000Y-100228061D01*
X120885000Y-100431939D01*
X120924774Y-100631898D01*
X121002795Y-100820256D01*
X121116063Y-100989774D01*
X121260226Y-101133937D01*
X121429744Y-101247205D01*
X121618102Y-101325226D01*
X121818061Y-101365000D01*
X122021939Y-101365000D01*
X122221898Y-101325226D01*
X122410256Y-101247205D01*
X122579774Y-101133937D01*
X122723937Y-100989774D01*
X122837205Y-100820256D01*
X122915226Y-100631898D01*
X122955000Y-100431939D01*
X122955000Y-100369801D01*
X123504802Y-99820000D01*
X125730306Y-99820000D01*
X125754528Y-99899850D01*
X125836595Y-100053386D01*
X125947038Y-100187962D01*
X126081614Y-100298405D01*
X126235150Y-100380472D01*
X126401746Y-100431008D01*
X126575000Y-100448072D01*
X128425000Y-100448072D01*
X128598254Y-100431008D01*
X128764850Y-100380472D01*
X128918386Y-100298405D01*
X129052962Y-100187962D01*
X129163405Y-100053386D01*
X129245472Y-99899850D01*
X129296008Y-99733254D01*
X129313072Y-99560000D01*
X129313072Y-98560000D01*
X129296008Y-98386746D01*
X129245472Y-98220150D01*
X129163405Y-98066614D01*
X129052962Y-97932038D01*
X128918386Y-97821595D01*
X128764850Y-97739528D01*
X128598254Y-97688992D01*
X128425000Y-97671928D01*
X126575000Y-97671928D01*
X126401746Y-97688992D01*
X126235150Y-97739528D01*
X126081614Y-97821595D01*
X125947038Y-97932038D01*
X125836595Y-98066614D01*
X125754528Y-98220150D01*
X125730306Y-98300000D01*
X123504802Y-98300000D01*
X122958072Y-97753271D01*
X122958072Y-97340000D01*
X122945812Y-97215518D01*
X122909502Y-97095820D01*
X122850537Y-96985506D01*
X122771185Y-96888815D01*
X122674494Y-96809463D01*
X122564180Y-96750498D01*
X122444482Y-96714188D01*
X122320000Y-96701928D01*
X121808095Y-96701928D01*
X121821185Y-96691185D01*
X121900537Y-96594494D01*
X121924320Y-96550000D01*
X125724239Y-96550000D01*
X125754528Y-96649850D01*
X125836595Y-96803386D01*
X125947038Y-96937962D01*
X126081614Y-97048405D01*
X126235150Y-97130472D01*
X126401746Y-97181008D01*
X126575000Y-97198072D01*
X128425000Y-97198072D01*
X128598254Y-97181008D01*
X128764850Y-97130472D01*
X128918386Y-97048405D01*
X129052962Y-96937962D01*
X129163405Y-96803386D01*
X129245472Y-96649850D01*
X129296008Y-96483254D01*
X129313072Y-96310000D01*
X129313072Y-95310000D01*
X129296008Y-95136746D01*
X129245472Y-94970150D01*
X129163405Y-94816614D01*
X129052962Y-94682038D01*
X129030000Y-94663194D01*
X129030000Y-94604801D01*
X130240000Y-95814802D01*
X130240001Y-98962657D01*
X130236323Y-99000000D01*
X130250997Y-99148986D01*
X130294454Y-99292247D01*
X130365026Y-99424276D01*
X130459999Y-99540001D01*
X130575724Y-99634974D01*
X130707753Y-99705546D01*
X130851014Y-99749003D01*
X130962667Y-99760000D01*
X131000000Y-99763677D01*
X131037333Y-99760000D01*
X131070335Y-99760000D01*
X131099463Y-99814494D01*
X131178815Y-99911185D01*
X131275506Y-99990537D01*
X131385820Y-100049502D01*
X131505518Y-100085812D01*
X131630000Y-100098072D01*
X132530000Y-100098072D01*
X132654482Y-100085812D01*
X132774180Y-100049502D01*
X132884494Y-99990537D01*
X132981185Y-99911185D01*
X133060537Y-99814494D01*
X133119502Y-99704180D01*
X133155812Y-99584482D01*
X133168072Y-99460000D01*
X133168072Y-98948095D01*
X133178815Y-98961185D01*
X133275506Y-99040537D01*
X133385820Y-99099502D01*
X133505518Y-99135812D01*
X133630000Y-99148072D01*
X134530000Y-99148072D01*
X134654482Y-99135812D01*
X134774180Y-99099502D01*
X134884494Y-99040537D01*
X134981185Y-98961185D01*
X135060537Y-98864494D01*
X135119502Y-98754180D01*
X135155812Y-98634482D01*
X135168072Y-98510000D01*
X135168072Y-97710000D01*
X135155812Y-97585518D01*
X135119502Y-97465820D01*
X135060537Y-97355506D01*
X134981185Y-97258815D01*
X134884494Y-97179463D01*
X134840000Y-97155680D01*
X134840000Y-96117322D01*
X134843676Y-96079999D01*
X134840000Y-96042676D01*
X134840000Y-96042667D01*
X134829003Y-95931014D01*
X134785546Y-95787753D01*
X134714974Y-95655724D01*
X134620001Y-95539999D01*
X134591003Y-95516201D01*
X134130090Y-95055289D01*
X134199184Y-95076248D01*
X134370000Y-95093072D01*
X134870000Y-95093072D01*
X135040816Y-95076248D01*
X135205067Y-95026423D01*
X135356442Y-94945512D01*
X135489123Y-94836623D01*
X135532500Y-94783768D01*
X135575877Y-94836623D01*
X135708558Y-94945512D01*
X135859933Y-95026423D01*
X136024184Y-95076248D01*
X136195000Y-95093072D01*
X136695000Y-95093072D01*
X136865816Y-95076248D01*
X137030067Y-95026423D01*
X137181442Y-94945512D01*
X137314123Y-94836623D01*
X137423012Y-94703942D01*
X137503923Y-94552567D01*
X137553748Y-94388316D01*
X137570572Y-94217500D01*
X137570572Y-93742500D01*
X137553748Y-93571684D01*
X137503923Y-93407433D01*
X137423012Y-93256058D01*
X137314123Y-93123377D01*
X137205000Y-93033822D01*
X137205000Y-92032325D01*
X137208676Y-91995000D01*
X137205000Y-91957675D01*
X137205000Y-91957667D01*
X137194003Y-91846014D01*
X137150546Y-91702753D01*
X137079974Y-91570724D01*
X136985001Y-91454999D01*
X136956003Y-91431201D01*
X136782874Y-91258072D01*
X136920000Y-91258072D01*
X137044482Y-91245812D01*
X137164180Y-91209502D01*
X137274494Y-91150537D01*
X137371185Y-91071185D01*
X137450537Y-90974494D01*
X137509502Y-90864180D01*
X137545812Y-90744482D01*
X137558072Y-90620000D01*
X137558072Y-89855389D01*
X137650256Y-89817205D01*
X137819774Y-89703937D01*
X137963937Y-89559774D01*
X138077205Y-89390256D01*
X138155226Y-89201898D01*
X138195000Y-89001939D01*
X138195000Y-88798061D01*
X138155226Y-88598102D01*
X138077205Y-88409744D01*
X137963937Y-88240226D01*
X137819774Y-88096063D01*
X137650256Y-87982795D01*
X137461898Y-87904774D01*
X137261939Y-87865000D01*
X137058061Y-87865000D01*
X136858102Y-87904774D01*
X136669744Y-87982795D01*
X136608072Y-88024003D01*
X136608072Y-87720000D01*
X136595812Y-87595518D01*
X136559502Y-87475820D01*
X136505329Y-87374472D01*
X137109230Y-86770572D01*
X137397500Y-86770572D01*
X137568316Y-86753748D01*
X137732567Y-86703923D01*
X137883942Y-86623012D01*
X138016623Y-86514123D01*
X138125512Y-86381442D01*
X138206423Y-86230067D01*
X138256248Y-86065816D01*
X138273072Y-85895000D01*
X138273072Y-85395000D01*
X138256248Y-85224184D01*
X138206423Y-85059933D01*
X138125512Y-84908558D01*
X138016623Y-84775877D01*
X137963768Y-84732500D01*
X138016623Y-84689123D01*
X138125512Y-84556442D01*
X138206423Y-84405067D01*
X138256248Y-84240816D01*
X138273072Y-84070000D01*
X138273072Y-83570000D01*
X138256248Y-83399184D01*
X138206423Y-83234933D01*
X138125512Y-83083558D01*
X138016623Y-82950877D01*
X137883942Y-82841988D01*
X137732567Y-82761077D01*
X137568316Y-82711252D01*
X137397500Y-82694428D01*
X136922500Y-82694428D01*
X136751684Y-82711252D01*
X136587433Y-82761077D01*
X136436058Y-82841988D01*
X136303377Y-82950877D01*
X136213822Y-83060000D01*
X135717322Y-83060000D01*
X135679999Y-83056324D01*
X135642677Y-83060000D01*
X135642667Y-83060000D01*
X135531014Y-83070997D01*
X135387753Y-83114454D01*
X135255723Y-83185026D01*
X135218569Y-83215518D01*
X135139999Y-83279999D01*
X135116201Y-83308997D01*
X134538271Y-83886928D01*
X134260000Y-83886928D01*
X134260000Y-83537333D01*
X134263677Y-83500000D01*
X134249003Y-83351014D01*
X134205546Y-83207753D01*
X134134974Y-83075724D01*
X134063799Y-82988997D01*
X134040001Y-82959999D01*
X134011003Y-82936201D01*
X133686706Y-82611905D01*
X133765518Y-82635812D01*
X133890000Y-82648072D01*
X137890000Y-82648072D01*
X138014482Y-82635812D01*
X138134180Y-82599502D01*
X138244494Y-82540537D01*
X138341185Y-82461185D01*
X138420537Y-82364494D01*
X138479502Y-82254180D01*
X138515812Y-82134482D01*
X138528072Y-82010000D01*
X138528072Y-78010000D01*
X138515812Y-77885518D01*
X138479502Y-77765820D01*
X138420537Y-77655506D01*
X138341185Y-77558815D01*
X138244494Y-77479463D01*
X138134180Y-77420498D01*
X138014482Y-77384188D01*
X137890000Y-77371928D01*
X133890000Y-77371928D01*
X133765518Y-77384188D01*
X133645820Y-77420498D01*
X133535506Y-77479463D01*
X133438815Y-77558815D01*
X133359463Y-77655506D01*
X133300498Y-77765820D01*
X133264188Y-77885518D01*
X133251928Y-78010000D01*
X133251928Y-79250000D01*
X133056018Y-79250000D01*
X132981185Y-79158815D01*
X132884494Y-79079463D01*
X132774180Y-79020498D01*
X132654482Y-78984188D01*
X132530000Y-78971928D01*
X131630000Y-78971928D01*
X131505518Y-78984188D01*
X131385820Y-79020498D01*
X131275506Y-79079463D01*
X131178815Y-79158815D01*
X131168072Y-79171905D01*
X131168072Y-78660000D01*
X131155812Y-78535518D01*
X131119502Y-78415820D01*
X131060537Y-78305506D01*
X130981185Y-78208815D01*
X130884494Y-78129463D01*
X130774180Y-78070498D01*
X130654482Y-78034188D01*
X130530000Y-78021928D01*
X129630000Y-78021928D01*
X129505518Y-78034188D01*
X129385820Y-78070498D01*
X129275506Y-78129463D01*
X129260000Y-78142188D01*
X129260000Y-74378072D01*
X129990000Y-74378072D01*
X130114482Y-74365812D01*
X130234180Y-74329502D01*
X130344494Y-74270537D01*
X130441185Y-74191185D01*
X130516018Y-74100000D01*
X131141978Y-74100000D01*
X131162795Y-74150256D01*
X131276063Y-74319774D01*
X131420226Y-74463937D01*
X131589744Y-74577205D01*
X131778102Y-74655226D01*
X131978061Y-74695000D01*
X132181939Y-74695000D01*
X132381898Y-74655226D01*
X132570256Y-74577205D01*
X132739774Y-74463937D01*
X132883937Y-74319774D01*
X132997205Y-74150256D01*
X133075226Y-73961898D01*
X133115000Y-73761939D01*
X133115000Y-73558061D01*
X133075226Y-73358102D01*
X132997205Y-73169744D01*
X132984013Y-73150000D01*
X133251928Y-73150000D01*
X133251928Y-74390000D01*
X133264188Y-74514482D01*
X133300498Y-74634180D01*
X133359463Y-74744494D01*
X133438815Y-74841185D01*
X133535506Y-74920537D01*
X133645820Y-74979502D01*
X133765518Y-75015812D01*
X133890000Y-75028072D01*
X137890000Y-75028072D01*
X138014482Y-75015812D01*
X138134180Y-74979502D01*
X138244494Y-74920537D01*
X138341185Y-74841185D01*
X138420537Y-74744494D01*
X138479502Y-74634180D01*
X138515812Y-74514482D01*
X138528072Y-74390000D01*
X138528072Y-70390000D01*
X138515812Y-70265518D01*
X138479502Y-70145820D01*
X138420537Y-70035506D01*
X138341185Y-69938815D01*
X138244494Y-69859463D01*
X138134180Y-69800498D01*
X138014482Y-69764188D01*
X137890000Y-69751928D01*
X133890000Y-69751928D01*
X133765518Y-69764188D01*
X133645820Y-69800498D01*
X133535506Y-69859463D01*
X133438815Y-69938815D01*
X133359463Y-70035506D01*
X133300498Y-70145820D01*
X133264188Y-70265518D01*
X133251928Y-70390000D01*
X133251928Y-71630000D01*
X132516018Y-71630000D01*
X132441185Y-71538815D01*
X132344494Y-71459463D01*
X132234180Y-71400498D01*
X132114482Y-71364188D01*
X131990000Y-71351928D01*
X131090000Y-71351928D01*
X130965518Y-71364188D01*
X130845820Y-71400498D01*
X130735506Y-71459463D01*
X130638815Y-71538815D01*
X130628072Y-71551905D01*
X130628072Y-71040000D01*
X130615812Y-70915518D01*
X130579502Y-70795820D01*
X130520537Y-70685506D01*
X130441185Y-70588815D01*
X130344494Y-70509463D01*
X130234180Y-70450498D01*
X130114482Y-70414188D01*
X129990000Y-70401928D01*
X129090000Y-70401928D01*
X128965518Y-70414188D01*
X128845820Y-70450498D01*
X128735506Y-70509463D01*
X128638815Y-70588815D01*
X128559463Y-70685506D01*
X128500498Y-70795820D01*
X128464188Y-70915518D01*
X128451928Y-71040000D01*
X128451928Y-71453271D01*
X127988998Y-71916201D01*
X127960000Y-71939999D01*
X127936202Y-71968997D01*
X127936201Y-71968998D01*
X127865026Y-72055724D01*
X127794454Y-72187754D01*
X127765113Y-72284482D01*
X127750998Y-72331014D01*
X127741298Y-72429502D01*
X127736324Y-72480000D01*
X127740001Y-72517332D01*
X127740001Y-74021337D01*
X127705546Y-73907753D01*
X127634974Y-73775724D01*
X127548072Y-73669834D01*
X127548072Y-73260000D01*
X127535812Y-73135518D01*
X127499502Y-73015820D01*
X127440537Y-72905506D01*
X127361185Y-72808815D01*
X127264494Y-72729463D01*
X127228082Y-72710000D01*
X127264494Y-72690537D01*
X127361185Y-72611185D01*
X127440537Y-72514494D01*
X127499502Y-72404180D01*
X127535812Y-72284482D01*
X127548072Y-72160000D01*
X127548072Y-71998574D01*
X127659774Y-71923937D01*
X127803937Y-71779774D01*
X127917205Y-71610256D01*
X127995226Y-71421898D01*
X128035000Y-71221939D01*
X128035000Y-71018061D01*
X127995226Y-70818102D01*
X127917205Y-70629744D01*
X127803937Y-70460226D01*
X127659774Y-70316063D01*
X127490256Y-70202795D01*
X127301898Y-70124774D01*
X127101939Y-70085000D01*
X126898061Y-70085000D01*
X126698102Y-70124774D01*
X126509744Y-70202795D01*
X126340226Y-70316063D01*
X126196063Y-70460226D01*
X126082795Y-70629744D01*
X126044611Y-70721928D01*
X126010000Y-70721928D01*
X125885518Y-70734188D01*
X125765820Y-70770498D01*
X125655506Y-70829463D01*
X125558815Y-70908815D01*
X125479463Y-71005506D01*
X125420498Y-71115820D01*
X125384188Y-71235518D01*
X125371928Y-71360000D01*
X125371928Y-71871905D01*
X125361185Y-71858815D01*
X125264494Y-71779463D01*
X125154180Y-71720498D01*
X125034482Y-71684188D01*
X124910000Y-71671928D01*
X124010000Y-71671928D01*
X123885518Y-71684188D01*
X123765820Y-71720498D01*
X123655506Y-71779463D01*
X123558815Y-71858815D01*
X123483982Y-71950000D01*
X117827323Y-71950000D01*
X117790000Y-71946324D01*
X117752677Y-71950000D01*
X117752667Y-71950000D01*
X117641014Y-71960997D01*
X117497753Y-72004454D01*
X117365723Y-72075026D01*
X117316740Y-72115226D01*
X117249999Y-72169999D01*
X117226201Y-72198997D01*
X116878270Y-72546928D01*
X116590000Y-72546928D01*
X116419184Y-72563752D01*
X116254933Y-72613577D01*
X116103558Y-72694488D01*
X115970877Y-72803377D01*
X115861988Y-72936058D01*
X115781077Y-73087433D01*
X115731252Y-73251684D01*
X115714428Y-73422500D01*
X115714428Y-73897500D01*
X115731252Y-74068316D01*
X115781077Y-74232567D01*
X115861988Y-74383942D01*
X115970877Y-74516623D01*
X116103558Y-74625512D01*
X116254933Y-74706423D01*
X116419184Y-74756248D01*
X116590000Y-74773072D01*
X117090000Y-74773072D01*
X117260816Y-74756248D01*
X117425067Y-74706423D01*
X117576442Y-74625512D01*
X117709123Y-74516623D01*
X117752500Y-74463768D01*
X117795877Y-74516623D01*
X117928558Y-74625512D01*
X118079933Y-74706423D01*
X118244184Y-74756248D01*
X118415000Y-74773072D01*
X118915000Y-74773072D01*
X119085816Y-74756248D01*
X119250067Y-74706423D01*
X119316248Y-74671049D01*
X120085198Y-75440000D01*
X119837322Y-75440000D01*
X119799999Y-75436324D01*
X119762676Y-75440000D01*
X119762667Y-75440000D01*
X119651014Y-75450997D01*
X119507753Y-75494454D01*
X119375724Y-75565026D01*
X119259999Y-75659999D01*
X119236196Y-75689003D01*
X118988998Y-75936201D01*
X118960000Y-75959999D01*
X118936202Y-75988997D01*
X118936201Y-75988998D01*
X118865026Y-76075724D01*
X118794454Y-76207754D01*
X118772547Y-76279974D01*
X118751555Y-76349180D01*
X118750998Y-76351015D01*
X118736324Y-76500000D01*
X118740001Y-76537332D01*
X118740000Y-77685198D01*
X118704836Y-77720362D01*
X118684482Y-77714188D01*
X118560000Y-77701928D01*
X117660000Y-77701928D01*
X117535518Y-77714188D01*
X117415820Y-77750498D01*
X117305506Y-77809463D01*
X117208815Y-77888815D01*
X117198072Y-77901905D01*
X117198072Y-77390000D01*
X117185812Y-77265518D01*
X117149502Y-77145820D01*
X117090537Y-77035506D01*
X117011185Y-76938815D01*
X116914494Y-76859463D01*
X116870000Y-76835680D01*
X116870000Y-76777333D01*
X116873677Y-76740000D01*
X116859003Y-76591014D01*
X116815546Y-76447753D01*
X116744974Y-76315724D01*
X116673799Y-76228997D01*
X116650001Y-76199999D01*
X116621003Y-76176201D01*
X115425572Y-74980771D01*
X115425572Y-74692500D01*
X115408748Y-74521684D01*
X115358923Y-74357433D01*
X115278012Y-74206058D01*
X115169123Y-74073377D01*
X115036442Y-73964488D01*
X114885067Y-73883577D01*
X114720816Y-73833752D01*
X114550000Y-73816928D01*
X114050000Y-73816928D01*
X113879184Y-73833752D01*
X113714933Y-73883577D01*
X113563558Y-73964488D01*
X113430877Y-74073377D01*
X113387500Y-74126232D01*
X113344123Y-74073377D01*
X113211442Y-73964488D01*
X113060067Y-73883577D01*
X112895816Y-73833752D01*
X112725000Y-73816928D01*
X112225000Y-73816928D01*
X112054184Y-73833752D01*
X111889933Y-73883577D01*
X111738558Y-73964488D01*
X111605877Y-74073377D01*
X111496988Y-74206058D01*
X111416077Y-74357433D01*
X111366252Y-74521684D01*
X111349428Y-74692500D01*
X111349428Y-74980771D01*
X111248998Y-75081201D01*
X111220000Y-75104999D01*
X111196202Y-75133997D01*
X111196201Y-75133998D01*
X111125026Y-75220724D01*
X111054454Y-75352754D01*
X111029104Y-75436324D01*
X111011472Y-75494454D01*
X111010998Y-75496015D01*
X110996324Y-75645000D01*
X111000001Y-75682332D01*
X111000000Y-79063821D01*
X110890877Y-79153377D01*
X110847500Y-79206232D01*
X110804123Y-79153377D01*
X110671442Y-79044488D01*
X110520067Y-78963577D01*
X110355816Y-78913752D01*
X110185000Y-78896928D01*
X109685000Y-78896928D01*
X109514184Y-78913752D01*
X109349933Y-78963577D01*
X109283753Y-78998951D01*
X108985000Y-78700199D01*
X108985000Y-78638061D01*
X108945226Y-78438102D01*
X108867205Y-78249744D01*
X108753937Y-78080226D01*
X108609774Y-77936063D01*
X108440256Y-77822795D01*
X108251898Y-77744774D01*
X108051939Y-77705000D01*
X107848061Y-77705000D01*
X107648102Y-77744774D01*
X107459744Y-77822795D01*
X107290226Y-77936063D01*
X107146063Y-78080226D01*
X107032795Y-78249744D01*
X106954774Y-78438102D01*
X106915000Y-78638061D01*
X106915000Y-78841939D01*
X106954774Y-79041898D01*
X107032795Y-79230256D01*
X107146063Y-79399774D01*
X107290226Y-79543937D01*
X107459744Y-79657205D01*
X107648102Y-79735226D01*
X107848061Y-79775000D01*
X107910199Y-79775000D01*
X108656200Y-80521002D01*
X108679999Y-80550001D01*
X108795724Y-80644974D01*
X108927753Y-80715546D01*
X108950910Y-80722570D01*
X108956988Y-80733942D01*
X109065877Y-80866623D01*
X109198558Y-80975512D01*
X109349933Y-81056423D01*
X109514184Y-81106248D01*
X109685000Y-81123072D01*
X110185000Y-81123072D01*
X110355816Y-81106248D01*
X110520067Y-81056423D01*
X110671442Y-80975512D01*
X110804123Y-80866623D01*
X110847500Y-80813768D01*
X110890877Y-80866623D01*
X111023558Y-80975512D01*
X111174933Y-81056423D01*
X111339184Y-81106248D01*
X111510000Y-81123072D01*
X111798271Y-81123072D01*
X112740001Y-82064803D01*
X112740001Y-82441890D01*
X112686185Y-82376315D01*
X112589494Y-82296963D01*
X112479180Y-82237998D01*
X112359482Y-82201688D01*
X112235000Y-82189428D01*
X112045750Y-82192500D01*
X111887000Y-82351250D01*
X111887000Y-83238000D01*
X111907000Y-83238000D01*
X111907000Y-83492000D01*
X111887000Y-83492000D01*
X111887000Y-83512000D01*
X111633000Y-83512000D01*
X111633000Y-83492000D01*
X110808750Y-83492000D01*
X110650000Y-83650750D01*
X110646928Y-83902500D01*
X110659188Y-84026982D01*
X110672551Y-84071035D01*
X110591939Y-84055000D01*
X110388061Y-84055000D01*
X110188102Y-84094774D01*
X109999744Y-84172795D01*
X109830226Y-84286063D01*
X109686063Y-84430226D01*
X109572795Y-84599744D01*
X109494774Y-84788102D01*
X109455000Y-84988061D01*
X109455000Y-85191939D01*
X109494774Y-85391898D01*
X109572795Y-85580256D01*
X109686063Y-85749774D01*
X109830226Y-85893937D01*
X109999744Y-86007205D01*
X110188102Y-86085226D01*
X110388061Y-86125000D01*
X110591939Y-86125000D01*
X110791898Y-86085226D01*
X110927611Y-86029011D01*
X111036058Y-86118012D01*
X111187433Y-86198923D01*
X111351684Y-86248748D01*
X111522500Y-86265572D01*
X111997500Y-86265572D01*
X112168316Y-86248748D01*
X112332567Y-86198923D01*
X112483942Y-86118012D01*
X112616623Y-86009123D01*
X112725512Y-85876442D01*
X112806423Y-85725067D01*
X112856248Y-85560816D01*
X112873072Y-85390000D01*
X112873072Y-84790000D01*
X112856248Y-84619184D01*
X112806423Y-84454933D01*
X112726226Y-84304894D01*
X112765537Y-84256994D01*
X112777163Y-84235244D01*
X112781942Y-84250998D01*
X112794454Y-84292246D01*
X112865026Y-84424276D01*
X112894344Y-84460000D01*
X112959999Y-84540001D01*
X112989003Y-84563804D01*
X114436201Y-86011003D01*
X114459999Y-86040001D01*
X114575724Y-86134974D01*
X114707753Y-86205546D01*
X114851014Y-86249003D01*
X114962667Y-86260000D01*
X114962676Y-86260000D01*
X114999999Y-86263676D01*
X115037322Y-86260000D01*
X117962678Y-86260000D01*
X118000000Y-86263676D01*
X118037322Y-86260000D01*
X119742462Y-86260000D01*
X119715000Y-86398061D01*
X119715000Y-86601939D01*
X119754774Y-86801898D01*
X119832795Y-86990256D01*
X119946063Y-87159774D01*
X120071203Y-87284914D01*
X120062171Y-87289742D01*
X120015000Y-87328454D01*
X119967829Y-87289742D01*
X119831582Y-87216916D01*
X119683745Y-87172071D01*
X119530000Y-87156928D01*
X119230000Y-87156928D01*
X119076255Y-87172071D01*
X118928418Y-87216916D01*
X118792171Y-87289742D01*
X118745000Y-87328454D01*
X118697829Y-87289742D01*
X118561582Y-87216916D01*
X118413745Y-87172071D01*
X118260000Y-87156928D01*
X117960000Y-87156928D01*
X117806255Y-87172071D01*
X117658418Y-87216916D01*
X117522171Y-87289742D01*
X117475000Y-87328454D01*
X117427829Y-87289742D01*
X117291582Y-87216916D01*
X117143745Y-87172071D01*
X116990000Y-87156928D01*
X116690000Y-87156928D01*
X116536255Y-87172071D01*
X116388418Y-87216916D01*
X116252171Y-87289742D01*
X116205000Y-87328454D01*
X116157829Y-87289742D01*
X116021582Y-87216916D01*
X115873745Y-87172071D01*
X115720000Y-87156928D01*
X115420000Y-87156928D01*
X115266255Y-87172071D01*
X115118418Y-87216916D01*
X114982171Y-87289742D01*
X114862749Y-87387749D01*
X114764742Y-87507171D01*
X114691916Y-87643418D01*
X114647071Y-87791255D01*
X114631928Y-87945000D01*
X114631928Y-89595000D01*
X114647071Y-89748745D01*
X114691916Y-89896582D01*
X114764742Y-90032829D01*
X114810001Y-90087977D01*
X114810000Y-90441580D01*
X114713377Y-90520877D01*
X114604488Y-90653558D01*
X114590355Y-90680000D01*
X111436178Y-90680000D01*
X111346623Y-90570877D01*
X111250000Y-90491580D01*
X111250000Y-90403420D01*
X111346623Y-90324123D01*
X111455512Y-90191442D01*
X111536423Y-90040067D01*
X111586248Y-89875816D01*
X111603072Y-89705000D01*
X111603072Y-89205000D01*
X111586248Y-89034184D01*
X111536423Y-88869933D01*
X111455512Y-88718558D01*
X111366188Y-88609717D01*
X111416185Y-88568685D01*
X111495537Y-88471994D01*
X111554502Y-88361680D01*
X111590812Y-88241982D01*
X111603072Y-88117500D01*
X111600000Y-87915750D01*
X111441250Y-87757000D01*
X110617000Y-87757000D01*
X110617000Y-87777000D01*
X110363000Y-87777000D01*
X110363000Y-87757000D01*
X109538750Y-87757000D01*
X109380000Y-87915750D01*
X109376928Y-88117500D01*
X109389188Y-88241982D01*
X109425498Y-88361680D01*
X109484463Y-88471994D01*
X109563815Y-88568685D01*
X109613812Y-88609717D01*
X109524488Y-88718558D01*
X109443577Y-88869933D01*
X109393752Y-89034184D01*
X109376928Y-89205000D01*
X109376928Y-89705000D01*
X109393752Y-89875816D01*
X109443577Y-90040067D01*
X109524488Y-90191442D01*
X109633377Y-90324123D01*
X109730000Y-90403420D01*
X109730001Y-90491580D01*
X109633377Y-90570877D01*
X109524488Y-90703558D01*
X109443577Y-90854933D01*
X109393752Y-91019184D01*
X109376928Y-91190000D01*
X109376928Y-91690000D01*
X109393752Y-91860816D01*
X109443577Y-92025067D01*
X109524488Y-92176442D01*
X109633377Y-92309123D01*
X109686232Y-92352500D01*
X109633377Y-92395877D01*
X109524488Y-92528558D01*
X109443577Y-92679933D01*
X109393752Y-92844184D01*
X109376928Y-93015000D01*
X109376928Y-93303270D01*
X109116239Y-93563959D01*
X109089502Y-93475820D01*
X109030537Y-93365506D01*
X108951185Y-93268815D01*
X108854494Y-93189463D01*
X108744180Y-93130498D01*
X108624482Y-93094188D01*
X108500000Y-93081928D01*
X103900000Y-93081928D01*
X103775518Y-93094188D01*
X103655820Y-93130498D01*
X103545506Y-93189463D01*
X103448815Y-93268815D01*
X103369463Y-93365506D01*
X103310498Y-93475820D01*
X103274188Y-93595518D01*
X103261928Y-93720000D01*
X96918072Y-93720000D01*
X96905812Y-93595518D01*
X96869502Y-93475820D01*
X96810537Y-93365506D01*
X96731185Y-93268815D01*
X96634494Y-93189463D01*
X96524180Y-93130498D01*
X96404482Y-93094188D01*
X96280000Y-93081928D01*
X91680000Y-93081928D01*
X91555518Y-93094188D01*
X91435820Y-93130498D01*
X91325506Y-93189463D01*
X91228815Y-93268815D01*
X91149463Y-93365506D01*
X91090498Y-93475820D01*
X91054188Y-93595518D01*
X91041928Y-93720000D01*
X91041928Y-95760000D01*
X85127322Y-95760000D01*
X85089999Y-95756324D01*
X85052676Y-95760000D01*
X85052667Y-95760000D01*
X84941014Y-95770997D01*
X84797753Y-95814454D01*
X84665724Y-95885026D01*
X84549999Y-95979999D01*
X84539007Y-95993393D01*
X84384419Y-95929361D01*
X84010581Y-95855000D01*
X83629419Y-95855000D01*
X83255581Y-95929361D01*
X82903434Y-96075225D01*
X82586509Y-96286987D01*
X82316987Y-96556509D01*
X82105225Y-96873434D01*
X81959361Y-97225581D01*
X81885000Y-97599419D01*
X76877000Y-97599419D01*
X76877000Y-91410000D01*
X81881928Y-91410000D01*
X81881928Y-94010000D01*
X81894188Y-94134482D01*
X81930498Y-94254180D01*
X81989463Y-94364494D01*
X82068815Y-94461185D01*
X82165506Y-94540537D01*
X82275820Y-94599502D01*
X82395518Y-94635812D01*
X82520000Y-94648072D01*
X85120000Y-94648072D01*
X85244482Y-94635812D01*
X85364180Y-94599502D01*
X85474494Y-94540537D01*
X85571185Y-94461185D01*
X85650537Y-94364494D01*
X85709502Y-94254180D01*
X85745812Y-94134482D01*
X85758072Y-94010000D01*
X85758072Y-91410000D01*
X85745812Y-91285518D01*
X85709502Y-91165820D01*
X85650537Y-91055506D01*
X85571185Y-90958815D01*
X85474494Y-90879463D01*
X85364180Y-90820498D01*
X85244482Y-90784188D01*
X85120000Y-90771928D01*
X82520000Y-90771928D01*
X82395518Y-90784188D01*
X82275820Y-90820498D01*
X82165506Y-90879463D01*
X82068815Y-90958815D01*
X81989463Y-91055506D01*
X81930498Y-91165820D01*
X81894188Y-91285518D01*
X81881928Y-91410000D01*
X76877000Y-91410000D01*
X76877000Y-88377000D01*
X101603016Y-88377000D01*
X101601928Y-88630000D01*
X101614188Y-88754482D01*
X101650498Y-88874180D01*
X101709463Y-88984494D01*
X101788815Y-89081185D01*
X101885506Y-89160537D01*
X101995820Y-89219502D01*
X102115518Y-89255812D01*
X102240000Y-89268072D01*
X103854250Y-89265000D01*
X104013000Y-89106250D01*
X104013000Y-87757000D01*
X104267000Y-87757000D01*
X104267000Y-89106250D01*
X104425750Y-89265000D01*
X106040000Y-89268072D01*
X106164482Y-89255812D01*
X106284180Y-89219502D01*
X106394494Y-89160537D01*
X106491185Y-89081185D01*
X106570537Y-88984494D01*
X106629502Y-88874180D01*
X106665812Y-88754482D01*
X106678072Y-88630000D01*
X106675000Y-87915750D01*
X106516250Y-87757000D01*
X104267000Y-87757000D01*
X104013000Y-87757000D01*
X103993000Y-87757000D01*
X103993000Y-87503000D01*
X104013000Y-87503000D01*
X104013000Y-86153750D01*
X104267000Y-86153750D01*
X104267000Y-87503000D01*
X106516250Y-87503000D01*
X106675000Y-87344250D01*
X106675867Y-87142500D01*
X109376928Y-87142500D01*
X109380000Y-87344250D01*
X109538750Y-87503000D01*
X110363000Y-87503000D01*
X110363000Y-86666250D01*
X110617000Y-86666250D01*
X110617000Y-87503000D01*
X111441250Y-87503000D01*
X111600000Y-87344250D01*
X111603072Y-87142500D01*
X111590812Y-87018018D01*
X111554502Y-86898320D01*
X111495537Y-86788006D01*
X111416185Y-86691315D01*
X111319494Y-86611963D01*
X111209180Y-86552998D01*
X111089482Y-86516688D01*
X110965000Y-86504428D01*
X110775750Y-86507500D01*
X110617000Y-86666250D01*
X110363000Y-86666250D01*
X110204250Y-86507500D01*
X110015000Y-86504428D01*
X109890518Y-86516688D01*
X109770820Y-86552998D01*
X109660506Y-86611963D01*
X109563815Y-86691315D01*
X109484463Y-86788006D01*
X109425498Y-86898320D01*
X109389188Y-87018018D01*
X109376928Y-87142500D01*
X106675867Y-87142500D01*
X106678072Y-86630000D01*
X106665812Y-86505518D01*
X106629502Y-86385820D01*
X106570537Y-86275506D01*
X106491185Y-86178815D01*
X106394494Y-86099463D01*
X106284180Y-86040498D01*
X106164482Y-86004188D01*
X106040000Y-85991928D01*
X104425750Y-85995000D01*
X104267000Y-86153750D01*
X104013000Y-86153750D01*
X103854250Y-85995000D01*
X103377000Y-85994092D01*
X103377000Y-82966792D01*
X103390000Y-82968072D01*
X103854250Y-82965000D01*
X104013000Y-82806250D01*
X104013000Y-81457000D01*
X103993000Y-81457000D01*
X103993000Y-81203000D01*
X104013000Y-81203000D01*
X104013000Y-79853750D01*
X104267000Y-79853750D01*
X104267000Y-81203000D01*
X104287000Y-81203000D01*
X104287000Y-81457000D01*
X104267000Y-81457000D01*
X104267000Y-82806250D01*
X104425750Y-82965000D01*
X104890000Y-82968072D01*
X105014482Y-82955812D01*
X105134180Y-82919502D01*
X105244494Y-82860537D01*
X105290000Y-82823191D01*
X105335506Y-82860537D01*
X105445820Y-82919502D01*
X105565518Y-82955812D01*
X105609398Y-82960134D01*
X105522795Y-83089744D01*
X105444774Y-83278102D01*
X105405000Y-83478061D01*
X105405000Y-83681939D01*
X105444774Y-83881898D01*
X105522795Y-84070256D01*
X105636063Y-84239774D01*
X105780226Y-84383937D01*
X105949744Y-84497205D01*
X106138102Y-84575226D01*
X106338061Y-84615000D01*
X106541939Y-84615000D01*
X106741898Y-84575226D01*
X106930256Y-84497205D01*
X107099774Y-84383937D01*
X107243937Y-84239774D01*
X107357205Y-84070256D01*
X107435226Y-83881898D01*
X107475000Y-83681939D01*
X107475000Y-83478061D01*
X107435226Y-83278102D01*
X107357205Y-83089744D01*
X107270602Y-82960134D01*
X107314482Y-82955812D01*
X107434180Y-82919502D01*
X107544494Y-82860537D01*
X107584749Y-82827500D01*
X110646928Y-82827500D01*
X110650000Y-83079250D01*
X110808750Y-83238000D01*
X111633000Y-83238000D01*
X111633000Y-82351250D01*
X111474250Y-82192500D01*
X111285000Y-82189428D01*
X111160518Y-82201688D01*
X111040820Y-82237998D01*
X110930506Y-82296963D01*
X110833815Y-82376315D01*
X110754463Y-82473006D01*
X110695498Y-82583320D01*
X110659188Y-82703018D01*
X110646928Y-82827500D01*
X107584749Y-82827500D01*
X107641185Y-82781185D01*
X107720537Y-82684494D01*
X107779502Y-82574180D01*
X107815812Y-82454482D01*
X107828072Y-82330000D01*
X107828072Y-80330000D01*
X107815812Y-80205518D01*
X107779502Y-80085820D01*
X107720537Y-79975506D01*
X107641185Y-79878815D01*
X107544494Y-79799463D01*
X107434180Y-79740498D01*
X107314482Y-79704188D01*
X107190000Y-79691928D01*
X105690000Y-79691928D01*
X105565518Y-79704188D01*
X105445820Y-79740498D01*
X105335506Y-79799463D01*
X105290000Y-79836809D01*
X105244494Y-79799463D01*
X105134180Y-79740498D01*
X105014482Y-79704188D01*
X104890000Y-79691928D01*
X104425750Y-79695000D01*
X104267000Y-79853750D01*
X104013000Y-79853750D01*
X103854250Y-79695000D01*
X103390000Y-79691928D01*
X103377000Y-79693208D01*
X103377000Y-76105000D01*
X104581928Y-76105000D01*
X104594188Y-76229482D01*
X104630498Y-76349180D01*
X104689463Y-76459494D01*
X104768815Y-76556185D01*
X104865506Y-76635537D01*
X104975820Y-76694502D01*
X105095518Y-76730812D01*
X105220000Y-76743072D01*
X105684250Y-76740000D01*
X105843000Y-76581250D01*
X105843000Y-75057000D01*
X106097000Y-75057000D01*
X106097000Y-76581250D01*
X106255750Y-76740000D01*
X106720000Y-76743072D01*
X106844482Y-76730812D01*
X106964180Y-76694502D01*
X107074494Y-76635537D01*
X107171185Y-76556185D01*
X107250537Y-76459494D01*
X107309502Y-76349180D01*
X107345812Y-76229482D01*
X107358072Y-76105000D01*
X107355000Y-75215750D01*
X107196250Y-75057000D01*
X106097000Y-75057000D01*
X105843000Y-75057000D01*
X104743750Y-75057000D01*
X104585000Y-75215750D01*
X104581928Y-76105000D01*
X103377000Y-76105000D01*
X103377000Y-73755000D01*
X104581928Y-73755000D01*
X104585000Y-74644250D01*
X104743750Y-74803000D01*
X105843000Y-74803000D01*
X105843000Y-73278750D01*
X106097000Y-73278750D01*
X106097000Y-74803000D01*
X107196250Y-74803000D01*
X107355000Y-74644250D01*
X107357208Y-74005000D01*
X107831928Y-74005000D01*
X107831928Y-75855000D01*
X107848992Y-76028254D01*
X107899528Y-76194850D01*
X107981595Y-76348386D01*
X108092038Y-76482962D01*
X108226614Y-76593405D01*
X108380150Y-76675472D01*
X108546746Y-76726008D01*
X108720000Y-76743072D01*
X109720000Y-76743072D01*
X109893254Y-76726008D01*
X110059850Y-76675472D01*
X110213386Y-76593405D01*
X110347962Y-76482962D01*
X110458405Y-76348386D01*
X110540472Y-76194850D01*
X110591008Y-76028254D01*
X110608072Y-75855000D01*
X110608072Y-74005000D01*
X110591008Y-73831746D01*
X110540472Y-73665150D01*
X110458405Y-73511614D01*
X110347962Y-73377038D01*
X110213386Y-73266595D01*
X110059850Y-73184528D01*
X109980000Y-73160306D01*
X109980000Y-73093711D01*
X110023937Y-73049774D01*
X110137205Y-72880256D01*
X110215226Y-72691898D01*
X110255000Y-72491939D01*
X110255000Y-72288061D01*
X110215226Y-72088102D01*
X110137205Y-71899744D01*
X110023937Y-71730226D01*
X109879774Y-71586063D01*
X109710256Y-71472795D01*
X109521898Y-71394774D01*
X109321939Y-71355000D01*
X109118061Y-71355000D01*
X108918102Y-71394774D01*
X108729744Y-71472795D01*
X108560226Y-71586063D01*
X108416063Y-71730226D01*
X108302795Y-71899744D01*
X108224774Y-72088102D01*
X108185000Y-72288061D01*
X108185000Y-72491939D01*
X108224774Y-72691898D01*
X108302795Y-72880256D01*
X108416063Y-73049774D01*
X108460001Y-73093712D01*
X108460001Y-73160306D01*
X108380150Y-73184528D01*
X108226614Y-73266595D01*
X108092038Y-73377038D01*
X107981595Y-73511614D01*
X107899528Y-73665150D01*
X107848992Y-73831746D01*
X107831928Y-74005000D01*
X107357208Y-74005000D01*
X107358072Y-73755000D01*
X107345812Y-73630518D01*
X107309502Y-73510820D01*
X107250537Y-73400506D01*
X107171185Y-73303815D01*
X107074494Y-73224463D01*
X106964180Y-73165498D01*
X106844482Y-73129188D01*
X106720000Y-73116928D01*
X106255750Y-73120000D01*
X106097000Y-73278750D01*
X105843000Y-73278750D01*
X105684250Y-73120000D01*
X105220000Y-73116928D01*
X105095518Y-73129188D01*
X104975820Y-73165498D01*
X104865506Y-73224463D01*
X104768815Y-73303815D01*
X104689463Y-73400506D01*
X104630498Y-73510820D01*
X104594188Y-73630518D01*
X104581928Y-73755000D01*
X103377000Y-73755000D01*
X103377000Y-68877000D01*
X139123000Y-68877000D01*
X139123000Y-102123000D01*
G37*
G04 #@! TD.AperFunction*
D22*
X113430877Y-75786623D02*
X113563558Y-75895512D01*
X113714933Y-75976423D01*
X113879184Y-76026248D01*
X114050000Y-76043072D01*
X114338271Y-76043072D01*
X115222655Y-76927457D01*
X115208815Y-76938815D01*
X115129463Y-77035506D01*
X115070498Y-77145820D01*
X115034188Y-77265518D01*
X115021928Y-77390000D01*
X115021928Y-78190000D01*
X115034188Y-78314482D01*
X115070498Y-78434180D01*
X115129463Y-78544494D01*
X115208815Y-78641185D01*
X115305506Y-78720537D01*
X115341918Y-78740000D01*
X115305506Y-78759463D01*
X115208815Y-78838815D01*
X115129463Y-78935506D01*
X115070498Y-79045820D01*
X115034188Y-79165518D01*
X115021928Y-79290000D01*
X115025000Y-79404250D01*
X115183750Y-79563000D01*
X115983000Y-79563000D01*
X115983000Y-79543000D01*
X116237000Y-79543000D01*
X116237000Y-79563000D01*
X117036250Y-79563000D01*
X117120857Y-79478393D01*
X117129463Y-79494494D01*
X117208815Y-79591185D01*
X117305506Y-79670537D01*
X117350000Y-79694320D01*
X117350001Y-80575197D01*
X116329003Y-81596196D01*
X116299999Y-81619999D01*
X116263061Y-81665009D01*
X116205026Y-81735724D01*
X116174814Y-81792246D01*
X116134454Y-81867754D01*
X116090997Y-82011015D01*
X116080000Y-82122668D01*
X116080000Y-82122678D01*
X116076324Y-82160000D01*
X116080000Y-82197323D01*
X116080000Y-82245130D01*
X115994482Y-82219188D01*
X115870000Y-82206928D01*
X115855750Y-82210000D01*
X115697000Y-82368750D01*
X115697000Y-83693000D01*
X115717000Y-83693000D01*
X115717000Y-83947000D01*
X115697000Y-83947000D01*
X115697000Y-83967000D01*
X115443000Y-83967000D01*
X115443000Y-83947000D01*
X114793750Y-83947000D01*
X114657776Y-84082974D01*
X114260000Y-83685199D01*
X114260000Y-82845000D01*
X114631928Y-82845000D01*
X114635000Y-83534250D01*
X114793750Y-83693000D01*
X115443000Y-83693000D01*
X115443000Y-82368750D01*
X115284250Y-82210000D01*
X115270000Y-82206928D01*
X115145518Y-82219188D01*
X115025820Y-82255498D01*
X114915506Y-82314463D01*
X114818815Y-82393815D01*
X114739463Y-82490506D01*
X114680498Y-82600820D01*
X114644188Y-82720518D01*
X114631928Y-82845000D01*
X114260000Y-82845000D01*
X114260000Y-81787333D01*
X114263677Y-81750000D01*
X114249003Y-81601014D01*
X114205546Y-81457753D01*
X114134974Y-81325724D01*
X114063799Y-81238997D01*
X114040001Y-81209999D01*
X114011003Y-81186201D01*
X112914802Y-80090000D01*
X115021928Y-80090000D01*
X115034188Y-80214482D01*
X115070498Y-80334180D01*
X115129463Y-80444494D01*
X115208815Y-80541185D01*
X115305506Y-80620537D01*
X115415820Y-80679502D01*
X115535518Y-80715812D01*
X115660000Y-80728072D01*
X115824250Y-80725000D01*
X115983000Y-80566250D01*
X115983000Y-79817000D01*
X116237000Y-79817000D01*
X116237000Y-80566250D01*
X116395750Y-80725000D01*
X116560000Y-80728072D01*
X116684482Y-80715812D01*
X116804180Y-80679502D01*
X116914494Y-80620537D01*
X117011185Y-80541185D01*
X117090537Y-80444494D01*
X117149502Y-80334180D01*
X117185812Y-80214482D01*
X117198072Y-80090000D01*
X117195000Y-79975750D01*
X117036250Y-79817000D01*
X116237000Y-79817000D01*
X115983000Y-79817000D01*
X115183750Y-79817000D01*
X115025000Y-79975750D01*
X115021928Y-80090000D01*
X112914802Y-80090000D01*
X112885572Y-80060771D01*
X112885572Y-79772500D01*
X112868748Y-79601684D01*
X112818923Y-79437433D01*
X112738012Y-79286058D01*
X112629123Y-79153377D01*
X112520000Y-79063822D01*
X112520000Y-76043072D01*
X112725000Y-76043072D01*
X112895816Y-76026248D01*
X113060067Y-75976423D01*
X113211442Y-75895512D01*
X113344123Y-75786623D01*
X113387500Y-75733768D01*
X113430877Y-75786623D01*
G04 #@! TA.AperFunction,Conductor*
D23*
G36*
X113430877Y-75786623D02*
G01*
X113563558Y-75895512D01*
X113714933Y-75976423D01*
X113879184Y-76026248D01*
X114050000Y-76043072D01*
X114338271Y-76043072D01*
X115222655Y-76927457D01*
X115208815Y-76938815D01*
X115129463Y-77035506D01*
X115070498Y-77145820D01*
X115034188Y-77265518D01*
X115021928Y-77390000D01*
X115021928Y-78190000D01*
X115034188Y-78314482D01*
X115070498Y-78434180D01*
X115129463Y-78544494D01*
X115208815Y-78641185D01*
X115305506Y-78720537D01*
X115341918Y-78740000D01*
X115305506Y-78759463D01*
X115208815Y-78838815D01*
X115129463Y-78935506D01*
X115070498Y-79045820D01*
X115034188Y-79165518D01*
X115021928Y-79290000D01*
X115025000Y-79404250D01*
X115183750Y-79563000D01*
X115983000Y-79563000D01*
X115983000Y-79543000D01*
X116237000Y-79543000D01*
X116237000Y-79563000D01*
X117036250Y-79563000D01*
X117120857Y-79478393D01*
X117129463Y-79494494D01*
X117208815Y-79591185D01*
X117305506Y-79670537D01*
X117350000Y-79694320D01*
X117350001Y-80575197D01*
X116329003Y-81596196D01*
X116299999Y-81619999D01*
X116263061Y-81665009D01*
X116205026Y-81735724D01*
X116174814Y-81792246D01*
X116134454Y-81867754D01*
X116090997Y-82011015D01*
X116080000Y-82122668D01*
X116080000Y-82122678D01*
X116076324Y-82160000D01*
X116080000Y-82197323D01*
X116080000Y-82245130D01*
X115994482Y-82219188D01*
X115870000Y-82206928D01*
X115855750Y-82210000D01*
X115697000Y-82368750D01*
X115697000Y-83693000D01*
X115717000Y-83693000D01*
X115717000Y-83947000D01*
X115697000Y-83947000D01*
X115697000Y-83967000D01*
X115443000Y-83967000D01*
X115443000Y-83947000D01*
X114793750Y-83947000D01*
X114657776Y-84082974D01*
X114260000Y-83685199D01*
X114260000Y-82845000D01*
X114631928Y-82845000D01*
X114635000Y-83534250D01*
X114793750Y-83693000D01*
X115443000Y-83693000D01*
X115443000Y-82368750D01*
X115284250Y-82210000D01*
X115270000Y-82206928D01*
X115145518Y-82219188D01*
X115025820Y-82255498D01*
X114915506Y-82314463D01*
X114818815Y-82393815D01*
X114739463Y-82490506D01*
X114680498Y-82600820D01*
X114644188Y-82720518D01*
X114631928Y-82845000D01*
X114260000Y-82845000D01*
X114260000Y-81787333D01*
X114263677Y-81750000D01*
X114249003Y-81601014D01*
X114205546Y-81457753D01*
X114134974Y-81325724D01*
X114063799Y-81238997D01*
X114040001Y-81209999D01*
X114011003Y-81186201D01*
X112914802Y-80090000D01*
X115021928Y-80090000D01*
X115034188Y-80214482D01*
X115070498Y-80334180D01*
X115129463Y-80444494D01*
X115208815Y-80541185D01*
X115305506Y-80620537D01*
X115415820Y-80679502D01*
X115535518Y-80715812D01*
X115660000Y-80728072D01*
X115824250Y-80725000D01*
X115983000Y-80566250D01*
X115983000Y-79817000D01*
X116237000Y-79817000D01*
X116237000Y-80566250D01*
X116395750Y-80725000D01*
X116560000Y-80728072D01*
X116684482Y-80715812D01*
X116804180Y-80679502D01*
X116914494Y-80620537D01*
X117011185Y-80541185D01*
X117090537Y-80444494D01*
X117149502Y-80334180D01*
X117185812Y-80214482D01*
X117198072Y-80090000D01*
X117195000Y-79975750D01*
X117036250Y-79817000D01*
X116237000Y-79817000D01*
X115983000Y-79817000D01*
X115183750Y-79817000D01*
X115025000Y-79975750D01*
X115021928Y-80090000D01*
X112914802Y-80090000D01*
X112885572Y-80060771D01*
X112885572Y-79772500D01*
X112868748Y-79601684D01*
X112818923Y-79437433D01*
X112738012Y-79286058D01*
X112629123Y-79153377D01*
X112520000Y-79063822D01*
X112520000Y-76043072D01*
X112725000Y-76043072D01*
X112895816Y-76026248D01*
X113060067Y-75976423D01*
X113211442Y-75895512D01*
X113344123Y-75786623D01*
X113387500Y-75733768D01*
X113430877Y-75786623D01*
G37*
G04 #@! TD.AperFunction*
D22*
X102373000Y-73129042D02*
X102250000Y-73116928D01*
X101785750Y-73120000D01*
X101627000Y-73278750D01*
X101627000Y-74803000D01*
X101647000Y-74803000D01*
X101647000Y-75057000D01*
X101627000Y-75057000D01*
X101627000Y-76581250D01*
X101785750Y-76740000D01*
X102250000Y-76743072D01*
X102373000Y-76730958D01*
X102373000Y-79693364D01*
X102125750Y-79695000D01*
X101967000Y-79853750D01*
X101967000Y-81203000D01*
X101987000Y-81203000D01*
X101987000Y-81457000D01*
X101967000Y-81457000D01*
X101967000Y-82806250D01*
X102125750Y-82965000D01*
X102373000Y-82966636D01*
X102373000Y-85873000D01*
X101500000Y-85873000D01*
X101475224Y-85875440D01*
X101451399Y-85882667D01*
X101429443Y-85894403D01*
X101410197Y-85910197D01*
X101394403Y-85929443D01*
X101382667Y-85951399D01*
X101375440Y-85975224D01*
X101373000Y-86000000D01*
X101373000Y-87373000D01*
X88813228Y-87373000D01*
X88815812Y-87364482D01*
X88828072Y-87240000D01*
X88828072Y-83340000D01*
X88815812Y-83215518D01*
X88779502Y-83095820D01*
X88720537Y-82985506D01*
X88641185Y-82888815D01*
X88544494Y-82809463D01*
X88434180Y-82750498D01*
X88314482Y-82714188D01*
X88190000Y-82701928D01*
X81990000Y-82701928D01*
X81865518Y-82714188D01*
X81745820Y-82750498D01*
X81635506Y-82809463D01*
X81538815Y-82888815D01*
X81459463Y-82985506D01*
X81400498Y-83095820D01*
X81364188Y-83215518D01*
X81351928Y-83340000D01*
X81351928Y-87240000D01*
X81364188Y-87364482D01*
X81366772Y-87373000D01*
X76877000Y-87373000D01*
X76877000Y-82330000D01*
X100451928Y-82330000D01*
X100464188Y-82454482D01*
X100500498Y-82574180D01*
X100559463Y-82684494D01*
X100638815Y-82781185D01*
X100735506Y-82860537D01*
X100845820Y-82919502D01*
X100965518Y-82955812D01*
X101090000Y-82968072D01*
X101554250Y-82965000D01*
X101713000Y-82806250D01*
X101713000Y-81457000D01*
X100613750Y-81457000D01*
X100455000Y-81615750D01*
X100451928Y-82330000D01*
X76877000Y-82330000D01*
X76877000Y-81190000D01*
X91251928Y-81190000D01*
X91264188Y-81314482D01*
X91300498Y-81434180D01*
X91359463Y-81544494D01*
X91438815Y-81641185D01*
X91535506Y-81720537D01*
X91645820Y-81779502D01*
X91765518Y-81815812D01*
X91890000Y-81828072D01*
X93804250Y-81825000D01*
X93963000Y-81666250D01*
X93963000Y-79667000D01*
X94217000Y-79667000D01*
X94217000Y-81666250D01*
X94375750Y-81825000D01*
X96290000Y-81828072D01*
X96414482Y-81815812D01*
X96534180Y-81779502D01*
X96644494Y-81720537D01*
X96741185Y-81641185D01*
X96820537Y-81544494D01*
X96879502Y-81434180D01*
X96915812Y-81314482D01*
X96928072Y-81190000D01*
X96926136Y-80330000D01*
X100451928Y-80330000D01*
X100455000Y-81044250D01*
X100613750Y-81203000D01*
X101713000Y-81203000D01*
X101713000Y-79853750D01*
X101554250Y-79695000D01*
X101090000Y-79691928D01*
X100965518Y-79704188D01*
X100845820Y-79740498D01*
X100735506Y-79799463D01*
X100638815Y-79878815D01*
X100559463Y-79975506D01*
X100500498Y-80085820D01*
X100464188Y-80205518D01*
X100451928Y-80330000D01*
X96926136Y-80330000D01*
X96925000Y-79825750D01*
X96766250Y-79667000D01*
X94217000Y-79667000D01*
X93963000Y-79667000D01*
X91413750Y-79667000D01*
X91255000Y-79825750D01*
X91251928Y-81190000D01*
X76877000Y-81190000D01*
X76877000Y-78678967D01*
X79655000Y-78678967D01*
X79655000Y-79001033D01*
X79717832Y-79316912D01*
X79841082Y-79614463D01*
X80020013Y-79882252D01*
X80247748Y-80109987D01*
X80515537Y-80288918D01*
X80813088Y-80412168D01*
X81128967Y-80475000D01*
X81451033Y-80475000D01*
X81766912Y-80412168D01*
X82064463Y-80288918D01*
X82332252Y-80109987D01*
X82559987Y-79882252D01*
X82738918Y-79614463D01*
X82862168Y-79316912D01*
X82925000Y-79001033D01*
X82925000Y-78678967D01*
X82862168Y-78363088D01*
X82738918Y-78065537D01*
X82621628Y-77890000D01*
X91251928Y-77890000D01*
X91255000Y-79254250D01*
X91413750Y-79413000D01*
X93963000Y-79413000D01*
X93963000Y-77413750D01*
X94217000Y-77413750D01*
X94217000Y-79413000D01*
X96766250Y-79413000D01*
X96925000Y-79254250D01*
X96928072Y-77890000D01*
X96915812Y-77765518D01*
X96879502Y-77645820D01*
X96820537Y-77535506D01*
X96741185Y-77438815D01*
X96644494Y-77359463D01*
X96534180Y-77300498D01*
X96414482Y-77264188D01*
X96290000Y-77251928D01*
X94375750Y-77255000D01*
X94217000Y-77413750D01*
X93963000Y-77413750D01*
X93804250Y-77255000D01*
X91890000Y-77251928D01*
X91765518Y-77264188D01*
X91645820Y-77300498D01*
X91535506Y-77359463D01*
X91438815Y-77438815D01*
X91359463Y-77535506D01*
X91300498Y-77645820D01*
X91264188Y-77765518D01*
X91251928Y-77890000D01*
X82621628Y-77890000D01*
X82559987Y-77797748D01*
X82332252Y-77570013D01*
X82064463Y-77391082D01*
X81766912Y-77267832D01*
X81451033Y-77205000D01*
X81128967Y-77205000D01*
X80813088Y-77267832D01*
X80515537Y-77391082D01*
X80247748Y-77570013D01*
X80020013Y-77797748D01*
X79841082Y-78065537D01*
X79717832Y-78363088D01*
X79655000Y-78678967D01*
X76877000Y-78678967D01*
X76877000Y-70440000D01*
X81351928Y-70440000D01*
X81351928Y-74340000D01*
X81364188Y-74464482D01*
X81400498Y-74584180D01*
X81459463Y-74694494D01*
X81538815Y-74791185D01*
X81635506Y-74870537D01*
X81745820Y-74929502D01*
X81865518Y-74965812D01*
X81990000Y-74978072D01*
X88190000Y-74978072D01*
X88314482Y-74965812D01*
X88434180Y-74929502D01*
X88544494Y-74870537D01*
X88596251Y-74828061D01*
X94215000Y-74828061D01*
X94215000Y-75031939D01*
X94254774Y-75231898D01*
X94332795Y-75420256D01*
X94446063Y-75589774D01*
X94590226Y-75733937D01*
X94759744Y-75847205D01*
X94948102Y-75925226D01*
X95148061Y-75965000D01*
X95351939Y-75965000D01*
X95551898Y-75925226D01*
X95740256Y-75847205D01*
X95909774Y-75733937D01*
X95953711Y-75690000D01*
X96861928Y-75690000D01*
X96861928Y-75855000D01*
X96878992Y-76028254D01*
X96929528Y-76194850D01*
X97011595Y-76348386D01*
X97122038Y-76482962D01*
X97256614Y-76593405D01*
X97410150Y-76675472D01*
X97576746Y-76726008D01*
X97750000Y-76743072D01*
X98750000Y-76743072D01*
X98923254Y-76726008D01*
X99089850Y-76675472D01*
X99243386Y-76593405D01*
X99377962Y-76482962D01*
X99488405Y-76348386D01*
X99570472Y-76194850D01*
X99597727Y-76105000D01*
X100111928Y-76105000D01*
X100124188Y-76229482D01*
X100160498Y-76349180D01*
X100219463Y-76459494D01*
X100298815Y-76556185D01*
X100395506Y-76635537D01*
X100505820Y-76694502D01*
X100625518Y-76730812D01*
X100750000Y-76743072D01*
X101214250Y-76740000D01*
X101373000Y-76581250D01*
X101373000Y-75057000D01*
X100273750Y-75057000D01*
X100115000Y-75215750D01*
X100111928Y-76105000D01*
X99597727Y-76105000D01*
X99621008Y-76028254D01*
X99638072Y-75855000D01*
X99638072Y-74005000D01*
X99621008Y-73831746D01*
X99597728Y-73755000D01*
X100111928Y-73755000D01*
X100115000Y-74644250D01*
X100273750Y-74803000D01*
X101373000Y-74803000D01*
X101373000Y-73278750D01*
X101214250Y-73120000D01*
X100750000Y-73116928D01*
X100625518Y-73129188D01*
X100505820Y-73165498D01*
X100395506Y-73224463D01*
X100298815Y-73303815D01*
X100219463Y-73400506D01*
X100160498Y-73510820D01*
X100124188Y-73630518D01*
X100111928Y-73755000D01*
X99597728Y-73755000D01*
X99570472Y-73665150D01*
X99488405Y-73511614D01*
X99377962Y-73377038D01*
X99243386Y-73266595D01*
X99089850Y-73184528D01*
X98923254Y-73133992D01*
X98750000Y-73116928D01*
X97750000Y-73116928D01*
X97576746Y-73133992D01*
X97410150Y-73184528D01*
X97256614Y-73266595D01*
X97122038Y-73377038D01*
X97011595Y-73511614D01*
X96929528Y-73665150D01*
X96878992Y-73831746D01*
X96861928Y-74005000D01*
X96861928Y-74170000D01*
X95953711Y-74170000D01*
X95909774Y-74126063D01*
X95740256Y-74012795D01*
X95551898Y-73934774D01*
X95351939Y-73895000D01*
X95148061Y-73895000D01*
X94948102Y-73934774D01*
X94759744Y-74012795D01*
X94590226Y-74126063D01*
X94446063Y-74270226D01*
X94332795Y-74439744D01*
X94254774Y-74628102D01*
X94215000Y-74828061D01*
X88596251Y-74828061D01*
X88641185Y-74791185D01*
X88720537Y-74694494D01*
X88779502Y-74584180D01*
X88815812Y-74464482D01*
X88828072Y-74340000D01*
X88828072Y-73150000D01*
X89466289Y-73150000D01*
X89510226Y-73193937D01*
X89679744Y-73307205D01*
X89868102Y-73385226D01*
X90068061Y-73425000D01*
X90271939Y-73425000D01*
X90471898Y-73385226D01*
X90660256Y-73307205D01*
X90829774Y-73193937D01*
X90973937Y-73049774D01*
X91087205Y-72880256D01*
X91165226Y-72691898D01*
X91205000Y-72491939D01*
X91205000Y-72288061D01*
X91165226Y-72088102D01*
X91087205Y-71899744D01*
X90973937Y-71730226D01*
X90829774Y-71586063D01*
X90660256Y-71472795D01*
X90471898Y-71394774D01*
X90271939Y-71355000D01*
X90068061Y-71355000D01*
X89868102Y-71394774D01*
X89679744Y-71472795D01*
X89510226Y-71586063D01*
X89466289Y-71630000D01*
X88828072Y-71630000D01*
X88828072Y-70440000D01*
X88815812Y-70315518D01*
X88779502Y-70195820D01*
X88720537Y-70085506D01*
X88641185Y-69988815D01*
X88544494Y-69909463D01*
X88434180Y-69850498D01*
X88314482Y-69814188D01*
X88190000Y-69801928D01*
X81990000Y-69801928D01*
X81865518Y-69814188D01*
X81745820Y-69850498D01*
X81635506Y-69909463D01*
X81538815Y-69988815D01*
X81459463Y-70085506D01*
X81400498Y-70195820D01*
X81364188Y-70315518D01*
X81351928Y-70440000D01*
X76877000Y-70440000D01*
X76877000Y-68660000D01*
X102373000Y-68660000D01*
X102373000Y-73129042D01*
G04 #@! TA.AperFunction,Conductor*
D23*
G36*
X102373000Y-73129042D02*
G01*
X102250000Y-73116928D01*
X101785750Y-73120000D01*
X101627000Y-73278750D01*
X101627000Y-74803000D01*
X101647000Y-74803000D01*
X101647000Y-75057000D01*
X101627000Y-75057000D01*
X101627000Y-76581250D01*
X101785750Y-76740000D01*
X102250000Y-76743072D01*
X102373000Y-76730958D01*
X102373000Y-79693364D01*
X102125750Y-79695000D01*
X101967000Y-79853750D01*
X101967000Y-81203000D01*
X101987000Y-81203000D01*
X101987000Y-81457000D01*
X101967000Y-81457000D01*
X101967000Y-82806250D01*
X102125750Y-82965000D01*
X102373000Y-82966636D01*
X102373000Y-85873000D01*
X101500000Y-85873000D01*
X101475224Y-85875440D01*
X101451399Y-85882667D01*
X101429443Y-85894403D01*
X101410197Y-85910197D01*
X101394403Y-85929443D01*
X101382667Y-85951399D01*
X101375440Y-85975224D01*
X101373000Y-86000000D01*
X101373000Y-87373000D01*
X88813228Y-87373000D01*
X88815812Y-87364482D01*
X88828072Y-87240000D01*
X88828072Y-83340000D01*
X88815812Y-83215518D01*
X88779502Y-83095820D01*
X88720537Y-82985506D01*
X88641185Y-82888815D01*
X88544494Y-82809463D01*
X88434180Y-82750498D01*
X88314482Y-82714188D01*
X88190000Y-82701928D01*
X81990000Y-82701928D01*
X81865518Y-82714188D01*
X81745820Y-82750498D01*
X81635506Y-82809463D01*
X81538815Y-82888815D01*
X81459463Y-82985506D01*
X81400498Y-83095820D01*
X81364188Y-83215518D01*
X81351928Y-83340000D01*
X81351928Y-87240000D01*
X81364188Y-87364482D01*
X81366772Y-87373000D01*
X76877000Y-87373000D01*
X76877000Y-82330000D01*
X100451928Y-82330000D01*
X100464188Y-82454482D01*
X100500498Y-82574180D01*
X100559463Y-82684494D01*
X100638815Y-82781185D01*
X100735506Y-82860537D01*
X100845820Y-82919502D01*
X100965518Y-82955812D01*
X101090000Y-82968072D01*
X101554250Y-82965000D01*
X101713000Y-82806250D01*
X101713000Y-81457000D01*
X100613750Y-81457000D01*
X100455000Y-81615750D01*
X100451928Y-82330000D01*
X76877000Y-82330000D01*
X76877000Y-81190000D01*
X91251928Y-81190000D01*
X91264188Y-81314482D01*
X91300498Y-81434180D01*
X91359463Y-81544494D01*
X91438815Y-81641185D01*
X91535506Y-81720537D01*
X91645820Y-81779502D01*
X91765518Y-81815812D01*
X91890000Y-81828072D01*
X93804250Y-81825000D01*
X93963000Y-81666250D01*
X93963000Y-79667000D01*
X94217000Y-79667000D01*
X94217000Y-81666250D01*
X94375750Y-81825000D01*
X96290000Y-81828072D01*
X96414482Y-81815812D01*
X96534180Y-81779502D01*
X96644494Y-81720537D01*
X96741185Y-81641185D01*
X96820537Y-81544494D01*
X96879502Y-81434180D01*
X96915812Y-81314482D01*
X96928072Y-81190000D01*
X96926136Y-80330000D01*
X100451928Y-80330000D01*
X100455000Y-81044250D01*
X100613750Y-81203000D01*
X101713000Y-81203000D01*
X101713000Y-79853750D01*
X101554250Y-79695000D01*
X101090000Y-79691928D01*
X100965518Y-79704188D01*
X100845820Y-79740498D01*
X100735506Y-79799463D01*
X100638815Y-79878815D01*
X100559463Y-79975506D01*
X100500498Y-80085820D01*
X100464188Y-80205518D01*
X100451928Y-80330000D01*
X96926136Y-80330000D01*
X96925000Y-79825750D01*
X96766250Y-79667000D01*
X94217000Y-79667000D01*
X93963000Y-79667000D01*
X91413750Y-79667000D01*
X91255000Y-79825750D01*
X91251928Y-81190000D01*
X76877000Y-81190000D01*
X76877000Y-78678967D01*
X79655000Y-78678967D01*
X79655000Y-79001033D01*
X79717832Y-79316912D01*
X79841082Y-79614463D01*
X80020013Y-79882252D01*
X80247748Y-80109987D01*
X80515537Y-80288918D01*
X80813088Y-80412168D01*
X81128967Y-80475000D01*
X81451033Y-80475000D01*
X81766912Y-80412168D01*
X82064463Y-80288918D01*
X82332252Y-80109987D01*
X82559987Y-79882252D01*
X82738918Y-79614463D01*
X82862168Y-79316912D01*
X82925000Y-79001033D01*
X82925000Y-78678967D01*
X82862168Y-78363088D01*
X82738918Y-78065537D01*
X82621628Y-77890000D01*
X91251928Y-77890000D01*
X91255000Y-79254250D01*
X91413750Y-79413000D01*
X93963000Y-79413000D01*
X93963000Y-77413750D01*
X94217000Y-77413750D01*
X94217000Y-79413000D01*
X96766250Y-79413000D01*
X96925000Y-79254250D01*
X96928072Y-77890000D01*
X96915812Y-77765518D01*
X96879502Y-77645820D01*
X96820537Y-77535506D01*
X96741185Y-77438815D01*
X96644494Y-77359463D01*
X96534180Y-77300498D01*
X96414482Y-77264188D01*
X96290000Y-77251928D01*
X94375750Y-77255000D01*
X94217000Y-77413750D01*
X93963000Y-77413750D01*
X93804250Y-77255000D01*
X91890000Y-77251928D01*
X91765518Y-77264188D01*
X91645820Y-77300498D01*
X91535506Y-77359463D01*
X91438815Y-77438815D01*
X91359463Y-77535506D01*
X91300498Y-77645820D01*
X91264188Y-77765518D01*
X91251928Y-77890000D01*
X82621628Y-77890000D01*
X82559987Y-77797748D01*
X82332252Y-77570013D01*
X82064463Y-77391082D01*
X81766912Y-77267832D01*
X81451033Y-77205000D01*
X81128967Y-77205000D01*
X80813088Y-77267832D01*
X80515537Y-77391082D01*
X80247748Y-77570013D01*
X80020013Y-77797748D01*
X79841082Y-78065537D01*
X79717832Y-78363088D01*
X79655000Y-78678967D01*
X76877000Y-78678967D01*
X76877000Y-70440000D01*
X81351928Y-70440000D01*
X81351928Y-74340000D01*
X81364188Y-74464482D01*
X81400498Y-74584180D01*
X81459463Y-74694494D01*
X81538815Y-74791185D01*
X81635506Y-74870537D01*
X81745820Y-74929502D01*
X81865518Y-74965812D01*
X81990000Y-74978072D01*
X88190000Y-74978072D01*
X88314482Y-74965812D01*
X88434180Y-74929502D01*
X88544494Y-74870537D01*
X88596251Y-74828061D01*
X94215000Y-74828061D01*
X94215000Y-75031939D01*
X94254774Y-75231898D01*
X94332795Y-75420256D01*
X94446063Y-75589774D01*
X94590226Y-75733937D01*
X94759744Y-75847205D01*
X94948102Y-75925226D01*
X95148061Y-75965000D01*
X95351939Y-75965000D01*
X95551898Y-75925226D01*
X95740256Y-75847205D01*
X95909774Y-75733937D01*
X95953711Y-75690000D01*
X96861928Y-75690000D01*
X96861928Y-75855000D01*
X96878992Y-76028254D01*
X96929528Y-76194850D01*
X97011595Y-76348386D01*
X97122038Y-76482962D01*
X97256614Y-76593405D01*
X97410150Y-76675472D01*
X97576746Y-76726008D01*
X97750000Y-76743072D01*
X98750000Y-76743072D01*
X98923254Y-76726008D01*
X99089850Y-76675472D01*
X99243386Y-76593405D01*
X99377962Y-76482962D01*
X99488405Y-76348386D01*
X99570472Y-76194850D01*
X99597727Y-76105000D01*
X100111928Y-76105000D01*
X100124188Y-76229482D01*
X100160498Y-76349180D01*
X100219463Y-76459494D01*
X100298815Y-76556185D01*
X100395506Y-76635537D01*
X100505820Y-76694502D01*
X100625518Y-76730812D01*
X100750000Y-76743072D01*
X101214250Y-76740000D01*
X101373000Y-76581250D01*
X101373000Y-75057000D01*
X100273750Y-75057000D01*
X100115000Y-75215750D01*
X100111928Y-76105000D01*
X99597727Y-76105000D01*
X99621008Y-76028254D01*
X99638072Y-75855000D01*
X99638072Y-74005000D01*
X99621008Y-73831746D01*
X99597728Y-73755000D01*
X100111928Y-73755000D01*
X100115000Y-74644250D01*
X100273750Y-74803000D01*
X101373000Y-74803000D01*
X101373000Y-73278750D01*
X101214250Y-73120000D01*
X100750000Y-73116928D01*
X100625518Y-73129188D01*
X100505820Y-73165498D01*
X100395506Y-73224463D01*
X100298815Y-73303815D01*
X100219463Y-73400506D01*
X100160498Y-73510820D01*
X100124188Y-73630518D01*
X100111928Y-73755000D01*
X99597728Y-73755000D01*
X99570472Y-73665150D01*
X99488405Y-73511614D01*
X99377962Y-73377038D01*
X99243386Y-73266595D01*
X99089850Y-73184528D01*
X98923254Y-73133992D01*
X98750000Y-73116928D01*
X97750000Y-73116928D01*
X97576746Y-73133992D01*
X97410150Y-73184528D01*
X97256614Y-73266595D01*
X97122038Y-73377038D01*
X97011595Y-73511614D01*
X96929528Y-73665150D01*
X96878992Y-73831746D01*
X96861928Y-74005000D01*
X96861928Y-74170000D01*
X95953711Y-74170000D01*
X95909774Y-74126063D01*
X95740256Y-74012795D01*
X95551898Y-73934774D01*
X95351939Y-73895000D01*
X95148061Y-73895000D01*
X94948102Y-73934774D01*
X94759744Y-74012795D01*
X94590226Y-74126063D01*
X94446063Y-74270226D01*
X94332795Y-74439744D01*
X94254774Y-74628102D01*
X94215000Y-74828061D01*
X88596251Y-74828061D01*
X88641185Y-74791185D01*
X88720537Y-74694494D01*
X88779502Y-74584180D01*
X88815812Y-74464482D01*
X88828072Y-74340000D01*
X88828072Y-73150000D01*
X89466289Y-73150000D01*
X89510226Y-73193937D01*
X89679744Y-73307205D01*
X89868102Y-73385226D01*
X90068061Y-73425000D01*
X90271939Y-73425000D01*
X90471898Y-73385226D01*
X90660256Y-73307205D01*
X90829774Y-73193937D01*
X90973937Y-73049774D01*
X91087205Y-72880256D01*
X91165226Y-72691898D01*
X91205000Y-72491939D01*
X91205000Y-72288061D01*
X91165226Y-72088102D01*
X91087205Y-71899744D01*
X90973937Y-71730226D01*
X90829774Y-71586063D01*
X90660256Y-71472795D01*
X90471898Y-71394774D01*
X90271939Y-71355000D01*
X90068061Y-71355000D01*
X89868102Y-71394774D01*
X89679744Y-71472795D01*
X89510226Y-71586063D01*
X89466289Y-71630000D01*
X88828072Y-71630000D01*
X88828072Y-70440000D01*
X88815812Y-70315518D01*
X88779502Y-70195820D01*
X88720537Y-70085506D01*
X88641185Y-69988815D01*
X88544494Y-69909463D01*
X88434180Y-69850498D01*
X88314482Y-69814188D01*
X88190000Y-69801928D01*
X81990000Y-69801928D01*
X81865518Y-69814188D01*
X81745820Y-69850498D01*
X81635506Y-69909463D01*
X81538815Y-69988815D01*
X81459463Y-70085506D01*
X81400498Y-70195820D01*
X81364188Y-70315518D01*
X81351928Y-70440000D01*
X76877000Y-70440000D01*
X76877000Y-68660000D01*
X102373000Y-68660000D01*
X102373000Y-73129042D01*
G37*
G04 #@! TD.AperFunction*
M02*
