G04 #@! TF.GenerationSoftware,KiCad,Pcbnew,(5.1.10)-1*
G04 #@! TF.CreationDate,2021-07-17T19:43:19-06:00*
G04 #@! TF.ProjectId,FreezerDoorAlarm,46726565-7a65-4724-946f-6f72416c6172,rev?*
G04 #@! TF.SameCoordinates,Original*
G04 #@! TF.FileFunction,Copper,L1,Top*
G04 #@! TF.FilePolarity,Positive*
%FSLAX46Y46*%
G04 Gerber Fmt 4.6, Leading zero omitted, Abs format (unit mm)*
G04 Created by KiCad (PCBNEW (5.1.10)-1) date 2021-07-17 19:43:19*
%MOMM*%
%LPD*%
G01*
G04 APERTURE LIST*
G04 #@! TA.AperFunction,SMDPad,CuDef*
%ADD10R,1.500000X2.000000*%
G04 #@! TD*
G04 #@! TA.AperFunction,SMDPad,CuDef*
%ADD11R,3.800000X2.000000*%
G04 #@! TD*
G04 #@! TA.AperFunction,SMDPad,CuDef*
%ADD12R,0.900000X0.800000*%
G04 #@! TD*
G04 #@! TA.AperFunction,SMDPad,CuDef*
%ADD13R,0.800000X0.900000*%
G04 #@! TD*
G04 #@! TA.AperFunction,SMDPad,CuDef*
%ADD14R,4.600000X5.600000*%
G04 #@! TD*
G04 #@! TA.AperFunction,SMDPad,CuDef*
%ADD15R,4.000000X4.000000*%
G04 #@! TD*
G04 #@! TA.AperFunction,ComponentPad*
%ADD16C,2.600000*%
G04 #@! TD*
G04 #@! TA.AperFunction,ComponentPad*
%ADD17R,2.600000X2.600000*%
G04 #@! TD*
G04 #@! TA.AperFunction,SMDPad,CuDef*
%ADD18R,6.200000X3.900000*%
G04 #@! TD*
G04 #@! TA.AperFunction,SMDPad,CuDef*
%ADD19R,4.400000X3.300000*%
G04 #@! TD*
G04 #@! TA.AperFunction,ViaPad*
%ADD20C,0.800000*%
G04 #@! TD*
G04 #@! TA.AperFunction,Conductor*
%ADD21C,1.000000*%
G04 #@! TD*
G04 #@! TA.AperFunction,Conductor*
%ADD22C,0.250000*%
G04 #@! TD*
G04 #@! TA.AperFunction,Conductor*
%ADD23C,0.508000*%
G04 #@! TD*
G04 #@! TA.AperFunction,Conductor*
%ADD24C,0.254000*%
G04 #@! TD*
G04 #@! TA.AperFunction,Conductor*
%ADD25C,0.100000*%
G04 #@! TD*
G04 APERTURE END LIST*
G04 #@! TA.AperFunction,SMDPad,CuDef*
G36*
G01*
X112537500Y-82037500D02*
X112537500Y-81562500D01*
G75*
G02*
X112775000Y-81325000I237500J0D01*
G01*
X113275000Y-81325000D01*
G75*
G02*
X113512500Y-81562500I0J-237500D01*
G01*
X113512500Y-82037500D01*
G75*
G02*
X113275000Y-82275000I-237500J0D01*
G01*
X112775000Y-82275000D01*
G75*
G02*
X112537500Y-82037500I0J237500D01*
G01*
G37*
G04 #@! TD.AperFunction*
G04 #@! TA.AperFunction,SMDPad,CuDef*
G36*
G01*
X110712500Y-82037500D02*
X110712500Y-81562500D01*
G75*
G02*
X110950000Y-81325000I237500J0D01*
G01*
X111450000Y-81325000D01*
G75*
G02*
X111687500Y-81562500I0J-237500D01*
G01*
X111687500Y-82037500D01*
G75*
G02*
X111450000Y-82275000I-237500J0D01*
G01*
X110950000Y-82275000D01*
G75*
G02*
X110712500Y-82037500I0J237500D01*
G01*
G37*
G04 #@! TD.AperFunction*
G04 #@! TA.AperFunction,SMDPad,CuDef*
G36*
G01*
X115720000Y-84795000D02*
X115420000Y-84795000D01*
G75*
G02*
X115270000Y-84645000I0J150000D01*
G01*
X115270000Y-82995000D01*
G75*
G02*
X115420000Y-82845000I150000J0D01*
G01*
X115720000Y-82845000D01*
G75*
G02*
X115870000Y-82995000I0J-150000D01*
G01*
X115870000Y-84645000D01*
G75*
G02*
X115720000Y-84795000I-150000J0D01*
G01*
G37*
G04 #@! TD.AperFunction*
G04 #@! TA.AperFunction,SMDPad,CuDef*
G36*
G01*
X116990000Y-84795000D02*
X116690000Y-84795000D01*
G75*
G02*
X116540000Y-84645000I0J150000D01*
G01*
X116540000Y-82995000D01*
G75*
G02*
X116690000Y-82845000I150000J0D01*
G01*
X116990000Y-82845000D01*
G75*
G02*
X117140000Y-82995000I0J-150000D01*
G01*
X117140000Y-84645000D01*
G75*
G02*
X116990000Y-84795000I-150000J0D01*
G01*
G37*
G04 #@! TD.AperFunction*
G04 #@! TA.AperFunction,SMDPad,CuDef*
G36*
G01*
X118260000Y-84795000D02*
X117960000Y-84795000D01*
G75*
G02*
X117810000Y-84645000I0J150000D01*
G01*
X117810000Y-82995000D01*
G75*
G02*
X117960000Y-82845000I150000J0D01*
G01*
X118260000Y-82845000D01*
G75*
G02*
X118410000Y-82995000I0J-150000D01*
G01*
X118410000Y-84645000D01*
G75*
G02*
X118260000Y-84795000I-150000J0D01*
G01*
G37*
G04 #@! TD.AperFunction*
G04 #@! TA.AperFunction,SMDPad,CuDef*
G36*
G01*
X119530000Y-84795000D02*
X119230000Y-84795000D01*
G75*
G02*
X119080000Y-84645000I0J150000D01*
G01*
X119080000Y-82995000D01*
G75*
G02*
X119230000Y-82845000I150000J0D01*
G01*
X119530000Y-82845000D01*
G75*
G02*
X119680000Y-82995000I0J-150000D01*
G01*
X119680000Y-84645000D01*
G75*
G02*
X119530000Y-84795000I-150000J0D01*
G01*
G37*
G04 #@! TD.AperFunction*
G04 #@! TA.AperFunction,SMDPad,CuDef*
G36*
G01*
X120800000Y-84795000D02*
X120500000Y-84795000D01*
G75*
G02*
X120350000Y-84645000I0J150000D01*
G01*
X120350000Y-82995000D01*
G75*
G02*
X120500000Y-82845000I150000J0D01*
G01*
X120800000Y-82845000D01*
G75*
G02*
X120950000Y-82995000I0J-150000D01*
G01*
X120950000Y-84645000D01*
G75*
G02*
X120800000Y-84795000I-150000J0D01*
G01*
G37*
G04 #@! TD.AperFunction*
G04 #@! TA.AperFunction,SMDPad,CuDef*
G36*
G01*
X122070000Y-84795000D02*
X121770000Y-84795000D01*
G75*
G02*
X121620000Y-84645000I0J150000D01*
G01*
X121620000Y-82995000D01*
G75*
G02*
X121770000Y-82845000I150000J0D01*
G01*
X122070000Y-82845000D01*
G75*
G02*
X122220000Y-82995000I0J-150000D01*
G01*
X122220000Y-84645000D01*
G75*
G02*
X122070000Y-84795000I-150000J0D01*
G01*
G37*
G04 #@! TD.AperFunction*
G04 #@! TA.AperFunction,SMDPad,CuDef*
G36*
G01*
X123340000Y-84795000D02*
X123040000Y-84795000D01*
G75*
G02*
X122890000Y-84645000I0J150000D01*
G01*
X122890000Y-82995000D01*
G75*
G02*
X123040000Y-82845000I150000J0D01*
G01*
X123340000Y-82845000D01*
G75*
G02*
X123490000Y-82995000I0J-150000D01*
G01*
X123490000Y-84645000D01*
G75*
G02*
X123340000Y-84795000I-150000J0D01*
G01*
G37*
G04 #@! TD.AperFunction*
G04 #@! TA.AperFunction,SMDPad,CuDef*
G36*
G01*
X123340000Y-89745000D02*
X123040000Y-89745000D01*
G75*
G02*
X122890000Y-89595000I0J150000D01*
G01*
X122890000Y-87945000D01*
G75*
G02*
X123040000Y-87795000I150000J0D01*
G01*
X123340000Y-87795000D01*
G75*
G02*
X123490000Y-87945000I0J-150000D01*
G01*
X123490000Y-89595000D01*
G75*
G02*
X123340000Y-89745000I-150000J0D01*
G01*
G37*
G04 #@! TD.AperFunction*
G04 #@! TA.AperFunction,SMDPad,CuDef*
G36*
G01*
X122070000Y-89745000D02*
X121770000Y-89745000D01*
G75*
G02*
X121620000Y-89595000I0J150000D01*
G01*
X121620000Y-87945000D01*
G75*
G02*
X121770000Y-87795000I150000J0D01*
G01*
X122070000Y-87795000D01*
G75*
G02*
X122220000Y-87945000I0J-150000D01*
G01*
X122220000Y-89595000D01*
G75*
G02*
X122070000Y-89745000I-150000J0D01*
G01*
G37*
G04 #@! TD.AperFunction*
G04 #@! TA.AperFunction,SMDPad,CuDef*
G36*
G01*
X120800000Y-89745000D02*
X120500000Y-89745000D01*
G75*
G02*
X120350000Y-89595000I0J150000D01*
G01*
X120350000Y-87945000D01*
G75*
G02*
X120500000Y-87795000I150000J0D01*
G01*
X120800000Y-87795000D01*
G75*
G02*
X120950000Y-87945000I0J-150000D01*
G01*
X120950000Y-89595000D01*
G75*
G02*
X120800000Y-89745000I-150000J0D01*
G01*
G37*
G04 #@! TD.AperFunction*
G04 #@! TA.AperFunction,SMDPad,CuDef*
G36*
G01*
X119530000Y-89745000D02*
X119230000Y-89745000D01*
G75*
G02*
X119080000Y-89595000I0J150000D01*
G01*
X119080000Y-87945000D01*
G75*
G02*
X119230000Y-87795000I150000J0D01*
G01*
X119530000Y-87795000D01*
G75*
G02*
X119680000Y-87945000I0J-150000D01*
G01*
X119680000Y-89595000D01*
G75*
G02*
X119530000Y-89745000I-150000J0D01*
G01*
G37*
G04 #@! TD.AperFunction*
G04 #@! TA.AperFunction,SMDPad,CuDef*
G36*
G01*
X118260000Y-89745000D02*
X117960000Y-89745000D01*
G75*
G02*
X117810000Y-89595000I0J150000D01*
G01*
X117810000Y-87945000D01*
G75*
G02*
X117960000Y-87795000I150000J0D01*
G01*
X118260000Y-87795000D01*
G75*
G02*
X118410000Y-87945000I0J-150000D01*
G01*
X118410000Y-89595000D01*
G75*
G02*
X118260000Y-89745000I-150000J0D01*
G01*
G37*
G04 #@! TD.AperFunction*
G04 #@! TA.AperFunction,SMDPad,CuDef*
G36*
G01*
X116990000Y-89745000D02*
X116690000Y-89745000D01*
G75*
G02*
X116540000Y-89595000I0J150000D01*
G01*
X116540000Y-87945000D01*
G75*
G02*
X116690000Y-87795000I150000J0D01*
G01*
X116990000Y-87795000D01*
G75*
G02*
X117140000Y-87945000I0J-150000D01*
G01*
X117140000Y-89595000D01*
G75*
G02*
X116990000Y-89745000I-150000J0D01*
G01*
G37*
G04 #@! TD.AperFunction*
G04 #@! TA.AperFunction,SMDPad,CuDef*
G36*
G01*
X115720000Y-89745000D02*
X115420000Y-89745000D01*
G75*
G02*
X115270000Y-89595000I0J150000D01*
G01*
X115270000Y-87945000D01*
G75*
G02*
X115420000Y-87795000I150000J0D01*
G01*
X115720000Y-87795000D01*
G75*
G02*
X115870000Y-87945000I0J-150000D01*
G01*
X115870000Y-89595000D01*
G75*
G02*
X115720000Y-89745000I-150000J0D01*
G01*
G37*
G04 #@! TD.AperFunction*
D10*
X106440000Y-81330000D03*
X101840000Y-81330000D03*
X104140000Y-81330000D03*
D11*
X104140000Y-87630000D03*
G04 #@! TA.AperFunction,SMDPad,CuDef*
G36*
G01*
X127237500Y-79942500D02*
X126762500Y-79942500D01*
G75*
G02*
X126525000Y-79705000I0J237500D01*
G01*
X126525000Y-79205000D01*
G75*
G02*
X126762500Y-78967500I237500J0D01*
G01*
X127237500Y-78967500D01*
G75*
G02*
X127475000Y-79205000I0J-237500D01*
G01*
X127475000Y-79705000D01*
G75*
G02*
X127237500Y-79942500I-237500J0D01*
G01*
G37*
G04 #@! TD.AperFunction*
G04 #@! TA.AperFunction,SMDPad,CuDef*
G36*
G01*
X127237500Y-81767500D02*
X126762500Y-81767500D01*
G75*
G02*
X126525000Y-81530000I0J237500D01*
G01*
X126525000Y-81030000D01*
G75*
G02*
X126762500Y-80792500I237500J0D01*
G01*
X127237500Y-80792500D01*
G75*
G02*
X127475000Y-81030000I0J-237500D01*
G01*
X127475000Y-81530000D01*
G75*
G02*
X127237500Y-81767500I-237500J0D01*
G01*
G37*
G04 #@! TD.AperFunction*
G04 #@! TA.AperFunction,SMDPad,CuDef*
G36*
G01*
X122337500Y-72937500D02*
X122337500Y-72462500D01*
G75*
G02*
X122575000Y-72225000I237500J0D01*
G01*
X123075000Y-72225000D01*
G75*
G02*
X123312500Y-72462500I0J-237500D01*
G01*
X123312500Y-72937500D01*
G75*
G02*
X123075000Y-73175000I-237500J0D01*
G01*
X122575000Y-73175000D01*
G75*
G02*
X122337500Y-72937500I0J237500D01*
G01*
G37*
G04 #@! TD.AperFunction*
G04 #@! TA.AperFunction,SMDPad,CuDef*
G36*
G01*
X120512500Y-72937500D02*
X120512500Y-72462500D01*
G75*
G02*
X120750000Y-72225000I237500J0D01*
G01*
X121250000Y-72225000D01*
G75*
G02*
X121487500Y-72462500I0J-237500D01*
G01*
X121487500Y-72937500D01*
G75*
G02*
X121250000Y-73175000I-237500J0D01*
G01*
X120750000Y-73175000D01*
G75*
G02*
X120512500Y-72937500I0J237500D01*
G01*
G37*
G04 #@! TD.AperFunction*
G04 #@! TA.AperFunction,SMDPad,CuDef*
G36*
G01*
X112762500Y-78312500D02*
X113237500Y-78312500D01*
G75*
G02*
X113475000Y-78550000I0J-237500D01*
G01*
X113475000Y-79050000D01*
G75*
G02*
X113237500Y-79287500I-237500J0D01*
G01*
X112762500Y-79287500D01*
G75*
G02*
X112525000Y-79050000I0J237500D01*
G01*
X112525000Y-78550000D01*
G75*
G02*
X112762500Y-78312500I237500J0D01*
G01*
G37*
G04 #@! TD.AperFunction*
G04 #@! TA.AperFunction,SMDPad,CuDef*
G36*
G01*
X112762500Y-76487500D02*
X113237500Y-76487500D01*
G75*
G02*
X113475000Y-76725000I0J-237500D01*
G01*
X113475000Y-77225000D01*
G75*
G02*
X113237500Y-77462500I-237500J0D01*
G01*
X112762500Y-77462500D01*
G75*
G02*
X112525000Y-77225000I0J237500D01*
G01*
X112525000Y-76725000D01*
G75*
G02*
X112762500Y-76487500I237500J0D01*
G01*
G37*
G04 #@! TD.AperFunction*
G04 #@! TA.AperFunction,SMDPad,CuDef*
G36*
G01*
X136262500Y-86237500D02*
X136737500Y-86237500D01*
G75*
G02*
X136975000Y-86475000I0J-237500D01*
G01*
X136975000Y-86975000D01*
G75*
G02*
X136737500Y-87212500I-237500J0D01*
G01*
X136262500Y-87212500D01*
G75*
G02*
X136025000Y-86975000I0J237500D01*
G01*
X136025000Y-86475000D01*
G75*
G02*
X136262500Y-86237500I237500J0D01*
G01*
G37*
G04 #@! TD.AperFunction*
G04 #@! TA.AperFunction,SMDPad,CuDef*
G36*
G01*
X136262500Y-84412500D02*
X136737500Y-84412500D01*
G75*
G02*
X136975000Y-84650000I0J-237500D01*
G01*
X136975000Y-85150000D01*
G75*
G02*
X136737500Y-85387500I-237500J0D01*
G01*
X136262500Y-85387500D01*
G75*
G02*
X136025000Y-85150000I0J237500D01*
G01*
X136025000Y-84650000D01*
G75*
G02*
X136262500Y-84412500I237500J0D01*
G01*
G37*
G04 #@! TD.AperFunction*
G04 #@! TA.AperFunction,SMDPad,CuDef*
G36*
G01*
X134362500Y-89212500D02*
X134837500Y-89212500D01*
G75*
G02*
X135075000Y-89450000I0J-237500D01*
G01*
X135075000Y-89950000D01*
G75*
G02*
X134837500Y-90187500I-237500J0D01*
G01*
X134362500Y-90187500D01*
G75*
G02*
X134125000Y-89950000I0J237500D01*
G01*
X134125000Y-89450000D01*
G75*
G02*
X134362500Y-89212500I237500J0D01*
G01*
G37*
G04 #@! TD.AperFunction*
G04 #@! TA.AperFunction,SMDPad,CuDef*
G36*
G01*
X134362500Y-87387500D02*
X134837500Y-87387500D01*
G75*
G02*
X135075000Y-87625000I0J-237500D01*
G01*
X135075000Y-88125000D01*
G75*
G02*
X134837500Y-88362500I-237500J0D01*
G01*
X134362500Y-88362500D01*
G75*
G02*
X134125000Y-88125000I0J237500D01*
G01*
X134125000Y-87625000D01*
G75*
G02*
X134362500Y-87387500I237500J0D01*
G01*
G37*
G04 #@! TD.AperFunction*
G04 #@! TA.AperFunction,SMDPad,CuDef*
G36*
G01*
X133162500Y-84862500D02*
X133162500Y-85337500D01*
G75*
G02*
X132925000Y-85575000I-237500J0D01*
G01*
X132425000Y-85575000D01*
G75*
G02*
X132187500Y-85337500I0J237500D01*
G01*
X132187500Y-84862500D01*
G75*
G02*
X132425000Y-84625000I237500J0D01*
G01*
X132925000Y-84625000D01*
G75*
G02*
X133162500Y-84862500I0J-237500D01*
G01*
G37*
G04 #@! TD.AperFunction*
G04 #@! TA.AperFunction,SMDPad,CuDef*
G36*
G01*
X134987500Y-84862500D02*
X134987500Y-85337500D01*
G75*
G02*
X134750000Y-85575000I-237500J0D01*
G01*
X134250000Y-85575000D01*
G75*
G02*
X134012500Y-85337500I0J237500D01*
G01*
X134012500Y-84862500D01*
G75*
G02*
X134250000Y-84625000I237500J0D01*
G01*
X134750000Y-84625000D01*
G75*
G02*
X134987500Y-84862500I0J-237500D01*
G01*
G37*
G04 #@! TD.AperFunction*
G04 #@! TA.AperFunction,SMDPad,CuDef*
G36*
G01*
X131762500Y-92512500D02*
X132237500Y-92512500D01*
G75*
G02*
X132475000Y-92750000I0J-237500D01*
G01*
X132475000Y-93250000D01*
G75*
G02*
X132237500Y-93487500I-237500J0D01*
G01*
X131762500Y-93487500D01*
G75*
G02*
X131525000Y-93250000I0J237500D01*
G01*
X131525000Y-92750000D01*
G75*
G02*
X131762500Y-92512500I237500J0D01*
G01*
G37*
G04 #@! TD.AperFunction*
G04 #@! TA.AperFunction,SMDPad,CuDef*
G36*
G01*
X131762500Y-90687500D02*
X132237500Y-90687500D01*
G75*
G02*
X132475000Y-90925000I0J-237500D01*
G01*
X132475000Y-91425000D01*
G75*
G02*
X132237500Y-91662500I-237500J0D01*
G01*
X131762500Y-91662500D01*
G75*
G02*
X131525000Y-91425000I0J237500D01*
G01*
X131525000Y-90925000D01*
G75*
G02*
X131762500Y-90687500I237500J0D01*
G01*
G37*
G04 #@! TD.AperFunction*
G04 #@! TA.AperFunction,SMDPad,CuDef*
G36*
G01*
X127237500Y-83487500D02*
X126762500Y-83487500D01*
G75*
G02*
X126525000Y-83250000I0J237500D01*
G01*
X126525000Y-82750000D01*
G75*
G02*
X126762500Y-82512500I237500J0D01*
G01*
X127237500Y-82512500D01*
G75*
G02*
X127475000Y-82750000I0J-237500D01*
G01*
X127475000Y-83250000D01*
G75*
G02*
X127237500Y-83487500I-237500J0D01*
G01*
G37*
G04 #@! TD.AperFunction*
G04 #@! TA.AperFunction,SMDPad,CuDef*
G36*
G01*
X127237500Y-85312500D02*
X126762500Y-85312500D01*
G75*
G02*
X126525000Y-85075000I0J237500D01*
G01*
X126525000Y-84575000D01*
G75*
G02*
X126762500Y-84337500I237500J0D01*
G01*
X127237500Y-84337500D01*
G75*
G02*
X127475000Y-84575000I0J-237500D01*
G01*
X127475000Y-85075000D01*
G75*
G02*
X127237500Y-85312500I-237500J0D01*
G01*
G37*
G04 #@! TD.AperFunction*
G04 #@! TA.AperFunction,SMDPad,CuDef*
G36*
G01*
X124587500Y-92462500D02*
X124587500Y-92937500D01*
G75*
G02*
X124350000Y-93175000I-237500J0D01*
G01*
X123850000Y-93175000D01*
G75*
G02*
X123612500Y-92937500I0J237500D01*
G01*
X123612500Y-92462500D01*
G75*
G02*
X123850000Y-92225000I237500J0D01*
G01*
X124350000Y-92225000D01*
G75*
G02*
X124587500Y-92462500I0J-237500D01*
G01*
G37*
G04 #@! TD.AperFunction*
G04 #@! TA.AperFunction,SMDPad,CuDef*
G36*
G01*
X126412500Y-92462500D02*
X126412500Y-92937500D01*
G75*
G02*
X126175000Y-93175000I-237500J0D01*
G01*
X125675000Y-93175000D01*
G75*
G02*
X125437500Y-92937500I0J237500D01*
G01*
X125437500Y-92462500D01*
G75*
G02*
X125675000Y-92225000I237500J0D01*
G01*
X126175000Y-92225000D01*
G75*
G02*
X126412500Y-92462500I0J-237500D01*
G01*
G37*
G04 #@! TD.AperFunction*
G04 #@! TA.AperFunction,SMDPad,CuDef*
G36*
G01*
X120262500Y-91562500D02*
X120262500Y-92037500D01*
G75*
G02*
X120025000Y-92275000I-237500J0D01*
G01*
X119525000Y-92275000D01*
G75*
G02*
X119287500Y-92037500I0J237500D01*
G01*
X119287500Y-91562500D01*
G75*
G02*
X119525000Y-91325000I237500J0D01*
G01*
X120025000Y-91325000D01*
G75*
G02*
X120262500Y-91562500I0J-237500D01*
G01*
G37*
G04 #@! TD.AperFunction*
G04 #@! TA.AperFunction,SMDPad,CuDef*
G36*
G01*
X122087500Y-91562500D02*
X122087500Y-92037500D01*
G75*
G02*
X121850000Y-92275000I-237500J0D01*
G01*
X121350000Y-92275000D01*
G75*
G02*
X121112500Y-92037500I0J237500D01*
G01*
X121112500Y-91562500D01*
G75*
G02*
X121350000Y-91325000I237500J0D01*
G01*
X121850000Y-91325000D01*
G75*
G02*
X122087500Y-91562500I0J-237500D01*
G01*
G37*
G04 #@! TD.AperFunction*
G04 #@! TA.AperFunction,SMDPad,CuDef*
G36*
G01*
X119437500Y-95062500D02*
X118962500Y-95062500D01*
G75*
G02*
X118725000Y-94825000I0J237500D01*
G01*
X118725000Y-94325000D01*
G75*
G02*
X118962500Y-94087500I237500J0D01*
G01*
X119437500Y-94087500D01*
G75*
G02*
X119675000Y-94325000I0J-237500D01*
G01*
X119675000Y-94825000D01*
G75*
G02*
X119437500Y-95062500I-237500J0D01*
G01*
G37*
G04 #@! TD.AperFunction*
G04 #@! TA.AperFunction,SMDPad,CuDef*
G36*
G01*
X119437500Y-96887500D02*
X118962500Y-96887500D01*
G75*
G02*
X118725000Y-96650000I0J237500D01*
G01*
X118725000Y-96150000D01*
G75*
G02*
X118962500Y-95912500I237500J0D01*
G01*
X119437500Y-95912500D01*
G75*
G02*
X119675000Y-96150000I0J-237500D01*
G01*
X119675000Y-96650000D01*
G75*
G02*
X119437500Y-96887500I-237500J0D01*
G01*
G37*
G04 #@! TD.AperFunction*
G04 #@! TA.AperFunction,SMDPad,CuDef*
G36*
G01*
X106987500Y-90662500D02*
X106987500Y-91137500D01*
G75*
G02*
X106750000Y-91375000I-237500J0D01*
G01*
X106250000Y-91375000D01*
G75*
G02*
X106012500Y-91137500I0J237500D01*
G01*
X106012500Y-90662500D01*
G75*
G02*
X106250000Y-90425000I237500J0D01*
G01*
X106750000Y-90425000D01*
G75*
G02*
X106987500Y-90662500I0J-237500D01*
G01*
G37*
G04 #@! TD.AperFunction*
G04 #@! TA.AperFunction,SMDPad,CuDef*
G36*
G01*
X108812500Y-90662500D02*
X108812500Y-91137500D01*
G75*
G02*
X108575000Y-91375000I-237500J0D01*
G01*
X108075000Y-91375000D01*
G75*
G02*
X107837500Y-91137500I0J237500D01*
G01*
X107837500Y-90662500D01*
G75*
G02*
X108075000Y-90425000I237500J0D01*
G01*
X108575000Y-90425000D01*
G75*
G02*
X108812500Y-90662500I0J-237500D01*
G01*
G37*
G04 #@! TD.AperFunction*
G04 #@! TA.AperFunction,SMDPad,CuDef*
G36*
G01*
X110252500Y-92777500D02*
X110727500Y-92777500D01*
G75*
G02*
X110965000Y-93015000I0J-237500D01*
G01*
X110965000Y-93515000D01*
G75*
G02*
X110727500Y-93752500I-237500J0D01*
G01*
X110252500Y-93752500D01*
G75*
G02*
X110015000Y-93515000I0J237500D01*
G01*
X110015000Y-93015000D01*
G75*
G02*
X110252500Y-92777500I237500J0D01*
G01*
G37*
G04 #@! TD.AperFunction*
G04 #@! TA.AperFunction,SMDPad,CuDef*
G36*
G01*
X110252500Y-90952500D02*
X110727500Y-90952500D01*
G75*
G02*
X110965000Y-91190000I0J-237500D01*
G01*
X110965000Y-91690000D01*
G75*
G02*
X110727500Y-91927500I-237500J0D01*
G01*
X110252500Y-91927500D01*
G75*
G02*
X110015000Y-91690000I0J237500D01*
G01*
X110015000Y-91190000D01*
G75*
G02*
X110252500Y-90952500I237500J0D01*
G01*
G37*
G04 #@! TD.AperFunction*
D12*
X131540000Y-72390000D03*
X129540000Y-73340000D03*
X129540000Y-71440000D03*
X124460000Y-72710000D03*
X126460000Y-71760000D03*
X126460000Y-73660000D03*
X118110000Y-78740000D03*
X116110000Y-79690000D03*
X116110000Y-77790000D03*
X132080000Y-80010000D03*
X130080000Y-80960000D03*
X130080000Y-79060000D03*
X134600000Y-92450000D03*
X136600000Y-91500000D03*
X136600000Y-93400000D03*
X134080000Y-98110000D03*
X132080000Y-99060000D03*
X132080000Y-97160000D03*
D13*
X122250000Y-97100000D03*
X123200000Y-99100000D03*
X121300000Y-99100000D03*
D12*
X118200000Y-99550000D03*
X116200000Y-100500000D03*
X116200000Y-98600000D03*
D14*
X106200000Y-96520000D03*
X93980000Y-96520000D03*
D15*
X135890000Y-72390000D03*
X135890000Y-80010000D03*
D16*
X83820000Y-97790000D03*
D17*
X83820000Y-92710000D03*
D18*
X85090000Y-85290000D03*
X85090000Y-72390000D03*
D19*
X94090000Y-79540000D03*
G04 #@! TA.AperFunction,SMDPad,CuDef*
G36*
G01*
X120995000Y-78700000D02*
X122845000Y-78700000D01*
G75*
G02*
X123095000Y-78950000I0J-250000D01*
G01*
X123095000Y-79950000D01*
G75*
G02*
X122845000Y-80200000I-250000J0D01*
G01*
X120995000Y-80200000D01*
G75*
G02*
X120745000Y-79950000I0J250000D01*
G01*
X120745000Y-78950000D01*
G75*
G02*
X120995000Y-78700000I250000J0D01*
G01*
G37*
G04 #@! TD.AperFunction*
G04 #@! TA.AperFunction,SMDPad,CuDef*
G36*
G01*
X120995000Y-75450000D02*
X122845000Y-75450000D01*
G75*
G02*
X123095000Y-75700000I0J-250000D01*
G01*
X123095000Y-76700000D01*
G75*
G02*
X122845000Y-76950000I-250000J0D01*
G01*
X120995000Y-76950000D01*
G75*
G02*
X120745000Y-76700000I0J250000D01*
G01*
X120745000Y-75700000D01*
G75*
G02*
X120995000Y-75450000I250000J0D01*
G01*
G37*
G04 #@! TD.AperFunction*
G04 #@! TA.AperFunction,SMDPad,CuDef*
G36*
G01*
X128310000Y-86705000D02*
X128310000Y-88555000D01*
G75*
G02*
X128060000Y-88805000I-250000J0D01*
G01*
X127060000Y-88805000D01*
G75*
G02*
X126810000Y-88555000I0J250000D01*
G01*
X126810000Y-86705000D01*
G75*
G02*
X127060000Y-86455000I250000J0D01*
G01*
X128060000Y-86455000D01*
G75*
G02*
X128310000Y-86705000I0J-250000D01*
G01*
G37*
G04 #@! TD.AperFunction*
G04 #@! TA.AperFunction,SMDPad,CuDef*
G36*
G01*
X131560000Y-86705000D02*
X131560000Y-88555000D01*
G75*
G02*
X131310000Y-88805000I-250000J0D01*
G01*
X130310000Y-88805000D01*
G75*
G02*
X130060000Y-88555000I0J250000D01*
G01*
X130060000Y-86705000D01*
G75*
G02*
X130310000Y-86455000I250000J0D01*
G01*
X131310000Y-86455000D01*
G75*
G02*
X131560000Y-86705000I0J-250000D01*
G01*
G37*
G04 #@! TD.AperFunction*
G04 #@! TA.AperFunction,SMDPad,CuDef*
G36*
G01*
X124975000Y-98310000D02*
X126825000Y-98310000D01*
G75*
G02*
X127075000Y-98560000I0J-250000D01*
G01*
X127075000Y-99560000D01*
G75*
G02*
X126825000Y-99810000I-250000J0D01*
G01*
X124975000Y-99810000D01*
G75*
G02*
X124725000Y-99560000I0J250000D01*
G01*
X124725000Y-98560000D01*
G75*
G02*
X124975000Y-98310000I250000J0D01*
G01*
G37*
G04 #@! TD.AperFunction*
G04 #@! TA.AperFunction,SMDPad,CuDef*
G36*
G01*
X124975000Y-95060000D02*
X126825000Y-95060000D01*
G75*
G02*
X127075000Y-95310000I0J-250000D01*
G01*
X127075000Y-96310000D01*
G75*
G02*
X126825000Y-96560000I-250000J0D01*
G01*
X124975000Y-96560000D01*
G75*
G02*
X124725000Y-96310000I0J250000D01*
G01*
X124725000Y-95310000D01*
G75*
G02*
X124975000Y-95060000I250000J0D01*
G01*
G37*
G04 #@! TD.AperFunction*
G04 #@! TA.AperFunction,SMDPad,CuDef*
G36*
G01*
X115332500Y-92627500D02*
X115807500Y-92627500D01*
G75*
G02*
X116045000Y-92865000I0J-237500D01*
G01*
X116045000Y-93465000D01*
G75*
G02*
X115807500Y-93702500I-237500J0D01*
G01*
X115332500Y-93702500D01*
G75*
G02*
X115095000Y-93465000I0J237500D01*
G01*
X115095000Y-92865000D01*
G75*
G02*
X115332500Y-92627500I237500J0D01*
G01*
G37*
G04 #@! TD.AperFunction*
G04 #@! TA.AperFunction,SMDPad,CuDef*
G36*
G01*
X115332500Y-90902500D02*
X115807500Y-90902500D01*
G75*
G02*
X116045000Y-91140000I0J-237500D01*
G01*
X116045000Y-91740000D01*
G75*
G02*
X115807500Y-91977500I-237500J0D01*
G01*
X115332500Y-91977500D01*
G75*
G02*
X115095000Y-91740000I0J237500D01*
G01*
X115095000Y-91140000D01*
G75*
G02*
X115332500Y-90902500I237500J0D01*
G01*
G37*
G04 #@! TD.AperFunction*
G04 #@! TA.AperFunction,SMDPad,CuDef*
G36*
G01*
X112362500Y-88862500D02*
X112837500Y-88862500D01*
G75*
G02*
X113075000Y-89100000I0J-237500D01*
G01*
X113075000Y-89700000D01*
G75*
G02*
X112837500Y-89937500I-237500J0D01*
G01*
X112362500Y-89937500D01*
G75*
G02*
X112125000Y-89700000I0J237500D01*
G01*
X112125000Y-89100000D01*
G75*
G02*
X112362500Y-88862500I237500J0D01*
G01*
G37*
G04 #@! TD.AperFunction*
G04 #@! TA.AperFunction,SMDPad,CuDef*
G36*
G01*
X112362500Y-87137500D02*
X112837500Y-87137500D01*
G75*
G02*
X113075000Y-87375000I0J-237500D01*
G01*
X113075000Y-87975000D01*
G75*
G02*
X112837500Y-88212500I-237500J0D01*
G01*
X112362500Y-88212500D01*
G75*
G02*
X112125000Y-87975000I0J237500D01*
G01*
X112125000Y-87375000D01*
G75*
G02*
X112362500Y-87137500I237500J0D01*
G01*
G37*
G04 #@! TD.AperFunction*
G04 #@! TA.AperFunction,SMDPad,CuDef*
G36*
G01*
X107300000Y-78125000D02*
X107300000Y-76275000D01*
G75*
G02*
X107550000Y-76025000I250000J0D01*
G01*
X108550000Y-76025000D01*
G75*
G02*
X108800000Y-76275000I0J-250000D01*
G01*
X108800000Y-78125000D01*
G75*
G02*
X108550000Y-78375000I-250000J0D01*
G01*
X107550000Y-78375000D01*
G75*
G02*
X107300000Y-78125000I0J250000D01*
G01*
G37*
G04 #@! TD.AperFunction*
G04 #@! TA.AperFunction,SMDPad,CuDef*
G36*
G01*
X104050000Y-78125000D02*
X104050000Y-76275000D01*
G75*
G02*
X104300000Y-76025000I250000J0D01*
G01*
X105300000Y-76025000D01*
G75*
G02*
X105550000Y-76275000I0J-250000D01*
G01*
X105550000Y-78125000D01*
G75*
G02*
X105300000Y-78375000I-250000J0D01*
G01*
X104300000Y-78375000D01*
G75*
G02*
X104050000Y-78125000I0J250000D01*
G01*
G37*
G04 #@! TD.AperFunction*
G04 #@! TA.AperFunction,SMDPad,CuDef*
G36*
G01*
X101325000Y-75550000D02*
X99475000Y-75550000D01*
G75*
G02*
X99225000Y-75300000I0J250000D01*
G01*
X99225000Y-74300000D01*
G75*
G02*
X99475000Y-74050000I250000J0D01*
G01*
X101325000Y-74050000D01*
G75*
G02*
X101575000Y-74300000I0J-250000D01*
G01*
X101575000Y-75300000D01*
G75*
G02*
X101325000Y-75550000I-250000J0D01*
G01*
G37*
G04 #@! TD.AperFunction*
G04 #@! TA.AperFunction,SMDPad,CuDef*
G36*
G01*
X101325000Y-78800000D02*
X99475000Y-78800000D01*
G75*
G02*
X99225000Y-78550000I0J250000D01*
G01*
X99225000Y-77550000D01*
G75*
G02*
X99475000Y-77300000I250000J0D01*
G01*
X101325000Y-77300000D01*
G75*
G02*
X101575000Y-77550000I0J-250000D01*
G01*
X101575000Y-78550000D01*
G75*
G02*
X101325000Y-78800000I-250000J0D01*
G01*
G37*
G04 #@! TD.AperFunction*
D20*
X90170000Y-72390000D03*
X124460000Y-88900000D03*
X125730000Y-87630000D03*
X124460000Y-78740000D03*
X132080000Y-81280000D03*
X132080000Y-73660000D03*
X127500000Y-70250000D03*
X97200000Y-74800000D03*
X108800000Y-81400000D03*
X110200000Y-77200000D03*
X128600000Y-99000000D03*
X114000000Y-93200000D03*
X114100000Y-89400000D03*
X137500000Y-88600000D03*
X114400000Y-80300000D03*
X111200000Y-80000000D03*
X123500000Y-86500000D03*
X120750000Y-86500000D03*
D21*
X85090000Y-72390000D02*
X90170000Y-72390000D01*
D22*
X123190000Y-88770000D02*
X124330000Y-88770000D01*
X124330000Y-88770000D02*
X124460000Y-88900000D01*
X127560000Y-87630000D02*
X125730000Y-87630000D01*
X123750000Y-79450000D02*
X124460000Y-78740000D01*
X121920000Y-79450000D02*
X123750000Y-79450000D01*
X131760000Y-80960000D02*
X132080000Y-81280000D01*
X130080000Y-80960000D02*
X131760000Y-80960000D01*
X131760000Y-73340000D02*
X132080000Y-73660000D01*
X129540000Y-73340000D02*
X131760000Y-73340000D01*
X127500000Y-70720000D02*
X126460000Y-71760000D01*
X127500000Y-70250000D02*
X127500000Y-70720000D01*
D23*
X100400000Y-74800000D02*
X97200000Y-74800000D01*
D22*
X108730000Y-81330000D02*
X108800000Y-81400000D01*
X106440000Y-81330000D02*
X108730000Y-81330000D01*
X108050000Y-77200000D02*
X110200000Y-77200000D01*
X109199999Y-81799999D02*
X108800000Y-81400000D01*
X111200000Y-81800000D02*
X109199999Y-81799999D01*
X123240000Y-99060000D02*
X123200000Y-99100000D01*
X125900000Y-99060000D02*
X123240000Y-99060000D01*
X128540000Y-99060000D02*
X128600000Y-99000000D01*
X125900000Y-99060000D02*
X128540000Y-99060000D01*
X114035000Y-93165000D02*
X114000000Y-93200000D01*
X115570000Y-93165000D02*
X114035000Y-93165000D01*
X112600000Y-89400000D02*
X114100000Y-89400000D01*
X136600000Y-91500000D02*
X137500000Y-90600000D01*
X137500000Y-90600000D02*
X137500000Y-88600000D01*
X105000000Y-77400000D02*
X105000000Y-75250000D01*
X115010000Y-79690000D02*
X114400000Y-80300000D01*
X116110000Y-79690000D02*
X115010000Y-79690000D01*
X115570000Y-91440000D02*
X110490000Y-91440000D01*
X115570000Y-91440000D02*
X115570000Y-88770000D01*
X116840000Y-88770000D02*
X115570000Y-88770000D01*
X109950000Y-90900000D02*
X110490000Y-91440000D01*
X108325000Y-90900000D02*
X109950000Y-90900000D01*
X125925000Y-95785000D02*
X125900000Y-95810000D01*
X125925000Y-92700000D02*
X125925000Y-95785000D01*
X123540000Y-95810000D02*
X122250000Y-97100000D01*
X125900000Y-95810000D02*
X123540000Y-95810000D01*
X120650000Y-95500000D02*
X122250000Y-97100000D01*
X120650000Y-88770000D02*
X120650000Y-95500000D01*
X130810000Y-89985000D02*
X132000000Y-91175000D01*
X130810000Y-87630000D02*
X130810000Y-89985000D01*
X130810000Y-86190000D02*
X130810000Y-87630000D01*
X130000000Y-84000000D02*
X126000000Y-84000000D01*
X130810000Y-84810000D02*
X130000000Y-84000000D01*
X126000000Y-84000000D02*
X125000000Y-85000000D01*
X125000000Y-85000000D02*
X123500000Y-86500000D01*
X120750000Y-83920000D02*
X120650000Y-83820000D01*
X120750000Y-86500000D02*
X120750000Y-83920000D01*
X132675000Y-85100000D02*
X130820000Y-85100000D01*
X130820000Y-85100000D02*
X130810000Y-85110000D01*
X130810000Y-85110000D02*
X130810000Y-84810000D01*
X130810000Y-86190000D02*
X130810000Y-85110000D01*
X118110000Y-78740000D02*
X118110000Y-80890000D01*
X116840000Y-82160000D02*
X116840000Y-83820000D01*
X118110000Y-80890000D02*
X116840000Y-82160000D01*
X119800000Y-76200000D02*
X121920000Y-76200000D01*
X119500000Y-76500000D02*
X119800000Y-76200000D01*
X119500000Y-78000000D02*
X119500000Y-76500000D01*
X118760000Y-78740000D02*
X119500000Y-78000000D01*
X118110000Y-78740000D02*
X118760000Y-78740000D01*
X121000000Y-75280000D02*
X121920000Y-76200000D01*
X121000000Y-72700000D02*
X121000000Y-75280000D01*
X85090000Y-96520000D02*
X83820000Y-97790000D01*
X93980000Y-96520000D02*
X85090000Y-96520000D01*
X132080000Y-80010000D02*
X135890000Y-80010000D01*
X131540000Y-72390000D02*
X135890000Y-72390000D01*
X107235000Y-96520000D02*
X110490000Y-93265000D01*
X106200000Y-96520000D02*
X107235000Y-96520000D01*
X120850000Y-99550000D02*
X121300000Y-99100000D01*
X118200000Y-99550000D02*
X120850000Y-99550000D01*
X118400000Y-96400000D02*
X116200000Y-98600000D01*
X119200000Y-96400000D02*
X118400000Y-96400000D01*
X134080000Y-98110000D02*
X134080000Y-96080000D01*
X132000000Y-94000000D02*
X132000000Y-93000000D01*
X134080000Y-96080000D02*
X132000000Y-94000000D01*
X132020000Y-99000000D02*
X132080000Y-99060000D01*
X131000000Y-95500000D02*
X131000000Y-99000000D01*
X129000000Y-92500000D02*
X129000000Y-93500000D01*
X129000000Y-93500000D02*
X131000000Y-95500000D01*
X127500000Y-91000000D02*
X129000000Y-92500000D01*
X131000000Y-99000000D02*
X132020000Y-99000000D01*
X122000000Y-91000000D02*
X127500000Y-91000000D01*
X121920000Y-90920000D02*
X122000000Y-91000000D01*
X121920000Y-88770000D02*
X121920000Y-90920000D01*
X121920000Y-88770000D02*
X121920000Y-83820000D01*
X132080000Y-95080000D02*
X132080000Y-97160000D01*
X130500000Y-93500000D02*
X132080000Y-95080000D01*
X129450009Y-85450009D02*
X129450009Y-91450009D01*
X128825000Y-84825000D02*
X129450009Y-85450009D01*
X130500000Y-92500000D02*
X130500000Y-93500000D01*
X129450009Y-91450009D02*
X130500000Y-92500000D01*
X127000000Y-84825000D02*
X128825000Y-84825000D01*
X134600000Y-92450000D02*
X134600000Y-89700000D01*
X135700000Y-87525000D02*
X136500000Y-86725000D01*
X135700000Y-92500000D02*
X135700000Y-87525000D01*
X136600000Y-93400000D02*
X135700000Y-92500000D01*
X128500000Y-80640000D02*
X130080000Y-79060000D01*
X128500000Y-82500000D02*
X128500000Y-80640000D01*
X123190000Y-83820000D02*
X125180000Y-83820000D01*
X126000000Y-83000000D02*
X127000000Y-83000000D01*
X125180000Y-83820000D02*
X126000000Y-83000000D01*
X127000000Y-83000000D02*
X128000000Y-83000000D01*
X128000000Y-83000000D02*
X128500000Y-82500000D01*
X123190000Y-82845000D02*
X123190000Y-83820000D01*
X122545000Y-82200000D02*
X123190000Y-82845000D01*
X120010020Y-82200000D02*
X122545000Y-82200000D01*
X120005010Y-82205010D02*
X120010020Y-82200000D01*
X120005010Y-84841758D02*
X120005010Y-82205010D01*
X120000000Y-84846768D02*
X120005010Y-84841758D01*
X120000000Y-85500000D02*
X120000000Y-84846768D01*
X118000000Y-85500000D02*
X120000000Y-85500000D01*
X113025000Y-78825000D02*
X113000000Y-78800000D01*
X113025000Y-81800000D02*
X113025000Y-78825000D01*
X118110000Y-85390000D02*
X118000000Y-85500000D01*
X118110000Y-83820000D02*
X118110000Y-85390000D01*
X118110000Y-83820000D02*
X118110000Y-85290000D01*
X118110000Y-85290000D02*
X117600000Y-85800000D01*
X117600000Y-85800000D02*
X116800000Y-85800000D01*
X116214990Y-85214990D02*
X116214990Y-82414990D01*
X116800000Y-85800000D02*
X116214990Y-85214990D01*
X115600000Y-81800000D02*
X113025000Y-81800000D01*
X116214990Y-82414990D02*
X115600000Y-81800000D01*
X136500000Y-84900000D02*
X136500000Y-84000000D01*
X135500000Y-83000000D02*
X127000000Y-83000000D01*
X136500000Y-84000000D02*
X135500000Y-83000000D01*
X115295000Y-76975000D02*
X116110000Y-77790000D01*
X113000000Y-76975000D02*
X115295000Y-76975000D01*
X122835000Y-72710000D02*
X122825000Y-72700000D01*
X124460000Y-72710000D02*
X122835000Y-72710000D01*
X127000000Y-74200000D02*
X126460000Y-73660000D01*
X127000000Y-79455000D02*
X127000000Y-74200000D01*
X119380000Y-83820000D02*
X119380000Y-81620000D01*
X119380000Y-81620000D02*
X119500000Y-81500000D01*
X124955000Y-81500000D02*
X127000000Y-79455000D01*
X119500000Y-81500000D02*
X124955000Y-81500000D01*
X127000000Y-81280000D02*
X127000000Y-81000000D01*
X127000000Y-81000000D02*
X128500000Y-79500000D01*
X128500000Y-72480000D02*
X129540000Y-71440000D01*
X128500000Y-79500000D02*
X128500000Y-72480000D01*
X118110000Y-88770000D02*
X119380000Y-88770000D01*
X119775000Y-94000000D02*
X119200000Y-94575000D01*
X119775000Y-91800000D02*
X119775000Y-94000000D01*
X119380000Y-91405000D02*
X119775000Y-91800000D01*
X119380000Y-88770000D02*
X119380000Y-91405000D01*
X124090000Y-92710000D02*
X124100000Y-92700000D01*
X121920000Y-92710000D02*
X124090000Y-92710000D01*
X121600000Y-92390000D02*
X121920000Y-92710000D01*
X121600000Y-91800000D02*
X121600000Y-92390000D01*
X134600000Y-85200000D02*
X134500000Y-85100000D01*
X134600000Y-87875000D02*
X134600000Y-85200000D01*
D24*
X102373000Y-79693364D02*
X102125750Y-79695000D01*
X101967000Y-79853750D01*
X101967000Y-81203000D01*
X101987000Y-81203000D01*
X101987000Y-81457000D01*
X101967000Y-81457000D01*
X101967000Y-82806250D01*
X102125750Y-82965000D01*
X102373000Y-82966636D01*
X102373000Y-85873000D01*
X101500000Y-85873000D01*
X101475224Y-85875440D01*
X101451399Y-85882667D01*
X101429443Y-85894403D01*
X101410197Y-85910197D01*
X101394403Y-85929443D01*
X101382667Y-85951399D01*
X101375440Y-85975224D01*
X101373000Y-86000000D01*
X101373000Y-87373000D01*
X88813228Y-87373000D01*
X88815812Y-87364482D01*
X88828072Y-87240000D01*
X88828072Y-83340000D01*
X88815812Y-83215518D01*
X88779502Y-83095820D01*
X88720537Y-82985506D01*
X88641185Y-82888815D01*
X88544494Y-82809463D01*
X88434180Y-82750498D01*
X88314482Y-82714188D01*
X88190000Y-82701928D01*
X81990000Y-82701928D01*
X81865518Y-82714188D01*
X81745820Y-82750498D01*
X81635506Y-82809463D01*
X81538815Y-82888815D01*
X81459463Y-82985506D01*
X81400498Y-83095820D01*
X81364188Y-83215518D01*
X81351928Y-83340000D01*
X81351928Y-87240000D01*
X81364188Y-87364482D01*
X81366772Y-87373000D01*
X76877000Y-87373000D01*
X76877000Y-82330000D01*
X100451928Y-82330000D01*
X100464188Y-82454482D01*
X100500498Y-82574180D01*
X100559463Y-82684494D01*
X100638815Y-82781185D01*
X100735506Y-82860537D01*
X100845820Y-82919502D01*
X100965518Y-82955812D01*
X101090000Y-82968072D01*
X101554250Y-82965000D01*
X101713000Y-82806250D01*
X101713000Y-81457000D01*
X100613750Y-81457000D01*
X100455000Y-81615750D01*
X100451928Y-82330000D01*
X76877000Y-82330000D01*
X76877000Y-81190000D01*
X91251928Y-81190000D01*
X91264188Y-81314482D01*
X91300498Y-81434180D01*
X91359463Y-81544494D01*
X91438815Y-81641185D01*
X91535506Y-81720537D01*
X91645820Y-81779502D01*
X91765518Y-81815812D01*
X91890000Y-81828072D01*
X93804250Y-81825000D01*
X93963000Y-81666250D01*
X93963000Y-79667000D01*
X94217000Y-79667000D01*
X94217000Y-81666250D01*
X94375750Y-81825000D01*
X96290000Y-81828072D01*
X96414482Y-81815812D01*
X96534180Y-81779502D01*
X96644494Y-81720537D01*
X96741185Y-81641185D01*
X96820537Y-81544494D01*
X96879502Y-81434180D01*
X96915812Y-81314482D01*
X96928072Y-81190000D01*
X96926136Y-80330000D01*
X100451928Y-80330000D01*
X100455000Y-81044250D01*
X100613750Y-81203000D01*
X101713000Y-81203000D01*
X101713000Y-79853750D01*
X101554250Y-79695000D01*
X101090000Y-79691928D01*
X100965518Y-79704188D01*
X100845820Y-79740498D01*
X100735506Y-79799463D01*
X100638815Y-79878815D01*
X100559463Y-79975506D01*
X100500498Y-80085820D01*
X100464188Y-80205518D01*
X100451928Y-80330000D01*
X96926136Y-80330000D01*
X96925000Y-79825750D01*
X96766250Y-79667000D01*
X94217000Y-79667000D01*
X93963000Y-79667000D01*
X91413750Y-79667000D01*
X91255000Y-79825750D01*
X91251928Y-81190000D01*
X76877000Y-81190000D01*
X76877000Y-78678967D01*
X79655000Y-78678967D01*
X79655000Y-79001033D01*
X79717832Y-79316912D01*
X79841082Y-79614463D01*
X80020013Y-79882252D01*
X80247748Y-80109987D01*
X80515537Y-80288918D01*
X80813088Y-80412168D01*
X81128967Y-80475000D01*
X81451033Y-80475000D01*
X81766912Y-80412168D01*
X82064463Y-80288918D01*
X82332252Y-80109987D01*
X82559987Y-79882252D01*
X82738918Y-79614463D01*
X82862168Y-79316912D01*
X82925000Y-79001033D01*
X82925000Y-78678967D01*
X82862168Y-78363088D01*
X82738918Y-78065537D01*
X82621628Y-77890000D01*
X91251928Y-77890000D01*
X91255000Y-79254250D01*
X91413750Y-79413000D01*
X93963000Y-79413000D01*
X93963000Y-77413750D01*
X94217000Y-77413750D01*
X94217000Y-79413000D01*
X96766250Y-79413000D01*
X96925000Y-79254250D01*
X96926022Y-78800000D01*
X98586928Y-78800000D01*
X98599188Y-78924482D01*
X98635498Y-79044180D01*
X98694463Y-79154494D01*
X98773815Y-79251185D01*
X98870506Y-79330537D01*
X98980820Y-79389502D01*
X99100518Y-79425812D01*
X99225000Y-79438072D01*
X100114250Y-79435000D01*
X100273000Y-79276250D01*
X100273000Y-78177000D01*
X100527000Y-78177000D01*
X100527000Y-79276250D01*
X100685750Y-79435000D01*
X101575000Y-79438072D01*
X101699482Y-79425812D01*
X101819180Y-79389502D01*
X101929494Y-79330537D01*
X102026185Y-79251185D01*
X102105537Y-79154494D01*
X102164502Y-79044180D01*
X102200812Y-78924482D01*
X102213072Y-78800000D01*
X102210000Y-78335750D01*
X102051250Y-78177000D01*
X100527000Y-78177000D01*
X100273000Y-78177000D01*
X98748750Y-78177000D01*
X98590000Y-78335750D01*
X98586928Y-78800000D01*
X96926022Y-78800000D01*
X96928072Y-77890000D01*
X96915812Y-77765518D01*
X96879502Y-77645820D01*
X96820537Y-77535506D01*
X96741185Y-77438815D01*
X96644494Y-77359463D01*
X96534180Y-77300498D01*
X96532539Y-77300000D01*
X98586928Y-77300000D01*
X98590000Y-77764250D01*
X98748750Y-77923000D01*
X100273000Y-77923000D01*
X100273000Y-76823750D01*
X100527000Y-76823750D01*
X100527000Y-77923000D01*
X102051250Y-77923000D01*
X102210000Y-77764250D01*
X102213072Y-77300000D01*
X102200812Y-77175518D01*
X102164502Y-77055820D01*
X102105537Y-76945506D01*
X102026185Y-76848815D01*
X101929494Y-76769463D01*
X101819180Y-76710498D01*
X101699482Y-76674188D01*
X101575000Y-76661928D01*
X100685750Y-76665000D01*
X100527000Y-76823750D01*
X100273000Y-76823750D01*
X100114250Y-76665000D01*
X99225000Y-76661928D01*
X99100518Y-76674188D01*
X98980820Y-76710498D01*
X98870506Y-76769463D01*
X98773815Y-76848815D01*
X98694463Y-76945506D01*
X98635498Y-77055820D01*
X98599188Y-77175518D01*
X98586928Y-77300000D01*
X96532539Y-77300000D01*
X96414482Y-77264188D01*
X96290000Y-77251928D01*
X94375750Y-77255000D01*
X94217000Y-77413750D01*
X93963000Y-77413750D01*
X93804250Y-77255000D01*
X91890000Y-77251928D01*
X91765518Y-77264188D01*
X91645820Y-77300498D01*
X91535506Y-77359463D01*
X91438815Y-77438815D01*
X91359463Y-77535506D01*
X91300498Y-77645820D01*
X91264188Y-77765518D01*
X91251928Y-77890000D01*
X82621628Y-77890000D01*
X82559987Y-77797748D01*
X82332252Y-77570013D01*
X82064463Y-77391082D01*
X81766912Y-77267832D01*
X81451033Y-77205000D01*
X81128967Y-77205000D01*
X80813088Y-77267832D01*
X80515537Y-77391082D01*
X80247748Y-77570013D01*
X80020013Y-77797748D01*
X79841082Y-78065537D01*
X79717832Y-78363088D01*
X79655000Y-78678967D01*
X76877000Y-78678967D01*
X76877000Y-70440000D01*
X81351928Y-70440000D01*
X81351928Y-74340000D01*
X81364188Y-74464482D01*
X81400498Y-74584180D01*
X81459463Y-74694494D01*
X81538815Y-74791185D01*
X81635506Y-74870537D01*
X81745820Y-74929502D01*
X81865518Y-74965812D01*
X81990000Y-74978072D01*
X88190000Y-74978072D01*
X88314482Y-74965812D01*
X88434180Y-74929502D01*
X88544494Y-74870537D01*
X88641185Y-74791185D01*
X88717609Y-74698061D01*
X96165000Y-74698061D01*
X96165000Y-74901939D01*
X96204774Y-75101898D01*
X96282795Y-75290256D01*
X96396063Y-75459774D01*
X96540226Y-75603937D01*
X96709744Y-75717205D01*
X96898102Y-75795226D01*
X97098061Y-75835000D01*
X97301939Y-75835000D01*
X97501898Y-75795226D01*
X97690256Y-75717205D01*
X97732468Y-75689000D01*
X98680799Y-75689000D01*
X98736595Y-75793386D01*
X98847038Y-75927962D01*
X98981614Y-76038405D01*
X99135150Y-76120472D01*
X99301746Y-76171008D01*
X99475000Y-76188072D01*
X101325000Y-76188072D01*
X101498254Y-76171008D01*
X101664850Y-76120472D01*
X101818386Y-76038405D01*
X101952962Y-75927962D01*
X102063405Y-75793386D01*
X102145472Y-75639850D01*
X102196008Y-75473254D01*
X102213072Y-75300000D01*
X102213072Y-74300000D01*
X102196008Y-74126746D01*
X102145472Y-73960150D01*
X102063405Y-73806614D01*
X101952962Y-73672038D01*
X101818386Y-73561595D01*
X101664850Y-73479528D01*
X101498254Y-73428992D01*
X101325000Y-73411928D01*
X99475000Y-73411928D01*
X99301746Y-73428992D01*
X99135150Y-73479528D01*
X98981614Y-73561595D01*
X98847038Y-73672038D01*
X98736595Y-73806614D01*
X98680799Y-73911000D01*
X97732468Y-73911000D01*
X97690256Y-73882795D01*
X97501898Y-73804774D01*
X97301939Y-73765000D01*
X97098061Y-73765000D01*
X96898102Y-73804774D01*
X96709744Y-73882795D01*
X96540226Y-73996063D01*
X96396063Y-74140226D01*
X96282795Y-74309744D01*
X96204774Y-74498102D01*
X96165000Y-74698061D01*
X88717609Y-74698061D01*
X88720537Y-74694494D01*
X88779502Y-74584180D01*
X88815812Y-74464482D01*
X88828072Y-74340000D01*
X88828072Y-73525000D01*
X90225752Y-73525000D01*
X90392499Y-73508577D01*
X90606447Y-73443676D01*
X90803623Y-73338284D01*
X90976449Y-73196449D01*
X91118284Y-73023623D01*
X91223676Y-72826447D01*
X91288577Y-72612499D01*
X91310491Y-72390000D01*
X91288577Y-72167501D01*
X91223676Y-71953553D01*
X91118284Y-71756377D01*
X90976449Y-71583551D01*
X90803623Y-71441716D01*
X90606447Y-71336324D01*
X90392499Y-71271423D01*
X90225752Y-71255000D01*
X88828072Y-71255000D01*
X88828072Y-70440000D01*
X88815812Y-70315518D01*
X88779502Y-70195820D01*
X88720537Y-70085506D01*
X88641185Y-69988815D01*
X88544494Y-69909463D01*
X88434180Y-69850498D01*
X88314482Y-69814188D01*
X88190000Y-69801928D01*
X81990000Y-69801928D01*
X81865518Y-69814188D01*
X81745820Y-69850498D01*
X81635506Y-69909463D01*
X81538815Y-69988815D01*
X81459463Y-70085506D01*
X81400498Y-70195820D01*
X81364188Y-70315518D01*
X81351928Y-70440000D01*
X76877000Y-70440000D01*
X76877000Y-68660000D01*
X102373000Y-68660000D01*
X102373000Y-79693364D01*
G04 #@! TA.AperFunction,Conductor*
D25*
G36*
X102373000Y-79693364D02*
G01*
X102125750Y-79695000D01*
X101967000Y-79853750D01*
X101967000Y-81203000D01*
X101987000Y-81203000D01*
X101987000Y-81457000D01*
X101967000Y-81457000D01*
X101967000Y-82806250D01*
X102125750Y-82965000D01*
X102373000Y-82966636D01*
X102373000Y-85873000D01*
X101500000Y-85873000D01*
X101475224Y-85875440D01*
X101451399Y-85882667D01*
X101429443Y-85894403D01*
X101410197Y-85910197D01*
X101394403Y-85929443D01*
X101382667Y-85951399D01*
X101375440Y-85975224D01*
X101373000Y-86000000D01*
X101373000Y-87373000D01*
X88813228Y-87373000D01*
X88815812Y-87364482D01*
X88828072Y-87240000D01*
X88828072Y-83340000D01*
X88815812Y-83215518D01*
X88779502Y-83095820D01*
X88720537Y-82985506D01*
X88641185Y-82888815D01*
X88544494Y-82809463D01*
X88434180Y-82750498D01*
X88314482Y-82714188D01*
X88190000Y-82701928D01*
X81990000Y-82701928D01*
X81865518Y-82714188D01*
X81745820Y-82750498D01*
X81635506Y-82809463D01*
X81538815Y-82888815D01*
X81459463Y-82985506D01*
X81400498Y-83095820D01*
X81364188Y-83215518D01*
X81351928Y-83340000D01*
X81351928Y-87240000D01*
X81364188Y-87364482D01*
X81366772Y-87373000D01*
X76877000Y-87373000D01*
X76877000Y-82330000D01*
X100451928Y-82330000D01*
X100464188Y-82454482D01*
X100500498Y-82574180D01*
X100559463Y-82684494D01*
X100638815Y-82781185D01*
X100735506Y-82860537D01*
X100845820Y-82919502D01*
X100965518Y-82955812D01*
X101090000Y-82968072D01*
X101554250Y-82965000D01*
X101713000Y-82806250D01*
X101713000Y-81457000D01*
X100613750Y-81457000D01*
X100455000Y-81615750D01*
X100451928Y-82330000D01*
X76877000Y-82330000D01*
X76877000Y-81190000D01*
X91251928Y-81190000D01*
X91264188Y-81314482D01*
X91300498Y-81434180D01*
X91359463Y-81544494D01*
X91438815Y-81641185D01*
X91535506Y-81720537D01*
X91645820Y-81779502D01*
X91765518Y-81815812D01*
X91890000Y-81828072D01*
X93804250Y-81825000D01*
X93963000Y-81666250D01*
X93963000Y-79667000D01*
X94217000Y-79667000D01*
X94217000Y-81666250D01*
X94375750Y-81825000D01*
X96290000Y-81828072D01*
X96414482Y-81815812D01*
X96534180Y-81779502D01*
X96644494Y-81720537D01*
X96741185Y-81641185D01*
X96820537Y-81544494D01*
X96879502Y-81434180D01*
X96915812Y-81314482D01*
X96928072Y-81190000D01*
X96926136Y-80330000D01*
X100451928Y-80330000D01*
X100455000Y-81044250D01*
X100613750Y-81203000D01*
X101713000Y-81203000D01*
X101713000Y-79853750D01*
X101554250Y-79695000D01*
X101090000Y-79691928D01*
X100965518Y-79704188D01*
X100845820Y-79740498D01*
X100735506Y-79799463D01*
X100638815Y-79878815D01*
X100559463Y-79975506D01*
X100500498Y-80085820D01*
X100464188Y-80205518D01*
X100451928Y-80330000D01*
X96926136Y-80330000D01*
X96925000Y-79825750D01*
X96766250Y-79667000D01*
X94217000Y-79667000D01*
X93963000Y-79667000D01*
X91413750Y-79667000D01*
X91255000Y-79825750D01*
X91251928Y-81190000D01*
X76877000Y-81190000D01*
X76877000Y-78678967D01*
X79655000Y-78678967D01*
X79655000Y-79001033D01*
X79717832Y-79316912D01*
X79841082Y-79614463D01*
X80020013Y-79882252D01*
X80247748Y-80109987D01*
X80515537Y-80288918D01*
X80813088Y-80412168D01*
X81128967Y-80475000D01*
X81451033Y-80475000D01*
X81766912Y-80412168D01*
X82064463Y-80288918D01*
X82332252Y-80109987D01*
X82559987Y-79882252D01*
X82738918Y-79614463D01*
X82862168Y-79316912D01*
X82925000Y-79001033D01*
X82925000Y-78678967D01*
X82862168Y-78363088D01*
X82738918Y-78065537D01*
X82621628Y-77890000D01*
X91251928Y-77890000D01*
X91255000Y-79254250D01*
X91413750Y-79413000D01*
X93963000Y-79413000D01*
X93963000Y-77413750D01*
X94217000Y-77413750D01*
X94217000Y-79413000D01*
X96766250Y-79413000D01*
X96925000Y-79254250D01*
X96926022Y-78800000D01*
X98586928Y-78800000D01*
X98599188Y-78924482D01*
X98635498Y-79044180D01*
X98694463Y-79154494D01*
X98773815Y-79251185D01*
X98870506Y-79330537D01*
X98980820Y-79389502D01*
X99100518Y-79425812D01*
X99225000Y-79438072D01*
X100114250Y-79435000D01*
X100273000Y-79276250D01*
X100273000Y-78177000D01*
X100527000Y-78177000D01*
X100527000Y-79276250D01*
X100685750Y-79435000D01*
X101575000Y-79438072D01*
X101699482Y-79425812D01*
X101819180Y-79389502D01*
X101929494Y-79330537D01*
X102026185Y-79251185D01*
X102105537Y-79154494D01*
X102164502Y-79044180D01*
X102200812Y-78924482D01*
X102213072Y-78800000D01*
X102210000Y-78335750D01*
X102051250Y-78177000D01*
X100527000Y-78177000D01*
X100273000Y-78177000D01*
X98748750Y-78177000D01*
X98590000Y-78335750D01*
X98586928Y-78800000D01*
X96926022Y-78800000D01*
X96928072Y-77890000D01*
X96915812Y-77765518D01*
X96879502Y-77645820D01*
X96820537Y-77535506D01*
X96741185Y-77438815D01*
X96644494Y-77359463D01*
X96534180Y-77300498D01*
X96532539Y-77300000D01*
X98586928Y-77300000D01*
X98590000Y-77764250D01*
X98748750Y-77923000D01*
X100273000Y-77923000D01*
X100273000Y-76823750D01*
X100527000Y-76823750D01*
X100527000Y-77923000D01*
X102051250Y-77923000D01*
X102210000Y-77764250D01*
X102213072Y-77300000D01*
X102200812Y-77175518D01*
X102164502Y-77055820D01*
X102105537Y-76945506D01*
X102026185Y-76848815D01*
X101929494Y-76769463D01*
X101819180Y-76710498D01*
X101699482Y-76674188D01*
X101575000Y-76661928D01*
X100685750Y-76665000D01*
X100527000Y-76823750D01*
X100273000Y-76823750D01*
X100114250Y-76665000D01*
X99225000Y-76661928D01*
X99100518Y-76674188D01*
X98980820Y-76710498D01*
X98870506Y-76769463D01*
X98773815Y-76848815D01*
X98694463Y-76945506D01*
X98635498Y-77055820D01*
X98599188Y-77175518D01*
X98586928Y-77300000D01*
X96532539Y-77300000D01*
X96414482Y-77264188D01*
X96290000Y-77251928D01*
X94375750Y-77255000D01*
X94217000Y-77413750D01*
X93963000Y-77413750D01*
X93804250Y-77255000D01*
X91890000Y-77251928D01*
X91765518Y-77264188D01*
X91645820Y-77300498D01*
X91535506Y-77359463D01*
X91438815Y-77438815D01*
X91359463Y-77535506D01*
X91300498Y-77645820D01*
X91264188Y-77765518D01*
X91251928Y-77890000D01*
X82621628Y-77890000D01*
X82559987Y-77797748D01*
X82332252Y-77570013D01*
X82064463Y-77391082D01*
X81766912Y-77267832D01*
X81451033Y-77205000D01*
X81128967Y-77205000D01*
X80813088Y-77267832D01*
X80515537Y-77391082D01*
X80247748Y-77570013D01*
X80020013Y-77797748D01*
X79841082Y-78065537D01*
X79717832Y-78363088D01*
X79655000Y-78678967D01*
X76877000Y-78678967D01*
X76877000Y-70440000D01*
X81351928Y-70440000D01*
X81351928Y-74340000D01*
X81364188Y-74464482D01*
X81400498Y-74584180D01*
X81459463Y-74694494D01*
X81538815Y-74791185D01*
X81635506Y-74870537D01*
X81745820Y-74929502D01*
X81865518Y-74965812D01*
X81990000Y-74978072D01*
X88190000Y-74978072D01*
X88314482Y-74965812D01*
X88434180Y-74929502D01*
X88544494Y-74870537D01*
X88641185Y-74791185D01*
X88717609Y-74698061D01*
X96165000Y-74698061D01*
X96165000Y-74901939D01*
X96204774Y-75101898D01*
X96282795Y-75290256D01*
X96396063Y-75459774D01*
X96540226Y-75603937D01*
X96709744Y-75717205D01*
X96898102Y-75795226D01*
X97098061Y-75835000D01*
X97301939Y-75835000D01*
X97501898Y-75795226D01*
X97690256Y-75717205D01*
X97732468Y-75689000D01*
X98680799Y-75689000D01*
X98736595Y-75793386D01*
X98847038Y-75927962D01*
X98981614Y-76038405D01*
X99135150Y-76120472D01*
X99301746Y-76171008D01*
X99475000Y-76188072D01*
X101325000Y-76188072D01*
X101498254Y-76171008D01*
X101664850Y-76120472D01*
X101818386Y-76038405D01*
X101952962Y-75927962D01*
X102063405Y-75793386D01*
X102145472Y-75639850D01*
X102196008Y-75473254D01*
X102213072Y-75300000D01*
X102213072Y-74300000D01*
X102196008Y-74126746D01*
X102145472Y-73960150D01*
X102063405Y-73806614D01*
X101952962Y-73672038D01*
X101818386Y-73561595D01*
X101664850Y-73479528D01*
X101498254Y-73428992D01*
X101325000Y-73411928D01*
X99475000Y-73411928D01*
X99301746Y-73428992D01*
X99135150Y-73479528D01*
X98981614Y-73561595D01*
X98847038Y-73672038D01*
X98736595Y-73806614D01*
X98680799Y-73911000D01*
X97732468Y-73911000D01*
X97690256Y-73882795D01*
X97501898Y-73804774D01*
X97301939Y-73765000D01*
X97098061Y-73765000D01*
X96898102Y-73804774D01*
X96709744Y-73882795D01*
X96540226Y-73996063D01*
X96396063Y-74140226D01*
X96282795Y-74309744D01*
X96204774Y-74498102D01*
X96165000Y-74698061D01*
X88717609Y-74698061D01*
X88720537Y-74694494D01*
X88779502Y-74584180D01*
X88815812Y-74464482D01*
X88828072Y-74340000D01*
X88828072Y-73525000D01*
X90225752Y-73525000D01*
X90392499Y-73508577D01*
X90606447Y-73443676D01*
X90803623Y-73338284D01*
X90976449Y-73196449D01*
X91118284Y-73023623D01*
X91223676Y-72826447D01*
X91288577Y-72612499D01*
X91310491Y-72390000D01*
X91288577Y-72167501D01*
X91223676Y-71953553D01*
X91118284Y-71756377D01*
X90976449Y-71583551D01*
X90803623Y-71441716D01*
X90606447Y-71336324D01*
X90392499Y-71271423D01*
X90225752Y-71255000D01*
X88828072Y-71255000D01*
X88828072Y-70440000D01*
X88815812Y-70315518D01*
X88779502Y-70195820D01*
X88720537Y-70085506D01*
X88641185Y-69988815D01*
X88544494Y-69909463D01*
X88434180Y-69850498D01*
X88314482Y-69814188D01*
X88190000Y-69801928D01*
X81990000Y-69801928D01*
X81865518Y-69814188D01*
X81745820Y-69850498D01*
X81635506Y-69909463D01*
X81538815Y-69988815D01*
X81459463Y-70085506D01*
X81400498Y-70195820D01*
X81364188Y-70315518D01*
X81351928Y-70440000D01*
X76877000Y-70440000D01*
X76877000Y-68660000D01*
X102373000Y-68660000D01*
X102373000Y-79693364D01*
G37*
G04 #@! TD.AperFunction*
D24*
X139123000Y-102123000D02*
X76877000Y-102123000D01*
X76877000Y-100900000D01*
X115111928Y-100900000D01*
X115124188Y-101024482D01*
X115160498Y-101144180D01*
X115219463Y-101254494D01*
X115298815Y-101351185D01*
X115395506Y-101430537D01*
X115505820Y-101489502D01*
X115625518Y-101525812D01*
X115750000Y-101538072D01*
X115914250Y-101535000D01*
X116073000Y-101376250D01*
X116073000Y-100627000D01*
X116327000Y-100627000D01*
X116327000Y-101376250D01*
X116485750Y-101535000D01*
X116650000Y-101538072D01*
X116774482Y-101525812D01*
X116894180Y-101489502D01*
X117004494Y-101430537D01*
X117101185Y-101351185D01*
X117180537Y-101254494D01*
X117239502Y-101144180D01*
X117275812Y-101024482D01*
X117288072Y-100900000D01*
X117285000Y-100785750D01*
X117126250Y-100627000D01*
X116327000Y-100627000D01*
X116073000Y-100627000D01*
X115273750Y-100627000D01*
X115115000Y-100785750D01*
X115111928Y-100900000D01*
X76877000Y-100900000D01*
X76877000Y-97599419D01*
X81885000Y-97599419D01*
X81885000Y-97980581D01*
X81959361Y-98354419D01*
X82105225Y-98706566D01*
X82316987Y-99023491D01*
X82586509Y-99293013D01*
X82903434Y-99504775D01*
X83255581Y-99650639D01*
X83629419Y-99725000D01*
X84010581Y-99725000D01*
X84384419Y-99650639D01*
X84736566Y-99504775D01*
X85053491Y-99293013D01*
X85323013Y-99023491D01*
X85534775Y-98706566D01*
X85680639Y-98354419D01*
X85755000Y-97980581D01*
X85755000Y-97599419D01*
X85691464Y-97280000D01*
X91041928Y-97280000D01*
X91041928Y-99320000D01*
X91054188Y-99444482D01*
X91090498Y-99564180D01*
X91149463Y-99674494D01*
X91228815Y-99771185D01*
X91325506Y-99850537D01*
X91435820Y-99909502D01*
X91555518Y-99945812D01*
X91680000Y-99958072D01*
X96280000Y-99958072D01*
X96404482Y-99945812D01*
X96524180Y-99909502D01*
X96634494Y-99850537D01*
X96731185Y-99771185D01*
X96810537Y-99674494D01*
X96869502Y-99564180D01*
X96905812Y-99444482D01*
X96918072Y-99320000D01*
X96918072Y-93720000D01*
X103261928Y-93720000D01*
X103261928Y-99320000D01*
X103274188Y-99444482D01*
X103310498Y-99564180D01*
X103369463Y-99674494D01*
X103448815Y-99771185D01*
X103545506Y-99850537D01*
X103655820Y-99909502D01*
X103775518Y-99945812D01*
X103900000Y-99958072D01*
X108500000Y-99958072D01*
X108624482Y-99945812D01*
X108744180Y-99909502D01*
X108854494Y-99850537D01*
X108951185Y-99771185D01*
X109030537Y-99674494D01*
X109089502Y-99564180D01*
X109125812Y-99444482D01*
X109138072Y-99320000D01*
X109138072Y-95691729D01*
X110439230Y-94390572D01*
X110727500Y-94390572D01*
X110898316Y-94373748D01*
X111062567Y-94323923D01*
X111213942Y-94243012D01*
X111346623Y-94134123D01*
X111455512Y-94001442D01*
X111536423Y-93850067D01*
X111586248Y-93685816D01*
X111603072Y-93515000D01*
X111603072Y-93015000D01*
X111586248Y-92844184D01*
X111536423Y-92679933D01*
X111455512Y-92528558D01*
X111346623Y-92395877D01*
X111293768Y-92352500D01*
X111346623Y-92309123D01*
X111436178Y-92200000D01*
X113722103Y-92200000D01*
X113698102Y-92204774D01*
X113509744Y-92282795D01*
X113340226Y-92396063D01*
X113196063Y-92540226D01*
X113082795Y-92709744D01*
X113004774Y-92898102D01*
X112965000Y-93098061D01*
X112965000Y-93301939D01*
X113004774Y-93501898D01*
X113082795Y-93690256D01*
X113196063Y-93859774D01*
X113340226Y-94003937D01*
X113509744Y-94117205D01*
X113698102Y-94195226D01*
X113898061Y-94235000D01*
X114101939Y-94235000D01*
X114301898Y-94195226D01*
X114490256Y-94117205D01*
X114651892Y-94009204D01*
X114713377Y-94084123D01*
X114846058Y-94193012D01*
X114997433Y-94273923D01*
X115161684Y-94323748D01*
X115332500Y-94340572D01*
X115807500Y-94340572D01*
X115978316Y-94323748D01*
X116142567Y-94273923D01*
X116293942Y-94193012D01*
X116426623Y-94084123D01*
X116535512Y-93951442D01*
X116616423Y-93800067D01*
X116666248Y-93635816D01*
X116683072Y-93465000D01*
X116683072Y-92865000D01*
X116666248Y-92694184D01*
X116616423Y-92529933D01*
X116535512Y-92378558D01*
X116473093Y-92302500D01*
X116535512Y-92226442D01*
X116616423Y-92075067D01*
X116666248Y-91910816D01*
X116683072Y-91740000D01*
X116683072Y-91140000D01*
X116666248Y-90969184D01*
X116616423Y-90804933D01*
X116535512Y-90653558D01*
X116426623Y-90520877D01*
X116330000Y-90441580D01*
X116330000Y-90291859D01*
X116388418Y-90323084D01*
X116536255Y-90367929D01*
X116690000Y-90383072D01*
X116990000Y-90383072D01*
X117143745Y-90367929D01*
X117291582Y-90323084D01*
X117427829Y-90250258D01*
X117475000Y-90211546D01*
X117522171Y-90250258D01*
X117658418Y-90323084D01*
X117806255Y-90367929D01*
X117960000Y-90383072D01*
X118260000Y-90383072D01*
X118413745Y-90367929D01*
X118561582Y-90323084D01*
X118620001Y-90291858D01*
X118620001Y-91367668D01*
X118616324Y-91405000D01*
X118620001Y-91442333D01*
X118629126Y-91534974D01*
X118630998Y-91553985D01*
X118649428Y-91614743D01*
X118649428Y-92037500D01*
X118666252Y-92208316D01*
X118716077Y-92372567D01*
X118796988Y-92523942D01*
X118905877Y-92656623D01*
X119015000Y-92746179D01*
X119015001Y-93449428D01*
X118962500Y-93449428D01*
X118791684Y-93466252D01*
X118627433Y-93516077D01*
X118476058Y-93596988D01*
X118343377Y-93705877D01*
X118234488Y-93838558D01*
X118153577Y-93989933D01*
X118103752Y-94154184D01*
X118086928Y-94325000D01*
X118086928Y-94825000D01*
X118103752Y-94995816D01*
X118153577Y-95160067D01*
X118234488Y-95311442D01*
X118343377Y-95444123D01*
X118396232Y-95487500D01*
X118343377Y-95530877D01*
X118242736Y-95653508D01*
X118107753Y-95694454D01*
X117975724Y-95765026D01*
X117859999Y-95859999D01*
X117836201Y-95888997D01*
X116163271Y-97561928D01*
X115750000Y-97561928D01*
X115625518Y-97574188D01*
X115505820Y-97610498D01*
X115395506Y-97669463D01*
X115298815Y-97748815D01*
X115219463Y-97845506D01*
X115160498Y-97955820D01*
X115124188Y-98075518D01*
X115111928Y-98200000D01*
X115111928Y-99000000D01*
X115124188Y-99124482D01*
X115160498Y-99244180D01*
X115219463Y-99354494D01*
X115298815Y-99451185D01*
X115395506Y-99530537D01*
X115431918Y-99550000D01*
X115395506Y-99569463D01*
X115298815Y-99648815D01*
X115219463Y-99745506D01*
X115160498Y-99855820D01*
X115124188Y-99975518D01*
X115111928Y-100100000D01*
X115115000Y-100214250D01*
X115273750Y-100373000D01*
X116073000Y-100373000D01*
X116073000Y-100353000D01*
X116327000Y-100353000D01*
X116327000Y-100373000D01*
X117126250Y-100373000D01*
X117210857Y-100288393D01*
X117219463Y-100304494D01*
X117298815Y-100401185D01*
X117395506Y-100480537D01*
X117505820Y-100539502D01*
X117625518Y-100575812D01*
X117750000Y-100588072D01*
X118650000Y-100588072D01*
X118774482Y-100575812D01*
X118894180Y-100539502D01*
X119004494Y-100480537D01*
X119101185Y-100401185D01*
X119176018Y-100310000D01*
X120812678Y-100310000D01*
X120850000Y-100313676D01*
X120887322Y-100310000D01*
X120887333Y-100310000D01*
X120998986Y-100299003D01*
X121142247Y-100255546D01*
X121268480Y-100188072D01*
X121700000Y-100188072D01*
X121824482Y-100175812D01*
X121944180Y-100139502D01*
X122054494Y-100080537D01*
X122151185Y-100001185D01*
X122230537Y-99904494D01*
X122250000Y-99868082D01*
X122269463Y-99904494D01*
X122348815Y-100001185D01*
X122445506Y-100080537D01*
X122555820Y-100139502D01*
X122675518Y-100175812D01*
X122800000Y-100188072D01*
X123600000Y-100188072D01*
X123724482Y-100175812D01*
X123844180Y-100139502D01*
X123954494Y-100080537D01*
X124051185Y-100001185D01*
X124130537Y-99904494D01*
X124146741Y-99874179D01*
X124154528Y-99899850D01*
X124236595Y-100053386D01*
X124347038Y-100187962D01*
X124481614Y-100298405D01*
X124635150Y-100380472D01*
X124801746Y-100431008D01*
X124975000Y-100448072D01*
X126825000Y-100448072D01*
X126998254Y-100431008D01*
X127164850Y-100380472D01*
X127318386Y-100298405D01*
X127452962Y-100187962D01*
X127563405Y-100053386D01*
X127645472Y-99899850D01*
X127669694Y-99820000D01*
X127964266Y-99820000D01*
X128109744Y-99917205D01*
X128298102Y-99995226D01*
X128498061Y-100035000D01*
X128701939Y-100035000D01*
X128901898Y-99995226D01*
X129090256Y-99917205D01*
X129259774Y-99803937D01*
X129403937Y-99659774D01*
X129517205Y-99490256D01*
X129595226Y-99301898D01*
X129635000Y-99101939D01*
X129635000Y-98898061D01*
X129595226Y-98698102D01*
X129517205Y-98509744D01*
X129403937Y-98340226D01*
X129259774Y-98196063D01*
X129090256Y-98082795D01*
X128901898Y-98004774D01*
X128701939Y-97965000D01*
X128498061Y-97965000D01*
X128298102Y-98004774D01*
X128109744Y-98082795D01*
X127940226Y-98196063D01*
X127836289Y-98300000D01*
X127669694Y-98300000D01*
X127645472Y-98220150D01*
X127563405Y-98066614D01*
X127452962Y-97932038D01*
X127318386Y-97821595D01*
X127164850Y-97739528D01*
X126998254Y-97688992D01*
X126825000Y-97671928D01*
X124975000Y-97671928D01*
X124801746Y-97688992D01*
X124635150Y-97739528D01*
X124481614Y-97821595D01*
X124347038Y-97932038D01*
X124236595Y-98066614D01*
X124154528Y-98220150D01*
X124131259Y-98296857D01*
X124130537Y-98295506D01*
X124051185Y-98198815D01*
X123954494Y-98119463D01*
X123844180Y-98060498D01*
X123724482Y-98024188D01*
X123600000Y-98011928D01*
X123088095Y-98011928D01*
X123101185Y-98001185D01*
X123180537Y-97904494D01*
X123239502Y-97794180D01*
X123275812Y-97674482D01*
X123288072Y-97550000D01*
X123288072Y-97136730D01*
X123854803Y-96570000D01*
X124130306Y-96570000D01*
X124154528Y-96649850D01*
X124236595Y-96803386D01*
X124347038Y-96937962D01*
X124481614Y-97048405D01*
X124635150Y-97130472D01*
X124801746Y-97181008D01*
X124975000Y-97198072D01*
X126825000Y-97198072D01*
X126998254Y-97181008D01*
X127164850Y-97130472D01*
X127318386Y-97048405D01*
X127452962Y-96937962D01*
X127563405Y-96803386D01*
X127645472Y-96649850D01*
X127696008Y-96483254D01*
X127713072Y-96310000D01*
X127713072Y-95310000D01*
X127696008Y-95136746D01*
X127645472Y-94970150D01*
X127563405Y-94816614D01*
X127452962Y-94682038D01*
X127318386Y-94571595D01*
X127164850Y-94489528D01*
X126998254Y-94438992D01*
X126825000Y-94421928D01*
X126685000Y-94421928D01*
X126685000Y-93646178D01*
X126794123Y-93556623D01*
X126903012Y-93423942D01*
X126983923Y-93272567D01*
X127033748Y-93108316D01*
X127050572Y-92937500D01*
X127050572Y-92462500D01*
X127033748Y-92291684D01*
X126983923Y-92127433D01*
X126903012Y-91976058D01*
X126794123Y-91843377D01*
X126692528Y-91760000D01*
X127185199Y-91760000D01*
X128240000Y-92814802D01*
X128240001Y-93462668D01*
X128236324Y-93500000D01*
X128240001Y-93537333D01*
X128244703Y-93585067D01*
X128250998Y-93648985D01*
X128294454Y-93792246D01*
X128365026Y-93924276D01*
X128418910Y-93989933D01*
X128460000Y-94040001D01*
X128488998Y-94063799D01*
X130240000Y-95814802D01*
X130240001Y-98962657D01*
X130236323Y-99000000D01*
X130250997Y-99148986D01*
X130294454Y-99292247D01*
X130365026Y-99424276D01*
X130459999Y-99540001D01*
X130575724Y-99634974D01*
X130707753Y-99705546D01*
X130851014Y-99749003D01*
X130962667Y-99760000D01*
X131000000Y-99763677D01*
X131037333Y-99760000D01*
X131070335Y-99760000D01*
X131099463Y-99814494D01*
X131178815Y-99911185D01*
X131275506Y-99990537D01*
X131385820Y-100049502D01*
X131505518Y-100085812D01*
X131630000Y-100098072D01*
X132530000Y-100098072D01*
X132654482Y-100085812D01*
X132774180Y-100049502D01*
X132884494Y-99990537D01*
X132981185Y-99911185D01*
X133060537Y-99814494D01*
X133119502Y-99704180D01*
X133155812Y-99584482D01*
X133168072Y-99460000D01*
X133168072Y-98948095D01*
X133178815Y-98961185D01*
X133275506Y-99040537D01*
X133385820Y-99099502D01*
X133505518Y-99135812D01*
X133630000Y-99148072D01*
X134530000Y-99148072D01*
X134654482Y-99135812D01*
X134774180Y-99099502D01*
X134884494Y-99040537D01*
X134981185Y-98961185D01*
X135060537Y-98864494D01*
X135119502Y-98754180D01*
X135155812Y-98634482D01*
X135168072Y-98510000D01*
X135168072Y-97710000D01*
X135155812Y-97585518D01*
X135119502Y-97465820D01*
X135060537Y-97355506D01*
X134981185Y-97258815D01*
X134884494Y-97179463D01*
X134840000Y-97155680D01*
X134840000Y-96117322D01*
X134843676Y-96079999D01*
X134840000Y-96042676D01*
X134840000Y-96042667D01*
X134829003Y-95931014D01*
X134785546Y-95787753D01*
X134714974Y-95655724D01*
X134620001Y-95539999D01*
X134591003Y-95516201D01*
X132895974Y-93821173D01*
X132965512Y-93736442D01*
X133046423Y-93585067D01*
X133096248Y-93420816D01*
X133113072Y-93250000D01*
X133113072Y-92750000D01*
X133096248Y-92579184D01*
X133046423Y-92414933D01*
X132965512Y-92263558D01*
X132856623Y-92130877D01*
X132803768Y-92087500D01*
X132856623Y-92044123D01*
X132965512Y-91911442D01*
X133046423Y-91760067D01*
X133096248Y-91595816D01*
X133113072Y-91425000D01*
X133113072Y-90925000D01*
X133096248Y-90754184D01*
X133046423Y-90589933D01*
X132965512Y-90438558D01*
X132856623Y-90305877D01*
X132723942Y-90196988D01*
X132572567Y-90116077D01*
X132408316Y-90066252D01*
X132237500Y-90049428D01*
X131949230Y-90049428D01*
X131570000Y-89670199D01*
X131570000Y-89399694D01*
X131649850Y-89375472D01*
X131803386Y-89293405D01*
X131937962Y-89182962D01*
X132048405Y-89048386D01*
X132130472Y-88894850D01*
X132181008Y-88728254D01*
X132198072Y-88555000D01*
X132198072Y-86705000D01*
X132181008Y-86531746D01*
X132130472Y-86365150D01*
X132048405Y-86211614D01*
X131937962Y-86077038D01*
X131803386Y-85966595D01*
X131649850Y-85884528D01*
X131570000Y-85860306D01*
X131570000Y-85860000D01*
X131726580Y-85860000D01*
X131805877Y-85956623D01*
X131938558Y-86065512D01*
X132089933Y-86146423D01*
X132254184Y-86196248D01*
X132425000Y-86213072D01*
X132925000Y-86213072D01*
X133095816Y-86196248D01*
X133260067Y-86146423D01*
X133411442Y-86065512D01*
X133544123Y-85956623D01*
X133587500Y-85903768D01*
X133630877Y-85956623D01*
X133763558Y-86065512D01*
X133840001Y-86106371D01*
X133840000Y-86926580D01*
X133743377Y-87005877D01*
X133634488Y-87138558D01*
X133553577Y-87289933D01*
X133503752Y-87454184D01*
X133486928Y-87625000D01*
X133486928Y-88125000D01*
X133503752Y-88295816D01*
X133553577Y-88460067D01*
X133634488Y-88611442D01*
X133743377Y-88744123D01*
X133796232Y-88787500D01*
X133743377Y-88830877D01*
X133634488Y-88963558D01*
X133553577Y-89114933D01*
X133503752Y-89279184D01*
X133486928Y-89450000D01*
X133486928Y-89950000D01*
X133503752Y-90120816D01*
X133553577Y-90285067D01*
X133634488Y-90436442D01*
X133743377Y-90569123D01*
X133840001Y-90648420D01*
X133840000Y-91495680D01*
X133795506Y-91519463D01*
X133698815Y-91598815D01*
X133619463Y-91695506D01*
X133560498Y-91805820D01*
X133524188Y-91925518D01*
X133511928Y-92050000D01*
X133511928Y-92850000D01*
X133524188Y-92974482D01*
X133560498Y-93094180D01*
X133619463Y-93204494D01*
X133698815Y-93301185D01*
X133795506Y-93380537D01*
X133905820Y-93439502D01*
X134025518Y-93475812D01*
X134150000Y-93488072D01*
X135050000Y-93488072D01*
X135174482Y-93475812D01*
X135294180Y-93439502D01*
X135404494Y-93380537D01*
X135460101Y-93334902D01*
X135511928Y-93386729D01*
X135511928Y-93800000D01*
X135524188Y-93924482D01*
X135560498Y-94044180D01*
X135619463Y-94154494D01*
X135698815Y-94251185D01*
X135795506Y-94330537D01*
X135905820Y-94389502D01*
X136025518Y-94425812D01*
X136150000Y-94438072D01*
X137050000Y-94438072D01*
X137174482Y-94425812D01*
X137294180Y-94389502D01*
X137404494Y-94330537D01*
X137501185Y-94251185D01*
X137580537Y-94154494D01*
X137639502Y-94044180D01*
X137675812Y-93924482D01*
X137688072Y-93800000D01*
X137688072Y-93000000D01*
X137675812Y-92875518D01*
X137639502Y-92755820D01*
X137580537Y-92645506D01*
X137501185Y-92548815D01*
X137404494Y-92469463D01*
X137368082Y-92450000D01*
X137404494Y-92430537D01*
X137501185Y-92351185D01*
X137580537Y-92254494D01*
X137639502Y-92144180D01*
X137675812Y-92024482D01*
X137688072Y-91900000D01*
X137688072Y-91486730D01*
X138011004Y-91163798D01*
X138040001Y-91140001D01*
X138134974Y-91024276D01*
X138205546Y-90892247D01*
X138249003Y-90748986D01*
X138260000Y-90637333D01*
X138260000Y-90637324D01*
X138263676Y-90600001D01*
X138260000Y-90562678D01*
X138260000Y-89303711D01*
X138303937Y-89259774D01*
X138417205Y-89090256D01*
X138495226Y-88901898D01*
X138535000Y-88701939D01*
X138535000Y-88498061D01*
X138495226Y-88298102D01*
X138417205Y-88109744D01*
X138303937Y-87940226D01*
X138159774Y-87796063D01*
X137990256Y-87682795D01*
X137801898Y-87604774D01*
X137601939Y-87565000D01*
X137398061Y-87565000D01*
X137377102Y-87569169D01*
X137465512Y-87461442D01*
X137546423Y-87310067D01*
X137596248Y-87145816D01*
X137613072Y-86975000D01*
X137613072Y-86475000D01*
X137596248Y-86304184D01*
X137546423Y-86139933D01*
X137465512Y-85988558D01*
X137356623Y-85855877D01*
X137303768Y-85812500D01*
X137356623Y-85769123D01*
X137465512Y-85636442D01*
X137546423Y-85485067D01*
X137596248Y-85320816D01*
X137613072Y-85150000D01*
X137613072Y-84650000D01*
X137596248Y-84479184D01*
X137546423Y-84314933D01*
X137465512Y-84163558D01*
X137356623Y-84030877D01*
X137258812Y-83950605D01*
X137249003Y-83851014D01*
X137205546Y-83707753D01*
X137134974Y-83575724D01*
X137063799Y-83488997D01*
X137040001Y-83459999D01*
X137011003Y-83436201D01*
X136222873Y-82648072D01*
X137890000Y-82648072D01*
X138014482Y-82635812D01*
X138134180Y-82599502D01*
X138244494Y-82540537D01*
X138341185Y-82461185D01*
X138420537Y-82364494D01*
X138479502Y-82254180D01*
X138515812Y-82134482D01*
X138528072Y-82010000D01*
X138528072Y-78010000D01*
X138515812Y-77885518D01*
X138479502Y-77765820D01*
X138420537Y-77655506D01*
X138341185Y-77558815D01*
X138244494Y-77479463D01*
X138134180Y-77420498D01*
X138014482Y-77384188D01*
X137890000Y-77371928D01*
X133890000Y-77371928D01*
X133765518Y-77384188D01*
X133645820Y-77420498D01*
X133535506Y-77479463D01*
X133438815Y-77558815D01*
X133359463Y-77655506D01*
X133300498Y-77765820D01*
X133264188Y-77885518D01*
X133251928Y-78010000D01*
X133251928Y-79250000D01*
X133056018Y-79250000D01*
X132981185Y-79158815D01*
X132884494Y-79079463D01*
X132774180Y-79020498D01*
X132654482Y-78984188D01*
X132530000Y-78971928D01*
X131630000Y-78971928D01*
X131505518Y-78984188D01*
X131385820Y-79020498D01*
X131275506Y-79079463D01*
X131178815Y-79158815D01*
X131168072Y-79171905D01*
X131168072Y-78660000D01*
X131155812Y-78535518D01*
X131119502Y-78415820D01*
X131060537Y-78305506D01*
X130981185Y-78208815D01*
X130884494Y-78129463D01*
X130774180Y-78070498D01*
X130654482Y-78034188D01*
X130530000Y-78021928D01*
X129630000Y-78021928D01*
X129505518Y-78034188D01*
X129385820Y-78070498D01*
X129275506Y-78129463D01*
X129260000Y-78142188D01*
X129260000Y-74378072D01*
X129990000Y-74378072D01*
X130114482Y-74365812D01*
X130234180Y-74329502D01*
X130344494Y-74270537D01*
X130441185Y-74191185D01*
X130516018Y-74100000D01*
X131141978Y-74100000D01*
X131162795Y-74150256D01*
X131276063Y-74319774D01*
X131420226Y-74463937D01*
X131589744Y-74577205D01*
X131778102Y-74655226D01*
X131978061Y-74695000D01*
X132181939Y-74695000D01*
X132381898Y-74655226D01*
X132570256Y-74577205D01*
X132739774Y-74463937D01*
X132883937Y-74319774D01*
X132997205Y-74150256D01*
X133075226Y-73961898D01*
X133115000Y-73761939D01*
X133115000Y-73558061D01*
X133075226Y-73358102D01*
X132997205Y-73169744D01*
X132984013Y-73150000D01*
X133251928Y-73150000D01*
X133251928Y-74390000D01*
X133264188Y-74514482D01*
X133300498Y-74634180D01*
X133359463Y-74744494D01*
X133438815Y-74841185D01*
X133535506Y-74920537D01*
X133645820Y-74979502D01*
X133765518Y-75015812D01*
X133890000Y-75028072D01*
X137890000Y-75028072D01*
X138014482Y-75015812D01*
X138134180Y-74979502D01*
X138244494Y-74920537D01*
X138341185Y-74841185D01*
X138420537Y-74744494D01*
X138479502Y-74634180D01*
X138515812Y-74514482D01*
X138528072Y-74390000D01*
X138528072Y-70390000D01*
X138515812Y-70265518D01*
X138479502Y-70145820D01*
X138420537Y-70035506D01*
X138341185Y-69938815D01*
X138244494Y-69859463D01*
X138134180Y-69800498D01*
X138014482Y-69764188D01*
X137890000Y-69751928D01*
X133890000Y-69751928D01*
X133765518Y-69764188D01*
X133645820Y-69800498D01*
X133535506Y-69859463D01*
X133438815Y-69938815D01*
X133359463Y-70035506D01*
X133300498Y-70145820D01*
X133264188Y-70265518D01*
X133251928Y-70390000D01*
X133251928Y-71630000D01*
X132516018Y-71630000D01*
X132441185Y-71538815D01*
X132344494Y-71459463D01*
X132234180Y-71400498D01*
X132114482Y-71364188D01*
X131990000Y-71351928D01*
X131090000Y-71351928D01*
X130965518Y-71364188D01*
X130845820Y-71400498D01*
X130735506Y-71459463D01*
X130638815Y-71538815D01*
X130628072Y-71551905D01*
X130628072Y-71040000D01*
X130615812Y-70915518D01*
X130579502Y-70795820D01*
X130520537Y-70685506D01*
X130441185Y-70588815D01*
X130344494Y-70509463D01*
X130234180Y-70450498D01*
X130114482Y-70414188D01*
X129990000Y-70401928D01*
X129090000Y-70401928D01*
X128965518Y-70414188D01*
X128845820Y-70450498D01*
X128735506Y-70509463D01*
X128638815Y-70588815D01*
X128559463Y-70685506D01*
X128500498Y-70795820D01*
X128464188Y-70915518D01*
X128451928Y-71040000D01*
X128451928Y-71453271D01*
X127988998Y-71916201D01*
X127960000Y-71939999D01*
X127936202Y-71968997D01*
X127936201Y-71968998D01*
X127865026Y-72055724D01*
X127794454Y-72187754D01*
X127767770Y-72275724D01*
X127757373Y-72310000D01*
X127750998Y-72331015D01*
X127736324Y-72480000D01*
X127740001Y-72517332D01*
X127740001Y-74021337D01*
X127705546Y-73907753D01*
X127634974Y-73775724D01*
X127548072Y-73669834D01*
X127548072Y-73260000D01*
X127535812Y-73135518D01*
X127499502Y-73015820D01*
X127440537Y-72905506D01*
X127361185Y-72808815D01*
X127264494Y-72729463D01*
X127228082Y-72710000D01*
X127264494Y-72690537D01*
X127361185Y-72611185D01*
X127440537Y-72514494D01*
X127499502Y-72404180D01*
X127535812Y-72284482D01*
X127548072Y-72160000D01*
X127548072Y-71746730D01*
X128011003Y-71283799D01*
X128040001Y-71260001D01*
X128132120Y-71147754D01*
X128134974Y-71144277D01*
X128205546Y-71012247D01*
X128207323Y-71006388D01*
X128303937Y-70909774D01*
X128417205Y-70740256D01*
X128495226Y-70551898D01*
X128535000Y-70351939D01*
X128535000Y-70148061D01*
X128495226Y-69948102D01*
X128417205Y-69759744D01*
X128303937Y-69590226D01*
X128159774Y-69446063D01*
X127990256Y-69332795D01*
X127801898Y-69254774D01*
X127601939Y-69215000D01*
X127398061Y-69215000D01*
X127198102Y-69254774D01*
X127009744Y-69332795D01*
X126840226Y-69446063D01*
X126696063Y-69590226D01*
X126582795Y-69759744D01*
X126504774Y-69948102D01*
X126465000Y-70148061D01*
X126465000Y-70351939D01*
X126504774Y-70551898D01*
X126530703Y-70614495D01*
X126423271Y-70721928D01*
X126010000Y-70721928D01*
X125885518Y-70734188D01*
X125765820Y-70770498D01*
X125655506Y-70829463D01*
X125558815Y-70908815D01*
X125479463Y-71005506D01*
X125420498Y-71115820D01*
X125384188Y-71235518D01*
X125371928Y-71360000D01*
X125371928Y-71871905D01*
X125361185Y-71858815D01*
X125264494Y-71779463D01*
X125154180Y-71720498D01*
X125034482Y-71684188D01*
X124910000Y-71671928D01*
X124010000Y-71671928D01*
X123885518Y-71684188D01*
X123765820Y-71720498D01*
X123655506Y-71779463D01*
X123635875Y-71795574D01*
X123561442Y-71734488D01*
X123410067Y-71653577D01*
X123245816Y-71603752D01*
X123075000Y-71586928D01*
X122575000Y-71586928D01*
X122404184Y-71603752D01*
X122239933Y-71653577D01*
X122088558Y-71734488D01*
X121955877Y-71843377D01*
X121912500Y-71896232D01*
X121869123Y-71843377D01*
X121736442Y-71734488D01*
X121585067Y-71653577D01*
X121420816Y-71603752D01*
X121250000Y-71586928D01*
X120750000Y-71586928D01*
X120579184Y-71603752D01*
X120414933Y-71653577D01*
X120263558Y-71734488D01*
X120130877Y-71843377D01*
X120021988Y-71976058D01*
X119941077Y-72127433D01*
X119891252Y-72291684D01*
X119874428Y-72462500D01*
X119874428Y-72937500D01*
X119891252Y-73108316D01*
X119941077Y-73272567D01*
X120021988Y-73423942D01*
X120130877Y-73556623D01*
X120240000Y-73646179D01*
X120240001Y-75237659D01*
X120174528Y-75360150D01*
X120150306Y-75440000D01*
X119837322Y-75440000D01*
X119799999Y-75436324D01*
X119762676Y-75440000D01*
X119762667Y-75440000D01*
X119651014Y-75450997D01*
X119507753Y-75494454D01*
X119375724Y-75565026D01*
X119259999Y-75659999D01*
X119236199Y-75689000D01*
X118988998Y-75936201D01*
X118960000Y-75959999D01*
X118936202Y-75988997D01*
X118936201Y-75988998D01*
X118865026Y-76075724D01*
X118794454Y-76207754D01*
X118764180Y-76307558D01*
X118751614Y-76348985D01*
X118750998Y-76351015D01*
X118736324Y-76500000D01*
X118740001Y-76537332D01*
X118740000Y-77685198D01*
X118704836Y-77720362D01*
X118684482Y-77714188D01*
X118560000Y-77701928D01*
X117660000Y-77701928D01*
X117535518Y-77714188D01*
X117415820Y-77750498D01*
X117305506Y-77809463D01*
X117208815Y-77888815D01*
X117198072Y-77901905D01*
X117198072Y-77390000D01*
X117185812Y-77265518D01*
X117149502Y-77145820D01*
X117090537Y-77035506D01*
X117011185Y-76938815D01*
X116914494Y-76859463D01*
X116804180Y-76800498D01*
X116684482Y-76764188D01*
X116560000Y-76751928D01*
X116146729Y-76751928D01*
X115858803Y-76464002D01*
X115835001Y-76434999D01*
X115719276Y-76340026D01*
X115587247Y-76269454D01*
X115443986Y-76225997D01*
X115332333Y-76215000D01*
X115332322Y-76215000D01*
X115295000Y-76211324D01*
X115257678Y-76215000D01*
X113946178Y-76215000D01*
X113856623Y-76105877D01*
X113723942Y-75996988D01*
X113572567Y-75916077D01*
X113408316Y-75866252D01*
X113237500Y-75849428D01*
X112762500Y-75849428D01*
X112591684Y-75866252D01*
X112427433Y-75916077D01*
X112276058Y-75996988D01*
X112143377Y-76105877D01*
X112034488Y-76238558D01*
X111953577Y-76389933D01*
X111903752Y-76554184D01*
X111886928Y-76725000D01*
X111886928Y-77225000D01*
X111903752Y-77395816D01*
X111953577Y-77560067D01*
X112034488Y-77711442D01*
X112143377Y-77844123D01*
X112196232Y-77887500D01*
X112143377Y-77930877D01*
X112034488Y-78063558D01*
X111953577Y-78214933D01*
X111903752Y-78379184D01*
X111886928Y-78550000D01*
X111886928Y-79050000D01*
X111903752Y-79220816D01*
X111953577Y-79385067D01*
X112034488Y-79536442D01*
X112143377Y-79669123D01*
X112265001Y-79768937D01*
X112265000Y-80853821D01*
X112155877Y-80943377D01*
X112112500Y-80996232D01*
X112069123Y-80943377D01*
X111936442Y-80834488D01*
X111785067Y-80753577D01*
X111620816Y-80703752D01*
X111450000Y-80686928D01*
X110950000Y-80686928D01*
X110779184Y-80703752D01*
X110614933Y-80753577D01*
X110463558Y-80834488D01*
X110330877Y-80943377D01*
X110251580Y-81040000D01*
X109771159Y-81040000D01*
X109717205Y-80909744D01*
X109603937Y-80740226D01*
X109459774Y-80596063D01*
X109290256Y-80482795D01*
X109101898Y-80404774D01*
X108901939Y-80365000D01*
X108698061Y-80365000D01*
X108498102Y-80404774D01*
X108309744Y-80482795D01*
X108179232Y-80570000D01*
X107828072Y-80570000D01*
X107828072Y-80330000D01*
X107815812Y-80205518D01*
X107779502Y-80085820D01*
X107720537Y-79975506D01*
X107641185Y-79878815D01*
X107544494Y-79799463D01*
X107434180Y-79740498D01*
X107314482Y-79704188D01*
X107190000Y-79691928D01*
X105690000Y-79691928D01*
X105565518Y-79704188D01*
X105445820Y-79740498D01*
X105335506Y-79799463D01*
X105290000Y-79836809D01*
X105244494Y-79799463D01*
X105134180Y-79740498D01*
X105014482Y-79704188D01*
X104890000Y-79691928D01*
X104425750Y-79695000D01*
X104267000Y-79853750D01*
X104267000Y-81203000D01*
X104287000Y-81203000D01*
X104287000Y-81457000D01*
X104267000Y-81457000D01*
X104267000Y-82806250D01*
X104425750Y-82965000D01*
X104890000Y-82968072D01*
X105014482Y-82955812D01*
X105134180Y-82919502D01*
X105244494Y-82860537D01*
X105290000Y-82823191D01*
X105335506Y-82860537D01*
X105445820Y-82919502D01*
X105565518Y-82955812D01*
X105690000Y-82968072D01*
X107190000Y-82968072D01*
X107314482Y-82955812D01*
X107434180Y-82919502D01*
X107544494Y-82860537D01*
X107641185Y-82781185D01*
X107720537Y-82684494D01*
X107779502Y-82574180D01*
X107815812Y-82454482D01*
X107828072Y-82330000D01*
X107828072Y-82090000D01*
X108026289Y-82090000D01*
X108140226Y-82203937D01*
X108309744Y-82317205D01*
X108498102Y-82395226D01*
X108698061Y-82435000D01*
X108775774Y-82435000D01*
X108907752Y-82505545D01*
X109051013Y-82549001D01*
X109199998Y-82563675D01*
X109237330Y-82559998D01*
X110251579Y-82559999D01*
X110330877Y-82656623D01*
X110463558Y-82765512D01*
X110614933Y-82846423D01*
X110779184Y-82896248D01*
X110950000Y-82913072D01*
X111450000Y-82913072D01*
X111620816Y-82896248D01*
X111785067Y-82846423D01*
X111936442Y-82765512D01*
X112069123Y-82656623D01*
X112112500Y-82603768D01*
X112155877Y-82656623D01*
X112288558Y-82765512D01*
X112439933Y-82846423D01*
X112604184Y-82896248D01*
X112775000Y-82913072D01*
X113275000Y-82913072D01*
X113445816Y-82896248D01*
X113610067Y-82846423D01*
X113761442Y-82765512D01*
X113894123Y-82656623D01*
X113973420Y-82560000D01*
X114702317Y-82560000D01*
X114680498Y-82600820D01*
X114644188Y-82720518D01*
X114631928Y-82845000D01*
X114635000Y-83534250D01*
X114793750Y-83693000D01*
X115443000Y-83693000D01*
X115443000Y-83673000D01*
X115454991Y-83673000D01*
X115454990Y-83967000D01*
X115443000Y-83967000D01*
X115443000Y-83947000D01*
X114793750Y-83947000D01*
X114635000Y-84105750D01*
X114631928Y-84795000D01*
X114644188Y-84919482D01*
X114680498Y-85039180D01*
X114739463Y-85149494D01*
X114818815Y-85246185D01*
X114915506Y-85325537D01*
X115025820Y-85384502D01*
X115145518Y-85420812D01*
X115270000Y-85433072D01*
X115284250Y-85430000D01*
X115442998Y-85271252D01*
X115442998Y-85430000D01*
X115486015Y-85430000D01*
X115496632Y-85465000D01*
X115509444Y-85507236D01*
X115580016Y-85639266D01*
X115607346Y-85672567D01*
X115674989Y-85754991D01*
X115703992Y-85778793D01*
X116236200Y-86311002D01*
X116259999Y-86340001D01*
X116288997Y-86363799D01*
X116375723Y-86434974D01*
X116450606Y-86475000D01*
X116507753Y-86505546D01*
X116651014Y-86549003D01*
X116762667Y-86560000D01*
X116762676Y-86560000D01*
X116799999Y-86563676D01*
X116837322Y-86560000D01*
X117562678Y-86560000D01*
X117600000Y-86563676D01*
X117637322Y-86560000D01*
X117637333Y-86560000D01*
X117748986Y-86549003D01*
X117892247Y-86505546D01*
X118024276Y-86434974D01*
X118140001Y-86340001D01*
X118163804Y-86310997D01*
X118214801Y-86260000D01*
X119742462Y-86260000D01*
X119715000Y-86398061D01*
X119715000Y-86601939D01*
X119754774Y-86801898D01*
X119832795Y-86990256D01*
X119946063Y-87159774D01*
X120071203Y-87284914D01*
X120062171Y-87289742D01*
X120015000Y-87328454D01*
X119967829Y-87289742D01*
X119831582Y-87216916D01*
X119683745Y-87172071D01*
X119530000Y-87156928D01*
X119230000Y-87156928D01*
X119076255Y-87172071D01*
X118928418Y-87216916D01*
X118792171Y-87289742D01*
X118745000Y-87328454D01*
X118697829Y-87289742D01*
X118561582Y-87216916D01*
X118413745Y-87172071D01*
X118260000Y-87156928D01*
X117960000Y-87156928D01*
X117806255Y-87172071D01*
X117658418Y-87216916D01*
X117522171Y-87289742D01*
X117475000Y-87328454D01*
X117427829Y-87289742D01*
X117291582Y-87216916D01*
X117143745Y-87172071D01*
X116990000Y-87156928D01*
X116690000Y-87156928D01*
X116536255Y-87172071D01*
X116388418Y-87216916D01*
X116252171Y-87289742D01*
X116205000Y-87328454D01*
X116157829Y-87289742D01*
X116021582Y-87216916D01*
X115873745Y-87172071D01*
X115720000Y-87156928D01*
X115420000Y-87156928D01*
X115266255Y-87172071D01*
X115118418Y-87216916D01*
X114982171Y-87289742D01*
X114862749Y-87387749D01*
X114764742Y-87507171D01*
X114691916Y-87643418D01*
X114647071Y-87791255D01*
X114631928Y-87945000D01*
X114631928Y-88510639D01*
X114590256Y-88482795D01*
X114401898Y-88404774D01*
X114201939Y-88365000D01*
X113998061Y-88365000D01*
X113798102Y-88404774D01*
X113662145Y-88461090D01*
X113664502Y-88456680D01*
X113700812Y-88336982D01*
X113713072Y-88212500D01*
X113710000Y-87960750D01*
X113551250Y-87802000D01*
X112727000Y-87802000D01*
X112727000Y-87822000D01*
X112473000Y-87822000D01*
X112473000Y-87802000D01*
X111648750Y-87802000D01*
X111490000Y-87960750D01*
X111486928Y-88212500D01*
X111499188Y-88336982D01*
X111535498Y-88456680D01*
X111594463Y-88566994D01*
X111633774Y-88614894D01*
X111553577Y-88764933D01*
X111503752Y-88929184D01*
X111486928Y-89100000D01*
X111486928Y-89700000D01*
X111503752Y-89870816D01*
X111553577Y-90035067D01*
X111634488Y-90186442D01*
X111743377Y-90319123D01*
X111876058Y-90428012D01*
X112027433Y-90508923D01*
X112191684Y-90558748D01*
X112362500Y-90575572D01*
X112837500Y-90575572D01*
X113008316Y-90558748D01*
X113172567Y-90508923D01*
X113323942Y-90428012D01*
X113456623Y-90319123D01*
X113511868Y-90251807D01*
X113609744Y-90317205D01*
X113798102Y-90395226D01*
X113998061Y-90435000D01*
X114201939Y-90435000D01*
X114401898Y-90395226D01*
X114590256Y-90317205D01*
X114759774Y-90203937D01*
X114810000Y-90153711D01*
X114810000Y-90441580D01*
X114713377Y-90520877D01*
X114604488Y-90653558D01*
X114590355Y-90680000D01*
X111436178Y-90680000D01*
X111346623Y-90570877D01*
X111213942Y-90461988D01*
X111062567Y-90381077D01*
X110898316Y-90331252D01*
X110727500Y-90314428D01*
X110434473Y-90314428D01*
X110374276Y-90265026D01*
X110242247Y-90194454D01*
X110098986Y-90150997D01*
X109987333Y-90140000D01*
X109987322Y-90140000D01*
X109950000Y-90136324D01*
X109912678Y-90140000D01*
X109273420Y-90140000D01*
X109194123Y-90043377D01*
X109061442Y-89934488D01*
X108910067Y-89853577D01*
X108745816Y-89803752D01*
X108575000Y-89786928D01*
X108075000Y-89786928D01*
X107904184Y-89803752D01*
X107739933Y-89853577D01*
X107588558Y-89934488D01*
X107479717Y-90023812D01*
X107438685Y-89973815D01*
X107341994Y-89894463D01*
X107231680Y-89835498D01*
X107111982Y-89799188D01*
X106987500Y-89786928D01*
X106785750Y-89790000D01*
X106627000Y-89948750D01*
X106627000Y-90773000D01*
X106647000Y-90773000D01*
X106647000Y-91027000D01*
X106627000Y-91027000D01*
X106627000Y-91851250D01*
X106785750Y-92010000D01*
X106987500Y-92013072D01*
X107111982Y-92000812D01*
X107231680Y-91964502D01*
X107341994Y-91905537D01*
X107438685Y-91826185D01*
X107479717Y-91776188D01*
X107588558Y-91865512D01*
X107739933Y-91946423D01*
X107904184Y-91996248D01*
X108075000Y-92013072D01*
X108575000Y-92013072D01*
X108745816Y-91996248D01*
X108910067Y-91946423D01*
X109061442Y-91865512D01*
X109194123Y-91756623D01*
X109273420Y-91660000D01*
X109376928Y-91660000D01*
X109376928Y-91690000D01*
X109393752Y-91860816D01*
X109443577Y-92025067D01*
X109524488Y-92176442D01*
X109633377Y-92309123D01*
X109686232Y-92352500D01*
X109633377Y-92395877D01*
X109524488Y-92528558D01*
X109443577Y-92679933D01*
X109393752Y-92844184D01*
X109376928Y-93015000D01*
X109376928Y-93303270D01*
X109116239Y-93563959D01*
X109089502Y-93475820D01*
X109030537Y-93365506D01*
X108951185Y-93268815D01*
X108854494Y-93189463D01*
X108744180Y-93130498D01*
X108624482Y-93094188D01*
X108500000Y-93081928D01*
X103900000Y-93081928D01*
X103775518Y-93094188D01*
X103655820Y-93130498D01*
X103545506Y-93189463D01*
X103448815Y-93268815D01*
X103369463Y-93365506D01*
X103310498Y-93475820D01*
X103274188Y-93595518D01*
X103261928Y-93720000D01*
X96918072Y-93720000D01*
X96905812Y-93595518D01*
X96869502Y-93475820D01*
X96810537Y-93365506D01*
X96731185Y-93268815D01*
X96634494Y-93189463D01*
X96524180Y-93130498D01*
X96404482Y-93094188D01*
X96280000Y-93081928D01*
X91680000Y-93081928D01*
X91555518Y-93094188D01*
X91435820Y-93130498D01*
X91325506Y-93189463D01*
X91228815Y-93268815D01*
X91149463Y-93365506D01*
X91090498Y-93475820D01*
X91054188Y-93595518D01*
X91041928Y-93720000D01*
X91041928Y-95760000D01*
X85127322Y-95760000D01*
X85089999Y-95756324D01*
X85052676Y-95760000D01*
X85052667Y-95760000D01*
X84941014Y-95770997D01*
X84797753Y-95814454D01*
X84665724Y-95885026D01*
X84549999Y-95979999D01*
X84539007Y-95993393D01*
X84384419Y-95929361D01*
X84010581Y-95855000D01*
X83629419Y-95855000D01*
X83255581Y-95929361D01*
X82903434Y-96075225D01*
X82586509Y-96286987D01*
X82316987Y-96556509D01*
X82105225Y-96873434D01*
X81959361Y-97225581D01*
X81885000Y-97599419D01*
X76877000Y-97599419D01*
X76877000Y-91410000D01*
X81881928Y-91410000D01*
X81881928Y-94010000D01*
X81894188Y-94134482D01*
X81930498Y-94254180D01*
X81989463Y-94364494D01*
X82068815Y-94461185D01*
X82165506Y-94540537D01*
X82275820Y-94599502D01*
X82395518Y-94635812D01*
X82520000Y-94648072D01*
X85120000Y-94648072D01*
X85244482Y-94635812D01*
X85364180Y-94599502D01*
X85474494Y-94540537D01*
X85571185Y-94461185D01*
X85650537Y-94364494D01*
X85709502Y-94254180D01*
X85745812Y-94134482D01*
X85758072Y-94010000D01*
X85758072Y-91410000D01*
X85754625Y-91375000D01*
X105374428Y-91375000D01*
X105386688Y-91499482D01*
X105422998Y-91619180D01*
X105481963Y-91729494D01*
X105561315Y-91826185D01*
X105658006Y-91905537D01*
X105768320Y-91964502D01*
X105888018Y-92000812D01*
X106012500Y-92013072D01*
X106214250Y-92010000D01*
X106373000Y-91851250D01*
X106373000Y-91027000D01*
X105536250Y-91027000D01*
X105377500Y-91185750D01*
X105374428Y-91375000D01*
X85754625Y-91375000D01*
X85745812Y-91285518D01*
X85709502Y-91165820D01*
X85650537Y-91055506D01*
X85571185Y-90958815D01*
X85474494Y-90879463D01*
X85364180Y-90820498D01*
X85244482Y-90784188D01*
X85120000Y-90771928D01*
X82520000Y-90771928D01*
X82395518Y-90784188D01*
X82275820Y-90820498D01*
X82165506Y-90879463D01*
X82068815Y-90958815D01*
X81989463Y-91055506D01*
X81930498Y-91165820D01*
X81894188Y-91285518D01*
X81881928Y-91410000D01*
X76877000Y-91410000D01*
X76877000Y-90425000D01*
X105374428Y-90425000D01*
X105377500Y-90614250D01*
X105536250Y-90773000D01*
X106373000Y-90773000D01*
X106373000Y-89948750D01*
X106214250Y-89790000D01*
X106012500Y-89786928D01*
X105888018Y-89799188D01*
X105768320Y-89835498D01*
X105658006Y-89894463D01*
X105561315Y-89973815D01*
X105481963Y-90070506D01*
X105422998Y-90180820D01*
X105386688Y-90300518D01*
X105374428Y-90425000D01*
X76877000Y-90425000D01*
X76877000Y-88377000D01*
X101603016Y-88377000D01*
X101601928Y-88630000D01*
X101614188Y-88754482D01*
X101650498Y-88874180D01*
X101709463Y-88984494D01*
X101788815Y-89081185D01*
X101885506Y-89160537D01*
X101995820Y-89219502D01*
X102115518Y-89255812D01*
X102240000Y-89268072D01*
X103854250Y-89265000D01*
X104013000Y-89106250D01*
X104013000Y-87757000D01*
X104267000Y-87757000D01*
X104267000Y-89106250D01*
X104425750Y-89265000D01*
X106040000Y-89268072D01*
X106164482Y-89255812D01*
X106284180Y-89219502D01*
X106394494Y-89160537D01*
X106491185Y-89081185D01*
X106570537Y-88984494D01*
X106629502Y-88874180D01*
X106665812Y-88754482D01*
X106678072Y-88630000D01*
X106675000Y-87915750D01*
X106516250Y-87757000D01*
X104267000Y-87757000D01*
X104013000Y-87757000D01*
X103993000Y-87757000D01*
X103993000Y-87503000D01*
X104013000Y-87503000D01*
X104013000Y-86153750D01*
X104267000Y-86153750D01*
X104267000Y-87503000D01*
X106516250Y-87503000D01*
X106675000Y-87344250D01*
X106675889Y-87137500D01*
X111486928Y-87137500D01*
X111490000Y-87389250D01*
X111648750Y-87548000D01*
X112473000Y-87548000D01*
X112473000Y-86661250D01*
X112727000Y-86661250D01*
X112727000Y-87548000D01*
X113551250Y-87548000D01*
X113710000Y-87389250D01*
X113713072Y-87137500D01*
X113700812Y-87013018D01*
X113664502Y-86893320D01*
X113605537Y-86783006D01*
X113526185Y-86686315D01*
X113429494Y-86606963D01*
X113319180Y-86547998D01*
X113199482Y-86511688D01*
X113075000Y-86499428D01*
X112885750Y-86502500D01*
X112727000Y-86661250D01*
X112473000Y-86661250D01*
X112314250Y-86502500D01*
X112125000Y-86499428D01*
X112000518Y-86511688D01*
X111880820Y-86547998D01*
X111770506Y-86606963D01*
X111673815Y-86686315D01*
X111594463Y-86783006D01*
X111535498Y-86893320D01*
X111499188Y-87013018D01*
X111486928Y-87137500D01*
X106675889Y-87137500D01*
X106678072Y-86630000D01*
X106665812Y-86505518D01*
X106629502Y-86385820D01*
X106570537Y-86275506D01*
X106491185Y-86178815D01*
X106394494Y-86099463D01*
X106284180Y-86040498D01*
X106164482Y-86004188D01*
X106040000Y-85991928D01*
X104425750Y-85995000D01*
X104267000Y-86153750D01*
X104013000Y-86153750D01*
X103854250Y-85995000D01*
X103377000Y-85994092D01*
X103377000Y-82966792D01*
X103390000Y-82968072D01*
X103854250Y-82965000D01*
X104013000Y-82806250D01*
X104013000Y-81457000D01*
X103993000Y-81457000D01*
X103993000Y-81203000D01*
X104013000Y-81203000D01*
X104013000Y-79853750D01*
X103854250Y-79695000D01*
X103390000Y-79691928D01*
X103377000Y-79693208D01*
X103377000Y-78375000D01*
X103411928Y-78375000D01*
X103424188Y-78499482D01*
X103460498Y-78619180D01*
X103519463Y-78729494D01*
X103598815Y-78826185D01*
X103695506Y-78905537D01*
X103805820Y-78964502D01*
X103925518Y-79000812D01*
X104050000Y-79013072D01*
X104514250Y-79010000D01*
X104673000Y-78851250D01*
X104673000Y-77327000D01*
X104927000Y-77327000D01*
X104927000Y-78851250D01*
X105085750Y-79010000D01*
X105550000Y-79013072D01*
X105674482Y-79000812D01*
X105794180Y-78964502D01*
X105904494Y-78905537D01*
X106001185Y-78826185D01*
X106080537Y-78729494D01*
X106139502Y-78619180D01*
X106175812Y-78499482D01*
X106188072Y-78375000D01*
X106185000Y-77485750D01*
X106026250Y-77327000D01*
X104927000Y-77327000D01*
X104673000Y-77327000D01*
X103573750Y-77327000D01*
X103415000Y-77485750D01*
X103411928Y-78375000D01*
X103377000Y-78375000D01*
X103377000Y-76025000D01*
X103411928Y-76025000D01*
X103415000Y-76914250D01*
X103573750Y-77073000D01*
X104673000Y-77073000D01*
X104673000Y-75548750D01*
X104927000Y-75548750D01*
X104927000Y-77073000D01*
X106026250Y-77073000D01*
X106185000Y-76914250D01*
X106187208Y-76275000D01*
X106661928Y-76275000D01*
X106661928Y-78125000D01*
X106678992Y-78298254D01*
X106729528Y-78464850D01*
X106811595Y-78618386D01*
X106922038Y-78752962D01*
X107056614Y-78863405D01*
X107210150Y-78945472D01*
X107376746Y-78996008D01*
X107550000Y-79013072D01*
X108550000Y-79013072D01*
X108723254Y-78996008D01*
X108889850Y-78945472D01*
X109043386Y-78863405D01*
X109177962Y-78752962D01*
X109288405Y-78618386D01*
X109370472Y-78464850D01*
X109421008Y-78298254D01*
X109438072Y-78125000D01*
X109438072Y-77960000D01*
X109496289Y-77960000D01*
X109540226Y-78003937D01*
X109709744Y-78117205D01*
X109898102Y-78195226D01*
X110098061Y-78235000D01*
X110301939Y-78235000D01*
X110501898Y-78195226D01*
X110690256Y-78117205D01*
X110859774Y-78003937D01*
X111003937Y-77859774D01*
X111117205Y-77690256D01*
X111195226Y-77501898D01*
X111235000Y-77301939D01*
X111235000Y-77098061D01*
X111195226Y-76898102D01*
X111117205Y-76709744D01*
X111003937Y-76540226D01*
X110859774Y-76396063D01*
X110690256Y-76282795D01*
X110501898Y-76204774D01*
X110301939Y-76165000D01*
X110098061Y-76165000D01*
X109898102Y-76204774D01*
X109709744Y-76282795D01*
X109540226Y-76396063D01*
X109496289Y-76440000D01*
X109438072Y-76440000D01*
X109438072Y-76275000D01*
X109421008Y-76101746D01*
X109370472Y-75935150D01*
X109288405Y-75781614D01*
X109177962Y-75647038D01*
X109043386Y-75536595D01*
X108889850Y-75454528D01*
X108723254Y-75403992D01*
X108550000Y-75386928D01*
X107550000Y-75386928D01*
X107376746Y-75403992D01*
X107210150Y-75454528D01*
X107056614Y-75536595D01*
X106922038Y-75647038D01*
X106811595Y-75781614D01*
X106729528Y-75935150D01*
X106678992Y-76101746D01*
X106661928Y-76275000D01*
X106187208Y-76275000D01*
X106188072Y-76025000D01*
X106175812Y-75900518D01*
X106139502Y-75780820D01*
X106080537Y-75670506D01*
X106001185Y-75573815D01*
X105904494Y-75494463D01*
X105794180Y-75435498D01*
X105674482Y-75399188D01*
X105550000Y-75386928D01*
X105085750Y-75390000D01*
X104927000Y-75548750D01*
X104673000Y-75548750D01*
X104514250Y-75390000D01*
X104050000Y-75386928D01*
X103925518Y-75399188D01*
X103805820Y-75435498D01*
X103695506Y-75494463D01*
X103598815Y-75573815D01*
X103519463Y-75670506D01*
X103460498Y-75780820D01*
X103424188Y-75900518D01*
X103411928Y-76025000D01*
X103377000Y-76025000D01*
X103377000Y-68877000D01*
X139123000Y-68877000D01*
X139123000Y-102123000D01*
G04 #@! TA.AperFunction,Conductor*
D25*
G36*
X139123000Y-102123000D02*
G01*
X76877000Y-102123000D01*
X76877000Y-100900000D01*
X115111928Y-100900000D01*
X115124188Y-101024482D01*
X115160498Y-101144180D01*
X115219463Y-101254494D01*
X115298815Y-101351185D01*
X115395506Y-101430537D01*
X115505820Y-101489502D01*
X115625518Y-101525812D01*
X115750000Y-101538072D01*
X115914250Y-101535000D01*
X116073000Y-101376250D01*
X116073000Y-100627000D01*
X116327000Y-100627000D01*
X116327000Y-101376250D01*
X116485750Y-101535000D01*
X116650000Y-101538072D01*
X116774482Y-101525812D01*
X116894180Y-101489502D01*
X117004494Y-101430537D01*
X117101185Y-101351185D01*
X117180537Y-101254494D01*
X117239502Y-101144180D01*
X117275812Y-101024482D01*
X117288072Y-100900000D01*
X117285000Y-100785750D01*
X117126250Y-100627000D01*
X116327000Y-100627000D01*
X116073000Y-100627000D01*
X115273750Y-100627000D01*
X115115000Y-100785750D01*
X115111928Y-100900000D01*
X76877000Y-100900000D01*
X76877000Y-97599419D01*
X81885000Y-97599419D01*
X81885000Y-97980581D01*
X81959361Y-98354419D01*
X82105225Y-98706566D01*
X82316987Y-99023491D01*
X82586509Y-99293013D01*
X82903434Y-99504775D01*
X83255581Y-99650639D01*
X83629419Y-99725000D01*
X84010581Y-99725000D01*
X84384419Y-99650639D01*
X84736566Y-99504775D01*
X85053491Y-99293013D01*
X85323013Y-99023491D01*
X85534775Y-98706566D01*
X85680639Y-98354419D01*
X85755000Y-97980581D01*
X85755000Y-97599419D01*
X85691464Y-97280000D01*
X91041928Y-97280000D01*
X91041928Y-99320000D01*
X91054188Y-99444482D01*
X91090498Y-99564180D01*
X91149463Y-99674494D01*
X91228815Y-99771185D01*
X91325506Y-99850537D01*
X91435820Y-99909502D01*
X91555518Y-99945812D01*
X91680000Y-99958072D01*
X96280000Y-99958072D01*
X96404482Y-99945812D01*
X96524180Y-99909502D01*
X96634494Y-99850537D01*
X96731185Y-99771185D01*
X96810537Y-99674494D01*
X96869502Y-99564180D01*
X96905812Y-99444482D01*
X96918072Y-99320000D01*
X96918072Y-93720000D01*
X103261928Y-93720000D01*
X103261928Y-99320000D01*
X103274188Y-99444482D01*
X103310498Y-99564180D01*
X103369463Y-99674494D01*
X103448815Y-99771185D01*
X103545506Y-99850537D01*
X103655820Y-99909502D01*
X103775518Y-99945812D01*
X103900000Y-99958072D01*
X108500000Y-99958072D01*
X108624482Y-99945812D01*
X108744180Y-99909502D01*
X108854494Y-99850537D01*
X108951185Y-99771185D01*
X109030537Y-99674494D01*
X109089502Y-99564180D01*
X109125812Y-99444482D01*
X109138072Y-99320000D01*
X109138072Y-95691729D01*
X110439230Y-94390572D01*
X110727500Y-94390572D01*
X110898316Y-94373748D01*
X111062567Y-94323923D01*
X111213942Y-94243012D01*
X111346623Y-94134123D01*
X111455512Y-94001442D01*
X111536423Y-93850067D01*
X111586248Y-93685816D01*
X111603072Y-93515000D01*
X111603072Y-93015000D01*
X111586248Y-92844184D01*
X111536423Y-92679933D01*
X111455512Y-92528558D01*
X111346623Y-92395877D01*
X111293768Y-92352500D01*
X111346623Y-92309123D01*
X111436178Y-92200000D01*
X113722103Y-92200000D01*
X113698102Y-92204774D01*
X113509744Y-92282795D01*
X113340226Y-92396063D01*
X113196063Y-92540226D01*
X113082795Y-92709744D01*
X113004774Y-92898102D01*
X112965000Y-93098061D01*
X112965000Y-93301939D01*
X113004774Y-93501898D01*
X113082795Y-93690256D01*
X113196063Y-93859774D01*
X113340226Y-94003937D01*
X113509744Y-94117205D01*
X113698102Y-94195226D01*
X113898061Y-94235000D01*
X114101939Y-94235000D01*
X114301898Y-94195226D01*
X114490256Y-94117205D01*
X114651892Y-94009204D01*
X114713377Y-94084123D01*
X114846058Y-94193012D01*
X114997433Y-94273923D01*
X115161684Y-94323748D01*
X115332500Y-94340572D01*
X115807500Y-94340572D01*
X115978316Y-94323748D01*
X116142567Y-94273923D01*
X116293942Y-94193012D01*
X116426623Y-94084123D01*
X116535512Y-93951442D01*
X116616423Y-93800067D01*
X116666248Y-93635816D01*
X116683072Y-93465000D01*
X116683072Y-92865000D01*
X116666248Y-92694184D01*
X116616423Y-92529933D01*
X116535512Y-92378558D01*
X116473093Y-92302500D01*
X116535512Y-92226442D01*
X116616423Y-92075067D01*
X116666248Y-91910816D01*
X116683072Y-91740000D01*
X116683072Y-91140000D01*
X116666248Y-90969184D01*
X116616423Y-90804933D01*
X116535512Y-90653558D01*
X116426623Y-90520877D01*
X116330000Y-90441580D01*
X116330000Y-90291859D01*
X116388418Y-90323084D01*
X116536255Y-90367929D01*
X116690000Y-90383072D01*
X116990000Y-90383072D01*
X117143745Y-90367929D01*
X117291582Y-90323084D01*
X117427829Y-90250258D01*
X117475000Y-90211546D01*
X117522171Y-90250258D01*
X117658418Y-90323084D01*
X117806255Y-90367929D01*
X117960000Y-90383072D01*
X118260000Y-90383072D01*
X118413745Y-90367929D01*
X118561582Y-90323084D01*
X118620001Y-90291858D01*
X118620001Y-91367668D01*
X118616324Y-91405000D01*
X118620001Y-91442333D01*
X118629126Y-91534974D01*
X118630998Y-91553985D01*
X118649428Y-91614743D01*
X118649428Y-92037500D01*
X118666252Y-92208316D01*
X118716077Y-92372567D01*
X118796988Y-92523942D01*
X118905877Y-92656623D01*
X119015000Y-92746179D01*
X119015001Y-93449428D01*
X118962500Y-93449428D01*
X118791684Y-93466252D01*
X118627433Y-93516077D01*
X118476058Y-93596988D01*
X118343377Y-93705877D01*
X118234488Y-93838558D01*
X118153577Y-93989933D01*
X118103752Y-94154184D01*
X118086928Y-94325000D01*
X118086928Y-94825000D01*
X118103752Y-94995816D01*
X118153577Y-95160067D01*
X118234488Y-95311442D01*
X118343377Y-95444123D01*
X118396232Y-95487500D01*
X118343377Y-95530877D01*
X118242736Y-95653508D01*
X118107753Y-95694454D01*
X117975724Y-95765026D01*
X117859999Y-95859999D01*
X117836201Y-95888997D01*
X116163271Y-97561928D01*
X115750000Y-97561928D01*
X115625518Y-97574188D01*
X115505820Y-97610498D01*
X115395506Y-97669463D01*
X115298815Y-97748815D01*
X115219463Y-97845506D01*
X115160498Y-97955820D01*
X115124188Y-98075518D01*
X115111928Y-98200000D01*
X115111928Y-99000000D01*
X115124188Y-99124482D01*
X115160498Y-99244180D01*
X115219463Y-99354494D01*
X115298815Y-99451185D01*
X115395506Y-99530537D01*
X115431918Y-99550000D01*
X115395506Y-99569463D01*
X115298815Y-99648815D01*
X115219463Y-99745506D01*
X115160498Y-99855820D01*
X115124188Y-99975518D01*
X115111928Y-100100000D01*
X115115000Y-100214250D01*
X115273750Y-100373000D01*
X116073000Y-100373000D01*
X116073000Y-100353000D01*
X116327000Y-100353000D01*
X116327000Y-100373000D01*
X117126250Y-100373000D01*
X117210857Y-100288393D01*
X117219463Y-100304494D01*
X117298815Y-100401185D01*
X117395506Y-100480537D01*
X117505820Y-100539502D01*
X117625518Y-100575812D01*
X117750000Y-100588072D01*
X118650000Y-100588072D01*
X118774482Y-100575812D01*
X118894180Y-100539502D01*
X119004494Y-100480537D01*
X119101185Y-100401185D01*
X119176018Y-100310000D01*
X120812678Y-100310000D01*
X120850000Y-100313676D01*
X120887322Y-100310000D01*
X120887333Y-100310000D01*
X120998986Y-100299003D01*
X121142247Y-100255546D01*
X121268480Y-100188072D01*
X121700000Y-100188072D01*
X121824482Y-100175812D01*
X121944180Y-100139502D01*
X122054494Y-100080537D01*
X122151185Y-100001185D01*
X122230537Y-99904494D01*
X122250000Y-99868082D01*
X122269463Y-99904494D01*
X122348815Y-100001185D01*
X122445506Y-100080537D01*
X122555820Y-100139502D01*
X122675518Y-100175812D01*
X122800000Y-100188072D01*
X123600000Y-100188072D01*
X123724482Y-100175812D01*
X123844180Y-100139502D01*
X123954494Y-100080537D01*
X124051185Y-100001185D01*
X124130537Y-99904494D01*
X124146741Y-99874179D01*
X124154528Y-99899850D01*
X124236595Y-100053386D01*
X124347038Y-100187962D01*
X124481614Y-100298405D01*
X124635150Y-100380472D01*
X124801746Y-100431008D01*
X124975000Y-100448072D01*
X126825000Y-100448072D01*
X126998254Y-100431008D01*
X127164850Y-100380472D01*
X127318386Y-100298405D01*
X127452962Y-100187962D01*
X127563405Y-100053386D01*
X127645472Y-99899850D01*
X127669694Y-99820000D01*
X127964266Y-99820000D01*
X128109744Y-99917205D01*
X128298102Y-99995226D01*
X128498061Y-100035000D01*
X128701939Y-100035000D01*
X128901898Y-99995226D01*
X129090256Y-99917205D01*
X129259774Y-99803937D01*
X129403937Y-99659774D01*
X129517205Y-99490256D01*
X129595226Y-99301898D01*
X129635000Y-99101939D01*
X129635000Y-98898061D01*
X129595226Y-98698102D01*
X129517205Y-98509744D01*
X129403937Y-98340226D01*
X129259774Y-98196063D01*
X129090256Y-98082795D01*
X128901898Y-98004774D01*
X128701939Y-97965000D01*
X128498061Y-97965000D01*
X128298102Y-98004774D01*
X128109744Y-98082795D01*
X127940226Y-98196063D01*
X127836289Y-98300000D01*
X127669694Y-98300000D01*
X127645472Y-98220150D01*
X127563405Y-98066614D01*
X127452962Y-97932038D01*
X127318386Y-97821595D01*
X127164850Y-97739528D01*
X126998254Y-97688992D01*
X126825000Y-97671928D01*
X124975000Y-97671928D01*
X124801746Y-97688992D01*
X124635150Y-97739528D01*
X124481614Y-97821595D01*
X124347038Y-97932038D01*
X124236595Y-98066614D01*
X124154528Y-98220150D01*
X124131259Y-98296857D01*
X124130537Y-98295506D01*
X124051185Y-98198815D01*
X123954494Y-98119463D01*
X123844180Y-98060498D01*
X123724482Y-98024188D01*
X123600000Y-98011928D01*
X123088095Y-98011928D01*
X123101185Y-98001185D01*
X123180537Y-97904494D01*
X123239502Y-97794180D01*
X123275812Y-97674482D01*
X123288072Y-97550000D01*
X123288072Y-97136730D01*
X123854803Y-96570000D01*
X124130306Y-96570000D01*
X124154528Y-96649850D01*
X124236595Y-96803386D01*
X124347038Y-96937962D01*
X124481614Y-97048405D01*
X124635150Y-97130472D01*
X124801746Y-97181008D01*
X124975000Y-97198072D01*
X126825000Y-97198072D01*
X126998254Y-97181008D01*
X127164850Y-97130472D01*
X127318386Y-97048405D01*
X127452962Y-96937962D01*
X127563405Y-96803386D01*
X127645472Y-96649850D01*
X127696008Y-96483254D01*
X127713072Y-96310000D01*
X127713072Y-95310000D01*
X127696008Y-95136746D01*
X127645472Y-94970150D01*
X127563405Y-94816614D01*
X127452962Y-94682038D01*
X127318386Y-94571595D01*
X127164850Y-94489528D01*
X126998254Y-94438992D01*
X126825000Y-94421928D01*
X126685000Y-94421928D01*
X126685000Y-93646178D01*
X126794123Y-93556623D01*
X126903012Y-93423942D01*
X126983923Y-93272567D01*
X127033748Y-93108316D01*
X127050572Y-92937500D01*
X127050572Y-92462500D01*
X127033748Y-92291684D01*
X126983923Y-92127433D01*
X126903012Y-91976058D01*
X126794123Y-91843377D01*
X126692528Y-91760000D01*
X127185199Y-91760000D01*
X128240000Y-92814802D01*
X128240001Y-93462668D01*
X128236324Y-93500000D01*
X128240001Y-93537333D01*
X128244703Y-93585067D01*
X128250998Y-93648985D01*
X128294454Y-93792246D01*
X128365026Y-93924276D01*
X128418910Y-93989933D01*
X128460000Y-94040001D01*
X128488998Y-94063799D01*
X130240000Y-95814802D01*
X130240001Y-98962657D01*
X130236323Y-99000000D01*
X130250997Y-99148986D01*
X130294454Y-99292247D01*
X130365026Y-99424276D01*
X130459999Y-99540001D01*
X130575724Y-99634974D01*
X130707753Y-99705546D01*
X130851014Y-99749003D01*
X130962667Y-99760000D01*
X131000000Y-99763677D01*
X131037333Y-99760000D01*
X131070335Y-99760000D01*
X131099463Y-99814494D01*
X131178815Y-99911185D01*
X131275506Y-99990537D01*
X131385820Y-100049502D01*
X131505518Y-100085812D01*
X131630000Y-100098072D01*
X132530000Y-100098072D01*
X132654482Y-100085812D01*
X132774180Y-100049502D01*
X132884494Y-99990537D01*
X132981185Y-99911185D01*
X133060537Y-99814494D01*
X133119502Y-99704180D01*
X133155812Y-99584482D01*
X133168072Y-99460000D01*
X133168072Y-98948095D01*
X133178815Y-98961185D01*
X133275506Y-99040537D01*
X133385820Y-99099502D01*
X133505518Y-99135812D01*
X133630000Y-99148072D01*
X134530000Y-99148072D01*
X134654482Y-99135812D01*
X134774180Y-99099502D01*
X134884494Y-99040537D01*
X134981185Y-98961185D01*
X135060537Y-98864494D01*
X135119502Y-98754180D01*
X135155812Y-98634482D01*
X135168072Y-98510000D01*
X135168072Y-97710000D01*
X135155812Y-97585518D01*
X135119502Y-97465820D01*
X135060537Y-97355506D01*
X134981185Y-97258815D01*
X134884494Y-97179463D01*
X134840000Y-97155680D01*
X134840000Y-96117322D01*
X134843676Y-96079999D01*
X134840000Y-96042676D01*
X134840000Y-96042667D01*
X134829003Y-95931014D01*
X134785546Y-95787753D01*
X134714974Y-95655724D01*
X134620001Y-95539999D01*
X134591003Y-95516201D01*
X132895974Y-93821173D01*
X132965512Y-93736442D01*
X133046423Y-93585067D01*
X133096248Y-93420816D01*
X133113072Y-93250000D01*
X133113072Y-92750000D01*
X133096248Y-92579184D01*
X133046423Y-92414933D01*
X132965512Y-92263558D01*
X132856623Y-92130877D01*
X132803768Y-92087500D01*
X132856623Y-92044123D01*
X132965512Y-91911442D01*
X133046423Y-91760067D01*
X133096248Y-91595816D01*
X133113072Y-91425000D01*
X133113072Y-90925000D01*
X133096248Y-90754184D01*
X133046423Y-90589933D01*
X132965512Y-90438558D01*
X132856623Y-90305877D01*
X132723942Y-90196988D01*
X132572567Y-90116077D01*
X132408316Y-90066252D01*
X132237500Y-90049428D01*
X131949230Y-90049428D01*
X131570000Y-89670199D01*
X131570000Y-89399694D01*
X131649850Y-89375472D01*
X131803386Y-89293405D01*
X131937962Y-89182962D01*
X132048405Y-89048386D01*
X132130472Y-88894850D01*
X132181008Y-88728254D01*
X132198072Y-88555000D01*
X132198072Y-86705000D01*
X132181008Y-86531746D01*
X132130472Y-86365150D01*
X132048405Y-86211614D01*
X131937962Y-86077038D01*
X131803386Y-85966595D01*
X131649850Y-85884528D01*
X131570000Y-85860306D01*
X131570000Y-85860000D01*
X131726580Y-85860000D01*
X131805877Y-85956623D01*
X131938558Y-86065512D01*
X132089933Y-86146423D01*
X132254184Y-86196248D01*
X132425000Y-86213072D01*
X132925000Y-86213072D01*
X133095816Y-86196248D01*
X133260067Y-86146423D01*
X133411442Y-86065512D01*
X133544123Y-85956623D01*
X133587500Y-85903768D01*
X133630877Y-85956623D01*
X133763558Y-86065512D01*
X133840001Y-86106371D01*
X133840000Y-86926580D01*
X133743377Y-87005877D01*
X133634488Y-87138558D01*
X133553577Y-87289933D01*
X133503752Y-87454184D01*
X133486928Y-87625000D01*
X133486928Y-88125000D01*
X133503752Y-88295816D01*
X133553577Y-88460067D01*
X133634488Y-88611442D01*
X133743377Y-88744123D01*
X133796232Y-88787500D01*
X133743377Y-88830877D01*
X133634488Y-88963558D01*
X133553577Y-89114933D01*
X133503752Y-89279184D01*
X133486928Y-89450000D01*
X133486928Y-89950000D01*
X133503752Y-90120816D01*
X133553577Y-90285067D01*
X133634488Y-90436442D01*
X133743377Y-90569123D01*
X133840001Y-90648420D01*
X133840000Y-91495680D01*
X133795506Y-91519463D01*
X133698815Y-91598815D01*
X133619463Y-91695506D01*
X133560498Y-91805820D01*
X133524188Y-91925518D01*
X133511928Y-92050000D01*
X133511928Y-92850000D01*
X133524188Y-92974482D01*
X133560498Y-93094180D01*
X133619463Y-93204494D01*
X133698815Y-93301185D01*
X133795506Y-93380537D01*
X133905820Y-93439502D01*
X134025518Y-93475812D01*
X134150000Y-93488072D01*
X135050000Y-93488072D01*
X135174482Y-93475812D01*
X135294180Y-93439502D01*
X135404494Y-93380537D01*
X135460101Y-93334902D01*
X135511928Y-93386729D01*
X135511928Y-93800000D01*
X135524188Y-93924482D01*
X135560498Y-94044180D01*
X135619463Y-94154494D01*
X135698815Y-94251185D01*
X135795506Y-94330537D01*
X135905820Y-94389502D01*
X136025518Y-94425812D01*
X136150000Y-94438072D01*
X137050000Y-94438072D01*
X137174482Y-94425812D01*
X137294180Y-94389502D01*
X137404494Y-94330537D01*
X137501185Y-94251185D01*
X137580537Y-94154494D01*
X137639502Y-94044180D01*
X137675812Y-93924482D01*
X137688072Y-93800000D01*
X137688072Y-93000000D01*
X137675812Y-92875518D01*
X137639502Y-92755820D01*
X137580537Y-92645506D01*
X137501185Y-92548815D01*
X137404494Y-92469463D01*
X137368082Y-92450000D01*
X137404494Y-92430537D01*
X137501185Y-92351185D01*
X137580537Y-92254494D01*
X137639502Y-92144180D01*
X137675812Y-92024482D01*
X137688072Y-91900000D01*
X137688072Y-91486730D01*
X138011004Y-91163798D01*
X138040001Y-91140001D01*
X138134974Y-91024276D01*
X138205546Y-90892247D01*
X138249003Y-90748986D01*
X138260000Y-90637333D01*
X138260000Y-90637324D01*
X138263676Y-90600001D01*
X138260000Y-90562678D01*
X138260000Y-89303711D01*
X138303937Y-89259774D01*
X138417205Y-89090256D01*
X138495226Y-88901898D01*
X138535000Y-88701939D01*
X138535000Y-88498061D01*
X138495226Y-88298102D01*
X138417205Y-88109744D01*
X138303937Y-87940226D01*
X138159774Y-87796063D01*
X137990256Y-87682795D01*
X137801898Y-87604774D01*
X137601939Y-87565000D01*
X137398061Y-87565000D01*
X137377102Y-87569169D01*
X137465512Y-87461442D01*
X137546423Y-87310067D01*
X137596248Y-87145816D01*
X137613072Y-86975000D01*
X137613072Y-86475000D01*
X137596248Y-86304184D01*
X137546423Y-86139933D01*
X137465512Y-85988558D01*
X137356623Y-85855877D01*
X137303768Y-85812500D01*
X137356623Y-85769123D01*
X137465512Y-85636442D01*
X137546423Y-85485067D01*
X137596248Y-85320816D01*
X137613072Y-85150000D01*
X137613072Y-84650000D01*
X137596248Y-84479184D01*
X137546423Y-84314933D01*
X137465512Y-84163558D01*
X137356623Y-84030877D01*
X137258812Y-83950605D01*
X137249003Y-83851014D01*
X137205546Y-83707753D01*
X137134974Y-83575724D01*
X137063799Y-83488997D01*
X137040001Y-83459999D01*
X137011003Y-83436201D01*
X136222873Y-82648072D01*
X137890000Y-82648072D01*
X138014482Y-82635812D01*
X138134180Y-82599502D01*
X138244494Y-82540537D01*
X138341185Y-82461185D01*
X138420537Y-82364494D01*
X138479502Y-82254180D01*
X138515812Y-82134482D01*
X138528072Y-82010000D01*
X138528072Y-78010000D01*
X138515812Y-77885518D01*
X138479502Y-77765820D01*
X138420537Y-77655506D01*
X138341185Y-77558815D01*
X138244494Y-77479463D01*
X138134180Y-77420498D01*
X138014482Y-77384188D01*
X137890000Y-77371928D01*
X133890000Y-77371928D01*
X133765518Y-77384188D01*
X133645820Y-77420498D01*
X133535506Y-77479463D01*
X133438815Y-77558815D01*
X133359463Y-77655506D01*
X133300498Y-77765820D01*
X133264188Y-77885518D01*
X133251928Y-78010000D01*
X133251928Y-79250000D01*
X133056018Y-79250000D01*
X132981185Y-79158815D01*
X132884494Y-79079463D01*
X132774180Y-79020498D01*
X132654482Y-78984188D01*
X132530000Y-78971928D01*
X131630000Y-78971928D01*
X131505518Y-78984188D01*
X131385820Y-79020498D01*
X131275506Y-79079463D01*
X131178815Y-79158815D01*
X131168072Y-79171905D01*
X131168072Y-78660000D01*
X131155812Y-78535518D01*
X131119502Y-78415820D01*
X131060537Y-78305506D01*
X130981185Y-78208815D01*
X130884494Y-78129463D01*
X130774180Y-78070498D01*
X130654482Y-78034188D01*
X130530000Y-78021928D01*
X129630000Y-78021928D01*
X129505518Y-78034188D01*
X129385820Y-78070498D01*
X129275506Y-78129463D01*
X129260000Y-78142188D01*
X129260000Y-74378072D01*
X129990000Y-74378072D01*
X130114482Y-74365812D01*
X130234180Y-74329502D01*
X130344494Y-74270537D01*
X130441185Y-74191185D01*
X130516018Y-74100000D01*
X131141978Y-74100000D01*
X131162795Y-74150256D01*
X131276063Y-74319774D01*
X131420226Y-74463937D01*
X131589744Y-74577205D01*
X131778102Y-74655226D01*
X131978061Y-74695000D01*
X132181939Y-74695000D01*
X132381898Y-74655226D01*
X132570256Y-74577205D01*
X132739774Y-74463937D01*
X132883937Y-74319774D01*
X132997205Y-74150256D01*
X133075226Y-73961898D01*
X133115000Y-73761939D01*
X133115000Y-73558061D01*
X133075226Y-73358102D01*
X132997205Y-73169744D01*
X132984013Y-73150000D01*
X133251928Y-73150000D01*
X133251928Y-74390000D01*
X133264188Y-74514482D01*
X133300498Y-74634180D01*
X133359463Y-74744494D01*
X133438815Y-74841185D01*
X133535506Y-74920537D01*
X133645820Y-74979502D01*
X133765518Y-75015812D01*
X133890000Y-75028072D01*
X137890000Y-75028072D01*
X138014482Y-75015812D01*
X138134180Y-74979502D01*
X138244494Y-74920537D01*
X138341185Y-74841185D01*
X138420537Y-74744494D01*
X138479502Y-74634180D01*
X138515812Y-74514482D01*
X138528072Y-74390000D01*
X138528072Y-70390000D01*
X138515812Y-70265518D01*
X138479502Y-70145820D01*
X138420537Y-70035506D01*
X138341185Y-69938815D01*
X138244494Y-69859463D01*
X138134180Y-69800498D01*
X138014482Y-69764188D01*
X137890000Y-69751928D01*
X133890000Y-69751928D01*
X133765518Y-69764188D01*
X133645820Y-69800498D01*
X133535506Y-69859463D01*
X133438815Y-69938815D01*
X133359463Y-70035506D01*
X133300498Y-70145820D01*
X133264188Y-70265518D01*
X133251928Y-70390000D01*
X133251928Y-71630000D01*
X132516018Y-71630000D01*
X132441185Y-71538815D01*
X132344494Y-71459463D01*
X132234180Y-71400498D01*
X132114482Y-71364188D01*
X131990000Y-71351928D01*
X131090000Y-71351928D01*
X130965518Y-71364188D01*
X130845820Y-71400498D01*
X130735506Y-71459463D01*
X130638815Y-71538815D01*
X130628072Y-71551905D01*
X130628072Y-71040000D01*
X130615812Y-70915518D01*
X130579502Y-70795820D01*
X130520537Y-70685506D01*
X130441185Y-70588815D01*
X130344494Y-70509463D01*
X130234180Y-70450498D01*
X130114482Y-70414188D01*
X129990000Y-70401928D01*
X129090000Y-70401928D01*
X128965518Y-70414188D01*
X128845820Y-70450498D01*
X128735506Y-70509463D01*
X128638815Y-70588815D01*
X128559463Y-70685506D01*
X128500498Y-70795820D01*
X128464188Y-70915518D01*
X128451928Y-71040000D01*
X128451928Y-71453271D01*
X127988998Y-71916201D01*
X127960000Y-71939999D01*
X127936202Y-71968997D01*
X127936201Y-71968998D01*
X127865026Y-72055724D01*
X127794454Y-72187754D01*
X127767770Y-72275724D01*
X127757373Y-72310000D01*
X127750998Y-72331015D01*
X127736324Y-72480000D01*
X127740001Y-72517332D01*
X127740001Y-74021337D01*
X127705546Y-73907753D01*
X127634974Y-73775724D01*
X127548072Y-73669834D01*
X127548072Y-73260000D01*
X127535812Y-73135518D01*
X127499502Y-73015820D01*
X127440537Y-72905506D01*
X127361185Y-72808815D01*
X127264494Y-72729463D01*
X127228082Y-72710000D01*
X127264494Y-72690537D01*
X127361185Y-72611185D01*
X127440537Y-72514494D01*
X127499502Y-72404180D01*
X127535812Y-72284482D01*
X127548072Y-72160000D01*
X127548072Y-71746730D01*
X128011003Y-71283799D01*
X128040001Y-71260001D01*
X128132120Y-71147754D01*
X128134974Y-71144277D01*
X128205546Y-71012247D01*
X128207323Y-71006388D01*
X128303937Y-70909774D01*
X128417205Y-70740256D01*
X128495226Y-70551898D01*
X128535000Y-70351939D01*
X128535000Y-70148061D01*
X128495226Y-69948102D01*
X128417205Y-69759744D01*
X128303937Y-69590226D01*
X128159774Y-69446063D01*
X127990256Y-69332795D01*
X127801898Y-69254774D01*
X127601939Y-69215000D01*
X127398061Y-69215000D01*
X127198102Y-69254774D01*
X127009744Y-69332795D01*
X126840226Y-69446063D01*
X126696063Y-69590226D01*
X126582795Y-69759744D01*
X126504774Y-69948102D01*
X126465000Y-70148061D01*
X126465000Y-70351939D01*
X126504774Y-70551898D01*
X126530703Y-70614495D01*
X126423271Y-70721928D01*
X126010000Y-70721928D01*
X125885518Y-70734188D01*
X125765820Y-70770498D01*
X125655506Y-70829463D01*
X125558815Y-70908815D01*
X125479463Y-71005506D01*
X125420498Y-71115820D01*
X125384188Y-71235518D01*
X125371928Y-71360000D01*
X125371928Y-71871905D01*
X125361185Y-71858815D01*
X125264494Y-71779463D01*
X125154180Y-71720498D01*
X125034482Y-71684188D01*
X124910000Y-71671928D01*
X124010000Y-71671928D01*
X123885518Y-71684188D01*
X123765820Y-71720498D01*
X123655506Y-71779463D01*
X123635875Y-71795574D01*
X123561442Y-71734488D01*
X123410067Y-71653577D01*
X123245816Y-71603752D01*
X123075000Y-71586928D01*
X122575000Y-71586928D01*
X122404184Y-71603752D01*
X122239933Y-71653577D01*
X122088558Y-71734488D01*
X121955877Y-71843377D01*
X121912500Y-71896232D01*
X121869123Y-71843377D01*
X121736442Y-71734488D01*
X121585067Y-71653577D01*
X121420816Y-71603752D01*
X121250000Y-71586928D01*
X120750000Y-71586928D01*
X120579184Y-71603752D01*
X120414933Y-71653577D01*
X120263558Y-71734488D01*
X120130877Y-71843377D01*
X120021988Y-71976058D01*
X119941077Y-72127433D01*
X119891252Y-72291684D01*
X119874428Y-72462500D01*
X119874428Y-72937500D01*
X119891252Y-73108316D01*
X119941077Y-73272567D01*
X120021988Y-73423942D01*
X120130877Y-73556623D01*
X120240000Y-73646179D01*
X120240001Y-75237659D01*
X120174528Y-75360150D01*
X120150306Y-75440000D01*
X119837322Y-75440000D01*
X119799999Y-75436324D01*
X119762676Y-75440000D01*
X119762667Y-75440000D01*
X119651014Y-75450997D01*
X119507753Y-75494454D01*
X119375724Y-75565026D01*
X119259999Y-75659999D01*
X119236199Y-75689000D01*
X118988998Y-75936201D01*
X118960000Y-75959999D01*
X118936202Y-75988997D01*
X118936201Y-75988998D01*
X118865026Y-76075724D01*
X118794454Y-76207754D01*
X118764180Y-76307558D01*
X118751614Y-76348985D01*
X118750998Y-76351015D01*
X118736324Y-76500000D01*
X118740001Y-76537332D01*
X118740000Y-77685198D01*
X118704836Y-77720362D01*
X118684482Y-77714188D01*
X118560000Y-77701928D01*
X117660000Y-77701928D01*
X117535518Y-77714188D01*
X117415820Y-77750498D01*
X117305506Y-77809463D01*
X117208815Y-77888815D01*
X117198072Y-77901905D01*
X117198072Y-77390000D01*
X117185812Y-77265518D01*
X117149502Y-77145820D01*
X117090537Y-77035506D01*
X117011185Y-76938815D01*
X116914494Y-76859463D01*
X116804180Y-76800498D01*
X116684482Y-76764188D01*
X116560000Y-76751928D01*
X116146729Y-76751928D01*
X115858803Y-76464002D01*
X115835001Y-76434999D01*
X115719276Y-76340026D01*
X115587247Y-76269454D01*
X115443986Y-76225997D01*
X115332333Y-76215000D01*
X115332322Y-76215000D01*
X115295000Y-76211324D01*
X115257678Y-76215000D01*
X113946178Y-76215000D01*
X113856623Y-76105877D01*
X113723942Y-75996988D01*
X113572567Y-75916077D01*
X113408316Y-75866252D01*
X113237500Y-75849428D01*
X112762500Y-75849428D01*
X112591684Y-75866252D01*
X112427433Y-75916077D01*
X112276058Y-75996988D01*
X112143377Y-76105877D01*
X112034488Y-76238558D01*
X111953577Y-76389933D01*
X111903752Y-76554184D01*
X111886928Y-76725000D01*
X111886928Y-77225000D01*
X111903752Y-77395816D01*
X111953577Y-77560067D01*
X112034488Y-77711442D01*
X112143377Y-77844123D01*
X112196232Y-77887500D01*
X112143377Y-77930877D01*
X112034488Y-78063558D01*
X111953577Y-78214933D01*
X111903752Y-78379184D01*
X111886928Y-78550000D01*
X111886928Y-79050000D01*
X111903752Y-79220816D01*
X111953577Y-79385067D01*
X112034488Y-79536442D01*
X112143377Y-79669123D01*
X112265001Y-79768937D01*
X112265000Y-80853821D01*
X112155877Y-80943377D01*
X112112500Y-80996232D01*
X112069123Y-80943377D01*
X111936442Y-80834488D01*
X111785067Y-80753577D01*
X111620816Y-80703752D01*
X111450000Y-80686928D01*
X110950000Y-80686928D01*
X110779184Y-80703752D01*
X110614933Y-80753577D01*
X110463558Y-80834488D01*
X110330877Y-80943377D01*
X110251580Y-81040000D01*
X109771159Y-81040000D01*
X109717205Y-80909744D01*
X109603937Y-80740226D01*
X109459774Y-80596063D01*
X109290256Y-80482795D01*
X109101898Y-80404774D01*
X108901939Y-80365000D01*
X108698061Y-80365000D01*
X108498102Y-80404774D01*
X108309744Y-80482795D01*
X108179232Y-80570000D01*
X107828072Y-80570000D01*
X107828072Y-80330000D01*
X107815812Y-80205518D01*
X107779502Y-80085820D01*
X107720537Y-79975506D01*
X107641185Y-79878815D01*
X107544494Y-79799463D01*
X107434180Y-79740498D01*
X107314482Y-79704188D01*
X107190000Y-79691928D01*
X105690000Y-79691928D01*
X105565518Y-79704188D01*
X105445820Y-79740498D01*
X105335506Y-79799463D01*
X105290000Y-79836809D01*
X105244494Y-79799463D01*
X105134180Y-79740498D01*
X105014482Y-79704188D01*
X104890000Y-79691928D01*
X104425750Y-79695000D01*
X104267000Y-79853750D01*
X104267000Y-81203000D01*
X104287000Y-81203000D01*
X104287000Y-81457000D01*
X104267000Y-81457000D01*
X104267000Y-82806250D01*
X104425750Y-82965000D01*
X104890000Y-82968072D01*
X105014482Y-82955812D01*
X105134180Y-82919502D01*
X105244494Y-82860537D01*
X105290000Y-82823191D01*
X105335506Y-82860537D01*
X105445820Y-82919502D01*
X105565518Y-82955812D01*
X105690000Y-82968072D01*
X107190000Y-82968072D01*
X107314482Y-82955812D01*
X107434180Y-82919502D01*
X107544494Y-82860537D01*
X107641185Y-82781185D01*
X107720537Y-82684494D01*
X107779502Y-82574180D01*
X107815812Y-82454482D01*
X107828072Y-82330000D01*
X107828072Y-82090000D01*
X108026289Y-82090000D01*
X108140226Y-82203937D01*
X108309744Y-82317205D01*
X108498102Y-82395226D01*
X108698061Y-82435000D01*
X108775774Y-82435000D01*
X108907752Y-82505545D01*
X109051013Y-82549001D01*
X109199998Y-82563675D01*
X109237330Y-82559998D01*
X110251579Y-82559999D01*
X110330877Y-82656623D01*
X110463558Y-82765512D01*
X110614933Y-82846423D01*
X110779184Y-82896248D01*
X110950000Y-82913072D01*
X111450000Y-82913072D01*
X111620816Y-82896248D01*
X111785067Y-82846423D01*
X111936442Y-82765512D01*
X112069123Y-82656623D01*
X112112500Y-82603768D01*
X112155877Y-82656623D01*
X112288558Y-82765512D01*
X112439933Y-82846423D01*
X112604184Y-82896248D01*
X112775000Y-82913072D01*
X113275000Y-82913072D01*
X113445816Y-82896248D01*
X113610067Y-82846423D01*
X113761442Y-82765512D01*
X113894123Y-82656623D01*
X113973420Y-82560000D01*
X114702317Y-82560000D01*
X114680498Y-82600820D01*
X114644188Y-82720518D01*
X114631928Y-82845000D01*
X114635000Y-83534250D01*
X114793750Y-83693000D01*
X115443000Y-83693000D01*
X115443000Y-83673000D01*
X115454991Y-83673000D01*
X115454990Y-83967000D01*
X115443000Y-83967000D01*
X115443000Y-83947000D01*
X114793750Y-83947000D01*
X114635000Y-84105750D01*
X114631928Y-84795000D01*
X114644188Y-84919482D01*
X114680498Y-85039180D01*
X114739463Y-85149494D01*
X114818815Y-85246185D01*
X114915506Y-85325537D01*
X115025820Y-85384502D01*
X115145518Y-85420812D01*
X115270000Y-85433072D01*
X115284250Y-85430000D01*
X115442998Y-85271252D01*
X115442998Y-85430000D01*
X115486015Y-85430000D01*
X115496632Y-85465000D01*
X115509444Y-85507236D01*
X115580016Y-85639266D01*
X115607346Y-85672567D01*
X115674989Y-85754991D01*
X115703992Y-85778793D01*
X116236200Y-86311002D01*
X116259999Y-86340001D01*
X116288997Y-86363799D01*
X116375723Y-86434974D01*
X116450606Y-86475000D01*
X116507753Y-86505546D01*
X116651014Y-86549003D01*
X116762667Y-86560000D01*
X116762676Y-86560000D01*
X116799999Y-86563676D01*
X116837322Y-86560000D01*
X117562678Y-86560000D01*
X117600000Y-86563676D01*
X117637322Y-86560000D01*
X117637333Y-86560000D01*
X117748986Y-86549003D01*
X117892247Y-86505546D01*
X118024276Y-86434974D01*
X118140001Y-86340001D01*
X118163804Y-86310997D01*
X118214801Y-86260000D01*
X119742462Y-86260000D01*
X119715000Y-86398061D01*
X119715000Y-86601939D01*
X119754774Y-86801898D01*
X119832795Y-86990256D01*
X119946063Y-87159774D01*
X120071203Y-87284914D01*
X120062171Y-87289742D01*
X120015000Y-87328454D01*
X119967829Y-87289742D01*
X119831582Y-87216916D01*
X119683745Y-87172071D01*
X119530000Y-87156928D01*
X119230000Y-87156928D01*
X119076255Y-87172071D01*
X118928418Y-87216916D01*
X118792171Y-87289742D01*
X118745000Y-87328454D01*
X118697829Y-87289742D01*
X118561582Y-87216916D01*
X118413745Y-87172071D01*
X118260000Y-87156928D01*
X117960000Y-87156928D01*
X117806255Y-87172071D01*
X117658418Y-87216916D01*
X117522171Y-87289742D01*
X117475000Y-87328454D01*
X117427829Y-87289742D01*
X117291582Y-87216916D01*
X117143745Y-87172071D01*
X116990000Y-87156928D01*
X116690000Y-87156928D01*
X116536255Y-87172071D01*
X116388418Y-87216916D01*
X116252171Y-87289742D01*
X116205000Y-87328454D01*
X116157829Y-87289742D01*
X116021582Y-87216916D01*
X115873745Y-87172071D01*
X115720000Y-87156928D01*
X115420000Y-87156928D01*
X115266255Y-87172071D01*
X115118418Y-87216916D01*
X114982171Y-87289742D01*
X114862749Y-87387749D01*
X114764742Y-87507171D01*
X114691916Y-87643418D01*
X114647071Y-87791255D01*
X114631928Y-87945000D01*
X114631928Y-88510639D01*
X114590256Y-88482795D01*
X114401898Y-88404774D01*
X114201939Y-88365000D01*
X113998061Y-88365000D01*
X113798102Y-88404774D01*
X113662145Y-88461090D01*
X113664502Y-88456680D01*
X113700812Y-88336982D01*
X113713072Y-88212500D01*
X113710000Y-87960750D01*
X113551250Y-87802000D01*
X112727000Y-87802000D01*
X112727000Y-87822000D01*
X112473000Y-87822000D01*
X112473000Y-87802000D01*
X111648750Y-87802000D01*
X111490000Y-87960750D01*
X111486928Y-88212500D01*
X111499188Y-88336982D01*
X111535498Y-88456680D01*
X111594463Y-88566994D01*
X111633774Y-88614894D01*
X111553577Y-88764933D01*
X111503752Y-88929184D01*
X111486928Y-89100000D01*
X111486928Y-89700000D01*
X111503752Y-89870816D01*
X111553577Y-90035067D01*
X111634488Y-90186442D01*
X111743377Y-90319123D01*
X111876058Y-90428012D01*
X112027433Y-90508923D01*
X112191684Y-90558748D01*
X112362500Y-90575572D01*
X112837500Y-90575572D01*
X113008316Y-90558748D01*
X113172567Y-90508923D01*
X113323942Y-90428012D01*
X113456623Y-90319123D01*
X113511868Y-90251807D01*
X113609744Y-90317205D01*
X113798102Y-90395226D01*
X113998061Y-90435000D01*
X114201939Y-90435000D01*
X114401898Y-90395226D01*
X114590256Y-90317205D01*
X114759774Y-90203937D01*
X114810000Y-90153711D01*
X114810000Y-90441580D01*
X114713377Y-90520877D01*
X114604488Y-90653558D01*
X114590355Y-90680000D01*
X111436178Y-90680000D01*
X111346623Y-90570877D01*
X111213942Y-90461988D01*
X111062567Y-90381077D01*
X110898316Y-90331252D01*
X110727500Y-90314428D01*
X110434473Y-90314428D01*
X110374276Y-90265026D01*
X110242247Y-90194454D01*
X110098986Y-90150997D01*
X109987333Y-90140000D01*
X109987322Y-90140000D01*
X109950000Y-90136324D01*
X109912678Y-90140000D01*
X109273420Y-90140000D01*
X109194123Y-90043377D01*
X109061442Y-89934488D01*
X108910067Y-89853577D01*
X108745816Y-89803752D01*
X108575000Y-89786928D01*
X108075000Y-89786928D01*
X107904184Y-89803752D01*
X107739933Y-89853577D01*
X107588558Y-89934488D01*
X107479717Y-90023812D01*
X107438685Y-89973815D01*
X107341994Y-89894463D01*
X107231680Y-89835498D01*
X107111982Y-89799188D01*
X106987500Y-89786928D01*
X106785750Y-89790000D01*
X106627000Y-89948750D01*
X106627000Y-90773000D01*
X106647000Y-90773000D01*
X106647000Y-91027000D01*
X106627000Y-91027000D01*
X106627000Y-91851250D01*
X106785750Y-92010000D01*
X106987500Y-92013072D01*
X107111982Y-92000812D01*
X107231680Y-91964502D01*
X107341994Y-91905537D01*
X107438685Y-91826185D01*
X107479717Y-91776188D01*
X107588558Y-91865512D01*
X107739933Y-91946423D01*
X107904184Y-91996248D01*
X108075000Y-92013072D01*
X108575000Y-92013072D01*
X108745816Y-91996248D01*
X108910067Y-91946423D01*
X109061442Y-91865512D01*
X109194123Y-91756623D01*
X109273420Y-91660000D01*
X109376928Y-91660000D01*
X109376928Y-91690000D01*
X109393752Y-91860816D01*
X109443577Y-92025067D01*
X109524488Y-92176442D01*
X109633377Y-92309123D01*
X109686232Y-92352500D01*
X109633377Y-92395877D01*
X109524488Y-92528558D01*
X109443577Y-92679933D01*
X109393752Y-92844184D01*
X109376928Y-93015000D01*
X109376928Y-93303270D01*
X109116239Y-93563959D01*
X109089502Y-93475820D01*
X109030537Y-93365506D01*
X108951185Y-93268815D01*
X108854494Y-93189463D01*
X108744180Y-93130498D01*
X108624482Y-93094188D01*
X108500000Y-93081928D01*
X103900000Y-93081928D01*
X103775518Y-93094188D01*
X103655820Y-93130498D01*
X103545506Y-93189463D01*
X103448815Y-93268815D01*
X103369463Y-93365506D01*
X103310498Y-93475820D01*
X103274188Y-93595518D01*
X103261928Y-93720000D01*
X96918072Y-93720000D01*
X96905812Y-93595518D01*
X96869502Y-93475820D01*
X96810537Y-93365506D01*
X96731185Y-93268815D01*
X96634494Y-93189463D01*
X96524180Y-93130498D01*
X96404482Y-93094188D01*
X96280000Y-93081928D01*
X91680000Y-93081928D01*
X91555518Y-93094188D01*
X91435820Y-93130498D01*
X91325506Y-93189463D01*
X91228815Y-93268815D01*
X91149463Y-93365506D01*
X91090498Y-93475820D01*
X91054188Y-93595518D01*
X91041928Y-93720000D01*
X91041928Y-95760000D01*
X85127322Y-95760000D01*
X85089999Y-95756324D01*
X85052676Y-95760000D01*
X85052667Y-95760000D01*
X84941014Y-95770997D01*
X84797753Y-95814454D01*
X84665724Y-95885026D01*
X84549999Y-95979999D01*
X84539007Y-95993393D01*
X84384419Y-95929361D01*
X84010581Y-95855000D01*
X83629419Y-95855000D01*
X83255581Y-95929361D01*
X82903434Y-96075225D01*
X82586509Y-96286987D01*
X82316987Y-96556509D01*
X82105225Y-96873434D01*
X81959361Y-97225581D01*
X81885000Y-97599419D01*
X76877000Y-97599419D01*
X76877000Y-91410000D01*
X81881928Y-91410000D01*
X81881928Y-94010000D01*
X81894188Y-94134482D01*
X81930498Y-94254180D01*
X81989463Y-94364494D01*
X82068815Y-94461185D01*
X82165506Y-94540537D01*
X82275820Y-94599502D01*
X82395518Y-94635812D01*
X82520000Y-94648072D01*
X85120000Y-94648072D01*
X85244482Y-94635812D01*
X85364180Y-94599502D01*
X85474494Y-94540537D01*
X85571185Y-94461185D01*
X85650537Y-94364494D01*
X85709502Y-94254180D01*
X85745812Y-94134482D01*
X85758072Y-94010000D01*
X85758072Y-91410000D01*
X85754625Y-91375000D01*
X105374428Y-91375000D01*
X105386688Y-91499482D01*
X105422998Y-91619180D01*
X105481963Y-91729494D01*
X105561315Y-91826185D01*
X105658006Y-91905537D01*
X105768320Y-91964502D01*
X105888018Y-92000812D01*
X106012500Y-92013072D01*
X106214250Y-92010000D01*
X106373000Y-91851250D01*
X106373000Y-91027000D01*
X105536250Y-91027000D01*
X105377500Y-91185750D01*
X105374428Y-91375000D01*
X85754625Y-91375000D01*
X85745812Y-91285518D01*
X85709502Y-91165820D01*
X85650537Y-91055506D01*
X85571185Y-90958815D01*
X85474494Y-90879463D01*
X85364180Y-90820498D01*
X85244482Y-90784188D01*
X85120000Y-90771928D01*
X82520000Y-90771928D01*
X82395518Y-90784188D01*
X82275820Y-90820498D01*
X82165506Y-90879463D01*
X82068815Y-90958815D01*
X81989463Y-91055506D01*
X81930498Y-91165820D01*
X81894188Y-91285518D01*
X81881928Y-91410000D01*
X76877000Y-91410000D01*
X76877000Y-90425000D01*
X105374428Y-90425000D01*
X105377500Y-90614250D01*
X105536250Y-90773000D01*
X106373000Y-90773000D01*
X106373000Y-89948750D01*
X106214250Y-89790000D01*
X106012500Y-89786928D01*
X105888018Y-89799188D01*
X105768320Y-89835498D01*
X105658006Y-89894463D01*
X105561315Y-89973815D01*
X105481963Y-90070506D01*
X105422998Y-90180820D01*
X105386688Y-90300518D01*
X105374428Y-90425000D01*
X76877000Y-90425000D01*
X76877000Y-88377000D01*
X101603016Y-88377000D01*
X101601928Y-88630000D01*
X101614188Y-88754482D01*
X101650498Y-88874180D01*
X101709463Y-88984494D01*
X101788815Y-89081185D01*
X101885506Y-89160537D01*
X101995820Y-89219502D01*
X102115518Y-89255812D01*
X102240000Y-89268072D01*
X103854250Y-89265000D01*
X104013000Y-89106250D01*
X104013000Y-87757000D01*
X104267000Y-87757000D01*
X104267000Y-89106250D01*
X104425750Y-89265000D01*
X106040000Y-89268072D01*
X106164482Y-89255812D01*
X106284180Y-89219502D01*
X106394494Y-89160537D01*
X106491185Y-89081185D01*
X106570537Y-88984494D01*
X106629502Y-88874180D01*
X106665812Y-88754482D01*
X106678072Y-88630000D01*
X106675000Y-87915750D01*
X106516250Y-87757000D01*
X104267000Y-87757000D01*
X104013000Y-87757000D01*
X103993000Y-87757000D01*
X103993000Y-87503000D01*
X104013000Y-87503000D01*
X104013000Y-86153750D01*
X104267000Y-86153750D01*
X104267000Y-87503000D01*
X106516250Y-87503000D01*
X106675000Y-87344250D01*
X106675889Y-87137500D01*
X111486928Y-87137500D01*
X111490000Y-87389250D01*
X111648750Y-87548000D01*
X112473000Y-87548000D01*
X112473000Y-86661250D01*
X112727000Y-86661250D01*
X112727000Y-87548000D01*
X113551250Y-87548000D01*
X113710000Y-87389250D01*
X113713072Y-87137500D01*
X113700812Y-87013018D01*
X113664502Y-86893320D01*
X113605537Y-86783006D01*
X113526185Y-86686315D01*
X113429494Y-86606963D01*
X113319180Y-86547998D01*
X113199482Y-86511688D01*
X113075000Y-86499428D01*
X112885750Y-86502500D01*
X112727000Y-86661250D01*
X112473000Y-86661250D01*
X112314250Y-86502500D01*
X112125000Y-86499428D01*
X112000518Y-86511688D01*
X111880820Y-86547998D01*
X111770506Y-86606963D01*
X111673815Y-86686315D01*
X111594463Y-86783006D01*
X111535498Y-86893320D01*
X111499188Y-87013018D01*
X111486928Y-87137500D01*
X106675889Y-87137500D01*
X106678072Y-86630000D01*
X106665812Y-86505518D01*
X106629502Y-86385820D01*
X106570537Y-86275506D01*
X106491185Y-86178815D01*
X106394494Y-86099463D01*
X106284180Y-86040498D01*
X106164482Y-86004188D01*
X106040000Y-85991928D01*
X104425750Y-85995000D01*
X104267000Y-86153750D01*
X104013000Y-86153750D01*
X103854250Y-85995000D01*
X103377000Y-85994092D01*
X103377000Y-82966792D01*
X103390000Y-82968072D01*
X103854250Y-82965000D01*
X104013000Y-82806250D01*
X104013000Y-81457000D01*
X103993000Y-81457000D01*
X103993000Y-81203000D01*
X104013000Y-81203000D01*
X104013000Y-79853750D01*
X103854250Y-79695000D01*
X103390000Y-79691928D01*
X103377000Y-79693208D01*
X103377000Y-78375000D01*
X103411928Y-78375000D01*
X103424188Y-78499482D01*
X103460498Y-78619180D01*
X103519463Y-78729494D01*
X103598815Y-78826185D01*
X103695506Y-78905537D01*
X103805820Y-78964502D01*
X103925518Y-79000812D01*
X104050000Y-79013072D01*
X104514250Y-79010000D01*
X104673000Y-78851250D01*
X104673000Y-77327000D01*
X104927000Y-77327000D01*
X104927000Y-78851250D01*
X105085750Y-79010000D01*
X105550000Y-79013072D01*
X105674482Y-79000812D01*
X105794180Y-78964502D01*
X105904494Y-78905537D01*
X106001185Y-78826185D01*
X106080537Y-78729494D01*
X106139502Y-78619180D01*
X106175812Y-78499482D01*
X106188072Y-78375000D01*
X106185000Y-77485750D01*
X106026250Y-77327000D01*
X104927000Y-77327000D01*
X104673000Y-77327000D01*
X103573750Y-77327000D01*
X103415000Y-77485750D01*
X103411928Y-78375000D01*
X103377000Y-78375000D01*
X103377000Y-76025000D01*
X103411928Y-76025000D01*
X103415000Y-76914250D01*
X103573750Y-77073000D01*
X104673000Y-77073000D01*
X104673000Y-75548750D01*
X104927000Y-75548750D01*
X104927000Y-77073000D01*
X106026250Y-77073000D01*
X106185000Y-76914250D01*
X106187208Y-76275000D01*
X106661928Y-76275000D01*
X106661928Y-78125000D01*
X106678992Y-78298254D01*
X106729528Y-78464850D01*
X106811595Y-78618386D01*
X106922038Y-78752962D01*
X107056614Y-78863405D01*
X107210150Y-78945472D01*
X107376746Y-78996008D01*
X107550000Y-79013072D01*
X108550000Y-79013072D01*
X108723254Y-78996008D01*
X108889850Y-78945472D01*
X109043386Y-78863405D01*
X109177962Y-78752962D01*
X109288405Y-78618386D01*
X109370472Y-78464850D01*
X109421008Y-78298254D01*
X109438072Y-78125000D01*
X109438072Y-77960000D01*
X109496289Y-77960000D01*
X109540226Y-78003937D01*
X109709744Y-78117205D01*
X109898102Y-78195226D01*
X110098061Y-78235000D01*
X110301939Y-78235000D01*
X110501898Y-78195226D01*
X110690256Y-78117205D01*
X110859774Y-78003937D01*
X111003937Y-77859774D01*
X111117205Y-77690256D01*
X111195226Y-77501898D01*
X111235000Y-77301939D01*
X111235000Y-77098061D01*
X111195226Y-76898102D01*
X111117205Y-76709744D01*
X111003937Y-76540226D01*
X110859774Y-76396063D01*
X110690256Y-76282795D01*
X110501898Y-76204774D01*
X110301939Y-76165000D01*
X110098061Y-76165000D01*
X109898102Y-76204774D01*
X109709744Y-76282795D01*
X109540226Y-76396063D01*
X109496289Y-76440000D01*
X109438072Y-76440000D01*
X109438072Y-76275000D01*
X109421008Y-76101746D01*
X109370472Y-75935150D01*
X109288405Y-75781614D01*
X109177962Y-75647038D01*
X109043386Y-75536595D01*
X108889850Y-75454528D01*
X108723254Y-75403992D01*
X108550000Y-75386928D01*
X107550000Y-75386928D01*
X107376746Y-75403992D01*
X107210150Y-75454528D01*
X107056614Y-75536595D01*
X106922038Y-75647038D01*
X106811595Y-75781614D01*
X106729528Y-75935150D01*
X106678992Y-76101746D01*
X106661928Y-76275000D01*
X106187208Y-76275000D01*
X106188072Y-76025000D01*
X106175812Y-75900518D01*
X106139502Y-75780820D01*
X106080537Y-75670506D01*
X106001185Y-75573815D01*
X105904494Y-75494463D01*
X105794180Y-75435498D01*
X105674482Y-75399188D01*
X105550000Y-75386928D01*
X105085750Y-75390000D01*
X104927000Y-75548750D01*
X104673000Y-75548750D01*
X104514250Y-75390000D01*
X104050000Y-75386928D01*
X103925518Y-75399188D01*
X103805820Y-75435498D01*
X103695506Y-75494463D01*
X103598815Y-75573815D01*
X103519463Y-75670506D01*
X103460498Y-75780820D01*
X103424188Y-75900518D01*
X103411928Y-76025000D01*
X103377000Y-76025000D01*
X103377000Y-68877000D01*
X139123000Y-68877000D01*
X139123000Y-102123000D01*
G37*
G04 #@! TD.AperFunction*
D24*
X115021928Y-77776729D02*
X115021928Y-78190000D01*
X115034188Y-78314482D01*
X115070498Y-78434180D01*
X115129463Y-78544494D01*
X115208815Y-78641185D01*
X115305506Y-78720537D01*
X115341918Y-78740000D01*
X115305506Y-78759463D01*
X115208815Y-78838815D01*
X115129463Y-78935506D01*
X115070498Y-79045820D01*
X115034188Y-79165518D01*
X115021928Y-79290000D01*
X115025000Y-79404250D01*
X115183750Y-79563000D01*
X115983000Y-79563000D01*
X115983000Y-79543000D01*
X116237000Y-79543000D01*
X116237000Y-79563000D01*
X117036250Y-79563000D01*
X117120857Y-79478393D01*
X117129463Y-79494494D01*
X117208815Y-79591185D01*
X117305506Y-79670537D01*
X117350000Y-79694320D01*
X117350001Y-80575197D01*
X116400000Y-81525199D01*
X116163803Y-81289002D01*
X116140001Y-81259999D01*
X116024276Y-81165026D01*
X115892247Y-81094454D01*
X115748986Y-81050997D01*
X115637333Y-81040000D01*
X115637322Y-81040000D01*
X115600000Y-81036324D01*
X115562678Y-81040000D01*
X113973420Y-81040000D01*
X113894123Y-80943377D01*
X113785000Y-80853822D01*
X113785000Y-80090000D01*
X115021928Y-80090000D01*
X115034188Y-80214482D01*
X115070498Y-80334180D01*
X115129463Y-80444494D01*
X115208815Y-80541185D01*
X115305506Y-80620537D01*
X115415820Y-80679502D01*
X115535518Y-80715812D01*
X115660000Y-80728072D01*
X115824250Y-80725000D01*
X115983000Y-80566250D01*
X115983000Y-79817000D01*
X116237000Y-79817000D01*
X116237000Y-80566250D01*
X116395750Y-80725000D01*
X116560000Y-80728072D01*
X116684482Y-80715812D01*
X116804180Y-80679502D01*
X116914494Y-80620537D01*
X117011185Y-80541185D01*
X117090537Y-80444494D01*
X117149502Y-80334180D01*
X117185812Y-80214482D01*
X117198072Y-80090000D01*
X117195000Y-79975750D01*
X117036250Y-79817000D01*
X116237000Y-79817000D01*
X115983000Y-79817000D01*
X115183750Y-79817000D01*
X115025000Y-79975750D01*
X115021928Y-80090000D01*
X113785000Y-80090000D01*
X113785000Y-79727903D01*
X113856623Y-79669123D01*
X113965512Y-79536442D01*
X114046423Y-79385067D01*
X114096248Y-79220816D01*
X114113072Y-79050000D01*
X114113072Y-78550000D01*
X114096248Y-78379184D01*
X114046423Y-78214933D01*
X113965512Y-78063558D01*
X113856623Y-77930877D01*
X113803768Y-77887500D01*
X113856623Y-77844123D01*
X113946178Y-77735000D01*
X114980199Y-77735000D01*
X115021928Y-77776729D01*
G04 #@! TA.AperFunction,Conductor*
D25*
G36*
X115021928Y-77776729D02*
G01*
X115021928Y-78190000D01*
X115034188Y-78314482D01*
X115070498Y-78434180D01*
X115129463Y-78544494D01*
X115208815Y-78641185D01*
X115305506Y-78720537D01*
X115341918Y-78740000D01*
X115305506Y-78759463D01*
X115208815Y-78838815D01*
X115129463Y-78935506D01*
X115070498Y-79045820D01*
X115034188Y-79165518D01*
X115021928Y-79290000D01*
X115025000Y-79404250D01*
X115183750Y-79563000D01*
X115983000Y-79563000D01*
X115983000Y-79543000D01*
X116237000Y-79543000D01*
X116237000Y-79563000D01*
X117036250Y-79563000D01*
X117120857Y-79478393D01*
X117129463Y-79494494D01*
X117208815Y-79591185D01*
X117305506Y-79670537D01*
X117350000Y-79694320D01*
X117350001Y-80575197D01*
X116400000Y-81525199D01*
X116163803Y-81289002D01*
X116140001Y-81259999D01*
X116024276Y-81165026D01*
X115892247Y-81094454D01*
X115748986Y-81050997D01*
X115637333Y-81040000D01*
X115637322Y-81040000D01*
X115600000Y-81036324D01*
X115562678Y-81040000D01*
X113973420Y-81040000D01*
X113894123Y-80943377D01*
X113785000Y-80853822D01*
X113785000Y-80090000D01*
X115021928Y-80090000D01*
X115034188Y-80214482D01*
X115070498Y-80334180D01*
X115129463Y-80444494D01*
X115208815Y-80541185D01*
X115305506Y-80620537D01*
X115415820Y-80679502D01*
X115535518Y-80715812D01*
X115660000Y-80728072D01*
X115824250Y-80725000D01*
X115983000Y-80566250D01*
X115983000Y-79817000D01*
X116237000Y-79817000D01*
X116237000Y-80566250D01*
X116395750Y-80725000D01*
X116560000Y-80728072D01*
X116684482Y-80715812D01*
X116804180Y-80679502D01*
X116914494Y-80620537D01*
X117011185Y-80541185D01*
X117090537Y-80444494D01*
X117149502Y-80334180D01*
X117185812Y-80214482D01*
X117198072Y-80090000D01*
X117195000Y-79975750D01*
X117036250Y-79817000D01*
X116237000Y-79817000D01*
X115983000Y-79817000D01*
X115183750Y-79817000D01*
X115025000Y-79975750D01*
X115021928Y-80090000D01*
X113785000Y-80090000D01*
X113785000Y-79727903D01*
X113856623Y-79669123D01*
X113965512Y-79536442D01*
X114046423Y-79385067D01*
X114096248Y-79220816D01*
X114113072Y-79050000D01*
X114113072Y-78550000D01*
X114096248Y-78379184D01*
X114046423Y-78214933D01*
X113965512Y-78063558D01*
X113856623Y-77930877D01*
X113803768Y-77887500D01*
X113856623Y-77844123D01*
X113946178Y-77735000D01*
X114980199Y-77735000D01*
X115021928Y-77776729D01*
G37*
G04 #@! TD.AperFunction*
M02*
