G04 #@! TF.GenerationSoftware,KiCad,Pcbnew,(5.1.10)-1*
G04 #@! TF.CreationDate,2021-07-15T22:45:27-06:00*
G04 #@! TF.ProjectId,FreezerDoorAlarm,46726565-7a65-4724-946f-6f72416c6172,rev?*
G04 #@! TF.SameCoordinates,Original*
G04 #@! TF.FileFunction,Paste,Top*
G04 #@! TF.FilePolarity,Positive*
%FSLAX46Y46*%
G04 Gerber Fmt 4.6, Leading zero omitted, Abs format (unit mm)*
G04 Created by KiCad (PCBNEW (5.1.10)-1) date 2021-07-15 22:45:27*
%MOMM*%
%LPD*%
G01*
G04 APERTURE LIST*
%ADD10R,1.500000X2.000000*%
%ADD11R,3.800000X2.000000*%
%ADD12R,0.900000X0.800000*%
%ADD13R,0.800000X0.900000*%
%ADD14R,4.600000X5.600000*%
%ADD15R,6.200000X3.900000*%
%ADD16R,4.400000X3.300000*%
G04 APERTURE END LIST*
G36*
G01*
X115720000Y-84795000D02*
X115420000Y-84795000D01*
G75*
G02*
X115270000Y-84645000I0J150000D01*
G01*
X115270000Y-82995000D01*
G75*
G02*
X115420000Y-82845000I150000J0D01*
G01*
X115720000Y-82845000D01*
G75*
G02*
X115870000Y-82995000I0J-150000D01*
G01*
X115870000Y-84645000D01*
G75*
G02*
X115720000Y-84795000I-150000J0D01*
G01*
G37*
G36*
G01*
X116990000Y-84795000D02*
X116690000Y-84795000D01*
G75*
G02*
X116540000Y-84645000I0J150000D01*
G01*
X116540000Y-82995000D01*
G75*
G02*
X116690000Y-82845000I150000J0D01*
G01*
X116990000Y-82845000D01*
G75*
G02*
X117140000Y-82995000I0J-150000D01*
G01*
X117140000Y-84645000D01*
G75*
G02*
X116990000Y-84795000I-150000J0D01*
G01*
G37*
G36*
G01*
X118260000Y-84795000D02*
X117960000Y-84795000D01*
G75*
G02*
X117810000Y-84645000I0J150000D01*
G01*
X117810000Y-82995000D01*
G75*
G02*
X117960000Y-82845000I150000J0D01*
G01*
X118260000Y-82845000D01*
G75*
G02*
X118410000Y-82995000I0J-150000D01*
G01*
X118410000Y-84645000D01*
G75*
G02*
X118260000Y-84795000I-150000J0D01*
G01*
G37*
G36*
G01*
X119530000Y-84795000D02*
X119230000Y-84795000D01*
G75*
G02*
X119080000Y-84645000I0J150000D01*
G01*
X119080000Y-82995000D01*
G75*
G02*
X119230000Y-82845000I150000J0D01*
G01*
X119530000Y-82845000D01*
G75*
G02*
X119680000Y-82995000I0J-150000D01*
G01*
X119680000Y-84645000D01*
G75*
G02*
X119530000Y-84795000I-150000J0D01*
G01*
G37*
G36*
G01*
X120800000Y-84795000D02*
X120500000Y-84795000D01*
G75*
G02*
X120350000Y-84645000I0J150000D01*
G01*
X120350000Y-82995000D01*
G75*
G02*
X120500000Y-82845000I150000J0D01*
G01*
X120800000Y-82845000D01*
G75*
G02*
X120950000Y-82995000I0J-150000D01*
G01*
X120950000Y-84645000D01*
G75*
G02*
X120800000Y-84795000I-150000J0D01*
G01*
G37*
G36*
G01*
X122070000Y-84795000D02*
X121770000Y-84795000D01*
G75*
G02*
X121620000Y-84645000I0J150000D01*
G01*
X121620000Y-82995000D01*
G75*
G02*
X121770000Y-82845000I150000J0D01*
G01*
X122070000Y-82845000D01*
G75*
G02*
X122220000Y-82995000I0J-150000D01*
G01*
X122220000Y-84645000D01*
G75*
G02*
X122070000Y-84795000I-150000J0D01*
G01*
G37*
G36*
G01*
X123340000Y-84795000D02*
X123040000Y-84795000D01*
G75*
G02*
X122890000Y-84645000I0J150000D01*
G01*
X122890000Y-82995000D01*
G75*
G02*
X123040000Y-82845000I150000J0D01*
G01*
X123340000Y-82845000D01*
G75*
G02*
X123490000Y-82995000I0J-150000D01*
G01*
X123490000Y-84645000D01*
G75*
G02*
X123340000Y-84795000I-150000J0D01*
G01*
G37*
G36*
G01*
X123340000Y-89745000D02*
X123040000Y-89745000D01*
G75*
G02*
X122890000Y-89595000I0J150000D01*
G01*
X122890000Y-87945000D01*
G75*
G02*
X123040000Y-87795000I150000J0D01*
G01*
X123340000Y-87795000D01*
G75*
G02*
X123490000Y-87945000I0J-150000D01*
G01*
X123490000Y-89595000D01*
G75*
G02*
X123340000Y-89745000I-150000J0D01*
G01*
G37*
G36*
G01*
X122070000Y-89745000D02*
X121770000Y-89745000D01*
G75*
G02*
X121620000Y-89595000I0J150000D01*
G01*
X121620000Y-87945000D01*
G75*
G02*
X121770000Y-87795000I150000J0D01*
G01*
X122070000Y-87795000D01*
G75*
G02*
X122220000Y-87945000I0J-150000D01*
G01*
X122220000Y-89595000D01*
G75*
G02*
X122070000Y-89745000I-150000J0D01*
G01*
G37*
G36*
G01*
X120800000Y-89745000D02*
X120500000Y-89745000D01*
G75*
G02*
X120350000Y-89595000I0J150000D01*
G01*
X120350000Y-87945000D01*
G75*
G02*
X120500000Y-87795000I150000J0D01*
G01*
X120800000Y-87795000D01*
G75*
G02*
X120950000Y-87945000I0J-150000D01*
G01*
X120950000Y-89595000D01*
G75*
G02*
X120800000Y-89745000I-150000J0D01*
G01*
G37*
G36*
G01*
X119530000Y-89745000D02*
X119230000Y-89745000D01*
G75*
G02*
X119080000Y-89595000I0J150000D01*
G01*
X119080000Y-87945000D01*
G75*
G02*
X119230000Y-87795000I150000J0D01*
G01*
X119530000Y-87795000D01*
G75*
G02*
X119680000Y-87945000I0J-150000D01*
G01*
X119680000Y-89595000D01*
G75*
G02*
X119530000Y-89745000I-150000J0D01*
G01*
G37*
G36*
G01*
X118260000Y-89745000D02*
X117960000Y-89745000D01*
G75*
G02*
X117810000Y-89595000I0J150000D01*
G01*
X117810000Y-87945000D01*
G75*
G02*
X117960000Y-87795000I150000J0D01*
G01*
X118260000Y-87795000D01*
G75*
G02*
X118410000Y-87945000I0J-150000D01*
G01*
X118410000Y-89595000D01*
G75*
G02*
X118260000Y-89745000I-150000J0D01*
G01*
G37*
G36*
G01*
X116990000Y-89745000D02*
X116690000Y-89745000D01*
G75*
G02*
X116540000Y-89595000I0J150000D01*
G01*
X116540000Y-87945000D01*
G75*
G02*
X116690000Y-87795000I150000J0D01*
G01*
X116990000Y-87795000D01*
G75*
G02*
X117140000Y-87945000I0J-150000D01*
G01*
X117140000Y-89595000D01*
G75*
G02*
X116990000Y-89745000I-150000J0D01*
G01*
G37*
G36*
G01*
X115720000Y-89745000D02*
X115420000Y-89745000D01*
G75*
G02*
X115270000Y-89595000I0J150000D01*
G01*
X115270000Y-87945000D01*
G75*
G02*
X115420000Y-87795000I150000J0D01*
G01*
X115720000Y-87795000D01*
G75*
G02*
X115870000Y-87945000I0J-150000D01*
G01*
X115870000Y-89595000D01*
G75*
G02*
X115720000Y-89745000I-150000J0D01*
G01*
G37*
D10*
X106440000Y-81330000D03*
X101840000Y-81330000D03*
X104140000Y-81330000D03*
D11*
X104140000Y-87630000D03*
G36*
G01*
X127237500Y-79942500D02*
X126762500Y-79942500D01*
G75*
G02*
X126525000Y-79705000I0J237500D01*
G01*
X126525000Y-79205000D01*
G75*
G02*
X126762500Y-78967500I237500J0D01*
G01*
X127237500Y-78967500D01*
G75*
G02*
X127475000Y-79205000I0J-237500D01*
G01*
X127475000Y-79705000D01*
G75*
G02*
X127237500Y-79942500I-237500J0D01*
G01*
G37*
G36*
G01*
X127237500Y-81767500D02*
X126762500Y-81767500D01*
G75*
G02*
X126525000Y-81530000I0J237500D01*
G01*
X126525000Y-81030000D01*
G75*
G02*
X126762500Y-80792500I237500J0D01*
G01*
X127237500Y-80792500D01*
G75*
G02*
X127475000Y-81030000I0J-237500D01*
G01*
X127475000Y-81530000D01*
G75*
G02*
X127237500Y-81767500I-237500J0D01*
G01*
G37*
G36*
G01*
X118177500Y-73897500D02*
X118177500Y-73422500D01*
G75*
G02*
X118415000Y-73185000I237500J0D01*
G01*
X118915000Y-73185000D01*
G75*
G02*
X119152500Y-73422500I0J-237500D01*
G01*
X119152500Y-73897500D01*
G75*
G02*
X118915000Y-74135000I-237500J0D01*
G01*
X118415000Y-74135000D01*
G75*
G02*
X118177500Y-73897500I0J237500D01*
G01*
G37*
G36*
G01*
X116352500Y-73897500D02*
X116352500Y-73422500D01*
G75*
G02*
X116590000Y-73185000I237500J0D01*
G01*
X117090000Y-73185000D01*
G75*
G02*
X117327500Y-73422500I0J-237500D01*
G01*
X117327500Y-73897500D01*
G75*
G02*
X117090000Y-74135000I-237500J0D01*
G01*
X116590000Y-74135000D01*
G75*
G02*
X116352500Y-73897500I0J237500D01*
G01*
G37*
G36*
G01*
X111272500Y-80247500D02*
X111272500Y-79772500D01*
G75*
G02*
X111510000Y-79535000I237500J0D01*
G01*
X112010000Y-79535000D01*
G75*
G02*
X112247500Y-79772500I0J-237500D01*
G01*
X112247500Y-80247500D01*
G75*
G02*
X112010000Y-80485000I-237500J0D01*
G01*
X111510000Y-80485000D01*
G75*
G02*
X111272500Y-80247500I0J237500D01*
G01*
G37*
G36*
G01*
X109447500Y-80247500D02*
X109447500Y-79772500D01*
G75*
G02*
X109685000Y-79535000I237500J0D01*
G01*
X110185000Y-79535000D01*
G75*
G02*
X110422500Y-79772500I0J-237500D01*
G01*
X110422500Y-80247500D01*
G75*
G02*
X110185000Y-80485000I-237500J0D01*
G01*
X109685000Y-80485000D01*
G75*
G02*
X109447500Y-80247500I0J237500D01*
G01*
G37*
G36*
G01*
X112962500Y-74692500D02*
X112962500Y-75167500D01*
G75*
G02*
X112725000Y-75405000I-237500J0D01*
G01*
X112225000Y-75405000D01*
G75*
G02*
X111987500Y-75167500I0J237500D01*
G01*
X111987500Y-74692500D01*
G75*
G02*
X112225000Y-74455000I237500J0D01*
G01*
X112725000Y-74455000D01*
G75*
G02*
X112962500Y-74692500I0J-237500D01*
G01*
G37*
G36*
G01*
X114787500Y-74692500D02*
X114787500Y-75167500D01*
G75*
G02*
X114550000Y-75405000I-237500J0D01*
G01*
X114050000Y-75405000D01*
G75*
G02*
X113812500Y-75167500I0J237500D01*
G01*
X113812500Y-74692500D01*
G75*
G02*
X114050000Y-74455000I237500J0D01*
G01*
X114550000Y-74455000D01*
G75*
G02*
X114787500Y-74692500I0J-237500D01*
G01*
G37*
G36*
G01*
X135957500Y-94217500D02*
X135957500Y-93742500D01*
G75*
G02*
X136195000Y-93505000I237500J0D01*
G01*
X136695000Y-93505000D01*
G75*
G02*
X136932500Y-93742500I0J-237500D01*
G01*
X136932500Y-94217500D01*
G75*
G02*
X136695000Y-94455000I-237500J0D01*
G01*
X136195000Y-94455000D01*
G75*
G02*
X135957500Y-94217500I0J237500D01*
G01*
G37*
G36*
G01*
X134132500Y-94217500D02*
X134132500Y-93742500D01*
G75*
G02*
X134370000Y-93505000I237500J0D01*
G01*
X134870000Y-93505000D01*
G75*
G02*
X135107500Y-93742500I0J-237500D01*
G01*
X135107500Y-94217500D01*
G75*
G02*
X134870000Y-94455000I-237500J0D01*
G01*
X134370000Y-94455000D01*
G75*
G02*
X134132500Y-94217500I0J237500D01*
G01*
G37*
G36*
G01*
X136922500Y-85157500D02*
X137397500Y-85157500D01*
G75*
G02*
X137635000Y-85395000I0J-237500D01*
G01*
X137635000Y-85895000D01*
G75*
G02*
X137397500Y-86132500I-237500J0D01*
G01*
X136922500Y-86132500D01*
G75*
G02*
X136685000Y-85895000I0J237500D01*
G01*
X136685000Y-85395000D01*
G75*
G02*
X136922500Y-85157500I237500J0D01*
G01*
G37*
G36*
G01*
X136922500Y-83332500D02*
X137397500Y-83332500D01*
G75*
G02*
X137635000Y-83570000I0J-237500D01*
G01*
X137635000Y-84070000D01*
G75*
G02*
X137397500Y-84307500I-237500J0D01*
G01*
X136922500Y-84307500D01*
G75*
G02*
X136685000Y-84070000I0J237500D01*
G01*
X136685000Y-83570000D01*
G75*
G02*
X136922500Y-83332500I237500J0D01*
G01*
G37*
G36*
G01*
X133162500Y-84762500D02*
X133162500Y-85237500D01*
G75*
G02*
X132925000Y-85475000I-237500J0D01*
G01*
X132425000Y-85475000D01*
G75*
G02*
X132187500Y-85237500I0J237500D01*
G01*
X132187500Y-84762500D01*
G75*
G02*
X132425000Y-84525000I237500J0D01*
G01*
X132925000Y-84525000D01*
G75*
G02*
X133162500Y-84762500I0J-237500D01*
G01*
G37*
G36*
G01*
X134987500Y-84762500D02*
X134987500Y-85237500D01*
G75*
G02*
X134750000Y-85475000I-237500J0D01*
G01*
X134250000Y-85475000D01*
G75*
G02*
X134012500Y-85237500I0J237500D01*
G01*
X134012500Y-84762500D01*
G75*
G02*
X134250000Y-84525000I237500J0D01*
G01*
X134750000Y-84525000D01*
G75*
G02*
X134987500Y-84762500I0J-237500D01*
G01*
G37*
G36*
G01*
X131762500Y-92512500D02*
X132237500Y-92512500D01*
G75*
G02*
X132475000Y-92750000I0J-237500D01*
G01*
X132475000Y-93250000D01*
G75*
G02*
X132237500Y-93487500I-237500J0D01*
G01*
X131762500Y-93487500D01*
G75*
G02*
X131525000Y-93250000I0J237500D01*
G01*
X131525000Y-92750000D01*
G75*
G02*
X131762500Y-92512500I237500J0D01*
G01*
G37*
G36*
G01*
X131762500Y-90687500D02*
X132237500Y-90687500D01*
G75*
G02*
X132475000Y-90925000I0J-237500D01*
G01*
X132475000Y-91425000D01*
G75*
G02*
X132237500Y-91662500I-237500J0D01*
G01*
X131762500Y-91662500D01*
G75*
G02*
X131525000Y-91425000I0J237500D01*
G01*
X131525000Y-90925000D01*
G75*
G02*
X131762500Y-90687500I237500J0D01*
G01*
G37*
G36*
G01*
X127237500Y-83487500D02*
X126762500Y-83487500D01*
G75*
G02*
X126525000Y-83250000I0J237500D01*
G01*
X126525000Y-82750000D01*
G75*
G02*
X126762500Y-82512500I237500J0D01*
G01*
X127237500Y-82512500D01*
G75*
G02*
X127475000Y-82750000I0J-237500D01*
G01*
X127475000Y-83250000D01*
G75*
G02*
X127237500Y-83487500I-237500J0D01*
G01*
G37*
G36*
G01*
X127237500Y-85312500D02*
X126762500Y-85312500D01*
G75*
G02*
X126525000Y-85075000I0J237500D01*
G01*
X126525000Y-84575000D01*
G75*
G02*
X126762500Y-84337500I237500J0D01*
G01*
X127237500Y-84337500D01*
G75*
G02*
X127475000Y-84575000I0J-237500D01*
G01*
X127475000Y-85075000D01*
G75*
G02*
X127237500Y-85312500I-237500J0D01*
G01*
G37*
G36*
G01*
X125662500Y-92472500D02*
X125662500Y-92947500D01*
G75*
G02*
X125425000Y-93185000I-237500J0D01*
G01*
X124925000Y-93185000D01*
G75*
G02*
X124687500Y-92947500I0J237500D01*
G01*
X124687500Y-92472500D01*
G75*
G02*
X124925000Y-92235000I237500J0D01*
G01*
X125425000Y-92235000D01*
G75*
G02*
X125662500Y-92472500I0J-237500D01*
G01*
G37*
G36*
G01*
X127487500Y-92472500D02*
X127487500Y-92947500D01*
G75*
G02*
X127250000Y-93185000I-237500J0D01*
G01*
X126750000Y-93185000D01*
G75*
G02*
X126512500Y-92947500I0J237500D01*
G01*
X126512500Y-92472500D01*
G75*
G02*
X126750000Y-92235000I237500J0D01*
G01*
X127250000Y-92235000D01*
G75*
G02*
X127487500Y-92472500I0J-237500D01*
G01*
G37*
G36*
G01*
X120582500Y-92472500D02*
X120582500Y-92947500D01*
G75*
G02*
X120345000Y-93185000I-237500J0D01*
G01*
X119845000Y-93185000D01*
G75*
G02*
X119607500Y-92947500I0J237500D01*
G01*
X119607500Y-92472500D01*
G75*
G02*
X119845000Y-92235000I237500J0D01*
G01*
X120345000Y-92235000D01*
G75*
G02*
X120582500Y-92472500I0J-237500D01*
G01*
G37*
G36*
G01*
X122407500Y-92472500D02*
X122407500Y-92947500D01*
G75*
G02*
X122170000Y-93185000I-237500J0D01*
G01*
X121670000Y-93185000D01*
G75*
G02*
X121432500Y-92947500I0J237500D01*
G01*
X121432500Y-92472500D01*
G75*
G02*
X121670000Y-92235000I237500J0D01*
G01*
X122170000Y-92235000D01*
G75*
G02*
X122407500Y-92472500I0J-237500D01*
G01*
G37*
G36*
G01*
X116512500Y-96737500D02*
X116512500Y-96262500D01*
G75*
G02*
X116750000Y-96025000I237500J0D01*
G01*
X117250000Y-96025000D01*
G75*
G02*
X117487500Y-96262500I0J-237500D01*
G01*
X117487500Y-96737500D01*
G75*
G02*
X117250000Y-96975000I-237500J0D01*
G01*
X116750000Y-96975000D01*
G75*
G02*
X116512500Y-96737500I0J237500D01*
G01*
G37*
G36*
G01*
X114687500Y-96737500D02*
X114687500Y-96262500D01*
G75*
G02*
X114925000Y-96025000I237500J0D01*
G01*
X115425000Y-96025000D01*
G75*
G02*
X115662500Y-96262500I0J-237500D01*
G01*
X115662500Y-96737500D01*
G75*
G02*
X115425000Y-96975000I-237500J0D01*
G01*
X114925000Y-96975000D01*
G75*
G02*
X114687500Y-96737500I0J237500D01*
G01*
G37*
G36*
G01*
X110727500Y-88117500D02*
X110252500Y-88117500D01*
G75*
G02*
X110015000Y-87880000I0J237500D01*
G01*
X110015000Y-87380000D01*
G75*
G02*
X110252500Y-87142500I237500J0D01*
G01*
X110727500Y-87142500D01*
G75*
G02*
X110965000Y-87380000I0J-237500D01*
G01*
X110965000Y-87880000D01*
G75*
G02*
X110727500Y-88117500I-237500J0D01*
G01*
G37*
G36*
G01*
X110727500Y-89942500D02*
X110252500Y-89942500D01*
G75*
G02*
X110015000Y-89705000I0J237500D01*
G01*
X110015000Y-89205000D01*
G75*
G02*
X110252500Y-88967500I237500J0D01*
G01*
X110727500Y-88967500D01*
G75*
G02*
X110965000Y-89205000I0J-237500D01*
G01*
X110965000Y-89705000D01*
G75*
G02*
X110727500Y-89942500I-237500J0D01*
G01*
G37*
G36*
G01*
X110252500Y-92777500D02*
X110727500Y-92777500D01*
G75*
G02*
X110965000Y-93015000I0J-237500D01*
G01*
X110965000Y-93515000D01*
G75*
G02*
X110727500Y-93752500I-237500J0D01*
G01*
X110252500Y-93752500D01*
G75*
G02*
X110015000Y-93515000I0J237500D01*
G01*
X110015000Y-93015000D01*
G75*
G02*
X110252500Y-92777500I237500J0D01*
G01*
G37*
G36*
G01*
X110252500Y-90952500D02*
X110727500Y-90952500D01*
G75*
G02*
X110965000Y-91190000I0J-237500D01*
G01*
X110965000Y-91690000D01*
G75*
G02*
X110727500Y-91927500I-237500J0D01*
G01*
X110252500Y-91927500D01*
G75*
G02*
X110015000Y-91690000I0J237500D01*
G01*
X110015000Y-91190000D01*
G75*
G02*
X110252500Y-90952500I237500J0D01*
G01*
G37*
D12*
X131540000Y-72390000D03*
X129540000Y-73340000D03*
X129540000Y-71440000D03*
X124460000Y-72710000D03*
X126460000Y-71760000D03*
X126460000Y-73660000D03*
X118110000Y-78740000D03*
X116110000Y-79690000D03*
X116110000Y-77790000D03*
X132080000Y-80010000D03*
X130080000Y-80960000D03*
X130080000Y-79060000D03*
D13*
X135570000Y-88170000D03*
X136520000Y-90170000D03*
X134620000Y-90170000D03*
D12*
X134080000Y-98110000D03*
X132080000Y-99060000D03*
X132080000Y-97160000D03*
D13*
X120970000Y-95790000D03*
X121920000Y-97790000D03*
X120020000Y-97790000D03*
D12*
X113000000Y-96950000D03*
X111000000Y-97900000D03*
X111000000Y-96000000D03*
D14*
X106200000Y-96520000D03*
X93980000Y-96520000D03*
D15*
X85090000Y-85290000D03*
X85090000Y-72390000D03*
D16*
X94090000Y-79540000D03*
G36*
G01*
X120995000Y-78700000D02*
X122845000Y-78700000D01*
G75*
G02*
X123095000Y-78950000I0J-250000D01*
G01*
X123095000Y-79950000D01*
G75*
G02*
X122845000Y-80200000I-250000J0D01*
G01*
X120995000Y-80200000D01*
G75*
G02*
X120745000Y-79950000I0J250000D01*
G01*
X120745000Y-78950000D01*
G75*
G02*
X120995000Y-78700000I250000J0D01*
G01*
G37*
G36*
G01*
X120995000Y-75450000D02*
X122845000Y-75450000D01*
G75*
G02*
X123095000Y-75700000I0J-250000D01*
G01*
X123095000Y-76700000D01*
G75*
G02*
X122845000Y-76950000I-250000J0D01*
G01*
X120995000Y-76950000D01*
G75*
G02*
X120745000Y-76700000I0J250000D01*
G01*
X120745000Y-75700000D01*
G75*
G02*
X120995000Y-75450000I250000J0D01*
G01*
G37*
G36*
G01*
X128310000Y-86705000D02*
X128310000Y-88555000D01*
G75*
G02*
X128060000Y-88805000I-250000J0D01*
G01*
X127060000Y-88805000D01*
G75*
G02*
X126810000Y-88555000I0J250000D01*
G01*
X126810000Y-86705000D01*
G75*
G02*
X127060000Y-86455000I250000J0D01*
G01*
X128060000Y-86455000D01*
G75*
G02*
X128310000Y-86705000I0J-250000D01*
G01*
G37*
G36*
G01*
X131560000Y-86705000D02*
X131560000Y-88555000D01*
G75*
G02*
X131310000Y-88805000I-250000J0D01*
G01*
X130310000Y-88805000D01*
G75*
G02*
X130060000Y-88555000I0J250000D01*
G01*
X130060000Y-86705000D01*
G75*
G02*
X130310000Y-86455000I250000J0D01*
G01*
X131310000Y-86455000D01*
G75*
G02*
X131560000Y-86705000I0J-250000D01*
G01*
G37*
G36*
G01*
X126575000Y-98310000D02*
X128425000Y-98310000D01*
G75*
G02*
X128675000Y-98560000I0J-250000D01*
G01*
X128675000Y-99560000D01*
G75*
G02*
X128425000Y-99810000I-250000J0D01*
G01*
X126575000Y-99810000D01*
G75*
G02*
X126325000Y-99560000I0J250000D01*
G01*
X126325000Y-98560000D01*
G75*
G02*
X126575000Y-98310000I250000J0D01*
G01*
G37*
G36*
G01*
X126575000Y-95060000D02*
X128425000Y-95060000D01*
G75*
G02*
X128675000Y-95310000I0J-250000D01*
G01*
X128675000Y-96310000D01*
G75*
G02*
X128425000Y-96560000I-250000J0D01*
G01*
X126575000Y-96560000D01*
G75*
G02*
X126325000Y-96310000I0J250000D01*
G01*
X126325000Y-95310000D01*
G75*
G02*
X126575000Y-95060000I250000J0D01*
G01*
G37*
G36*
G01*
X115332500Y-92627500D02*
X115807500Y-92627500D01*
G75*
G02*
X116045000Y-92865000I0J-237500D01*
G01*
X116045000Y-93465000D01*
G75*
G02*
X115807500Y-93702500I-237500J0D01*
G01*
X115332500Y-93702500D01*
G75*
G02*
X115095000Y-93465000I0J237500D01*
G01*
X115095000Y-92865000D01*
G75*
G02*
X115332500Y-92627500I237500J0D01*
G01*
G37*
G36*
G01*
X115332500Y-90902500D02*
X115807500Y-90902500D01*
G75*
G02*
X116045000Y-91140000I0J-237500D01*
G01*
X116045000Y-91740000D01*
G75*
G02*
X115807500Y-91977500I-237500J0D01*
G01*
X115332500Y-91977500D01*
G75*
G02*
X115095000Y-91740000I0J237500D01*
G01*
X115095000Y-91140000D01*
G75*
G02*
X115332500Y-90902500I237500J0D01*
G01*
G37*
G36*
G01*
X111522500Y-84552500D02*
X111997500Y-84552500D01*
G75*
G02*
X112235000Y-84790000I0J-237500D01*
G01*
X112235000Y-85390000D01*
G75*
G02*
X111997500Y-85627500I-237500J0D01*
G01*
X111522500Y-85627500D01*
G75*
G02*
X111285000Y-85390000I0J237500D01*
G01*
X111285000Y-84790000D01*
G75*
G02*
X111522500Y-84552500I237500J0D01*
G01*
G37*
G36*
G01*
X111522500Y-82827500D02*
X111997500Y-82827500D01*
G75*
G02*
X112235000Y-83065000I0J-237500D01*
G01*
X112235000Y-83665000D01*
G75*
G02*
X111997500Y-83902500I-237500J0D01*
G01*
X111522500Y-83902500D01*
G75*
G02*
X111285000Y-83665000I0J237500D01*
G01*
X111285000Y-83065000D01*
G75*
G02*
X111522500Y-82827500I237500J0D01*
G01*
G37*
G36*
G01*
X108470000Y-75855000D02*
X108470000Y-74005000D01*
G75*
G02*
X108720000Y-73755000I250000J0D01*
G01*
X109720000Y-73755000D01*
G75*
G02*
X109970000Y-74005000I0J-250000D01*
G01*
X109970000Y-75855000D01*
G75*
G02*
X109720000Y-76105000I-250000J0D01*
G01*
X108720000Y-76105000D01*
G75*
G02*
X108470000Y-75855000I0J250000D01*
G01*
G37*
G36*
G01*
X105220000Y-75855000D02*
X105220000Y-74005000D01*
G75*
G02*
X105470000Y-73755000I250000J0D01*
G01*
X106470000Y-73755000D01*
G75*
G02*
X106720000Y-74005000I0J-250000D01*
G01*
X106720000Y-75855000D01*
G75*
G02*
X106470000Y-76105000I-250000J0D01*
G01*
X105470000Y-76105000D01*
G75*
G02*
X105220000Y-75855000I0J250000D01*
G01*
G37*
G36*
G01*
X99000000Y-74005000D02*
X99000000Y-75855000D01*
G75*
G02*
X98750000Y-76105000I-250000J0D01*
G01*
X97750000Y-76105000D01*
G75*
G02*
X97500000Y-75855000I0J250000D01*
G01*
X97500000Y-74005000D01*
G75*
G02*
X97750000Y-73755000I250000J0D01*
G01*
X98750000Y-73755000D01*
G75*
G02*
X99000000Y-74005000I0J-250000D01*
G01*
G37*
G36*
G01*
X102250000Y-74005000D02*
X102250000Y-75855000D01*
G75*
G02*
X102000000Y-76105000I-250000J0D01*
G01*
X101000000Y-76105000D01*
G75*
G02*
X100750000Y-75855000I0J250000D01*
G01*
X100750000Y-74005000D01*
G75*
G02*
X101000000Y-73755000I250000J0D01*
G01*
X102000000Y-73755000D01*
G75*
G02*
X102250000Y-74005000I0J-250000D01*
G01*
G37*
M02*
