M48
; DRILL file {KiCad (5.1.10)-1} date 07/15/21 22:46:22
; FORMAT={-:-/ absolute / inch / decimal}
; #@! TF.CreationDate,2021-07-15T22:46:22-06:00
; #@! TF.GenerationSoftware,Kicad,Pcbnew,(5.1.10)-1
FMAT,2
INCH
T1C0.0157
T2C0.0512
T3C0.0787
%
G90
G05
T1
X3.55Y-2.85
X3.75Y-2.95
X4.1906Y-3.2906
X4.25Y-3.1
X4.3Y-2.85
X4.3307Y-3.061
X4.35Y-3.35
X4.4587Y-3.061
X4.5Y-3.7
X4.7539Y-3.4055
X4.8Y-3.95
X4.8622Y-3.4055
X4.9Y-3.1
X4.9Y-3.5
X4.95Y-3.45
X5.0Y-2.8
X5.2Y-2.9
X5.2Y-3.2
X5.4Y-3.5
T2
X3.3Y-3.65
X3.3Y-3.85
T3
X3.2004Y-3.1039
T0
M30
