G04 #@! TF.GenerationSoftware,KiCad,Pcbnew,(5.1.10)-1*
G04 #@! TF.CreationDate,2021-07-17T19:43:19-06:00*
G04 #@! TF.ProjectId,FreezerDoorAlarm,46726565-7a65-4724-946f-6f72416c6172,rev?*
G04 #@! TF.SameCoordinates,Original*
G04 #@! TF.FileFunction,Copper,L2,Bot*
G04 #@! TF.FilePolarity,Positive*
%FSLAX46Y46*%
G04 Gerber Fmt 4.6, Leading zero omitted, Abs format (unit mm)*
G04 Created by KiCad (PCBNEW (5.1.10)-1) date 2021-07-17 19:43:19*
%MOMM*%
%LPD*%
G01*
G04 APERTURE LIST*
G04 #@! TA.AperFunction,ComponentPad*
%ADD10C,2.600000*%
G04 #@! TD*
G04 #@! TA.AperFunction,ComponentPad*
%ADD11R,2.600000X2.600000*%
G04 #@! TD*
G04 #@! TA.AperFunction,ViaPad*
%ADD12C,0.800000*%
G04 #@! TD*
G04 #@! TA.AperFunction,Conductor*
%ADD13C,0.250000*%
G04 #@! TD*
G04 #@! TA.AperFunction,Conductor*
%ADD14C,0.254000*%
G04 #@! TD*
G04 #@! TA.AperFunction,Conductor*
%ADD15C,0.100000*%
G04 #@! TD*
G04 APERTURE END LIST*
D10*
X83820000Y-97790000D03*
D11*
X83820000Y-92710000D03*
D12*
X90170000Y-72390000D03*
X124460000Y-88900000D03*
X125730000Y-87630000D03*
X124460000Y-78740000D03*
X132080000Y-81280000D03*
X132080000Y-73660000D03*
X127500000Y-70250000D03*
X97200000Y-74800000D03*
X108800000Y-81400000D03*
X110200000Y-77200000D03*
X128600000Y-99000000D03*
X114000000Y-93200000D03*
X114100000Y-89400000D03*
X137500000Y-88600000D03*
X114400000Y-80300000D03*
X111200000Y-80000000D03*
X123500000Y-86500000D03*
X120750000Y-86500000D03*
D13*
X111500000Y-80300000D02*
X111200000Y-80000000D01*
X114400000Y-80300000D02*
X111500000Y-80300000D01*
X123500000Y-86500000D02*
X120750000Y-86500000D01*
D14*
X139340001Y-102340000D02*
X76660000Y-102340000D01*
X76660000Y-97599419D01*
X81885000Y-97599419D01*
X81885000Y-97980581D01*
X81959361Y-98354419D01*
X82105225Y-98706566D01*
X82316987Y-99023491D01*
X82586509Y-99293013D01*
X82903434Y-99504775D01*
X83255581Y-99650639D01*
X83629419Y-99725000D01*
X84010581Y-99725000D01*
X84384419Y-99650639D01*
X84736566Y-99504775D01*
X85053491Y-99293013D01*
X85323013Y-99023491D01*
X85534775Y-98706566D01*
X85680639Y-98354419D01*
X85755000Y-97980581D01*
X85755000Y-97599419D01*
X85680639Y-97225581D01*
X85534775Y-96873434D01*
X85323013Y-96556509D01*
X85053491Y-96286987D01*
X84736566Y-96075225D01*
X84384419Y-95929361D01*
X84010581Y-95855000D01*
X83629419Y-95855000D01*
X83255581Y-95929361D01*
X82903434Y-96075225D01*
X82586509Y-96286987D01*
X82316987Y-96556509D01*
X82105225Y-96873434D01*
X81959361Y-97225581D01*
X81885000Y-97599419D01*
X76660000Y-97599419D01*
X76660000Y-94010000D01*
X81881928Y-94010000D01*
X81894188Y-94134482D01*
X81930498Y-94254180D01*
X81989463Y-94364494D01*
X82068815Y-94461185D01*
X82165506Y-94540537D01*
X82275820Y-94599502D01*
X82395518Y-94635812D01*
X82520000Y-94648072D01*
X83534250Y-94645000D01*
X83693000Y-94486250D01*
X83693000Y-92837000D01*
X83947000Y-92837000D01*
X83947000Y-94486250D01*
X84105750Y-94645000D01*
X85120000Y-94648072D01*
X85244482Y-94635812D01*
X85364180Y-94599502D01*
X85474494Y-94540537D01*
X85571185Y-94461185D01*
X85650537Y-94364494D01*
X85709502Y-94254180D01*
X85745812Y-94134482D01*
X85758072Y-94010000D01*
X85755000Y-92995750D01*
X85596250Y-92837000D01*
X83947000Y-92837000D01*
X83693000Y-92837000D01*
X82043750Y-92837000D01*
X81885000Y-92995750D01*
X81881928Y-94010000D01*
X76660000Y-94010000D01*
X76660000Y-91410000D01*
X81881928Y-91410000D01*
X81885000Y-92424250D01*
X82043750Y-92583000D01*
X83693000Y-92583000D01*
X83693000Y-90933750D01*
X83947000Y-90933750D01*
X83947000Y-92583000D01*
X85596250Y-92583000D01*
X85755000Y-92424250D01*
X85758072Y-91410000D01*
X85745812Y-91285518D01*
X85709502Y-91165820D01*
X85650537Y-91055506D01*
X85571185Y-90958815D01*
X85474494Y-90879463D01*
X85364180Y-90820498D01*
X85244482Y-90784188D01*
X85120000Y-90771928D01*
X84105750Y-90775000D01*
X83947000Y-90933750D01*
X83693000Y-90933750D01*
X83534250Y-90775000D01*
X82520000Y-90771928D01*
X82395518Y-90784188D01*
X82275820Y-90820498D01*
X82165506Y-90879463D01*
X82068815Y-90958815D01*
X81989463Y-91055506D01*
X81930498Y-91165820D01*
X81894188Y-91285518D01*
X81881928Y-91410000D01*
X76660000Y-91410000D01*
X76660000Y-86398061D01*
X119715000Y-86398061D01*
X119715000Y-86601939D01*
X119754774Y-86801898D01*
X119832795Y-86990256D01*
X119946063Y-87159774D01*
X120090226Y-87303937D01*
X120259744Y-87417205D01*
X120448102Y-87495226D01*
X120648061Y-87535000D01*
X120851939Y-87535000D01*
X121051898Y-87495226D01*
X121240256Y-87417205D01*
X121409774Y-87303937D01*
X121453711Y-87260000D01*
X122796289Y-87260000D01*
X122840226Y-87303937D01*
X123009744Y-87417205D01*
X123198102Y-87495226D01*
X123398061Y-87535000D01*
X123601939Y-87535000D01*
X123801898Y-87495226D01*
X123990256Y-87417205D01*
X124159774Y-87303937D01*
X124303937Y-87159774D01*
X124417205Y-86990256D01*
X124495226Y-86801898D01*
X124535000Y-86601939D01*
X124535000Y-86398061D01*
X124495226Y-86198102D01*
X124417205Y-86009744D01*
X124303937Y-85840226D01*
X124159774Y-85696063D01*
X123990256Y-85582795D01*
X123801898Y-85504774D01*
X123601939Y-85465000D01*
X123398061Y-85465000D01*
X123198102Y-85504774D01*
X123009744Y-85582795D01*
X122840226Y-85696063D01*
X122796289Y-85740000D01*
X121453711Y-85740000D01*
X121409774Y-85696063D01*
X121240256Y-85582795D01*
X121051898Y-85504774D01*
X120851939Y-85465000D01*
X120648061Y-85465000D01*
X120448102Y-85504774D01*
X120259744Y-85582795D01*
X120090226Y-85696063D01*
X119946063Y-85840226D01*
X119832795Y-86009744D01*
X119754774Y-86198102D01*
X119715000Y-86398061D01*
X76660000Y-86398061D01*
X76660000Y-78678967D01*
X79655000Y-78678967D01*
X79655000Y-79001033D01*
X79717832Y-79316912D01*
X79841082Y-79614463D01*
X80020013Y-79882252D01*
X80247748Y-80109987D01*
X80515537Y-80288918D01*
X80813088Y-80412168D01*
X81128967Y-80475000D01*
X81451033Y-80475000D01*
X81766912Y-80412168D01*
X82064463Y-80288918D01*
X82332252Y-80109987D01*
X82544178Y-79898061D01*
X110165000Y-79898061D01*
X110165000Y-80101939D01*
X110204774Y-80301898D01*
X110282795Y-80490256D01*
X110396063Y-80659774D01*
X110540226Y-80803937D01*
X110709744Y-80917205D01*
X110898102Y-80995226D01*
X111098061Y-81035000D01*
X111301939Y-81035000D01*
X111303698Y-81034650D01*
X111351014Y-81049003D01*
X111462667Y-81060000D01*
X111462676Y-81060000D01*
X111499999Y-81063676D01*
X111537322Y-81060000D01*
X113696289Y-81060000D01*
X113740226Y-81103937D01*
X113909744Y-81217205D01*
X114098102Y-81295226D01*
X114298061Y-81335000D01*
X114501939Y-81335000D01*
X114701898Y-81295226D01*
X114890256Y-81217205D01*
X115059774Y-81103937D01*
X115203937Y-80959774D01*
X115317205Y-80790256D01*
X115395226Y-80601898D01*
X115435000Y-80401939D01*
X115435000Y-80198061D01*
X115395226Y-79998102D01*
X115317205Y-79809744D01*
X115203937Y-79640226D01*
X115059774Y-79496063D01*
X114890256Y-79382795D01*
X114701898Y-79304774D01*
X114501939Y-79265000D01*
X114298061Y-79265000D01*
X114098102Y-79304774D01*
X113909744Y-79382795D01*
X113740226Y-79496063D01*
X113696289Y-79540000D01*
X112129738Y-79540000D01*
X112117205Y-79509744D01*
X112003937Y-79340226D01*
X111859774Y-79196063D01*
X111690256Y-79082795D01*
X111501898Y-79004774D01*
X111301939Y-78965000D01*
X111098061Y-78965000D01*
X110898102Y-79004774D01*
X110709744Y-79082795D01*
X110540226Y-79196063D01*
X110396063Y-79340226D01*
X110282795Y-79509744D01*
X110204774Y-79698102D01*
X110165000Y-79898061D01*
X82544178Y-79898061D01*
X82559987Y-79882252D01*
X82738918Y-79614463D01*
X82862168Y-79316912D01*
X82925000Y-79001033D01*
X82925000Y-78678967D01*
X82862168Y-78363088D01*
X82738918Y-78065537D01*
X82559987Y-77797748D01*
X82332252Y-77570013D01*
X82064463Y-77391082D01*
X81766912Y-77267832D01*
X81451033Y-77205000D01*
X81128967Y-77205000D01*
X80813088Y-77267832D01*
X80515537Y-77391082D01*
X80247748Y-77570013D01*
X80020013Y-77797748D01*
X79841082Y-78065537D01*
X79717832Y-78363088D01*
X79655000Y-78678967D01*
X76660000Y-78678967D01*
X76660000Y-68660000D01*
X139340000Y-68660000D01*
X139340001Y-102340000D01*
G04 #@! TA.AperFunction,Conductor*
D15*
G36*
X139340001Y-102340000D02*
G01*
X76660000Y-102340000D01*
X76660000Y-97599419D01*
X81885000Y-97599419D01*
X81885000Y-97980581D01*
X81959361Y-98354419D01*
X82105225Y-98706566D01*
X82316987Y-99023491D01*
X82586509Y-99293013D01*
X82903434Y-99504775D01*
X83255581Y-99650639D01*
X83629419Y-99725000D01*
X84010581Y-99725000D01*
X84384419Y-99650639D01*
X84736566Y-99504775D01*
X85053491Y-99293013D01*
X85323013Y-99023491D01*
X85534775Y-98706566D01*
X85680639Y-98354419D01*
X85755000Y-97980581D01*
X85755000Y-97599419D01*
X85680639Y-97225581D01*
X85534775Y-96873434D01*
X85323013Y-96556509D01*
X85053491Y-96286987D01*
X84736566Y-96075225D01*
X84384419Y-95929361D01*
X84010581Y-95855000D01*
X83629419Y-95855000D01*
X83255581Y-95929361D01*
X82903434Y-96075225D01*
X82586509Y-96286987D01*
X82316987Y-96556509D01*
X82105225Y-96873434D01*
X81959361Y-97225581D01*
X81885000Y-97599419D01*
X76660000Y-97599419D01*
X76660000Y-94010000D01*
X81881928Y-94010000D01*
X81894188Y-94134482D01*
X81930498Y-94254180D01*
X81989463Y-94364494D01*
X82068815Y-94461185D01*
X82165506Y-94540537D01*
X82275820Y-94599502D01*
X82395518Y-94635812D01*
X82520000Y-94648072D01*
X83534250Y-94645000D01*
X83693000Y-94486250D01*
X83693000Y-92837000D01*
X83947000Y-92837000D01*
X83947000Y-94486250D01*
X84105750Y-94645000D01*
X85120000Y-94648072D01*
X85244482Y-94635812D01*
X85364180Y-94599502D01*
X85474494Y-94540537D01*
X85571185Y-94461185D01*
X85650537Y-94364494D01*
X85709502Y-94254180D01*
X85745812Y-94134482D01*
X85758072Y-94010000D01*
X85755000Y-92995750D01*
X85596250Y-92837000D01*
X83947000Y-92837000D01*
X83693000Y-92837000D01*
X82043750Y-92837000D01*
X81885000Y-92995750D01*
X81881928Y-94010000D01*
X76660000Y-94010000D01*
X76660000Y-91410000D01*
X81881928Y-91410000D01*
X81885000Y-92424250D01*
X82043750Y-92583000D01*
X83693000Y-92583000D01*
X83693000Y-90933750D01*
X83947000Y-90933750D01*
X83947000Y-92583000D01*
X85596250Y-92583000D01*
X85755000Y-92424250D01*
X85758072Y-91410000D01*
X85745812Y-91285518D01*
X85709502Y-91165820D01*
X85650537Y-91055506D01*
X85571185Y-90958815D01*
X85474494Y-90879463D01*
X85364180Y-90820498D01*
X85244482Y-90784188D01*
X85120000Y-90771928D01*
X84105750Y-90775000D01*
X83947000Y-90933750D01*
X83693000Y-90933750D01*
X83534250Y-90775000D01*
X82520000Y-90771928D01*
X82395518Y-90784188D01*
X82275820Y-90820498D01*
X82165506Y-90879463D01*
X82068815Y-90958815D01*
X81989463Y-91055506D01*
X81930498Y-91165820D01*
X81894188Y-91285518D01*
X81881928Y-91410000D01*
X76660000Y-91410000D01*
X76660000Y-86398061D01*
X119715000Y-86398061D01*
X119715000Y-86601939D01*
X119754774Y-86801898D01*
X119832795Y-86990256D01*
X119946063Y-87159774D01*
X120090226Y-87303937D01*
X120259744Y-87417205D01*
X120448102Y-87495226D01*
X120648061Y-87535000D01*
X120851939Y-87535000D01*
X121051898Y-87495226D01*
X121240256Y-87417205D01*
X121409774Y-87303937D01*
X121453711Y-87260000D01*
X122796289Y-87260000D01*
X122840226Y-87303937D01*
X123009744Y-87417205D01*
X123198102Y-87495226D01*
X123398061Y-87535000D01*
X123601939Y-87535000D01*
X123801898Y-87495226D01*
X123990256Y-87417205D01*
X124159774Y-87303937D01*
X124303937Y-87159774D01*
X124417205Y-86990256D01*
X124495226Y-86801898D01*
X124535000Y-86601939D01*
X124535000Y-86398061D01*
X124495226Y-86198102D01*
X124417205Y-86009744D01*
X124303937Y-85840226D01*
X124159774Y-85696063D01*
X123990256Y-85582795D01*
X123801898Y-85504774D01*
X123601939Y-85465000D01*
X123398061Y-85465000D01*
X123198102Y-85504774D01*
X123009744Y-85582795D01*
X122840226Y-85696063D01*
X122796289Y-85740000D01*
X121453711Y-85740000D01*
X121409774Y-85696063D01*
X121240256Y-85582795D01*
X121051898Y-85504774D01*
X120851939Y-85465000D01*
X120648061Y-85465000D01*
X120448102Y-85504774D01*
X120259744Y-85582795D01*
X120090226Y-85696063D01*
X119946063Y-85840226D01*
X119832795Y-86009744D01*
X119754774Y-86198102D01*
X119715000Y-86398061D01*
X76660000Y-86398061D01*
X76660000Y-78678967D01*
X79655000Y-78678967D01*
X79655000Y-79001033D01*
X79717832Y-79316912D01*
X79841082Y-79614463D01*
X80020013Y-79882252D01*
X80247748Y-80109987D01*
X80515537Y-80288918D01*
X80813088Y-80412168D01*
X81128967Y-80475000D01*
X81451033Y-80475000D01*
X81766912Y-80412168D01*
X82064463Y-80288918D01*
X82332252Y-80109987D01*
X82544178Y-79898061D01*
X110165000Y-79898061D01*
X110165000Y-80101939D01*
X110204774Y-80301898D01*
X110282795Y-80490256D01*
X110396063Y-80659774D01*
X110540226Y-80803937D01*
X110709744Y-80917205D01*
X110898102Y-80995226D01*
X111098061Y-81035000D01*
X111301939Y-81035000D01*
X111303698Y-81034650D01*
X111351014Y-81049003D01*
X111462667Y-81060000D01*
X111462676Y-81060000D01*
X111499999Y-81063676D01*
X111537322Y-81060000D01*
X113696289Y-81060000D01*
X113740226Y-81103937D01*
X113909744Y-81217205D01*
X114098102Y-81295226D01*
X114298061Y-81335000D01*
X114501939Y-81335000D01*
X114701898Y-81295226D01*
X114890256Y-81217205D01*
X115059774Y-81103937D01*
X115203937Y-80959774D01*
X115317205Y-80790256D01*
X115395226Y-80601898D01*
X115435000Y-80401939D01*
X115435000Y-80198061D01*
X115395226Y-79998102D01*
X115317205Y-79809744D01*
X115203937Y-79640226D01*
X115059774Y-79496063D01*
X114890256Y-79382795D01*
X114701898Y-79304774D01*
X114501939Y-79265000D01*
X114298061Y-79265000D01*
X114098102Y-79304774D01*
X113909744Y-79382795D01*
X113740226Y-79496063D01*
X113696289Y-79540000D01*
X112129738Y-79540000D01*
X112117205Y-79509744D01*
X112003937Y-79340226D01*
X111859774Y-79196063D01*
X111690256Y-79082795D01*
X111501898Y-79004774D01*
X111301939Y-78965000D01*
X111098061Y-78965000D01*
X110898102Y-79004774D01*
X110709744Y-79082795D01*
X110540226Y-79196063D01*
X110396063Y-79340226D01*
X110282795Y-79509744D01*
X110204774Y-79698102D01*
X110165000Y-79898061D01*
X82544178Y-79898061D01*
X82559987Y-79882252D01*
X82738918Y-79614463D01*
X82862168Y-79316912D01*
X82925000Y-79001033D01*
X82925000Y-78678967D01*
X82862168Y-78363088D01*
X82738918Y-78065537D01*
X82559987Y-77797748D01*
X82332252Y-77570013D01*
X82064463Y-77391082D01*
X81766912Y-77267832D01*
X81451033Y-77205000D01*
X81128967Y-77205000D01*
X80813088Y-77267832D01*
X80515537Y-77391082D01*
X80247748Y-77570013D01*
X80020013Y-77797748D01*
X79841082Y-78065537D01*
X79717832Y-78363088D01*
X79655000Y-78678967D01*
X76660000Y-78678967D01*
X76660000Y-68660000D01*
X139340000Y-68660000D01*
X139340001Y-102340000D01*
G37*
G04 #@! TD.AperFunction*
M02*
