G04 #@! TF.GenerationSoftware,KiCad,Pcbnew,(5.1.10)-1*
G04 #@! TF.CreationDate,2021-07-15T22:45:27-06:00*
G04 #@! TF.ProjectId,FreezerDoorAlarm,46726565-7a65-4724-946f-6f72416c6172,rev?*
G04 #@! TF.SameCoordinates,Original*
G04 #@! TF.FileFunction,Legend,Top*
G04 #@! TF.FilePolarity,Positive*
%FSLAX46Y46*%
G04 Gerber Fmt 4.6, Leading zero omitted, Abs format (unit mm)*
G04 Created by KiCad (PCBNEW (5.1.10)-1) date 2021-07-15 22:45:27*
%MOMM*%
%LPD*%
G01*
G04 APERTURE LIST*
%ADD10C,0.120000*%
%ADD11C,0.150000*%
G04 APERTURE END LIST*
D10*
X114945000Y-86295000D02*
X114945000Y-89745000D01*
X114945000Y-86295000D02*
X114945000Y-84345000D01*
X123815000Y-86295000D02*
X123815000Y-88245000D01*
X123815000Y-86295000D02*
X123815000Y-84345000D01*
X107550000Y-80380000D02*
X107550000Y-86390000D01*
X100730000Y-82630000D02*
X100730000Y-86390000D01*
X107550000Y-86390000D02*
X106290000Y-86390000D01*
X100730000Y-86390000D02*
X101990000Y-86390000D01*
X127522500Y-80622224D02*
X127522500Y-80112776D01*
X126477500Y-80622224D02*
X126477500Y-80112776D01*
X117497776Y-74182500D02*
X118007224Y-74182500D01*
X117497776Y-73137500D02*
X118007224Y-73137500D01*
X110592776Y-80532500D02*
X111102224Y-80532500D01*
X110592776Y-79487500D02*
X111102224Y-79487500D01*
X113642224Y-74407500D02*
X113132776Y-74407500D01*
X113642224Y-75452500D02*
X113132776Y-75452500D01*
X135277776Y-94502500D02*
X135787224Y-94502500D01*
X135277776Y-93457500D02*
X135787224Y-93457500D01*
X136637500Y-84477776D02*
X136637500Y-84987224D01*
X137682500Y-84477776D02*
X137682500Y-84987224D01*
X133842224Y-84477500D02*
X133332776Y-84477500D01*
X133842224Y-85522500D02*
X133332776Y-85522500D01*
X131477500Y-91832776D02*
X131477500Y-92342224D01*
X132522500Y-91832776D02*
X132522500Y-92342224D01*
X127522500Y-84167224D02*
X127522500Y-83657776D01*
X126477500Y-84167224D02*
X126477500Y-83657776D01*
X126342224Y-92187500D02*
X125832776Y-92187500D01*
X126342224Y-93232500D02*
X125832776Y-93232500D01*
X121262224Y-92187500D02*
X120752776Y-92187500D01*
X121262224Y-93232500D02*
X120752776Y-93232500D01*
X115832776Y-97022500D02*
X116342224Y-97022500D01*
X115832776Y-95977500D02*
X116342224Y-95977500D01*
X111012500Y-88797224D02*
X111012500Y-88287776D01*
X109967500Y-88797224D02*
X109967500Y-88287776D01*
X109967500Y-92097776D02*
X109967500Y-92607224D01*
X111012500Y-92097776D02*
X111012500Y-92607224D01*
X131300000Y-73970000D02*
X129840000Y-73970000D01*
X131300000Y-70810000D02*
X129140000Y-70810000D01*
X131300000Y-70810000D02*
X131300000Y-71740000D01*
X131300000Y-73970000D02*
X131300000Y-73040000D01*
X124700000Y-71130000D02*
X126160000Y-71130000D01*
X124700000Y-74290000D02*
X126860000Y-74290000D01*
X124700000Y-74290000D02*
X124700000Y-73360000D01*
X124700000Y-71130000D02*
X124700000Y-72060000D01*
X117870000Y-80320000D02*
X116410000Y-80320000D01*
X117870000Y-77160000D02*
X115710000Y-77160000D01*
X117870000Y-77160000D02*
X117870000Y-78090000D01*
X117870000Y-80320000D02*
X117870000Y-79390000D01*
X131840000Y-81590000D02*
X130380000Y-81590000D01*
X131840000Y-78430000D02*
X129680000Y-78430000D01*
X131840000Y-78430000D02*
X131840000Y-79360000D01*
X131840000Y-81590000D02*
X131840000Y-80660000D01*
X137150000Y-88410000D02*
X137150000Y-89870000D01*
X133990000Y-88410000D02*
X133990000Y-90570000D01*
X133990000Y-88410000D02*
X134920000Y-88410000D01*
X137150000Y-88410000D02*
X136220000Y-88410000D01*
X133840000Y-99690000D02*
X132380000Y-99690000D01*
X133840000Y-96530000D02*
X131680000Y-96530000D01*
X133840000Y-96530000D02*
X133840000Y-97460000D01*
X133840000Y-99690000D02*
X133840000Y-98760000D01*
X122550000Y-96030000D02*
X122550000Y-97490000D01*
X119390000Y-96030000D02*
X119390000Y-98190000D01*
X119390000Y-96030000D02*
X120320000Y-96030000D01*
X122550000Y-96030000D02*
X121620000Y-96030000D01*
X112760000Y-98530000D02*
X111300000Y-98530000D01*
X112760000Y-95370000D02*
X110600000Y-95370000D01*
X112760000Y-95370000D02*
X112760000Y-96300000D01*
X112760000Y-98530000D02*
X112760000Y-97600000D01*
X93130000Y-99795000D02*
X100090000Y-99795000D01*
X93130000Y-99620000D02*
X93130000Y-99795000D01*
X107050000Y-99795000D02*
X100090000Y-99795000D01*
X107050000Y-99620000D02*
X107050000Y-99795000D01*
X107050000Y-93245000D02*
X100090000Y-93245000D01*
X107050000Y-93420000D02*
X107050000Y-93245000D01*
X93130000Y-93245000D02*
X100090000Y-93245000D01*
X93130000Y-93420000D02*
X93130000Y-93245000D01*
X133690000Y-70190000D02*
X138090000Y-70190000D01*
X133690000Y-74590000D02*
X133690000Y-70190000D01*
X138090000Y-74590000D02*
X133690000Y-74590000D01*
X138090000Y-70190000D02*
X138090000Y-74590000D01*
X133690000Y-77810000D02*
X138090000Y-77810000D01*
X133690000Y-82210000D02*
X133690000Y-77810000D01*
X138090000Y-82210000D02*
X133690000Y-82210000D01*
X138090000Y-77810000D02*
X138090000Y-82210000D01*
X78920000Y-89870000D02*
X78920000Y-90370000D01*
X79660000Y-89870000D02*
X78920000Y-89870000D01*
X82797000Y-96563000D02*
X82751000Y-96516000D01*
X85095000Y-98860000D02*
X85059000Y-98825000D01*
X82581000Y-96756000D02*
X82546000Y-96721000D01*
X84889000Y-99065000D02*
X84843000Y-99018000D01*
X89081000Y-100390000D02*
X79160000Y-100390000D01*
X89081000Y-90110000D02*
X79160000Y-90110000D01*
X79160000Y-90110000D02*
X79160000Y-100390000D01*
X89081000Y-90110000D02*
X89081000Y-100390000D01*
X86121000Y-90110000D02*
X86121000Y-100390000D01*
X81220000Y-90110000D02*
X81220000Y-100390000D01*
X79720000Y-90110000D02*
X79720000Y-100390000D01*
X85500000Y-97790000D02*
G75*
G03*
X85500000Y-97790000I-1680000J0D01*
G01*
X82139747Y-92738805D02*
G75*
G02*
X82285000Y-92026000I1680253J28805D01*
G01*
X83136958Y-91174574D02*
G75*
G02*
X84504000Y-91175000I683042J-1535426D01*
G01*
X85355426Y-92026958D02*
G75*
G02*
X85355000Y-93394000I-1535426J-683042D01*
G01*
X84503042Y-94245426D02*
G75*
G02*
X83136000Y-94245000I-683042J1535426D01*
G01*
X82285244Y-93393318D02*
G75*
G02*
X82140000Y-92710000I1534756J683318D01*
G01*
X96530000Y-77650000D02*
X96530000Y-79390000D01*
X94790000Y-77650000D02*
X96530000Y-77650000D01*
X90890000Y-83440000D02*
X88440000Y-83440000D01*
X90890000Y-83040000D02*
X90890000Y-83440000D01*
X92890000Y-83040000D02*
X90890000Y-83040000D01*
X92890000Y-81440000D02*
X92890000Y-83040000D01*
X92890000Y-74640000D02*
X92890000Y-77640000D01*
X90890000Y-74640000D02*
X92890000Y-74640000D01*
X90890000Y-74240000D02*
X90890000Y-74640000D01*
X88440000Y-74240000D02*
X90890000Y-74240000D01*
X78190000Y-74240000D02*
X81740000Y-74240000D01*
X78190000Y-83440000D02*
X78190000Y-74240000D01*
X81740000Y-83440000D02*
X78190000Y-83440000D01*
X120410000Y-75190000D02*
X120410000Y-79575000D01*
X123430000Y-75190000D02*
X120410000Y-75190000D01*
X123430000Y-79575000D02*
X123430000Y-75190000D01*
X131820000Y-86120000D02*
X127435000Y-86120000D01*
X131820000Y-89140000D02*
X131820000Y-86120000D01*
X127435000Y-89140000D02*
X131820000Y-89140000D01*
X125990000Y-94800000D02*
X125990000Y-99185000D01*
X129010000Y-94800000D02*
X125990000Y-94800000D01*
X129010000Y-99185000D02*
X129010000Y-94800000D01*
X115060000Y-92156233D02*
X115060000Y-92448767D01*
X116080000Y-92156233D02*
X116080000Y-92448767D01*
X111250000Y-84081233D02*
X111250000Y-84373767D01*
X112270000Y-84081233D02*
X112270000Y-84373767D01*
X104960000Y-76440000D02*
X109345000Y-76440000D01*
X104960000Y-73420000D02*
X104960000Y-76440000D01*
X109345000Y-73420000D02*
X104960000Y-73420000D01*
X102510000Y-73420000D02*
X98125000Y-73420000D01*
X102510000Y-76440000D02*
X102510000Y-73420000D01*
X98125000Y-76440000D02*
X102510000Y-76440000D01*
D11*
X113552380Y-87056904D02*
X114361904Y-87056904D01*
X114457142Y-87009285D01*
X114504761Y-86961666D01*
X114552380Y-86866428D01*
X114552380Y-86675952D01*
X114504761Y-86580714D01*
X114457142Y-86533095D01*
X114361904Y-86485476D01*
X113552380Y-86485476D01*
X113647619Y-86056904D02*
X113600000Y-86009285D01*
X113552380Y-85914047D01*
X113552380Y-85675952D01*
X113600000Y-85580714D01*
X113647619Y-85533095D01*
X113742857Y-85485476D01*
X113838095Y-85485476D01*
X113980952Y-85533095D01*
X114552380Y-86104523D01*
X114552380Y-85485476D01*
X108092380Y-85241904D02*
X108901904Y-85241904D01*
X108997142Y-85194285D01*
X109044761Y-85146666D01*
X109092380Y-85051428D01*
X109092380Y-84860952D01*
X109044761Y-84765714D01*
X108997142Y-84718095D01*
X108901904Y-84670476D01*
X108092380Y-84670476D01*
X109092380Y-83670476D02*
X109092380Y-84241904D01*
X109092380Y-83956190D02*
X108092380Y-83956190D01*
X108235238Y-84051428D01*
X108330476Y-84146666D01*
X108378095Y-84241904D01*
X126022380Y-81010357D02*
X125546190Y-81343690D01*
X126022380Y-81581785D02*
X125022380Y-81581785D01*
X125022380Y-81200833D01*
X125070000Y-81105595D01*
X125117619Y-81057976D01*
X125212857Y-81010357D01*
X125355714Y-81010357D01*
X125450952Y-81057976D01*
X125498571Y-81105595D01*
X125546190Y-81200833D01*
X125546190Y-81581785D01*
X126022380Y-80057976D02*
X126022380Y-80629404D01*
X126022380Y-80343690D02*
X125022380Y-80343690D01*
X125165238Y-80438928D01*
X125260476Y-80534166D01*
X125308095Y-80629404D01*
X125355714Y-79200833D02*
X126022380Y-79200833D01*
X124974761Y-79438928D02*
X125689047Y-79677023D01*
X125689047Y-79057976D01*
X117109642Y-72682380D02*
X116776309Y-72206190D01*
X116538214Y-72682380D02*
X116538214Y-71682380D01*
X116919166Y-71682380D01*
X117014404Y-71730000D01*
X117062023Y-71777619D01*
X117109642Y-71872857D01*
X117109642Y-72015714D01*
X117062023Y-72110952D01*
X117014404Y-72158571D01*
X116919166Y-72206190D01*
X116538214Y-72206190D01*
X118062023Y-72682380D02*
X117490595Y-72682380D01*
X117776309Y-72682380D02*
X117776309Y-71682380D01*
X117681071Y-71825238D01*
X117585833Y-71920476D01*
X117490595Y-71968095D01*
X118395357Y-71682380D02*
X119014404Y-71682380D01*
X118681071Y-72063333D01*
X118823928Y-72063333D01*
X118919166Y-72110952D01*
X118966785Y-72158571D01*
X119014404Y-72253809D01*
X119014404Y-72491904D01*
X118966785Y-72587142D01*
X118919166Y-72634761D01*
X118823928Y-72682380D01*
X118538214Y-72682380D01*
X118442976Y-72634761D01*
X118395357Y-72587142D01*
X110204642Y-79032380D02*
X109871309Y-78556190D01*
X109633214Y-79032380D02*
X109633214Y-78032380D01*
X110014166Y-78032380D01*
X110109404Y-78080000D01*
X110157023Y-78127619D01*
X110204642Y-78222857D01*
X110204642Y-78365714D01*
X110157023Y-78460952D01*
X110109404Y-78508571D01*
X110014166Y-78556190D01*
X109633214Y-78556190D01*
X111157023Y-79032380D02*
X110585595Y-79032380D01*
X110871309Y-79032380D02*
X110871309Y-78032380D01*
X110776071Y-78175238D01*
X110680833Y-78270476D01*
X110585595Y-78318095D01*
X111537976Y-78127619D02*
X111585595Y-78080000D01*
X111680833Y-78032380D01*
X111918928Y-78032380D01*
X112014166Y-78080000D01*
X112061785Y-78127619D01*
X112109404Y-78222857D01*
X112109404Y-78318095D01*
X112061785Y-78460952D01*
X111490357Y-79032380D01*
X112109404Y-79032380D01*
X112744642Y-76812380D02*
X112411309Y-76336190D01*
X112173214Y-76812380D02*
X112173214Y-75812380D01*
X112554166Y-75812380D01*
X112649404Y-75860000D01*
X112697023Y-75907619D01*
X112744642Y-76002857D01*
X112744642Y-76145714D01*
X112697023Y-76240952D01*
X112649404Y-76288571D01*
X112554166Y-76336190D01*
X112173214Y-76336190D01*
X113697023Y-76812380D02*
X113125595Y-76812380D01*
X113411309Y-76812380D02*
X113411309Y-75812380D01*
X113316071Y-75955238D01*
X113220833Y-76050476D01*
X113125595Y-76098095D01*
X114649404Y-76812380D02*
X114077976Y-76812380D01*
X114363690Y-76812380D02*
X114363690Y-75812380D01*
X114268452Y-75955238D01*
X114173214Y-76050476D01*
X114077976Y-76098095D01*
X134889642Y-93002380D02*
X134556309Y-92526190D01*
X134318214Y-93002380D02*
X134318214Y-92002380D01*
X134699166Y-92002380D01*
X134794404Y-92050000D01*
X134842023Y-92097619D01*
X134889642Y-92192857D01*
X134889642Y-92335714D01*
X134842023Y-92430952D01*
X134794404Y-92478571D01*
X134699166Y-92526190D01*
X134318214Y-92526190D01*
X135842023Y-93002380D02*
X135270595Y-93002380D01*
X135556309Y-93002380D02*
X135556309Y-92002380D01*
X135461071Y-92145238D01*
X135365833Y-92240476D01*
X135270595Y-92288095D01*
X136461071Y-92002380D02*
X136556309Y-92002380D01*
X136651547Y-92050000D01*
X136699166Y-92097619D01*
X136746785Y-92192857D01*
X136794404Y-92383333D01*
X136794404Y-92621428D01*
X136746785Y-92811904D01*
X136699166Y-92907142D01*
X136651547Y-92954761D01*
X136556309Y-93002380D01*
X136461071Y-93002380D01*
X136365833Y-92954761D01*
X136318214Y-92907142D01*
X136270595Y-92811904D01*
X136222976Y-92621428D01*
X136222976Y-92383333D01*
X136270595Y-92192857D01*
X136318214Y-92097619D01*
X136365833Y-92050000D01*
X136461071Y-92002380D01*
X139042380Y-84899166D02*
X138566190Y-85232500D01*
X139042380Y-85470595D02*
X138042380Y-85470595D01*
X138042380Y-85089642D01*
X138090000Y-84994404D01*
X138137619Y-84946785D01*
X138232857Y-84899166D01*
X138375714Y-84899166D01*
X138470952Y-84946785D01*
X138518571Y-84994404D01*
X138566190Y-85089642D01*
X138566190Y-85470595D01*
X139042380Y-84422976D02*
X139042380Y-84232500D01*
X138994761Y-84137261D01*
X138947142Y-84089642D01*
X138804285Y-83994404D01*
X138613809Y-83946785D01*
X138232857Y-83946785D01*
X138137619Y-83994404D01*
X138090000Y-84042023D01*
X138042380Y-84137261D01*
X138042380Y-84327738D01*
X138090000Y-84422976D01*
X138137619Y-84470595D01*
X138232857Y-84518214D01*
X138470952Y-84518214D01*
X138566190Y-84470595D01*
X138613809Y-84422976D01*
X138661428Y-84327738D01*
X138661428Y-84137261D01*
X138613809Y-84042023D01*
X138566190Y-83994404D01*
X138470952Y-83946785D01*
X133420833Y-86882380D02*
X133087500Y-86406190D01*
X132849404Y-86882380D02*
X132849404Y-85882380D01*
X133230357Y-85882380D01*
X133325595Y-85930000D01*
X133373214Y-85977619D01*
X133420833Y-86072857D01*
X133420833Y-86215714D01*
X133373214Y-86310952D01*
X133325595Y-86358571D01*
X133230357Y-86406190D01*
X132849404Y-86406190D01*
X133992261Y-86310952D02*
X133897023Y-86263333D01*
X133849404Y-86215714D01*
X133801785Y-86120476D01*
X133801785Y-86072857D01*
X133849404Y-85977619D01*
X133897023Y-85930000D01*
X133992261Y-85882380D01*
X134182738Y-85882380D01*
X134277976Y-85930000D01*
X134325595Y-85977619D01*
X134373214Y-86072857D01*
X134373214Y-86120476D01*
X134325595Y-86215714D01*
X134277976Y-86263333D01*
X134182738Y-86310952D01*
X133992261Y-86310952D01*
X133897023Y-86358571D01*
X133849404Y-86406190D01*
X133801785Y-86501428D01*
X133801785Y-86691904D01*
X133849404Y-86787142D01*
X133897023Y-86834761D01*
X133992261Y-86882380D01*
X134182738Y-86882380D01*
X134277976Y-86834761D01*
X134325595Y-86787142D01*
X134373214Y-86691904D01*
X134373214Y-86501428D01*
X134325595Y-86406190D01*
X134277976Y-86358571D01*
X134182738Y-86310952D01*
X133882380Y-92254166D02*
X133406190Y-92587500D01*
X133882380Y-92825595D02*
X132882380Y-92825595D01*
X132882380Y-92444642D01*
X132930000Y-92349404D01*
X132977619Y-92301785D01*
X133072857Y-92254166D01*
X133215714Y-92254166D01*
X133310952Y-92301785D01*
X133358571Y-92349404D01*
X133406190Y-92444642D01*
X133406190Y-92825595D01*
X132882380Y-91920833D02*
X132882380Y-91254166D01*
X133882380Y-91682738D01*
X126022380Y-84079166D02*
X125546190Y-84412500D01*
X126022380Y-84650595D02*
X125022380Y-84650595D01*
X125022380Y-84269642D01*
X125070000Y-84174404D01*
X125117619Y-84126785D01*
X125212857Y-84079166D01*
X125355714Y-84079166D01*
X125450952Y-84126785D01*
X125498571Y-84174404D01*
X125546190Y-84269642D01*
X125546190Y-84650595D01*
X125022380Y-83222023D02*
X125022380Y-83412500D01*
X125070000Y-83507738D01*
X125117619Y-83555357D01*
X125260476Y-83650595D01*
X125450952Y-83698214D01*
X125831904Y-83698214D01*
X125927142Y-83650595D01*
X125974761Y-83602976D01*
X126022380Y-83507738D01*
X126022380Y-83317261D01*
X125974761Y-83222023D01*
X125927142Y-83174404D01*
X125831904Y-83126785D01*
X125593809Y-83126785D01*
X125498571Y-83174404D01*
X125450952Y-83222023D01*
X125403333Y-83317261D01*
X125403333Y-83507738D01*
X125450952Y-83602976D01*
X125498571Y-83650595D01*
X125593809Y-83698214D01*
X125920833Y-94592380D02*
X125587500Y-94116190D01*
X125349404Y-94592380D02*
X125349404Y-93592380D01*
X125730357Y-93592380D01*
X125825595Y-93640000D01*
X125873214Y-93687619D01*
X125920833Y-93782857D01*
X125920833Y-93925714D01*
X125873214Y-94020952D01*
X125825595Y-94068571D01*
X125730357Y-94116190D01*
X125349404Y-94116190D01*
X126825595Y-93592380D02*
X126349404Y-93592380D01*
X126301785Y-94068571D01*
X126349404Y-94020952D01*
X126444642Y-93973333D01*
X126682738Y-93973333D01*
X126777976Y-94020952D01*
X126825595Y-94068571D01*
X126873214Y-94163809D01*
X126873214Y-94401904D01*
X126825595Y-94497142D01*
X126777976Y-94544761D01*
X126682738Y-94592380D01*
X126444642Y-94592380D01*
X126349404Y-94544761D01*
X126301785Y-94497142D01*
X120840833Y-94592380D02*
X120507500Y-94116190D01*
X120269404Y-94592380D02*
X120269404Y-93592380D01*
X120650357Y-93592380D01*
X120745595Y-93640000D01*
X120793214Y-93687619D01*
X120840833Y-93782857D01*
X120840833Y-93925714D01*
X120793214Y-94020952D01*
X120745595Y-94068571D01*
X120650357Y-94116190D01*
X120269404Y-94116190D01*
X121697976Y-93925714D02*
X121697976Y-94592380D01*
X121459880Y-93544761D02*
X121221785Y-94259047D01*
X121840833Y-94259047D01*
X115920833Y-95522380D02*
X115587500Y-95046190D01*
X115349404Y-95522380D02*
X115349404Y-94522380D01*
X115730357Y-94522380D01*
X115825595Y-94570000D01*
X115873214Y-94617619D01*
X115920833Y-94712857D01*
X115920833Y-94855714D01*
X115873214Y-94950952D01*
X115825595Y-94998571D01*
X115730357Y-95046190D01*
X115349404Y-95046190D01*
X116254166Y-94522380D02*
X116873214Y-94522380D01*
X116539880Y-94903333D01*
X116682738Y-94903333D01*
X116777976Y-94950952D01*
X116825595Y-94998571D01*
X116873214Y-95093809D01*
X116873214Y-95331904D01*
X116825595Y-95427142D01*
X116777976Y-95474761D01*
X116682738Y-95522380D01*
X116397023Y-95522380D01*
X116301785Y-95474761D01*
X116254166Y-95427142D01*
X109512380Y-88709166D02*
X109036190Y-89042500D01*
X109512380Y-89280595D02*
X108512380Y-89280595D01*
X108512380Y-88899642D01*
X108560000Y-88804404D01*
X108607619Y-88756785D01*
X108702857Y-88709166D01*
X108845714Y-88709166D01*
X108940952Y-88756785D01*
X108988571Y-88804404D01*
X109036190Y-88899642D01*
X109036190Y-89280595D01*
X108607619Y-88328214D02*
X108560000Y-88280595D01*
X108512380Y-88185357D01*
X108512380Y-87947261D01*
X108560000Y-87852023D01*
X108607619Y-87804404D01*
X108702857Y-87756785D01*
X108798095Y-87756785D01*
X108940952Y-87804404D01*
X109512380Y-88375833D01*
X109512380Y-87756785D01*
X112372380Y-92519166D02*
X111896190Y-92852500D01*
X112372380Y-93090595D02*
X111372380Y-93090595D01*
X111372380Y-92709642D01*
X111420000Y-92614404D01*
X111467619Y-92566785D01*
X111562857Y-92519166D01*
X111705714Y-92519166D01*
X111800952Y-92566785D01*
X111848571Y-92614404D01*
X111896190Y-92709642D01*
X111896190Y-93090595D01*
X112372380Y-91566785D02*
X112372380Y-92138214D01*
X112372380Y-91852500D02*
X111372380Y-91852500D01*
X111515238Y-91947738D01*
X111610476Y-92042976D01*
X111658095Y-92138214D01*
X130444761Y-70437619D02*
X130349523Y-70390000D01*
X130254285Y-70294761D01*
X130111428Y-70151904D01*
X130016190Y-70104285D01*
X129920952Y-70104285D01*
X129968571Y-70342380D02*
X129873333Y-70294761D01*
X129778095Y-70199523D01*
X129730476Y-70009047D01*
X129730476Y-69675714D01*
X129778095Y-69485238D01*
X129873333Y-69390000D01*
X129968571Y-69342380D01*
X130159047Y-69342380D01*
X130254285Y-69390000D01*
X130349523Y-69485238D01*
X130397142Y-69675714D01*
X130397142Y-70009047D01*
X130349523Y-70199523D01*
X130254285Y-70294761D01*
X130159047Y-70342380D01*
X129968571Y-70342380D01*
X130968571Y-69770952D02*
X130873333Y-69723333D01*
X130825714Y-69675714D01*
X130778095Y-69580476D01*
X130778095Y-69532857D01*
X130825714Y-69437619D01*
X130873333Y-69390000D01*
X130968571Y-69342380D01*
X131159047Y-69342380D01*
X131254285Y-69390000D01*
X131301904Y-69437619D01*
X131349523Y-69532857D01*
X131349523Y-69580476D01*
X131301904Y-69675714D01*
X131254285Y-69723333D01*
X131159047Y-69770952D01*
X130968571Y-69770952D01*
X130873333Y-69818571D01*
X130825714Y-69866190D01*
X130778095Y-69961428D01*
X130778095Y-70151904D01*
X130825714Y-70247142D01*
X130873333Y-70294761D01*
X130968571Y-70342380D01*
X131159047Y-70342380D01*
X131254285Y-70294761D01*
X131301904Y-70247142D01*
X131349523Y-70151904D01*
X131349523Y-69961428D01*
X131301904Y-69866190D01*
X131254285Y-69818571D01*
X131159047Y-69770952D01*
X125364761Y-75757619D02*
X125269523Y-75710000D01*
X125174285Y-75614761D01*
X125031428Y-75471904D01*
X124936190Y-75424285D01*
X124840952Y-75424285D01*
X124888571Y-75662380D02*
X124793333Y-75614761D01*
X124698095Y-75519523D01*
X124650476Y-75329047D01*
X124650476Y-74995714D01*
X124698095Y-74805238D01*
X124793333Y-74710000D01*
X124888571Y-74662380D01*
X125079047Y-74662380D01*
X125174285Y-74710000D01*
X125269523Y-74805238D01*
X125317142Y-74995714D01*
X125317142Y-75329047D01*
X125269523Y-75519523D01*
X125174285Y-75614761D01*
X125079047Y-75662380D01*
X124888571Y-75662380D01*
X125650476Y-74662380D02*
X126317142Y-74662380D01*
X125888571Y-75662380D01*
X117014761Y-76787619D02*
X116919523Y-76740000D01*
X116824285Y-76644761D01*
X116681428Y-76501904D01*
X116586190Y-76454285D01*
X116490952Y-76454285D01*
X116538571Y-76692380D02*
X116443333Y-76644761D01*
X116348095Y-76549523D01*
X116300476Y-76359047D01*
X116300476Y-76025714D01*
X116348095Y-75835238D01*
X116443333Y-75740000D01*
X116538571Y-75692380D01*
X116729047Y-75692380D01*
X116824285Y-75740000D01*
X116919523Y-75835238D01*
X116967142Y-76025714D01*
X116967142Y-76359047D01*
X116919523Y-76549523D01*
X116824285Y-76644761D01*
X116729047Y-76692380D01*
X116538571Y-76692380D01*
X117824285Y-75692380D02*
X117633809Y-75692380D01*
X117538571Y-75740000D01*
X117490952Y-75787619D01*
X117395714Y-75930476D01*
X117348095Y-76120952D01*
X117348095Y-76501904D01*
X117395714Y-76597142D01*
X117443333Y-76644761D01*
X117538571Y-76692380D01*
X117729047Y-76692380D01*
X117824285Y-76644761D01*
X117871904Y-76597142D01*
X117919523Y-76501904D01*
X117919523Y-76263809D01*
X117871904Y-76168571D01*
X117824285Y-76120952D01*
X117729047Y-76073333D01*
X117538571Y-76073333D01*
X117443333Y-76120952D01*
X117395714Y-76168571D01*
X117348095Y-76263809D01*
X130984761Y-78057619D02*
X130889523Y-78010000D01*
X130794285Y-77914761D01*
X130651428Y-77771904D01*
X130556190Y-77724285D01*
X130460952Y-77724285D01*
X130508571Y-77962380D02*
X130413333Y-77914761D01*
X130318095Y-77819523D01*
X130270476Y-77629047D01*
X130270476Y-77295714D01*
X130318095Y-77105238D01*
X130413333Y-77010000D01*
X130508571Y-76962380D01*
X130699047Y-76962380D01*
X130794285Y-77010000D01*
X130889523Y-77105238D01*
X130937142Y-77295714D01*
X130937142Y-77629047D01*
X130889523Y-77819523D01*
X130794285Y-77914761D01*
X130699047Y-77962380D01*
X130508571Y-77962380D01*
X131841904Y-76962380D02*
X131365714Y-76962380D01*
X131318095Y-77438571D01*
X131365714Y-77390952D01*
X131460952Y-77343333D01*
X131699047Y-77343333D01*
X131794285Y-77390952D01*
X131841904Y-77438571D01*
X131889523Y-77533809D01*
X131889523Y-77771904D01*
X131841904Y-77867142D01*
X131794285Y-77914761D01*
X131699047Y-77962380D01*
X131460952Y-77962380D01*
X131365714Y-77914761D01*
X131318095Y-77867142D01*
X133617619Y-89265238D02*
X133570000Y-89360476D01*
X133474761Y-89455714D01*
X133331904Y-89598571D01*
X133284285Y-89693809D01*
X133284285Y-89789047D01*
X133522380Y-89741428D02*
X133474761Y-89836666D01*
X133379523Y-89931904D01*
X133189047Y-89979523D01*
X132855714Y-89979523D01*
X132665238Y-89931904D01*
X132570000Y-89836666D01*
X132522380Y-89741428D01*
X132522380Y-89550952D01*
X132570000Y-89455714D01*
X132665238Y-89360476D01*
X132855714Y-89312857D01*
X133189047Y-89312857D01*
X133379523Y-89360476D01*
X133474761Y-89455714D01*
X133522380Y-89550952D01*
X133522380Y-89741428D01*
X132855714Y-88455714D02*
X133522380Y-88455714D01*
X132474761Y-88693809D02*
X133189047Y-88931904D01*
X133189047Y-88312857D01*
X132984761Y-96157619D02*
X132889523Y-96110000D01*
X132794285Y-96014761D01*
X132651428Y-95871904D01*
X132556190Y-95824285D01*
X132460952Y-95824285D01*
X132508571Y-96062380D02*
X132413333Y-96014761D01*
X132318095Y-95919523D01*
X132270476Y-95729047D01*
X132270476Y-95395714D01*
X132318095Y-95205238D01*
X132413333Y-95110000D01*
X132508571Y-95062380D01*
X132699047Y-95062380D01*
X132794285Y-95110000D01*
X132889523Y-95205238D01*
X132937142Y-95395714D01*
X132937142Y-95729047D01*
X132889523Y-95919523D01*
X132794285Y-96014761D01*
X132699047Y-96062380D01*
X132508571Y-96062380D01*
X133270476Y-95062380D02*
X133889523Y-95062380D01*
X133556190Y-95443333D01*
X133699047Y-95443333D01*
X133794285Y-95490952D01*
X133841904Y-95538571D01*
X133889523Y-95633809D01*
X133889523Y-95871904D01*
X133841904Y-95967142D01*
X133794285Y-96014761D01*
X133699047Y-96062380D01*
X133413333Y-96062380D01*
X133318095Y-96014761D01*
X133270476Y-95967142D01*
X119017619Y-96885238D02*
X118970000Y-96980476D01*
X118874761Y-97075714D01*
X118731904Y-97218571D01*
X118684285Y-97313809D01*
X118684285Y-97409047D01*
X118922380Y-97361428D02*
X118874761Y-97456666D01*
X118779523Y-97551904D01*
X118589047Y-97599523D01*
X118255714Y-97599523D01*
X118065238Y-97551904D01*
X117970000Y-97456666D01*
X117922380Y-97361428D01*
X117922380Y-97170952D01*
X117970000Y-97075714D01*
X118065238Y-96980476D01*
X118255714Y-96932857D01*
X118589047Y-96932857D01*
X118779523Y-96980476D01*
X118874761Y-97075714D01*
X118922380Y-97170952D01*
X118922380Y-97361428D01*
X118017619Y-96551904D02*
X117970000Y-96504285D01*
X117922380Y-96409047D01*
X117922380Y-96170952D01*
X117970000Y-96075714D01*
X118017619Y-96028095D01*
X118112857Y-95980476D01*
X118208095Y-95980476D01*
X118350952Y-96028095D01*
X118922380Y-96599523D01*
X118922380Y-95980476D01*
X111904761Y-94997619D02*
X111809523Y-94950000D01*
X111714285Y-94854761D01*
X111571428Y-94711904D01*
X111476190Y-94664285D01*
X111380952Y-94664285D01*
X111428571Y-94902380D02*
X111333333Y-94854761D01*
X111238095Y-94759523D01*
X111190476Y-94569047D01*
X111190476Y-94235714D01*
X111238095Y-94045238D01*
X111333333Y-93950000D01*
X111428571Y-93902380D01*
X111619047Y-93902380D01*
X111714285Y-93950000D01*
X111809523Y-94045238D01*
X111857142Y-94235714D01*
X111857142Y-94569047D01*
X111809523Y-94759523D01*
X111714285Y-94854761D01*
X111619047Y-94902380D01*
X111428571Y-94902380D01*
X112809523Y-94902380D02*
X112238095Y-94902380D01*
X112523809Y-94902380D02*
X112523809Y-93902380D01*
X112428571Y-94045238D01*
X112333333Y-94140476D01*
X112238095Y-94188095D01*
X99923333Y-92797380D02*
X99447142Y-92797380D01*
X99447142Y-91797380D01*
X100780476Y-92797380D02*
X100209047Y-92797380D01*
X100494761Y-92797380D02*
X100494761Y-91797380D01*
X100399523Y-91940238D01*
X100304285Y-92035476D01*
X100209047Y-92083095D01*
X138240380Y-72723333D02*
X138954666Y-72723333D01*
X139097523Y-72770952D01*
X139192761Y-72866190D01*
X139240380Y-73009047D01*
X139240380Y-73104285D01*
X138573714Y-71818571D02*
X139240380Y-71818571D01*
X138192761Y-72056666D02*
X138907047Y-72294761D01*
X138907047Y-71675714D01*
X138240380Y-80343333D02*
X138954666Y-80343333D01*
X139097523Y-80390952D01*
X139192761Y-80486190D01*
X139240380Y-80629047D01*
X139240380Y-80724285D01*
X138240380Y-79962380D02*
X138240380Y-79343333D01*
X138621333Y-79676666D01*
X138621333Y-79533809D01*
X138668952Y-79438571D01*
X138716571Y-79390952D01*
X138811809Y-79343333D01*
X139049904Y-79343333D01*
X139145142Y-79390952D01*
X139192761Y-79438571D01*
X139240380Y-79533809D01*
X139240380Y-79819523D01*
X139192761Y-79914761D01*
X139145142Y-79962380D01*
X89532380Y-95583333D02*
X90246666Y-95583333D01*
X90389523Y-95630952D01*
X90484761Y-95726190D01*
X90532380Y-95869047D01*
X90532380Y-95964285D01*
X89627619Y-95154761D02*
X89580000Y-95107142D01*
X89532380Y-95011904D01*
X89532380Y-94773809D01*
X89580000Y-94678571D01*
X89627619Y-94630952D01*
X89722857Y-94583333D01*
X89818095Y-94583333D01*
X89960952Y-94630952D01*
X90532380Y-95202380D01*
X90532380Y-94583333D01*
X93492380Y-74673333D02*
X94206666Y-74673333D01*
X94349523Y-74720952D01*
X94444761Y-74816190D01*
X94492380Y-74959047D01*
X94492380Y-75054285D01*
X94492380Y-73673333D02*
X94492380Y-74244761D01*
X94492380Y-73959047D02*
X93492380Y-73959047D01*
X93635238Y-74054285D01*
X93730476Y-74149523D01*
X93778095Y-74244761D01*
X124627142Y-77991666D02*
X124674761Y-78039285D01*
X124722380Y-78182142D01*
X124722380Y-78277380D01*
X124674761Y-78420238D01*
X124579523Y-78515476D01*
X124484285Y-78563095D01*
X124293809Y-78610714D01*
X124150952Y-78610714D01*
X123960476Y-78563095D01*
X123865238Y-78515476D01*
X123770000Y-78420238D01*
X123722380Y-78277380D01*
X123722380Y-78182142D01*
X123770000Y-78039285D01*
X123817619Y-77991666D01*
X123722380Y-77658333D02*
X123722380Y-76991666D01*
X124722380Y-77420238D01*
X129018333Y-90337142D02*
X128970714Y-90384761D01*
X128827857Y-90432380D01*
X128732619Y-90432380D01*
X128589761Y-90384761D01*
X128494523Y-90289523D01*
X128446904Y-90194285D01*
X128399285Y-90003809D01*
X128399285Y-89860952D01*
X128446904Y-89670476D01*
X128494523Y-89575238D01*
X128589761Y-89480000D01*
X128732619Y-89432380D01*
X128827857Y-89432380D01*
X128970714Y-89480000D01*
X129018333Y-89527619D01*
X129875476Y-89432380D02*
X129685000Y-89432380D01*
X129589761Y-89480000D01*
X129542142Y-89527619D01*
X129446904Y-89670476D01*
X129399285Y-89860952D01*
X129399285Y-90241904D01*
X129446904Y-90337142D01*
X129494523Y-90384761D01*
X129589761Y-90432380D01*
X129780238Y-90432380D01*
X129875476Y-90384761D01*
X129923095Y-90337142D01*
X129970714Y-90241904D01*
X129970714Y-90003809D01*
X129923095Y-89908571D01*
X129875476Y-89860952D01*
X129780238Y-89813333D01*
X129589761Y-89813333D01*
X129494523Y-89860952D01*
X129446904Y-89908571D01*
X129399285Y-90003809D01*
X130207142Y-97601666D02*
X130254761Y-97649285D01*
X130302380Y-97792142D01*
X130302380Y-97887380D01*
X130254761Y-98030238D01*
X130159523Y-98125476D01*
X130064285Y-98173095D01*
X129873809Y-98220714D01*
X129730952Y-98220714D01*
X129540476Y-98173095D01*
X129445238Y-98125476D01*
X129350000Y-98030238D01*
X129302380Y-97887380D01*
X129302380Y-97792142D01*
X129350000Y-97649285D01*
X129397619Y-97601666D01*
X129302380Y-96696904D02*
X129302380Y-97173095D01*
X129778571Y-97220714D01*
X129730952Y-97173095D01*
X129683333Y-97077857D01*
X129683333Y-96839761D01*
X129730952Y-96744523D01*
X129778571Y-96696904D01*
X129873809Y-96649285D01*
X130111904Y-96649285D01*
X130207142Y-96696904D01*
X130254761Y-96744523D01*
X130302380Y-96839761D01*
X130302380Y-97077857D01*
X130254761Y-97173095D01*
X130207142Y-97220714D01*
X117357142Y-92469166D02*
X117404761Y-92516785D01*
X117452380Y-92659642D01*
X117452380Y-92754880D01*
X117404761Y-92897738D01*
X117309523Y-92992976D01*
X117214285Y-93040595D01*
X117023809Y-93088214D01*
X116880952Y-93088214D01*
X116690476Y-93040595D01*
X116595238Y-92992976D01*
X116500000Y-92897738D01*
X116452380Y-92754880D01*
X116452380Y-92659642D01*
X116500000Y-92516785D01*
X116547619Y-92469166D01*
X116785714Y-91612023D02*
X117452380Y-91612023D01*
X116404761Y-91850119D02*
X117119047Y-92088214D01*
X117119047Y-91469166D01*
X113547142Y-84394166D02*
X113594761Y-84441785D01*
X113642380Y-84584642D01*
X113642380Y-84679880D01*
X113594761Y-84822738D01*
X113499523Y-84917976D01*
X113404285Y-84965595D01*
X113213809Y-85013214D01*
X113070952Y-85013214D01*
X112880476Y-84965595D01*
X112785238Y-84917976D01*
X112690000Y-84822738D01*
X112642380Y-84679880D01*
X112642380Y-84584642D01*
X112690000Y-84441785D01*
X112737619Y-84394166D01*
X112642380Y-84060833D02*
X112642380Y-83441785D01*
X113023333Y-83775119D01*
X113023333Y-83632261D01*
X113070952Y-83537023D01*
X113118571Y-83489404D01*
X113213809Y-83441785D01*
X113451904Y-83441785D01*
X113547142Y-83489404D01*
X113594761Y-83537023D01*
X113642380Y-83632261D01*
X113642380Y-83917976D01*
X113594761Y-84013214D01*
X113547142Y-84060833D01*
X107428333Y-72937142D02*
X107380714Y-72984761D01*
X107237857Y-73032380D01*
X107142619Y-73032380D01*
X106999761Y-72984761D01*
X106904523Y-72889523D01*
X106856904Y-72794285D01*
X106809285Y-72603809D01*
X106809285Y-72460952D01*
X106856904Y-72270476D01*
X106904523Y-72175238D01*
X106999761Y-72080000D01*
X107142619Y-72032380D01*
X107237857Y-72032380D01*
X107380714Y-72080000D01*
X107428333Y-72127619D01*
X107809285Y-72127619D02*
X107856904Y-72080000D01*
X107952142Y-72032380D01*
X108190238Y-72032380D01*
X108285476Y-72080000D01*
X108333095Y-72127619D01*
X108380714Y-72222857D01*
X108380714Y-72318095D01*
X108333095Y-72460952D01*
X107761666Y-73032380D01*
X108380714Y-73032380D01*
X99708333Y-77637142D02*
X99660714Y-77684761D01*
X99517857Y-77732380D01*
X99422619Y-77732380D01*
X99279761Y-77684761D01*
X99184523Y-77589523D01*
X99136904Y-77494285D01*
X99089285Y-77303809D01*
X99089285Y-77160952D01*
X99136904Y-76970476D01*
X99184523Y-76875238D01*
X99279761Y-76780000D01*
X99422619Y-76732380D01*
X99517857Y-76732380D01*
X99660714Y-76780000D01*
X99708333Y-76827619D01*
X100660714Y-77732380D02*
X100089285Y-77732380D01*
X100375000Y-77732380D02*
X100375000Y-76732380D01*
X100279761Y-76875238D01*
X100184523Y-76970476D01*
X100089285Y-77018095D01*
M02*
