G04 #@! TF.GenerationSoftware,KiCad,Pcbnew,(5.1.10)-1*
G04 #@! TF.CreationDate,2021-07-17T19:43:19-06:00*
G04 #@! TF.ProjectId,FreezerDoorAlarm,46726565-7a65-4724-946f-6f72416c6172,rev?*
G04 #@! TF.SameCoordinates,Original*
G04 #@! TF.FileFunction,Soldermask,Top*
G04 #@! TF.FilePolarity,Negative*
%FSLAX46Y46*%
G04 Gerber Fmt 4.6, Leading zero omitted, Abs format (unit mm)*
G04 Created by KiCad (PCBNEW (5.1.10)-1) date 2021-07-17 19:43:19*
%MOMM*%
%LPD*%
G01*
G04 APERTURE LIST*
%ADD10R,1.500000X2.000000*%
%ADD11R,3.800000X2.000000*%
%ADD12R,0.900000X0.800000*%
%ADD13R,0.800000X0.900000*%
%ADD14R,4.600000X5.600000*%
%ADD15R,4.000000X4.000000*%
%ADD16C,2.600000*%
%ADD17R,2.600000X2.600000*%
%ADD18C,2.000000*%
%ADD19R,6.200000X3.900000*%
%ADD20R,4.400000X3.300000*%
G04 APERTURE END LIST*
G36*
G01*
X112537500Y-82037500D02*
X112537500Y-81562500D01*
G75*
G02*
X112775000Y-81325000I237500J0D01*
G01*
X113275000Y-81325000D01*
G75*
G02*
X113512500Y-81562500I0J-237500D01*
G01*
X113512500Y-82037500D01*
G75*
G02*
X113275000Y-82275000I-237500J0D01*
G01*
X112775000Y-82275000D01*
G75*
G02*
X112537500Y-82037500I0J237500D01*
G01*
G37*
G36*
G01*
X110712500Y-82037500D02*
X110712500Y-81562500D01*
G75*
G02*
X110950000Y-81325000I237500J0D01*
G01*
X111450000Y-81325000D01*
G75*
G02*
X111687500Y-81562500I0J-237500D01*
G01*
X111687500Y-82037500D01*
G75*
G02*
X111450000Y-82275000I-237500J0D01*
G01*
X110950000Y-82275000D01*
G75*
G02*
X110712500Y-82037500I0J237500D01*
G01*
G37*
G36*
G01*
X115720000Y-84795000D02*
X115420000Y-84795000D01*
G75*
G02*
X115270000Y-84645000I0J150000D01*
G01*
X115270000Y-82995000D01*
G75*
G02*
X115420000Y-82845000I150000J0D01*
G01*
X115720000Y-82845000D01*
G75*
G02*
X115870000Y-82995000I0J-150000D01*
G01*
X115870000Y-84645000D01*
G75*
G02*
X115720000Y-84795000I-150000J0D01*
G01*
G37*
G36*
G01*
X116990000Y-84795000D02*
X116690000Y-84795000D01*
G75*
G02*
X116540000Y-84645000I0J150000D01*
G01*
X116540000Y-82995000D01*
G75*
G02*
X116690000Y-82845000I150000J0D01*
G01*
X116990000Y-82845000D01*
G75*
G02*
X117140000Y-82995000I0J-150000D01*
G01*
X117140000Y-84645000D01*
G75*
G02*
X116990000Y-84795000I-150000J0D01*
G01*
G37*
G36*
G01*
X118260000Y-84795000D02*
X117960000Y-84795000D01*
G75*
G02*
X117810000Y-84645000I0J150000D01*
G01*
X117810000Y-82995000D01*
G75*
G02*
X117960000Y-82845000I150000J0D01*
G01*
X118260000Y-82845000D01*
G75*
G02*
X118410000Y-82995000I0J-150000D01*
G01*
X118410000Y-84645000D01*
G75*
G02*
X118260000Y-84795000I-150000J0D01*
G01*
G37*
G36*
G01*
X119530000Y-84795000D02*
X119230000Y-84795000D01*
G75*
G02*
X119080000Y-84645000I0J150000D01*
G01*
X119080000Y-82995000D01*
G75*
G02*
X119230000Y-82845000I150000J0D01*
G01*
X119530000Y-82845000D01*
G75*
G02*
X119680000Y-82995000I0J-150000D01*
G01*
X119680000Y-84645000D01*
G75*
G02*
X119530000Y-84795000I-150000J0D01*
G01*
G37*
G36*
G01*
X120800000Y-84795000D02*
X120500000Y-84795000D01*
G75*
G02*
X120350000Y-84645000I0J150000D01*
G01*
X120350000Y-82995000D01*
G75*
G02*
X120500000Y-82845000I150000J0D01*
G01*
X120800000Y-82845000D01*
G75*
G02*
X120950000Y-82995000I0J-150000D01*
G01*
X120950000Y-84645000D01*
G75*
G02*
X120800000Y-84795000I-150000J0D01*
G01*
G37*
G36*
G01*
X122070000Y-84795000D02*
X121770000Y-84795000D01*
G75*
G02*
X121620000Y-84645000I0J150000D01*
G01*
X121620000Y-82995000D01*
G75*
G02*
X121770000Y-82845000I150000J0D01*
G01*
X122070000Y-82845000D01*
G75*
G02*
X122220000Y-82995000I0J-150000D01*
G01*
X122220000Y-84645000D01*
G75*
G02*
X122070000Y-84795000I-150000J0D01*
G01*
G37*
G36*
G01*
X123340000Y-84795000D02*
X123040000Y-84795000D01*
G75*
G02*
X122890000Y-84645000I0J150000D01*
G01*
X122890000Y-82995000D01*
G75*
G02*
X123040000Y-82845000I150000J0D01*
G01*
X123340000Y-82845000D01*
G75*
G02*
X123490000Y-82995000I0J-150000D01*
G01*
X123490000Y-84645000D01*
G75*
G02*
X123340000Y-84795000I-150000J0D01*
G01*
G37*
G36*
G01*
X123340000Y-89745000D02*
X123040000Y-89745000D01*
G75*
G02*
X122890000Y-89595000I0J150000D01*
G01*
X122890000Y-87945000D01*
G75*
G02*
X123040000Y-87795000I150000J0D01*
G01*
X123340000Y-87795000D01*
G75*
G02*
X123490000Y-87945000I0J-150000D01*
G01*
X123490000Y-89595000D01*
G75*
G02*
X123340000Y-89745000I-150000J0D01*
G01*
G37*
G36*
G01*
X122070000Y-89745000D02*
X121770000Y-89745000D01*
G75*
G02*
X121620000Y-89595000I0J150000D01*
G01*
X121620000Y-87945000D01*
G75*
G02*
X121770000Y-87795000I150000J0D01*
G01*
X122070000Y-87795000D01*
G75*
G02*
X122220000Y-87945000I0J-150000D01*
G01*
X122220000Y-89595000D01*
G75*
G02*
X122070000Y-89745000I-150000J0D01*
G01*
G37*
G36*
G01*
X120800000Y-89745000D02*
X120500000Y-89745000D01*
G75*
G02*
X120350000Y-89595000I0J150000D01*
G01*
X120350000Y-87945000D01*
G75*
G02*
X120500000Y-87795000I150000J0D01*
G01*
X120800000Y-87795000D01*
G75*
G02*
X120950000Y-87945000I0J-150000D01*
G01*
X120950000Y-89595000D01*
G75*
G02*
X120800000Y-89745000I-150000J0D01*
G01*
G37*
G36*
G01*
X119530000Y-89745000D02*
X119230000Y-89745000D01*
G75*
G02*
X119080000Y-89595000I0J150000D01*
G01*
X119080000Y-87945000D01*
G75*
G02*
X119230000Y-87795000I150000J0D01*
G01*
X119530000Y-87795000D01*
G75*
G02*
X119680000Y-87945000I0J-150000D01*
G01*
X119680000Y-89595000D01*
G75*
G02*
X119530000Y-89745000I-150000J0D01*
G01*
G37*
G36*
G01*
X118260000Y-89745000D02*
X117960000Y-89745000D01*
G75*
G02*
X117810000Y-89595000I0J150000D01*
G01*
X117810000Y-87945000D01*
G75*
G02*
X117960000Y-87795000I150000J0D01*
G01*
X118260000Y-87795000D01*
G75*
G02*
X118410000Y-87945000I0J-150000D01*
G01*
X118410000Y-89595000D01*
G75*
G02*
X118260000Y-89745000I-150000J0D01*
G01*
G37*
G36*
G01*
X116990000Y-89745000D02*
X116690000Y-89745000D01*
G75*
G02*
X116540000Y-89595000I0J150000D01*
G01*
X116540000Y-87945000D01*
G75*
G02*
X116690000Y-87795000I150000J0D01*
G01*
X116990000Y-87795000D01*
G75*
G02*
X117140000Y-87945000I0J-150000D01*
G01*
X117140000Y-89595000D01*
G75*
G02*
X116990000Y-89745000I-150000J0D01*
G01*
G37*
G36*
G01*
X115720000Y-89745000D02*
X115420000Y-89745000D01*
G75*
G02*
X115270000Y-89595000I0J150000D01*
G01*
X115270000Y-87945000D01*
G75*
G02*
X115420000Y-87795000I150000J0D01*
G01*
X115720000Y-87795000D01*
G75*
G02*
X115870000Y-87945000I0J-150000D01*
G01*
X115870000Y-89595000D01*
G75*
G02*
X115720000Y-89745000I-150000J0D01*
G01*
G37*
D10*
X106440000Y-81330000D03*
X101840000Y-81330000D03*
X104140000Y-81330000D03*
D11*
X104140000Y-87630000D03*
G36*
G01*
X127237500Y-79942500D02*
X126762500Y-79942500D01*
G75*
G02*
X126525000Y-79705000I0J237500D01*
G01*
X126525000Y-79205000D01*
G75*
G02*
X126762500Y-78967500I237500J0D01*
G01*
X127237500Y-78967500D01*
G75*
G02*
X127475000Y-79205000I0J-237500D01*
G01*
X127475000Y-79705000D01*
G75*
G02*
X127237500Y-79942500I-237500J0D01*
G01*
G37*
G36*
G01*
X127237500Y-81767500D02*
X126762500Y-81767500D01*
G75*
G02*
X126525000Y-81530000I0J237500D01*
G01*
X126525000Y-81030000D01*
G75*
G02*
X126762500Y-80792500I237500J0D01*
G01*
X127237500Y-80792500D01*
G75*
G02*
X127475000Y-81030000I0J-237500D01*
G01*
X127475000Y-81530000D01*
G75*
G02*
X127237500Y-81767500I-237500J0D01*
G01*
G37*
G36*
G01*
X122337500Y-72937500D02*
X122337500Y-72462500D01*
G75*
G02*
X122575000Y-72225000I237500J0D01*
G01*
X123075000Y-72225000D01*
G75*
G02*
X123312500Y-72462500I0J-237500D01*
G01*
X123312500Y-72937500D01*
G75*
G02*
X123075000Y-73175000I-237500J0D01*
G01*
X122575000Y-73175000D01*
G75*
G02*
X122337500Y-72937500I0J237500D01*
G01*
G37*
G36*
G01*
X120512500Y-72937500D02*
X120512500Y-72462500D01*
G75*
G02*
X120750000Y-72225000I237500J0D01*
G01*
X121250000Y-72225000D01*
G75*
G02*
X121487500Y-72462500I0J-237500D01*
G01*
X121487500Y-72937500D01*
G75*
G02*
X121250000Y-73175000I-237500J0D01*
G01*
X120750000Y-73175000D01*
G75*
G02*
X120512500Y-72937500I0J237500D01*
G01*
G37*
G36*
G01*
X112762500Y-78312500D02*
X113237500Y-78312500D01*
G75*
G02*
X113475000Y-78550000I0J-237500D01*
G01*
X113475000Y-79050000D01*
G75*
G02*
X113237500Y-79287500I-237500J0D01*
G01*
X112762500Y-79287500D01*
G75*
G02*
X112525000Y-79050000I0J237500D01*
G01*
X112525000Y-78550000D01*
G75*
G02*
X112762500Y-78312500I237500J0D01*
G01*
G37*
G36*
G01*
X112762500Y-76487500D02*
X113237500Y-76487500D01*
G75*
G02*
X113475000Y-76725000I0J-237500D01*
G01*
X113475000Y-77225000D01*
G75*
G02*
X113237500Y-77462500I-237500J0D01*
G01*
X112762500Y-77462500D01*
G75*
G02*
X112525000Y-77225000I0J237500D01*
G01*
X112525000Y-76725000D01*
G75*
G02*
X112762500Y-76487500I237500J0D01*
G01*
G37*
G36*
G01*
X136262500Y-86237500D02*
X136737500Y-86237500D01*
G75*
G02*
X136975000Y-86475000I0J-237500D01*
G01*
X136975000Y-86975000D01*
G75*
G02*
X136737500Y-87212500I-237500J0D01*
G01*
X136262500Y-87212500D01*
G75*
G02*
X136025000Y-86975000I0J237500D01*
G01*
X136025000Y-86475000D01*
G75*
G02*
X136262500Y-86237500I237500J0D01*
G01*
G37*
G36*
G01*
X136262500Y-84412500D02*
X136737500Y-84412500D01*
G75*
G02*
X136975000Y-84650000I0J-237500D01*
G01*
X136975000Y-85150000D01*
G75*
G02*
X136737500Y-85387500I-237500J0D01*
G01*
X136262500Y-85387500D01*
G75*
G02*
X136025000Y-85150000I0J237500D01*
G01*
X136025000Y-84650000D01*
G75*
G02*
X136262500Y-84412500I237500J0D01*
G01*
G37*
G36*
G01*
X134362500Y-89212500D02*
X134837500Y-89212500D01*
G75*
G02*
X135075000Y-89450000I0J-237500D01*
G01*
X135075000Y-89950000D01*
G75*
G02*
X134837500Y-90187500I-237500J0D01*
G01*
X134362500Y-90187500D01*
G75*
G02*
X134125000Y-89950000I0J237500D01*
G01*
X134125000Y-89450000D01*
G75*
G02*
X134362500Y-89212500I237500J0D01*
G01*
G37*
G36*
G01*
X134362500Y-87387500D02*
X134837500Y-87387500D01*
G75*
G02*
X135075000Y-87625000I0J-237500D01*
G01*
X135075000Y-88125000D01*
G75*
G02*
X134837500Y-88362500I-237500J0D01*
G01*
X134362500Y-88362500D01*
G75*
G02*
X134125000Y-88125000I0J237500D01*
G01*
X134125000Y-87625000D01*
G75*
G02*
X134362500Y-87387500I237500J0D01*
G01*
G37*
G36*
G01*
X133162500Y-84862500D02*
X133162500Y-85337500D01*
G75*
G02*
X132925000Y-85575000I-237500J0D01*
G01*
X132425000Y-85575000D01*
G75*
G02*
X132187500Y-85337500I0J237500D01*
G01*
X132187500Y-84862500D01*
G75*
G02*
X132425000Y-84625000I237500J0D01*
G01*
X132925000Y-84625000D01*
G75*
G02*
X133162500Y-84862500I0J-237500D01*
G01*
G37*
G36*
G01*
X134987500Y-84862500D02*
X134987500Y-85337500D01*
G75*
G02*
X134750000Y-85575000I-237500J0D01*
G01*
X134250000Y-85575000D01*
G75*
G02*
X134012500Y-85337500I0J237500D01*
G01*
X134012500Y-84862500D01*
G75*
G02*
X134250000Y-84625000I237500J0D01*
G01*
X134750000Y-84625000D01*
G75*
G02*
X134987500Y-84862500I0J-237500D01*
G01*
G37*
G36*
G01*
X131762500Y-92512500D02*
X132237500Y-92512500D01*
G75*
G02*
X132475000Y-92750000I0J-237500D01*
G01*
X132475000Y-93250000D01*
G75*
G02*
X132237500Y-93487500I-237500J0D01*
G01*
X131762500Y-93487500D01*
G75*
G02*
X131525000Y-93250000I0J237500D01*
G01*
X131525000Y-92750000D01*
G75*
G02*
X131762500Y-92512500I237500J0D01*
G01*
G37*
G36*
G01*
X131762500Y-90687500D02*
X132237500Y-90687500D01*
G75*
G02*
X132475000Y-90925000I0J-237500D01*
G01*
X132475000Y-91425000D01*
G75*
G02*
X132237500Y-91662500I-237500J0D01*
G01*
X131762500Y-91662500D01*
G75*
G02*
X131525000Y-91425000I0J237500D01*
G01*
X131525000Y-90925000D01*
G75*
G02*
X131762500Y-90687500I237500J0D01*
G01*
G37*
G36*
G01*
X127237500Y-83487500D02*
X126762500Y-83487500D01*
G75*
G02*
X126525000Y-83250000I0J237500D01*
G01*
X126525000Y-82750000D01*
G75*
G02*
X126762500Y-82512500I237500J0D01*
G01*
X127237500Y-82512500D01*
G75*
G02*
X127475000Y-82750000I0J-237500D01*
G01*
X127475000Y-83250000D01*
G75*
G02*
X127237500Y-83487500I-237500J0D01*
G01*
G37*
G36*
G01*
X127237500Y-85312500D02*
X126762500Y-85312500D01*
G75*
G02*
X126525000Y-85075000I0J237500D01*
G01*
X126525000Y-84575000D01*
G75*
G02*
X126762500Y-84337500I237500J0D01*
G01*
X127237500Y-84337500D01*
G75*
G02*
X127475000Y-84575000I0J-237500D01*
G01*
X127475000Y-85075000D01*
G75*
G02*
X127237500Y-85312500I-237500J0D01*
G01*
G37*
G36*
G01*
X124587500Y-92462500D02*
X124587500Y-92937500D01*
G75*
G02*
X124350000Y-93175000I-237500J0D01*
G01*
X123850000Y-93175000D01*
G75*
G02*
X123612500Y-92937500I0J237500D01*
G01*
X123612500Y-92462500D01*
G75*
G02*
X123850000Y-92225000I237500J0D01*
G01*
X124350000Y-92225000D01*
G75*
G02*
X124587500Y-92462500I0J-237500D01*
G01*
G37*
G36*
G01*
X126412500Y-92462500D02*
X126412500Y-92937500D01*
G75*
G02*
X126175000Y-93175000I-237500J0D01*
G01*
X125675000Y-93175000D01*
G75*
G02*
X125437500Y-92937500I0J237500D01*
G01*
X125437500Y-92462500D01*
G75*
G02*
X125675000Y-92225000I237500J0D01*
G01*
X126175000Y-92225000D01*
G75*
G02*
X126412500Y-92462500I0J-237500D01*
G01*
G37*
G36*
G01*
X120262500Y-91562500D02*
X120262500Y-92037500D01*
G75*
G02*
X120025000Y-92275000I-237500J0D01*
G01*
X119525000Y-92275000D01*
G75*
G02*
X119287500Y-92037500I0J237500D01*
G01*
X119287500Y-91562500D01*
G75*
G02*
X119525000Y-91325000I237500J0D01*
G01*
X120025000Y-91325000D01*
G75*
G02*
X120262500Y-91562500I0J-237500D01*
G01*
G37*
G36*
G01*
X122087500Y-91562500D02*
X122087500Y-92037500D01*
G75*
G02*
X121850000Y-92275000I-237500J0D01*
G01*
X121350000Y-92275000D01*
G75*
G02*
X121112500Y-92037500I0J237500D01*
G01*
X121112500Y-91562500D01*
G75*
G02*
X121350000Y-91325000I237500J0D01*
G01*
X121850000Y-91325000D01*
G75*
G02*
X122087500Y-91562500I0J-237500D01*
G01*
G37*
G36*
G01*
X119437500Y-95062500D02*
X118962500Y-95062500D01*
G75*
G02*
X118725000Y-94825000I0J237500D01*
G01*
X118725000Y-94325000D01*
G75*
G02*
X118962500Y-94087500I237500J0D01*
G01*
X119437500Y-94087500D01*
G75*
G02*
X119675000Y-94325000I0J-237500D01*
G01*
X119675000Y-94825000D01*
G75*
G02*
X119437500Y-95062500I-237500J0D01*
G01*
G37*
G36*
G01*
X119437500Y-96887500D02*
X118962500Y-96887500D01*
G75*
G02*
X118725000Y-96650000I0J237500D01*
G01*
X118725000Y-96150000D01*
G75*
G02*
X118962500Y-95912500I237500J0D01*
G01*
X119437500Y-95912500D01*
G75*
G02*
X119675000Y-96150000I0J-237500D01*
G01*
X119675000Y-96650000D01*
G75*
G02*
X119437500Y-96887500I-237500J0D01*
G01*
G37*
G36*
G01*
X106987500Y-90662500D02*
X106987500Y-91137500D01*
G75*
G02*
X106750000Y-91375000I-237500J0D01*
G01*
X106250000Y-91375000D01*
G75*
G02*
X106012500Y-91137500I0J237500D01*
G01*
X106012500Y-90662500D01*
G75*
G02*
X106250000Y-90425000I237500J0D01*
G01*
X106750000Y-90425000D01*
G75*
G02*
X106987500Y-90662500I0J-237500D01*
G01*
G37*
G36*
G01*
X108812500Y-90662500D02*
X108812500Y-91137500D01*
G75*
G02*
X108575000Y-91375000I-237500J0D01*
G01*
X108075000Y-91375000D01*
G75*
G02*
X107837500Y-91137500I0J237500D01*
G01*
X107837500Y-90662500D01*
G75*
G02*
X108075000Y-90425000I237500J0D01*
G01*
X108575000Y-90425000D01*
G75*
G02*
X108812500Y-90662500I0J-237500D01*
G01*
G37*
G36*
G01*
X110252500Y-92777500D02*
X110727500Y-92777500D01*
G75*
G02*
X110965000Y-93015000I0J-237500D01*
G01*
X110965000Y-93515000D01*
G75*
G02*
X110727500Y-93752500I-237500J0D01*
G01*
X110252500Y-93752500D01*
G75*
G02*
X110015000Y-93515000I0J237500D01*
G01*
X110015000Y-93015000D01*
G75*
G02*
X110252500Y-92777500I237500J0D01*
G01*
G37*
G36*
G01*
X110252500Y-90952500D02*
X110727500Y-90952500D01*
G75*
G02*
X110965000Y-91190000I0J-237500D01*
G01*
X110965000Y-91690000D01*
G75*
G02*
X110727500Y-91927500I-237500J0D01*
G01*
X110252500Y-91927500D01*
G75*
G02*
X110015000Y-91690000I0J237500D01*
G01*
X110015000Y-91190000D01*
G75*
G02*
X110252500Y-90952500I237500J0D01*
G01*
G37*
D12*
X131540000Y-72390000D03*
X129540000Y-73340000D03*
X129540000Y-71440000D03*
X124460000Y-72710000D03*
X126460000Y-71760000D03*
X126460000Y-73660000D03*
X118110000Y-78740000D03*
X116110000Y-79690000D03*
X116110000Y-77790000D03*
X132080000Y-80010000D03*
X130080000Y-80960000D03*
X130080000Y-79060000D03*
X134600000Y-92450000D03*
X136600000Y-91500000D03*
X136600000Y-93400000D03*
X134080000Y-98110000D03*
X132080000Y-99060000D03*
X132080000Y-97160000D03*
D13*
X122250000Y-97100000D03*
X123200000Y-99100000D03*
X121300000Y-99100000D03*
D12*
X118200000Y-99550000D03*
X116200000Y-100500000D03*
X116200000Y-98600000D03*
D14*
X106200000Y-96520000D03*
X93980000Y-96520000D03*
D15*
X135890000Y-72390000D03*
X135890000Y-80010000D03*
D16*
X83820000Y-97790000D03*
D17*
X83820000Y-92710000D03*
D18*
X81290000Y-78840000D03*
D19*
X85090000Y-85290000D03*
X85090000Y-72390000D03*
D20*
X94090000Y-79540000D03*
G36*
G01*
X120995000Y-78700000D02*
X122845000Y-78700000D01*
G75*
G02*
X123095000Y-78950000I0J-250000D01*
G01*
X123095000Y-79950000D01*
G75*
G02*
X122845000Y-80200000I-250000J0D01*
G01*
X120995000Y-80200000D01*
G75*
G02*
X120745000Y-79950000I0J250000D01*
G01*
X120745000Y-78950000D01*
G75*
G02*
X120995000Y-78700000I250000J0D01*
G01*
G37*
G36*
G01*
X120995000Y-75450000D02*
X122845000Y-75450000D01*
G75*
G02*
X123095000Y-75700000I0J-250000D01*
G01*
X123095000Y-76700000D01*
G75*
G02*
X122845000Y-76950000I-250000J0D01*
G01*
X120995000Y-76950000D01*
G75*
G02*
X120745000Y-76700000I0J250000D01*
G01*
X120745000Y-75700000D01*
G75*
G02*
X120995000Y-75450000I250000J0D01*
G01*
G37*
G36*
G01*
X128310000Y-86705000D02*
X128310000Y-88555000D01*
G75*
G02*
X128060000Y-88805000I-250000J0D01*
G01*
X127060000Y-88805000D01*
G75*
G02*
X126810000Y-88555000I0J250000D01*
G01*
X126810000Y-86705000D01*
G75*
G02*
X127060000Y-86455000I250000J0D01*
G01*
X128060000Y-86455000D01*
G75*
G02*
X128310000Y-86705000I0J-250000D01*
G01*
G37*
G36*
G01*
X131560000Y-86705000D02*
X131560000Y-88555000D01*
G75*
G02*
X131310000Y-88805000I-250000J0D01*
G01*
X130310000Y-88805000D01*
G75*
G02*
X130060000Y-88555000I0J250000D01*
G01*
X130060000Y-86705000D01*
G75*
G02*
X130310000Y-86455000I250000J0D01*
G01*
X131310000Y-86455000D01*
G75*
G02*
X131560000Y-86705000I0J-250000D01*
G01*
G37*
G36*
G01*
X124975000Y-98310000D02*
X126825000Y-98310000D01*
G75*
G02*
X127075000Y-98560000I0J-250000D01*
G01*
X127075000Y-99560000D01*
G75*
G02*
X126825000Y-99810000I-250000J0D01*
G01*
X124975000Y-99810000D01*
G75*
G02*
X124725000Y-99560000I0J250000D01*
G01*
X124725000Y-98560000D01*
G75*
G02*
X124975000Y-98310000I250000J0D01*
G01*
G37*
G36*
G01*
X124975000Y-95060000D02*
X126825000Y-95060000D01*
G75*
G02*
X127075000Y-95310000I0J-250000D01*
G01*
X127075000Y-96310000D01*
G75*
G02*
X126825000Y-96560000I-250000J0D01*
G01*
X124975000Y-96560000D01*
G75*
G02*
X124725000Y-96310000I0J250000D01*
G01*
X124725000Y-95310000D01*
G75*
G02*
X124975000Y-95060000I250000J0D01*
G01*
G37*
G36*
G01*
X115332500Y-92627500D02*
X115807500Y-92627500D01*
G75*
G02*
X116045000Y-92865000I0J-237500D01*
G01*
X116045000Y-93465000D01*
G75*
G02*
X115807500Y-93702500I-237500J0D01*
G01*
X115332500Y-93702500D01*
G75*
G02*
X115095000Y-93465000I0J237500D01*
G01*
X115095000Y-92865000D01*
G75*
G02*
X115332500Y-92627500I237500J0D01*
G01*
G37*
G36*
G01*
X115332500Y-90902500D02*
X115807500Y-90902500D01*
G75*
G02*
X116045000Y-91140000I0J-237500D01*
G01*
X116045000Y-91740000D01*
G75*
G02*
X115807500Y-91977500I-237500J0D01*
G01*
X115332500Y-91977500D01*
G75*
G02*
X115095000Y-91740000I0J237500D01*
G01*
X115095000Y-91140000D01*
G75*
G02*
X115332500Y-90902500I237500J0D01*
G01*
G37*
G36*
G01*
X112362500Y-88862500D02*
X112837500Y-88862500D01*
G75*
G02*
X113075000Y-89100000I0J-237500D01*
G01*
X113075000Y-89700000D01*
G75*
G02*
X112837500Y-89937500I-237500J0D01*
G01*
X112362500Y-89937500D01*
G75*
G02*
X112125000Y-89700000I0J237500D01*
G01*
X112125000Y-89100000D01*
G75*
G02*
X112362500Y-88862500I237500J0D01*
G01*
G37*
G36*
G01*
X112362500Y-87137500D02*
X112837500Y-87137500D01*
G75*
G02*
X113075000Y-87375000I0J-237500D01*
G01*
X113075000Y-87975000D01*
G75*
G02*
X112837500Y-88212500I-237500J0D01*
G01*
X112362500Y-88212500D01*
G75*
G02*
X112125000Y-87975000I0J237500D01*
G01*
X112125000Y-87375000D01*
G75*
G02*
X112362500Y-87137500I237500J0D01*
G01*
G37*
G36*
G01*
X107300000Y-78125000D02*
X107300000Y-76275000D01*
G75*
G02*
X107550000Y-76025000I250000J0D01*
G01*
X108550000Y-76025000D01*
G75*
G02*
X108800000Y-76275000I0J-250000D01*
G01*
X108800000Y-78125000D01*
G75*
G02*
X108550000Y-78375000I-250000J0D01*
G01*
X107550000Y-78375000D01*
G75*
G02*
X107300000Y-78125000I0J250000D01*
G01*
G37*
G36*
G01*
X104050000Y-78125000D02*
X104050000Y-76275000D01*
G75*
G02*
X104300000Y-76025000I250000J0D01*
G01*
X105300000Y-76025000D01*
G75*
G02*
X105550000Y-76275000I0J-250000D01*
G01*
X105550000Y-78125000D01*
G75*
G02*
X105300000Y-78375000I-250000J0D01*
G01*
X104300000Y-78375000D01*
G75*
G02*
X104050000Y-78125000I0J250000D01*
G01*
G37*
G36*
G01*
X101325000Y-75550000D02*
X99475000Y-75550000D01*
G75*
G02*
X99225000Y-75300000I0J250000D01*
G01*
X99225000Y-74300000D01*
G75*
G02*
X99475000Y-74050000I250000J0D01*
G01*
X101325000Y-74050000D01*
G75*
G02*
X101575000Y-74300000I0J-250000D01*
G01*
X101575000Y-75300000D01*
G75*
G02*
X101325000Y-75550000I-250000J0D01*
G01*
G37*
G36*
G01*
X101325000Y-78800000D02*
X99475000Y-78800000D01*
G75*
G02*
X99225000Y-78550000I0J250000D01*
G01*
X99225000Y-77550000D01*
G75*
G02*
X99475000Y-77300000I250000J0D01*
G01*
X101325000Y-77300000D01*
G75*
G02*
X101575000Y-77550000I0J-250000D01*
G01*
X101575000Y-78550000D01*
G75*
G02*
X101325000Y-78800000I-250000J0D01*
G01*
G37*
M02*
